<svg width="20" height="20" viewBox="0 0 20 20" fill="none" xmlns="http://www.w3.org/2000/svg">
<path d="M10.0002 2.70898C10.1659 2.70898 10.3249 2.77483 10.4421 2.89204C10.5593 3.00925 10.6252 3.16822 10.6252 3.33398C10.6252 3.49974 10.5593 3.65872 10.4421 3.77593C10.3249 3.89314 10.1659 3.95898 10.0002 3.95898C8.39781 3.95898 6.86109 4.59552 5.72806 5.72855C4.59503 6.86158 3.9585 8.3983 3.9585 10.0007C3.9585 11.603 4.59503 13.1397 5.72806 14.2728C6.86109 15.4058 8.39781 16.0423 10.0002 16.0423C10.1659 16.0423 10.3249 16.1082 10.4421 16.2254C10.5593 16.3426 10.6252 16.5016 10.6252 16.6673C10.6252 16.8331 10.5593 16.992 10.4421 17.1093C10.3249 17.2265 10.1659 17.2923 10.0002 17.2923C8.06629 17.2923 6.21163 16.5241 4.84418 15.1566C3.47672 13.7892 2.7085 11.9345 2.7085 10.0007C2.7085 8.06678 3.47672 6.21212 4.84418 4.84466C6.21163 3.47721 8.06629 2.70898 10.0002 2.70898Z" fill="black"/>
<path d="M13.7252 7.9417C13.6148 7.82322 13.5547 7.66652 13.5575 7.5046C13.5604 7.34268 13.626 7.18819 13.7405 7.07368C13.855 6.95917 14.0095 6.89358 14.1714 6.89072C14.3333 6.88787 14.49 6.94797 14.6085 7.05837L17.1085 9.55837C17.2255 9.67556 17.2913 9.83441 17.2913 10C17.2913 10.1657 17.2255 10.3245 17.1085 10.4417L14.6085 12.9417C14.5513 13.0031 14.4823 13.0524 14.4056 13.0865C14.3289 13.1207 14.2462 13.139 14.1623 13.1405C14.0783 13.142 13.995 13.1266 13.9172 13.0951C13.8393 13.0637 13.7686 13.0169 13.7093 12.9576C13.6499 12.8982 13.6032 12.8275 13.5717 12.7497C13.5403 12.6719 13.5249 12.5885 13.5263 12.5046C13.5278 12.4207 13.5462 12.3379 13.5803 12.2613C13.6145 12.1846 13.6638 12.1156 13.7252 12.0584L15.1585 10.625H8.3335C8.16774 10.625 8.00876 10.5592 7.89155 10.442C7.77434 10.3248 7.7085 10.1658 7.7085 10C7.7085 9.83427 7.77434 9.6753 7.89155 9.55809C8.00876 9.44088 8.16774 9.37504 8.3335 9.37504H15.1585L13.7252 7.9417Z" fill="black"/>
</svg>
