0
SECTION
2
ENTITIES
0
CIRCLE
8
0
10
0
20
0
40
63.0
0
ARC
8
0
10
0
20
0
40
42.0
50
107.046278
51
132.953722
0
LINE
8
0
62
1
10
10.8704
20
40.568885
11
15.011505
21
56.023698
0
ARC
8
0
62
1
10
0
20
0
40
42.0
50
102.953722
51
107.046278
0
LINE
8
0
62
1
10
29.698485
20
29.698485
11
41.012193
21
41.012193
0
ARC
8
0
62
1
10
0
20
0
40
42.0
50
132.953722
51
137.046278
0
LINE
8
0
62
1
10
40.568885
20
10.8704
11
56.023698
21
15.011505
0
ARC
8
0
62
1
10
0
20
0
40
42.0
50
162.953722
51
167.046278
0
LINE
8
0
62
1
10
40.568885
20
-10.8704
11
56.023698
21
-15.011505
0
ARC
8
0
62
1
10
0
20
0
40
42.0
50
192.953722
51
197.046278
0
LINE
8
0
62
1
10
29.698485
20
-29.698485
11
41.012193
21
-41.012193
0
ARC
8
0
62
1
10
0
20
0
40
42.0
50
222.953722
51
227.046278
0
LINE
8
0
62
1
10
10.8704
20
-40.568885
11
15.011505
21
-56.023698
0
ARC
8
0
62
1
10
0
20
0
40
42.0
50
252.953722
51
257.046278
0
LINE
8
0
62
1
10
-10.8704
20
-40.568885
11
-15.011505
21
-56.023698
0
ARC
8
0
62
1
10
0
20
0
40
42.0
50
282.953722
51
287.046278
0
LINE
8
0
62
1
10
-29.698485
20
-29.698485
11
-41.012193
21
-41.012193
0
ARC
8
0
62
1
10
0
20
0
40
42.0
50
312.953722
51
317.046278
0
LINE
8
0
62
1
10
-40.568885
20
-10.8704
11
-56.023698
21
-15.011505
0
ARC
8
0
62
1
10
0
20
0
40
42.0
50
342.953722
51
347.046278
0
LINE
8
0
62
1
10
-40.568885
20
10.8704
11
-56.023698
21
15.011505
0
ARC
8
0
62
1
10
0
20
0
40
42.0
50
372.953722
51
377.046278
0
LINE
8
0
62
1
10
-29.698485
20
29.698485
11
-41.012193
21
41.012193
0
ARC
8
0
62
1
10
0
20
0
40
42.0
50
402.953722
51
407.046278
0
LINE
8
0
62
1
10
-10.8704
20
40.568885
11
-15.011505
21
56.023698
0
ARC
8
0
62
1
10
0
20
0
40
42.0
50
432.953722
51
437.046278
0
LINE
8
0
10
12.312049
20
40.154868
11
17.1755
21
40.1139
0
LINE
8
0
10
28.619112
20
30.739981
11
26.151906
21
34.931369
0
LINE
8
0
10
17.1755
20
40.1139
11
24.567542
21
52.53985
0
LINE
8
0
10
26.151906
20
34.931369
11
33.217074
21
47.546041
0
ARC
8
0
10
0
20
0
40
42.0
50
137.046278
51
162.953722
0
LINE
8
0
62
1
10
10.8704
20
40.568885
11
15.011505
21
56.023698
0
ARC
8
0
62
1
10
0
20
0
40
42.0
50
102.953722
51
107.046278
0
LINE
8
0
62
1
10
29.698485
20
29.698485
11
41.012193
21
41.012193
0
ARC
8
0
62
1
10
0
20
0
40
42.0
50
132.953722
51
137.046278
0
LINE
8
0
62
1
10
40.568885
20
10.8704
11
56.023698
21
15.011505
0
ARC
8
0
62
1
10
0
20
0
40
42.0
50
162.953722
51
167.046278
0
LINE
8
0
62
1
10
40.568885
20
-10.8704
11
56.023698
21
-15.011505
0
ARC
8
0
62
1
10
0
20
0
40
42.0
50
192.953722
51
197.046278
0
LINE
8
0
62
1
10
29.698485
20
-29.698485
11
41.012193
21
-41.012193
0
ARC
8
0
62
1
10
0
20
0
40
42.0
50
222.953722
51
227.046278
0
LINE
8
0
62
1
10
10.8704
20
-40.568885
11
15.011505
21
-56.023698
0
ARC
8
0
62
1
10
0
20
0
40
42.0
50
252.953722
51
257.046278
0
LINE
8
0
62
1
10
-10.8704
20
-40.568885
11
-15.011505
21
-56.023698
0
ARC
8
0
62
1
10
0
20
0
40
42.0
50
282.953722
51
287.046278
0
LINE
8
0
62
1
10
-29.698485
20
-29.698485
11
-41.012193
21
-41.012193
0
ARC
8
0
62
1
10
0
20
0
40
42.0
50
312.953722
51
317.046278
0
LINE
8
0
62
1
10
-40.568885
20
-10.8704
11
-56.023698
21
-15.011505
0
ARC
8
0
62
1
10
0
20
0
40
42.0
50
342.953722
51
347.046278
0
LINE
8
0
62
1
10
-40.568885
20
10.8704
11
-56.023698
21
15.011505
0
ARC
8
0
62
1
10
0
20
0
40
42.0
50
372.953722
51
377.046278
0
LINE
8
0
62
1
10
-29.698485
20
29.698485
11
-41.012193
21
41.012193
0
ARC
8
0
62
1
10
0
20
0
40
42.0
50
402.953722
51
407.046278
0
LINE
8
0
62
1
10
-10.8704
20
40.568885
11
-15.011505
21
56.023698
0
ARC
8
0
62
1
10
0
20
0
40
42.0
50
432.953722
51
437.046278
0
LINE
8
0
10
30.739981
20
28.619112
11
34.931369
21
26.151906
0
LINE
8
0
10
40.154868
20
12.312049
11
40.1139
21
17.1755
0
LINE
8
0
10
34.931369
20
26.151906
11
47.546041
21
33.217074
0
LINE
8
0
10
40.1139
20
17.1755
11
52.53985
21
24.567542
0
ARC
8
0
10
0
20
0
40
42.0
50
167.046278
51
192.953722
0
LINE
8
0
62
1
10
10.8704
20
40.568885
11
15.011505
21
56.023698
0
ARC
8
0
62
1
10
0
20
0
40
42.0
50
102.953722
51
107.046278
0
LINE
8
0
62
1
10
29.698485
20
29.698485
11
41.012193
21
41.012193
0
ARC
8
0
62
1
10
0
20
0
40
42.0
50
132.953722
51
137.046278
0
LINE
8
0
62
1
10
40.568885
20
10.8704
11
56.023698
21
15.011505
0
ARC
8
0
62
1
10
0
20
0
40
42.0
50
162.953722
51
167.046278
0
LINE
8
0
62
1
10
40.568885
20
-10.8704
11
56.023698
21
-15.011505
0
ARC
8
0
62
1
10
0
20
0
40
42.0
50
192.953722
51
197.046278
0
LINE
8
0
62
1
10
29.698485
20
-29.698485
11
41.012193
21
-41.012193
0
ARC
8
0
62
1
10
0
20
0
40
42.0
50
222.953722
51
227.046278
0
LINE
8
0
62
1
10
10.8704
20
-40.568885
11
15.011505
21
-56.023698
0
ARC
8
0
62
1
10
0
20
0
40
42.0
50
252.953722
51
257.046278
0
LINE
8
0
62
1
10
-10.8704
20
-40.568885
11
-15.011505
21
-56.023698
0
ARC
8
0
62
1
10
0
20
0
40
42.0
50
282.953722
51
287.046278
0
LINE
8
0
62
1
10
-29.698485
20
-29.698485
11
-41.012193
21
-41.012193
0
ARC
8
0
62
1
10
0
20
0
40
42.0
50
312.953722
51
317.046278
0
LINE
8
0
62
1
10
-40.568885
20
-10.8704
11
-56.023698
21
-15.011505
0
ARC
8
0
62
1
10
0
20
0
40
42.0
50
342.953722
51
347.046278
0
LINE
8
0
62
1
10
-40.568885
20
10.8704
11
-56.023698
21
15.011505
0
ARC
8
0
62
1
10
0
20
0
40
42.0
50
372.953722
51
377.046278
0
LINE
8
0
62
1
10
-29.698485
20
29.698485
11
-41.012193
21
41.012193
0
ARC
8
0
62
1
10
0
20
0
40
42.0
50
402.953722
51
407.046278
0
LINE
8
0
62
1
10
-10.8704
20
40.568885
11
-15.011505
21
56.023698
0
ARC
8
0
62
1
10
0
20
0
40
42.0
50
432.953722
51
437.046278
0
LINE
8
0
10
40.93116
20
9.414887
11
43.327406
21
5.182531
0
LINE
8
0
10
40.93116
20
-9.414887
11
43.327406
21
-5.182531
0
LINE
8
0
10
43.327406
20
5.182531
11
57.784616
21
4.993809
0
LINE
8
0
10
43.327406
20
-5.182531
11
57.784616
21
-4.993809
0
ARC
8
0
10
0
20
0
40
42.0
50
197.046278
51
222.953722
0
LINE
8
0
62
1
10
10.8704
20
40.568885
11
15.011505
21
56.023698
0
ARC
8
0
62
1
10
0
20
0
40
42.0
50
102.953722
51
107.046278
0
LINE
8
0
62
1
10
29.698485
20
29.698485
11
41.012193
21
41.012193
0
ARC
8
0
62
1
10
0
20
0
40
42.0
50
132.953722
51
137.046278
0
LINE
8
0
62
1
10
40.568885
20
10.8704
11
56.023698
21
15.011505
0
ARC
8
0
62
1
10
0
20
0
40
42.0
50
162.953722
51
167.046278
0
LINE
8
0
62
1
10
40.568885
20
-10.8704
11
56.023698
21
-15.011505
0
ARC
8
0
62
1
10
0
20
0
40
42.0
50
192.953722
51
197.046278
0
LINE
8
0
62
1
10
29.698485
20
-29.698485
11
41.012193
21
-41.012193
0
ARC
8
0
62
1
10
0
20
0
40
42.0
50
222.953722
51
227.046278
0
LINE
8
0
62
1
10
10.8704
20
-40.568885
11
15.011505
21
-56.023698
0
ARC
8
0
62
1
10
0
20
0
40
42.0
50
252.953722
51
257.046278
0
LINE
8
0
62
1
10
-10.8704
20
-40.568885
11
-15.011505
21
-56.023698
0
ARC
8
0
62
1
10
0
20
0
40
42.0
50
282.953722
51
287.046278
0
LINE
8
0
62
1
10
-29.698485
20
-29.698485
11
-41.012193
21
-41.012193
0
ARC
8
0
62
1
10
0
20
0
40
42.0
50
312.953722
51
317.046278
0
LINE
8
0
62
1
10
-40.568885
20
-10.8704
11
-56.023698
21
-15.011505
0
ARC
8
0
62
1
10
0
20
0
40
42.0
50
342.953722
51
347.046278
0
LINE
8
0
62
1
10
-40.568885
20
10.8704
11
-56.023698
21
15.011505
0
ARC
8
0
62
1
10
0
20
0
40
42.0
50
372.953722
51
377.046278
0
LINE
8
0
62
1
10
-29.698485
20
29.698485
11
-41.012193
21
41.012193
0
ARC
8
0
62
1
10
0
20
0
40
42.0
50
402.953722
51
407.046278
0
LINE
8
0
62
1
10
-10.8704
20
40.568885
11
-15.011505
21
56.023698
0
ARC
8
0
62
1
10
0
20
0
40
42.0
50
432.953722
51
437.046278
0
LINE
8
0
10
40.154868
20
-12.312049
11
40.1139
21
-17.1755
0
LINE
8
0
10
30.739981
20
-28.619112
11
34.931369
21
-26.151906
0
LINE
8
0
10
40.1139
20
-17.1755
11
52.53985
21
-24.567542
0
LINE
8
0
10
34.931369
20
-26.151906
11
47.546041
21
-33.217074
0
ARC
8
0
10
0
20
0
40
42.0
50
227.046278
51
252.953722
0
LINE
8
0
62
1
10
10.8704
20
40.568885
11
15.011505
21
56.023698
0
ARC
8
0
62
1
10
0
20
0
40
42.0
50
102.953722
51
107.046278
0
LINE
8
0
62
1
10
29.698485
20
29.698485
11
41.012193
21
41.012193
0
ARC
8
0
62
1
10
0
20
0
40
42.0
50
132.953722
51
137.046278
0
LINE
8
0
62
1
10
40.568885
20
10.8704
11
56.023698
21
15.011505
0
ARC
8
0
62
1
10
0
20
0
40
42.0
50
162.953722
51
167.046278
0
LINE
8
0
62
1
10
40.568885
20
-10.8704
11
56.023698
21
-15.011505
0
ARC
8
0
62
1
10
0
20
0
40
42.0
50
192.953722
51
197.046278
0
LINE
8
0
62
1
10
29.698485
20
-29.698485
11
41.012193
21
-41.012193
0
ARC
8
0
62
1
10
0
20
0
40
42.0
50
222.953722
51
227.046278
0
LINE
8
0
62
1
10
10.8704
20
-40.568885
11
15.011505
21
-56.023698
0
ARC
8
0
62
1
10
0
20
0
40
42.0
50
252.953722
51
257.046278
0
LINE
8
0
62
1
10
-10.8704
20
-40.568885
11
-15.011505
21
-56.023698
0
ARC
8
0
62
1
10
0
20
0
40
42.0
50
282.953722
51
287.046278
0
LINE
8
0
62
1
10
-29.698485
20
-29.698485
11
-41.012193
21
-41.012193
0
ARC
8
0
62
1
10
0
20
0
40
42.0
50
312.953722
51
317.046278
0
LINE
8
0
62
1
10
-40.568885
20
-10.8704
11
-56.023698
21
-15.011505
0
ARC
8
0
62
1
10
0
20
0
40
42.0
50
342.953722
51
347.046278
0
LINE
8
0
62
1
10
-40.568885
20
10.8704
11
-56.023698
21
15.011505
0
ARC
8
0
62
1
10
0
20
0
40
42.0
50
372.953722
51
377.046278
0
LINE
8
0
62
1
10
-29.698485
20
29.698485
11
-41.012193
21
41.012193
0
ARC
8
0
62
1
10
0
20
0
40
42.0
50
402.953722
51
407.046278
0
LINE
8
0
62
1
10
-10.8704
20
40.568885
11
-15.011505
21
56.023698
0
ARC
8
0
62
1
10
0
20
0
40
42.0
50
432.953722
51
437.046278
0
LINE
8
0
10
28.619112
20
-30.739981
11
26.151906
21
-34.931369
0
LINE
8
0
10
12.312049
20
-40.154868
11
17.1755
21
-40.1139
0
LINE
8
0
10
26.151906
20
-34.931369
11
33.217074
21
-47.546041
0
LINE
8
0
10
17.1755
20
-40.1139
11
24.567542
21
-52.53985
0
ARC
8
0
10
0
20
0
40
42.0
50
257.046278
51
282.953722
0
LINE
8
0
62
1
10
10.8704
20
40.568885
11
15.011505
21
56.023698
0
ARC
8
0
62
1
10
0
20
0
40
42.0
50
102.953722
51
107.046278
0
LINE
8
0
62
1
10
29.698485
20
29.698485
11
41.012193
21
41.012193
0
ARC
8
0
62
1
10
0
20
0
40
42.0
50
132.953722
51
137.046278
0
LINE
8
0
62
1
10
40.568885
20
10.8704
11
56.023698
21
15.011505
0
ARC
8
0
62
1
10
0
20
0
40
42.0
50
162.953722
51
167.046278
0
LINE
8
0
62
1
10
40.568885
20
-10.8704
11
56.023698
21
-15.011505
0
ARC
8
0
62
1
10
0
20
0
40
42.0
50
192.953722
51
197.046278
0
LINE
8
0
62
1
10
29.698485
20
-29.698485
11
41.012193
21
-41.012193
0
ARC
8
0
62
1
10
0
20
0
40
42.0
50
222.953722
51
227.046278
0
LINE
8
0
62
1
10
10.8704
20
-40.568885
11
15.011505
21
-56.023698
0
ARC
8
0
62
1
10
0
20
0
40
42.0
50
252.953722
51
257.046278
0
LINE
8
0
62
1
10
-10.8704
20
-40.568885
11
-15.011505
21
-56.023698
0
ARC
8
0
62
1
10
0
20
0
40
42.0
50
282.953722
51
287.046278
0
LINE
8
0
62
1
10
-29.698485
20
-29.698485
11
-41.012193
21
-41.012193
0
ARC
8
0
62
1
10
0
20
0
40
42.0
50
312.953722
51
317.046278
0
LINE
8
0
62
1
10
-40.568885
20
-10.8704
11
-56.023698
21
-15.011505
0
ARC
8
0
62
1
10
0
20
0
40
42.0
50
342.953722
51
347.046278
0
LINE
8
0
62
1
10
-40.568885
20
10.8704
11
-56.023698
21
15.011505
0
ARC
8
0
62
1
10
0
20
0
40
42.0
50
372.953722
51
377.046278
0
LINE
8
0
62
1
10
-29.698485
20
29.698485
11
-41.012193
21
41.012193
0
ARC
8
0
62
1
10
0
20
0
40
42.0
50
402.953722
51
407.046278
0
LINE
8
0
62
1
10
-10.8704
20
40.568885
11
-15.011505
21
56.023698
0
ARC
8
0
62
1
10
0
20
0
40
42.0
50
432.953722
51
437.046278
0
LINE
8
0
10
9.414887
20
-40.93116
11
5.182531
21
-43.327406
0
LINE
8
0
10
-9.414887
20
-40.93116
11
-5.182531
21
-43.327406
0
LINE
8
0
10
5.182531
20
-43.327406
11
4.993809
21
-57.784616
0
LINE
8
0
10
-5.182531
20
-43.327406
11
-4.993809
21
-57.784616
0
ARC
8
0
10
0
20
0
40
42.0
50
287.046278
51
312.953722
0
LINE
8
0
62
1
10
10.8704
20
40.568885
11
15.011505
21
56.023698
0
ARC
8
0
62
1
10
0
20
0
40
42.0
50
102.953722
51
107.046278
0
LINE
8
0
62
1
10
29.698485
20
29.698485
11
41.012193
21
41.012193
0
ARC
8
0
62
1
10
0
20
0
40
42.0
50
132.953722
51
137.046278
0
LINE
8
0
62
1
10
40.568885
20
10.8704
11
56.023698
21
15.011505
0
ARC
8
0
62
1
10
0
20
0
40
42.0
50
162.953722
51
167.046278
0
LINE
8
0
62
1
10
40.568885
20
-10.8704
11
56.023698
21
-15.011505
0
ARC
8
0
62
1
10
0
20
0
40
42.0
50
192.953722
51
197.046278
0
LINE
8
0
62
1
10
29.698485
20
-29.698485
11
41.012193
21
-41.012193
0
ARC
8
0
62
1
10
0
20
0
40
42.0
50
222.953722
51
227.046278
0
LINE
8
0
62
1
10
10.8704
20
-40.568885
11
15.011505
21
-56.023698
0
ARC
8
0
62
1
10
0
20
0
40
42.0
50
252.953722
51
257.046278
0
LINE
8
0
62
1
10
-10.8704
20
-40.568885
11
-15.011505
21
-56.023698
0
ARC
8
0
62
1
10
0
20
0
40
42.0
50
282.953722
51
287.046278
0
LINE
8
0
62
1
10
-29.698485
20
-29.698485
11
-41.012193
21
-41.012193
0
ARC
8
0
62
1
10
0
20
0
40
42.0
50
312.953722
51
317.046278
0
LINE
8
0
62
1
10
-40.568885
20
-10.8704
11
-56.023698
21
-15.011505
0
ARC
8
0
62
1
10
0
20
0
40
42.0
50
342.953722
51
347.046278
0
LINE
8
0
62
1
10
-40.568885
20
10.8704
11
-56.023698
21
15.011505
0
ARC
8
0
62
1
10
0
20
0
40
42.0
50
372.953722
51
377.046278
0
LINE
8
0
62
1
10
-29.698485
20
29.698485
11
-41.012193
21
41.012193
0
ARC
8
0
62
1
10
0
20
0
40
42.0
50
402.953722
51
407.046278
0
LINE
8
0
62
1
10
-10.8704
20
40.568885
11
-15.011505
21
56.023698
0
ARC
8
0
62
1
10
0
20
0
40
42.0
50
432.953722
51
437.046278
0
LINE
8
0
10
-12.312049
20
-40.154868
11
-17.1755
21
-40.1139
0
LINE
8
0
10
-28.619112
20
-30.739981
11
-26.151906
21
-34.931369
0
LINE
8
0
10
-17.1755
20
-40.1139
11
-24.567542
21
-52.53985
0
LINE
8
0
10
-26.151906
20
-34.931369
11
-33.217074
21
-47.546041
0
ARC
8
0
10
0
20
0
40
42.0
50
317.046278
51
342.953722
0
LINE
8
0
62
1
10
10.8704
20
40.568885
11
15.011505
21
56.023698
0
ARC
8
0
62
1
10
0
20
0
40
42.0
50
102.953722
51
107.046278
0
LINE
8
0
62
1
10
29.698485
20
29.698485
11
41.012193
21
41.012193
0
ARC
8
0
62
1
10
0
20
0
40
42.0
50
132.953722
51
137.046278
0
LINE
8
0
62
1
10
40.568885
20
10.8704
11
56.023698
21
15.011505
0
ARC
8
0
62
1
10
0
20
0
40
42.0
50
162.953722
51
167.046278
0
LINE
8
0
62
1
10
40.568885
20
-10.8704
11
56.023698
21
-15.011505
0
ARC
8
0
62
1
10
0
20
0
40
42.0
50
192.953722
51
197.046278
0
LINE
8
0
62
1
10
29.698485
20
-29.698485
11
41.012193
21
-41.012193
0
ARC
8
0
62
1
10
0
20
0
40
42.0
50
222.953722
51
227.046278
0
LINE
8
0
62
1
10
10.8704
20
-40.568885
11
15.011505
21
-56.023698
0
ARC
8
0
62
1
10
0
20
0
40
42.0
50
252.953722
51
257.046278
0
LINE
8
0
62
1
10
-10.8704
20
-40.568885
11
-15.011505
21
-56.023698
0
ARC
8
0
62
1
10
0
20
0
40
42.0
50
282.953722
51
287.046278
0
LINE
8
0
62
1
10
-29.698485
20
-29.698485
11
-41.012193
21
-41.012193
0
ARC
8
0
62
1
10
0
20
0
40
42.0
50
312.953722
51
317.046278
0
LINE
8
0
62
1
10
-40.568885
20
-10.8704
11
-56.023698
21
-15.011505
0
ARC
8
0
62
1
10
0
20
0
40
42.0
50
342.953722
51
347.046278
0
LINE
8
0
62
1
10
-40.568885
20
10.8704
11
-56.023698
21
15.011505
0
ARC
8
0
62
1
10
0
20
0
40
42.0
50
372.953722
51
377.046278
0
LINE
8
0
62
1
10
-29.698485
20
29.698485
11
-41.012193
21
41.012193
0
ARC
8
0
62
1
10
0
20
0
40
42.0
50
402.953722
51
407.046278
0
LINE
8
0
62
1
10
-10.8704
20
40.568885
11
-15.011505
21
56.023698
0
ARC
8
0
62
1
10
0
20
0
40
42.0
50
432.953722
51
437.046278
0
LINE
8
0
10
-30.739981
20
-28.619112
11
-34.931369
21
-26.151906
0
LINE
8
0
10
-40.154868
20
-12.312049
11
-40.1139
21
-17.1755
0
LINE
8
0
10
-34.931369
20
-26.151906
11
-47.546041
21
-33.217074
0
LINE
8
0
10
-40.1139
20
-17.1755
11
-52.53985
21
-24.567542
0
ARC
8
0
10
0
20
0
40
42.0
50
347.046278
51
372.953722
0
LINE
8
0
62
1
10
10.8704
20
40.568885
11
15.011505
21
56.023698
0
ARC
8
0
62
1
10
0
20
0
40
42.0
50
102.953722
51
107.046278
0
LINE
8
0
62
1
10
29.698485
20
29.698485
11
41.012193
21
41.012193
0
ARC
8
0
62
1
10
0
20
0
40
42.0
50
132.953722
51
137.046278
0
LINE
8
0
62
1
10
40.568885
20
10.8704
11
56.023698
21
15.011505
0
ARC
8
0
62
1
10
0
20
0
40
42.0
50
162.953722
51
167.046278
0
LINE
8
0
62
1
10
40.568885
20
-10.8704
11
56.023698
21
-15.011505
0
ARC
8
0
62
1
10
0
20
0
40
42.0
50
192.953722
51
197.046278
0
LINE
8
0
62
1
10
29.698485
20
-29.698485
11
41.012193
21
-41.012193
0
ARC
8
0
62
1
10
0
20
0
40
42.0
50
222.953722
51
227.046278
0
LINE
8
0
62
1
10
10.8704
20
-40.568885
11
15.011505
21
-56.023698
0
ARC
8
0
62
1
10
0
20
0
40
42.0
50
252.953722
51
257.046278
0
LINE
8
0
62
1
10
-10.8704
20
-40.568885
11
-15.011505
21
-56.023698
0
ARC
8
0
62
1
10
0
20
0
40
42.0
50
282.953722
51
287.046278
0
LINE
8
0
62
1
10
-29.698485
20
-29.698485
11
-41.012193
21
-41.012193
0
ARC
8
0
62
1
10
0
20
0
40
42.0
50
312.953722
51
317.046278
0
LINE
8
0
62
1
10
-40.568885
20
-10.8704
11
-56.023698
21
-15.011505
0
ARC
8
0
62
1
10
0
20
0
40
42.0
50
342.953722
51
347.046278
0
LINE
8
0
62
1
10
-40.568885
20
10.8704
11
-56.023698
21
15.011505
0
ARC
8
0
62
1
10
0
20
0
40
42.0
50
372.953722
51
377.046278
0
LINE
8
0
62
1
10
-29.698485
20
29.698485
11
-41.012193
21
41.012193
0
ARC
8
0
62
1
10
0
20
0
40
42.0
50
402.953722
51
407.046278
0
LINE
8
0
62
1
10
-10.8704
20
40.568885
11
-15.011505
21
56.023698
0
ARC
8
0
62
1
10
0
20
0
40
42.0
50
432.953722
51
437.046278
0
LINE
8
0
10
-40.93116
20
-9.414887
11
-43.327406
21
-5.182531
0
LINE
8
0
10
-40.93116
20
9.414887
11
-43.327406
21
5.182531
0
LINE
8
0
10
-43.327406
20
-5.182531
11
-57.784616
21
-4.993809
0
LINE
8
0
10
-43.327406
20
5.182531
11
-57.784616
21
4.993809
0
ARC
8
0
10
0
20
0
40
42.0
50
377.046278
51
402.953722
0
LINE
8
0
62
1
10
10.8704
20
40.568885
11
15.011505
21
56.023698
0
ARC
8
0
62
1
10
0
20
0
40
42.0
50
102.953722
51
107.046278
0
LINE
8
0
62
1
10
29.698485
20
29.698485
11
41.012193
21
41.012193
0
ARC
8
0
62
1
10
0
20
0
40
42.0
50
132.953722
51
137.046278
0
LINE
8
0
62
1
10
40.568885
20
10.8704
11
56.023698
21
15.011505
0
ARC
8
0
62
1
10
0
20
0
40
42.0
50
162.953722
51
167.046278
0
LINE
8
0
62
1
10
40.568885
20
-10.8704
11
56.023698
21
-15.011505
0
ARC
8
0
62
1
10
0
20
0
40
42.0
50
192.953722
51
197.046278
0
LINE
8
0
62
1
10
29.698485
20
-29.698485
11
41.012193
21
-41.012193
0
ARC
8
0
62
1
10
0
20
0
40
42.0
50
222.953722
51
227.046278
0
LINE
8
0
62
1
10
10.8704
20
-40.568885
11
15.011505
21
-56.023698
0
ARC
8
0
62
1
10
0
20
0
40
42.0
50
252.953722
51
257.046278
0
LINE
8
0
62
1
10
-10.8704
20
-40.568885
11
-15.011505
21
-56.023698
0
ARC
8
0
62
1
10
0
20
0
40
42.0
50
282.953722
51
287.046278
0
LINE
8
0
62
1
10
-29.698485
20
-29.698485
11
-41.012193
21
-41.012193
0
ARC
8
0
62
1
10
0
20
0
40
42.0
50
312.953722
51
317.046278
0
LINE
8
0
62
1
10
-40.568885
20
-10.8704
11
-56.023698
21
-15.011505
0
ARC
8
0
62
1
10
0
20
0
40
42.0
50
342.953722
51
347.046278
0
LINE
8
0
62
1
10
-40.568885
20
10.8704
11
-56.023698
21
15.011505
0
ARC
8
0
62
1
10
0
20
0
40
42.0
50
372.953722
51
377.046278
0
LINE
8
0
62
1
10
-29.698485
20
29.698485
11
-41.012193
21
41.012193
0
ARC
8
0
62
1
10
0
20
0
40
42.0
50
402.953722
51
407.046278
0
LINE
8
0
62
1
10
-10.8704
20
40.568885
11
-15.011505
21
56.023698
0
ARC
8
0
62
1
10
0
20
0
40
42.0
50
432.953722
51
437.046278
0
LINE
8
0
10
-40.154868
20
12.312049
11
-40.1139
21
17.1755
0
LINE
8
0
10
-30.739981
20
28.619112
11
-34.931369
21
26.151906
0
LINE
8
0
10
-40.1139
20
17.1755
11
-52.53985
21
24.567542
0
LINE
8
0
10
-34.931369
20
26.151906
11
-47.546041
21
33.217074
0
ARC
8
0
10
0
20
0
40
42.0
50
407.046278
51
432.953722
0
LINE
8
0
62
1
10
10.8704
20
40.568885
11
15.011505
21
56.023698
0
ARC
8
0
62
1
10
0
20
0
40
42.0
50
102.953722
51
107.046278
0
LINE
8
0
62
1
10
29.698485
20
29.698485
11
41.012193
21
41.012193
0
ARC
8
0
62
1
10
0
20
0
40
42.0
50
132.953722
51
137.046278
0
LINE
8
0
62
1
10
40.568885
20
10.8704
11
56.023698
21
15.011505
0
ARC
8
0
62
1
10
0
20
0
40
42.0
50
162.953722
51
167.046278
0
LINE
8
0
62
1
10
40.568885
20
-10.8704
11
56.023698
21
-15.011505
0
ARC
8
0
62
1
10
0
20
0
40
42.0
50
192.953722
51
197.046278
0
LINE
8
0
62
1
10
29.698485
20
-29.698485
11
41.012193
21
-41.012193
0
ARC
8
0
62
1
10
0
20
0
40
42.0
50
222.953722
51
227.046278
0
LINE
8
0
62
1
10
10.8704
20
-40.568885
11
15.011505
21
-56.023698
0
ARC
8
0
62
1
10
0
20
0
40
42.0
50
252.953722
51
257.046278
0
LINE
8
0
62
1
10
-10.8704
20
-40.568885
11
-15.011505
21
-56.023698
0
ARC
8
0
62
1
10
0
20
0
40
42.0
50
282.953722
51
287.046278
0
LINE
8
0
62
1
10
-29.698485
20
-29.698485
11
-41.012193
21
-41.012193
0
ARC
8
0
62
1
10
0
20
0
40
42.0
50
312.953722
51
317.046278
0
LINE
8
0
62
1
10
-40.568885
20
-10.8704
11
-56.023698
21
-15.011505
0
ARC
8
0
62
1
10
0
20
0
40
42.0
50
342.953722
51
347.046278
0
LINE
8
0
62
1
10
-40.568885
20
10.8704
11
-56.023698
21
15.011505
0
ARC
8
0
62
1
10
0
20
0
40
42.0
50
372.953722
51
377.046278
0
LINE
8
0
62
1
10
-29.698485
20
29.698485
11
-41.012193
21
41.012193
0
ARC
8
0
62
1
10
0
20
0
40
42.0
50
402.953722
51
407.046278
0
LINE
8
0
62
1
10
-10.8704
20
40.568885
11
-15.011505
21
56.023698
0
ARC
8
0
62
1
10
0
20
0
40
42.0
50
432.953722
51
437.046278
0
LINE
8
0
10
-28.619112
20
30.739981
11
-26.151906
21
34.931369
0
LINE
8
0
10
-12.312049
20
40.154868
11
-17.1755
21
40.1139
0
LINE
8
0
10
-26.151906
20
34.931369
11
-33.217074
21
47.546041
0
LINE
8
0
10
-17.1755
20
40.1139
11
-24.567542
21
52.53985
0
ARC
8
0
10
0
20
0
40
42.0
50
437.046278
51
462.953722
0
LINE
8
0
62
1
10
10.8704
20
40.568885
11
15.011505
21
56.023698
0
ARC
8
0
62
1
10
0
20
0
40
42.0
50
102.953722
51
107.046278
0
LINE
8
0
62
1
10
29.698485
20
29.698485
11
41.012193
21
41.012193
0
ARC
8
0
62
1
10
0
20
0
40
42.0
50
132.953722
51
137.046278
0
LINE
8
0
62
1
10
40.568885
20
10.8704
11
56.023698
21
15.011505
0
ARC
8
0
62
1
10
0
20
0
40
42.0
50
162.953722
51
167.046278
0
LINE
8
0
62
1
10
40.568885
20
-10.8704
11
56.023698
21
-15.011505
0
ARC
8
0
62
1
10
0
20
0
40
42.0
50
192.953722
51
197.046278
0
LINE
8
0
62
1
10
29.698485
20
-29.698485
11
41.012193
21
-41.012193
0
ARC
8
0
62
1
10
0
20
0
40
42.0
50
222.953722
51
227.046278
0
LINE
8
0
62
1
10
10.8704
20
-40.568885
11
15.011505
21
-56.023698
0
ARC
8
0
62
1
10
0
20
0
40
42.0
50
252.953722
51
257.046278
0
LINE
8
0
62
1
10
-10.8704
20
-40.568885
11
-15.011505
21
-56.023698
0
ARC
8
0
62
1
10
0
20
0
40
42.0
50
282.953722
51
287.046278
0
LINE
8
0
62
1
10
-29.698485
20
-29.698485
11
-41.012193
21
-41.012193
0
ARC
8
0
62
1
10
0
20
0
40
42.0
50
312.953722
51
317.046278
0
LINE
8
0
62
1
10
-40.568885
20
-10.8704
11
-56.023698
21
-15.011505
0
ARC
8
0
62
1
10
0
20
0
40
42.0
50
342.953722
51
347.046278
0
LINE
8
0
62
1
10
-40.568885
20
10.8704
11
-56.023698
21
15.011505
0
ARC
8
0
62
1
10
0
20
0
40
42.0
50
372.953722
51
377.046278
0
LINE
8
0
62
1
10
-29.698485
20
29.698485
11
-41.012193
21
41.012193
0
ARC
8
0
62
1
10
0
20
0
40
42.0
50
402.953722
51
407.046278
0
LINE
8
0
62
1
10
-10.8704
20
40.568885
11
-15.011505
21
56.023698
0
ARC
8
0
62
1
10
0
20
0
40
42.0
50
432.953722
51
437.046278
0
LINE
8
0
10
-9.414887
20
40.93116
11
-5.182531
21
43.327406
0
LINE
8
0
10
9.414887
20
40.93116
11
5.182531
21
43.327406
0
LINE
8
0
10
-5.182531
20
43.327406
11
-4.993809
21
57.784616
0
LINE
8
0
10
5.182531
20
43.327406
11
4.993809
21
57.784616
0
ARC
8
0
10
0
20
0
40
58.0
50
124.939291
51
145.060709
0
ARC
8
0
10
0
20
0
40
58.0
50
154.939291
51
175.060709
0
ARC
8
0
10
0
20
0
40
58.0
50
184.939291
51
205.060709
0
ARC
8
0
10
0
20
0
40
58.0
50
214.939291
51
235.060709
0
ARC
8
0
10
0
20
0
40
58.0
50
244.939291
51
265.060709
0
ARC
8
0
10
0
20
0
40
58.0
50
274.939291
51
295.060709
0
ARC
8
0
10
0
20
0
40
58.0
50
304.939291
51
325.060709
0
ARC
8
0
10
0
20
0
40
58.0
50
334.939291
51
355.060709
0
ARC
8
0
10
0
20
0
40
58.0
50
364.939291
51
385.060709
0
ARC
8
0
10
0
20
0
40
58.0
50
394.939291
51
415.060709
0
ARC
8
0
10
0
20
0
40
58.0
50
424.939291
51
445.060709
0
ARC
8
0
10
0
20
0
40
58.0
50
454.939291
51
115.060709
0
POINT
8
0
10
-17.697885
20
46.763072
0
TEXT
8
0
10
-17.697885
20
44.763072
1
V-
40
2
41
2
72
0
73
0
11
-17.697885
21
44.763072
0
POINT
8
0
10
-8.054718
20
49.346951
0
TEXT
8
0
10
-8.054718
20
47.346951
1
V-
40
2
41
2
72
0
73
0
11
-8.054718
21
47.346951
0
POINT
8
0
10
8.054718
20
49.346951
0
TEXT
8
0
10
8.054718
20
47.346951
1
V+
40
2
41
2
72
0
73
0
11
8.054718
21
47.346951
0
POINT
8
0
10
17.697885
20
46.763072
0
TEXT
8
0
10
17.697885
20
44.763072
1
W-
40
2
41
2
72
0
73
0
11
17.697885
21
44.763072
0
POINT
8
0
10
31.649065
20
38.708354
0
TEXT
8
0
10
31.649065
20
36.708354
1
W+
40
2
41
2
72
0
73
0
11
31.649065
21
36.708354
0
POINT
8
0
10
38.708354
20
31.649065
0
TEXT
8
0
10
38.708354
20
29.649065
1
W+
40
2
41
2
72
0
73
0
11
38.708354
21
29.649065
0
POINT
8
0
10
46.763072
20
17.697885
0
TEXT
8
0
10
46.763072
20
15.697885
1
W-
40
2
41
2
72
0
73
0
11
46.763072
21
15.697885
0
POINT
8
0
10
49.346951
20
8.054718
0
TEXT
8
0
10
49.346951
20
6.054718
1
U+
40
2
41
2
72
0
73
0
11
49.346951
21
6.054718
0
POINT
8
0
10
49.346951
20
-8.054718
0
TEXT
8
0
10
49.346951
20
-10.054718
1
U-
40
2
41
2
72
0
73
0
11
49.346951
21
-10.054718
0
POINT
8
0
10
46.763072
20
-17.697885
0
TEXT
8
0
10
46.763072
20
-19.697885
1
U-
40
2
41
2
72
0
73
0
11
46.763072
21
-19.697885
0
POINT
8
0
10
38.708354
20
-31.649065
0
TEXT
8
0
10
38.708354
20
-33.649065
1
U+
40
2
41
2
72
0
73
0
11
38.708354
21
-33.649065
0
POINT
8
0
10
31.649065
20
-38.708354
0
TEXT
8
0
10
31.649065
20
-40.708354
1
V-
40
2
41
2
72
0
73
0
11
31.649065
21
-40.708354
0
POINT
8
0
10
17.697885
20
-46.763072
0
TEXT
8
0
10
17.697885
20
-48.763072
1
V+
40
2
41
2
72
0
73
0
11
17.697885
21
-48.763072
0
POINT
8
0
10
8.054718
20
-49.346951
0
TEXT
8
0
10
8.054718
20
-51.346951
1
V+
40
2
41
2
72
0
73
0
11
8.054718
21
-51.346951
0
POINT
8
0
10
-8.054718
20
-49.346951
0
TEXT
8
0
10
-8.054718
20
-51.346951
1
V-
40
2
41
2
72
0
73
0
11
-8.054718
21
-51.346951
0
POINT
8
0
10
-17.697885
20
-46.763072
0
TEXT
8
0
10
-17.697885
20
-48.763072
1
W+
40
2
41
2
72
0
73
0
11
-17.697885
21
-48.763072
0
POINT
8
0
10
-31.649065
20
-38.708354
0
TEXT
8
0
10
-31.649065
20
-40.708354
1
W-
40
2
41
2
72
0
73
0
11
-31.649065
21
-40.708354
0
POINT
8
0
10
-38.708354
20
-31.649065
0
TEXT
8
0
10
-38.708354
20
-33.649065
1
W-
40
2
41
2
72
0
73
0
11
-38.708354
21
-33.649065
0
POINT
8
0
10
-46.763072
20
-17.697885
0
TEXT
8
0
10
-46.763072
20
-19.697885
1
W+
40
2
41
2
72
0
73
0
11
-46.763072
21
-19.697885
0
POINT
8
0
10
-49.346951
20
-8.054718
0
TEXT
8
0
10
-49.346951
20
-10.054718
1
U-
40
2
41
2
72
0
73
0
11
-49.346951
21
-10.054718
0
POINT
8
0
10
-49.346951
20
8.054718
0
TEXT
8
0
10
-49.346951
20
6.054718
1
U+
40
2
41
2
72
0
73
0
11
-49.346951
21
6.054718
0
POINT
8
0
10
-46.763072
20
17.697885
0
TEXT
8
0
10
-46.763072
20
15.697885
1
U+
40
2
41
2
72
0
73
0
11
-46.763072
21
15.697885
0
POINT
8
0
10
-38.708354
20
31.649065
0
TEXT
8
0
10
-38.708354
20
29.649065
1
U-
40
2
41
2
72
0
73
0
11
-38.708354
21
29.649065
0
POINT
8
0
10
-31.649065
20
38.708354
0
TEXT
8
0
10
-31.649065
20
36.708354
1
V+
40
2
41
2
72
0
73
0
11
-31.649065
21
36.708354
0
LINE
8
0
62
4
10
-8.054718
20
49.346951
11
8.054718
21
49.346951
0
LINE
8
0
62
3
10
17.697885
20
46.763072
11
31.649065
21
38.708354
0
LINE
8
0
62
3
10
38.708354
20
31.649065
11
46.763072
21
17.697885
0
LINE
8
0
62
1
10
49.346951
20
8.054718
11
49.346951
21
-8.054718
0
LINE
8
0
62
1
10
46.763072
20
-17.697885
11
38.708354
21
-31.649065
0
LINE
8
0
62
4
10
31.649065
20
-38.708354
11
17.697885
21
-46.763072
0
LINE
8
0
62
4
10
8.054718
20
-49.346951
11
-8.054718
21
-49.346951
0
LINE
8
0
62
3
10
-17.697885
20
-46.763072
11
-31.649065
21
-38.708354
0
LINE
8
0
62
3
10
-38.708354
20
-31.649065
11
-46.763072
21
-17.697885
0
LINE
8
0
62
1
10
-49.346951
20
-8.054718
11
-49.346951
21
8.054718
0
LINE
8
0
62
1
10
-46.763072
20
17.697885
11
-38.708354
21
31.649065
0
LINE
8
0
62
4
10
-31.649065
20
38.708354
11
-17.697885
21
46.763072
0
ENDSEC
0
EOF
