0
SECTION
2
ENTITIES
0
CIRCLE
8
0
10
0
20
0
40
63.0
0
CIRCLE
8
0
10
0
20
0
40
36.5
0
CIRCLE
8
0
10
0
20
0
40
10.0
0
ARC
8
0
10
0
20
0
40
42.0
50
107.046278
51
132.953722
0
LINE
8
0
62
1
10
10.8704
20
40.568885
11
15.011505
21
56.023698
0
ARC
8
0
62
1
10
0
20
0
40
42.0
50
102.953722
51
107.046278
0
LINE
8
0
62
1
10
29.698485
20
29.698485
11
41.012193
21
41.012193
0
ARC
8
0
62
1
10
0
20
0
40
42.0
50
132.953722
51
137.046278
0
LINE
8
0
62
1
10
40.568885
20
10.8704
11
56.023698
21
15.011505
0
ARC
8
0
62
1
10
0
20
0
40
42.0
50
162.953722
51
167.046278
0
LINE
8
0
62
1
10
40.568885
20
-10.8704
11
56.023698
21
-15.011505
0
ARC
8
0
62
1
10
0
20
0
40
42.0
50
192.953722
51
197.046278
0
LINE
8
0
62
1
10
29.698485
20
-29.698485
11
41.012193
21
-41.012193
0
ARC
8
0
62
1
10
0
20
0
40
42.0
50
222.953722
51
227.046278
0
LINE
8
0
62
1
10
10.8704
20
-40.568885
11
15.011505
21
-56.023698
0
ARC
8
0
62
1
10
0
20
0
40
42.0
50
252.953722
51
257.046278
0
LINE
8
0
62
1
10
-10.8704
20
-40.568885
11
-15.011505
21
-56.023698
0
ARC
8
0
62
1
10
0
20
0
40
42.0
50
282.953722
51
287.046278
0
LINE
8
0
62
1
10
-29.698485
20
-29.698485
11
-41.012193
21
-41.012193
0
ARC
8
0
62
1
10
0
20
0
40
42.0
50
312.953722
51
317.046278
0
LINE
8
0
62
1
10
-40.568885
20
-10.8704
11
-56.023698
21
-15.011505
0
ARC
8
0
62
1
10
0
20
0
40
42.0
50
342.953722
51
347.046278
0
LINE
8
0
62
1
10
-40.568885
20
10.8704
11
-56.023698
21
15.011505
0
ARC
8
0
62
1
10
0
20
0
40
42.0
50
372.953722
51
377.046278
0
LINE
8
0
62
1
10
-29.698485
20
29.698485
11
-41.012193
21
41.012193
0
ARC
8
0
62
1
10
0
20
0
40
42.0
50
402.953722
51
407.046278
0
LINE
8
0
62
1
10
-10.8704
20
40.568885
11
-15.011505
21
56.023698
0
ARC
8
0
62
1
10
0
20
0
40
42.0
50
432.953722
51
437.046278
0
LINE
8
0
10
12.312049
20
40.154868
11
17.1755
21
40.1139
0
LINE
8
0
10
28.619112
20
30.739981
11
26.151906
21
34.931369
0
LINE
8
0
10
17.1755
20
40.1139
11
24.567542
21
52.53985
0
LINE
8
0
10
26.151906
20
34.931369
11
33.217074
21
47.546041
0
ARC
8
0
10
0
20
0
40
42.0
50
137.046278
51
162.953722
0
LINE
8
0
62
1
10
10.8704
20
40.568885
11
15.011505
21
56.023698
0
ARC
8
0
62
1
10
0
20
0
40
42.0
50
102.953722
51
107.046278
0
LINE
8
0
62
1
10
29.698485
20
29.698485
11
41.012193
21
41.012193
0
ARC
8
0
62
1
10
0
20
0
40
42.0
50
132.953722
51
137.046278
0
LINE
8
0
62
1
10
40.568885
20
10.8704
11
56.023698
21
15.011505
0
ARC
8
0
62
1
10
0
20
0
40
42.0
50
162.953722
51
167.046278
0
LINE
8
0
62
1
10
40.568885
20
-10.8704
11
56.023698
21
-15.011505
0
ARC
8
0
62
1
10
0
20
0
40
42.0
50
192.953722
51
197.046278
0
LINE
8
0
62
1
10
29.698485
20
-29.698485
11
41.012193
21
-41.012193
0
ARC
8
0
62
1
10
0
20
0
40
42.0
50
222.953722
51
227.046278
0
LINE
8
0
62
1
10
10.8704
20
-40.568885
11
15.011505
21
-56.023698
0
ARC
8
0
62
1
10
0
20
0
40
42.0
50
252.953722
51
257.046278
0
LINE
8
0
62
1
10
-10.8704
20
-40.568885
11
-15.011505
21
-56.023698
0
ARC
8
0
62
1
10
0
20
0
40
42.0
50
282.953722
51
287.046278
0
LINE
8
0
62
1
10
-29.698485
20
-29.698485
11
-41.012193
21
-41.012193
0
ARC
8
0
62
1
10
0
20
0
40
42.0
50
312.953722
51
317.046278
0
LINE
8
0
62
1
10
-40.568885
20
-10.8704
11
-56.023698
21
-15.011505
0
ARC
8
0
62
1
10
0
20
0
40
42.0
50
342.953722
51
347.046278
0
LINE
8
0
62
1
10
-40.568885
20
10.8704
11
-56.023698
21
15.011505
0
ARC
8
0
62
1
10
0
20
0
40
42.0
50
372.953722
51
377.046278
0
LINE
8
0
62
1
10
-29.698485
20
29.698485
11
-41.012193
21
41.012193
0
ARC
8
0
62
1
10
0
20
0
40
42.0
50
402.953722
51
407.046278
0
LINE
8
0
62
1
10
-10.8704
20
40.568885
11
-15.011505
21
56.023698
0
ARC
8
0
62
1
10
0
20
0
40
42.0
50
432.953722
51
437.046278
0
LINE
8
0
10
30.739981
20
28.619112
11
34.931369
21
26.151906
0
LINE
8
0
10
40.154868
20
12.312049
11
40.1139
21
17.1755
0
LINE
8
0
10
34.931369
20
26.151906
11
47.546041
21
33.217074
0
LINE
8
0
10
40.1139
20
17.1755
11
52.53985
21
24.567542
0
ARC
8
0
10
0
20
0
40
42.0
50
167.046278
51
192.953722
0
LINE
8
0
62
1
10
10.8704
20
40.568885
11
15.011505
21
56.023698
0
ARC
8
0
62
1
10
0
20
0
40
42.0
50
102.953722
51
107.046278
0
LINE
8
0
62
1
10
29.698485
20
29.698485
11
41.012193
21
41.012193
0
ARC
8
0
62
1
10
0
20
0
40
42.0
50
132.953722
51
137.046278
0
LINE
8
0
62
1
10
40.568885
20
10.8704
11
56.023698
21
15.011505
0
ARC
8
0
62
1
10
0
20
0
40
42.0
50
162.953722
51
167.046278
0
LINE
8
0
62
1
10
40.568885
20
-10.8704
11
56.023698
21
-15.011505
0
ARC
8
0
62
1
10
0
20
0
40
42.0
50
192.953722
51
197.046278
0
LINE
8
0
62
1
10
29.698485
20
-29.698485
11
41.012193
21
-41.012193
0
ARC
8
0
62
1
10
0
20
0
40
42.0
50
222.953722
51
227.046278
0
LINE
8
0
62
1
10
10.8704
20
-40.568885
11
15.011505
21
-56.023698
0
ARC
8
0
62
1
10
0
20
0
40
42.0
50
252.953722
51
257.046278
0
LINE
8
0
62
1
10
-10.8704
20
-40.568885
11
-15.011505
21
-56.023698
0
ARC
8
0
62
1
10
0
20
0
40
42.0
50
282.953722
51
287.046278
0
LINE
8
0
62
1
10
-29.698485
20
-29.698485
11
-41.012193
21
-41.012193
0
ARC
8
0
62
1
10
0
20
0
40
42.0
50
312.953722
51
317.046278
0
LINE
8
0
62
1
10
-40.568885
20
-10.8704
11
-56.023698
21
-15.011505
0
ARC
8
0
62
1
10
0
20
0
40
42.0
50
342.953722
51
347.046278
0
LINE
8
0
62
1
10
-40.568885
20
10.8704
11
-56.023698
21
15.011505
0
ARC
8
0
62
1
10
0
20
0
40
42.0
50
372.953722
51
377.046278
0
LINE
8
0
62
1
10
-29.698485
20
29.698485
11
-41.012193
21
41.012193
0
ARC
8
0
62
1
10
0
20
0
40
42.0
50
402.953722
51
407.046278
0
LINE
8
0
62
1
10
-10.8704
20
40.568885
11
-15.011505
21
56.023698
0
ARC
8
0
62
1
10
0
20
0
40
42.0
50
432.953722
51
437.046278
0
LINE
8
0
10
40.93116
20
9.414887
11
43.327406
21
5.182531
0
LINE
8
0
10
40.93116
20
-9.414887
11
43.327406
21
-5.182531
0
LINE
8
0
10
43.327406
20
5.182531
11
57.784616
21
4.993809
0
LINE
8
0
10
43.327406
20
-5.182531
11
57.784616
21
-4.993809
0
ARC
8
0
10
0
20
0
40
42.0
50
197.046278
51
222.953722
0
LINE
8
0
62
1
10
10.8704
20
40.568885
11
15.011505
21
56.023698
0
ARC
8
0
62
1
10
0
20
0
40
42.0
50
102.953722
51
107.046278
0
LINE
8
0
62
1
10
29.698485
20
29.698485
11
41.012193
21
41.012193
0
ARC
8
0
62
1
10
0
20
0
40
42.0
50
132.953722
51
137.046278
0
LINE
8
0
62
1
10
40.568885
20
10.8704
11
56.023698
21
15.011505
0
ARC
8
0
62
1
10
0
20
0
40
42.0
50
162.953722
51
167.046278
0
LINE
8
0
62
1
10
40.568885
20
-10.8704
11
56.023698
21
-15.011505
0
ARC
8
0
62
1
10
0
20
0
40
42.0
50
192.953722
51
197.046278
0
LINE
8
0
62
1
10
29.698485
20
-29.698485
11
41.012193
21
-41.012193
0
ARC
8
0
62
1
10
0
20
0
40
42.0
50
222.953722
51
227.046278
0
LINE
8
0
62
1
10
10.8704
20
-40.568885
11
15.011505
21
-56.023698
0
ARC
8
0
62
1
10
0
20
0
40
42.0
50
252.953722
51
257.046278
0
LINE
8
0
62
1
10
-10.8704
20
-40.568885
11
-15.011505
21
-56.023698
0
ARC
8
0
62
1
10
0
20
0
40
42.0
50
282.953722
51
287.046278
0
LINE
8
0
62
1
10
-29.698485
20
-29.698485
11
-41.012193
21
-41.012193
0
ARC
8
0
62
1
10
0
20
0
40
42.0
50
312.953722
51
317.046278
0
LINE
8
0
62
1
10
-40.568885
20
-10.8704
11
-56.023698
21
-15.011505
0
ARC
8
0
62
1
10
0
20
0
40
42.0
50
342.953722
51
347.046278
0
LINE
8
0
62
1
10
-40.568885
20
10.8704
11
-56.023698
21
15.011505
0
ARC
8
0
62
1
10
0
20
0
40
42.0
50
372.953722
51
377.046278
0
LINE
8
0
62
1
10
-29.698485
20
29.698485
11
-41.012193
21
41.012193
0
ARC
8
0
62
1
10
0
20
0
40
42.0
50
402.953722
51
407.046278
0
LINE
8
0
62
1
10
-10.8704
20
40.568885
11
-15.011505
21
56.023698
0
ARC
8
0
62
1
10
0
20
0
40
42.0
50
432.953722
51
437.046278
0
LINE
8
0
10
40.154868
20
-12.312049
11
40.1139
21
-17.1755
0
LINE
8
0
10
30.739981
20
-28.619112
11
34.931369
21
-26.151906
0
LINE
8
0
10
40.1139
20
-17.1755
11
52.53985
21
-24.567542
0
LINE
8
0
10
34.931369
20
-26.151906
11
47.546041
21
-33.217074
0
ARC
8
0
10
0
20
0
40
42.0
50
227.046278
51
252.953722
0
LINE
8
0
62
1
10
10.8704
20
40.568885
11
15.011505
21
56.023698
0
ARC
8
0
62
1
10
0
20
0
40
42.0
50
102.953722
51
107.046278
0
LINE
8
0
62
1
10
29.698485
20
29.698485
11
41.012193
21
41.012193
0
ARC
8
0
62
1
10
0
20
0
40
42.0
50
132.953722
51
137.046278
0
LINE
8
0
62
1
10
40.568885
20
10.8704
11
56.023698
21
15.011505
0
ARC
8
0
62
1
10
0
20
0
40
42.0
50
162.953722
51
167.046278
0
LINE
8
0
62
1
10
40.568885
20
-10.8704
11
56.023698
21
-15.011505
0
ARC
8
0
62
1
10
0
20
0
40
42.0
50
192.953722
51
197.046278
0
LINE
8
0
62
1
10
29.698485
20
-29.698485
11
41.012193
21
-41.012193
0
ARC
8
0
62
1
10
0
20
0
40
42.0
50
222.953722
51
227.046278
0
LINE
8
0
62
1
10
10.8704
20
-40.568885
11
15.011505
21
-56.023698
0
ARC
8
0
62
1
10
0
20
0
40
42.0
50
252.953722
51
257.046278
0
LINE
8
0
62
1
10
-10.8704
20
-40.568885
11
-15.011505
21
-56.023698
0
ARC
8
0
62
1
10
0
20
0
40
42.0
50
282.953722
51
287.046278
0
LINE
8
0
62
1
10
-29.698485
20
-29.698485
11
-41.012193
21
-41.012193
0
ARC
8
0
62
1
10
0
20
0
40
42.0
50
312.953722
51
317.046278
0
LINE
8
0
62
1
10
-40.568885
20
-10.8704
11
-56.023698
21
-15.011505
0
ARC
8
0
62
1
10
0
20
0
40
42.0
50
342.953722
51
347.046278
0
LINE
8
0
62
1
10
-40.568885
20
10.8704
11
-56.023698
21
15.011505
0
ARC
8
0
62
1
10
0
20
0
40
42.0
50
372.953722
51
377.046278
0
LINE
8
0
62
1
10
-29.698485
20
29.698485
11
-41.012193
21
41.012193
0
ARC
8
0
62
1
10
0
20
0
40
42.0
50
402.953722
51
407.046278
0
LINE
8
0
62
1
10
-10.8704
20
40.568885
11
-15.011505
21
56.023698
0
ARC
8
0
62
1
10
0
20
0
40
42.0
50
432.953722
51
437.046278
0
LINE
8
0
10
28.619112
20
-30.739981
11
26.151906
21
-34.931369
0
LINE
8
0
10
12.312049
20
-40.154868
11
17.1755
21
-40.1139
0
LINE
8
0
10
26.151906
20
-34.931369
11
33.217074
21
-47.546041
0
LINE
8
0
10
17.1755
20
-40.1139
11
24.567542
21
-52.53985
0
ARC
8
0
10
0
20
0
40
42.0
50
257.046278
51
282.953722
0
LINE
8
0
62
1
10
10.8704
20
40.568885
11
15.011505
21
56.023698
0
ARC
8
0
62
1
10
0
20
0
40
42.0
50
102.953722
51
107.046278
0
LINE
8
0
62
1
10
29.698485
20
29.698485
11
41.012193
21
41.012193
0
ARC
8
0
62
1
10
0
20
0
40
42.0
50
132.953722
51
137.046278
0
LINE
8
0
62
1
10
40.568885
20
10.8704
11
56.023698
21
15.011505
0
ARC
8
0
62
1
10
0
20
0
40
42.0
50
162.953722
51
167.046278
0
LINE
8
0
62
1
10
40.568885
20
-10.8704
11
56.023698
21
-15.011505
0
ARC
8
0
62
1
10
0
20
0
40
42.0
50
192.953722
51
197.046278
0
LINE
8
0
62
1
10
29.698485
20
-29.698485
11
41.012193
21
-41.012193
0
ARC
8
0
62
1
10
0
20
0
40
42.0
50
222.953722
51
227.046278
0
LINE
8
0
62
1
10
10.8704
20
-40.568885
11
15.011505
21
-56.023698
0
ARC
8
0
62
1
10
0
20
0
40
42.0
50
252.953722
51
257.046278
0
LINE
8
0
62
1
10
-10.8704
20
-40.568885
11
-15.011505
21
-56.023698
0
ARC
8
0
62
1
10
0
20
0
40
42.0
50
282.953722
51
287.046278
0
LINE
8
0
62
1
10
-29.698485
20
-29.698485
11
-41.012193
21
-41.012193
0
ARC
8
0
62
1
10
0
20
0
40
42.0
50
312.953722
51
317.046278
0
LINE
8
0
62
1
10
-40.568885
20
-10.8704
11
-56.023698
21
-15.011505
0
ARC
8
0
62
1
10
0
20
0
40
42.0
50
342.953722
51
347.046278
0
LINE
8
0
62
1
10
-40.568885
20
10.8704
11
-56.023698
21
15.011505
0
ARC
8
0
62
1
10
0
20
0
40
42.0
50
372.953722
51
377.046278
0
LINE
8
0
62
1
10
-29.698485
20
29.698485
11
-41.012193
21
41.012193
0
ARC
8
0
62
1
10
0
20
0
40
42.0
50
402.953722
51
407.046278
0
LINE
8
0
62
1
10
-10.8704
20
40.568885
11
-15.011505
21
56.023698
0
ARC
8
0
62
1
10
0
20
0
40
42.0
50
432.953722
51
437.046278
0
LINE
8
0
10
9.414887
20
-40.93116
11
5.182531
21
-43.327406
0
LINE
8
0
10
-9.414887
20
-40.93116
11
-5.182531
21
-43.327406
0
LINE
8
0
10
5.182531
20
-43.327406
11
4.993809
21
-57.784616
0
LINE
8
0
10
-5.182531
20
-43.327406
11
-4.993809
21
-57.784616
0
ARC
8
0
10
0
20
0
40
42.0
50
287.046278
51
312.953722
0
LINE
8
0
62
1
10
10.8704
20
40.568885
11
15.011505
21
56.023698
0
ARC
8
0
62
1
10
0
20
0
40
42.0
50
102.953722
51
107.046278
0
LINE
8
0
62
1
10
29.698485
20
29.698485
11
41.012193
21
41.012193
0
ARC
8
0
62
1
10
0
20
0
40
42.0
50
132.953722
51
137.046278
0
LINE
8
0
62
1
10
40.568885
20
10.8704
11
56.023698
21
15.011505
0
ARC
8
0
62
1
10
0
20
0
40
42.0
50
162.953722
51
167.046278
0
LINE
8
0
62
1
10
40.568885
20
-10.8704
11
56.023698
21
-15.011505
0
ARC
8
0
62
1
10
0
20
0
40
42.0
50
192.953722
51
197.046278
0
LINE
8
0
62
1
10
29.698485
20
-29.698485
11
41.012193
21
-41.012193
0
ARC
8
0
62
1
10
0
20
0
40
42.0
50
222.953722
51
227.046278
0
LINE
8
0
62
1
10
10.8704
20
-40.568885
11
15.011505
21
-56.023698
0
ARC
8
0
62
1
10
0
20
0
40
42.0
50
252.953722
51
257.046278
0
LINE
8
0
62
1
10
-10.8704
20
-40.568885
11
-15.011505
21
-56.023698
0
ARC
8
0
62
1
10
0
20
0
40
42.0
50
282.953722
51
287.046278
0
LINE
8
0
62
1
10
-29.698485
20
-29.698485
11
-41.012193
21
-41.012193
0
ARC
8
0
62
1
10
0
20
0
40
42.0
50
312.953722
51
317.046278
0
LINE
8
0
62
1
10
-40.568885
20
-10.8704
11
-56.023698
21
-15.011505
0
ARC
8
0
62
1
10
0
20
0
40
42.0
50
342.953722
51
347.046278
0
LINE
8
0
62
1
10
-40.568885
20
10.8704
11
-56.023698
21
15.011505
0
ARC
8
0
62
1
10
0
20
0
40
42.0
50
372.953722
51
377.046278
0
LINE
8
0
62
1
10
-29.698485
20
29.698485
11
-41.012193
21
41.012193
0
ARC
8
0
62
1
10
0
20
0
40
42.0
50
402.953722
51
407.046278
0
LINE
8
0
62
1
10
-10.8704
20
40.568885
11
-15.011505
21
56.023698
0
ARC
8
0
62
1
10
0
20
0
40
42.0
50
432.953722
51
437.046278
0
LINE
8
0
10
-12.312049
20
-40.154868
11
-17.1755
21
-40.1139
0
LINE
8
0
10
-28.619112
20
-30.739981
11
-26.151906
21
-34.931369
0
LINE
8
0
10
-17.1755
20
-40.1139
11
-24.567542
21
-52.53985
0
LINE
8
0
10
-26.151906
20
-34.931369
11
-33.217074
21
-47.546041
0
ARC
8
0
10
0
20
0
40
42.0
50
317.046278
51
342.953722
0
LINE
8
0
62
1
10
10.8704
20
40.568885
11
15.011505
21
56.023698
0
ARC
8
0
62
1
10
0
20
0
40
42.0
50
102.953722
51
107.046278
0
LINE
8
0
62
1
10
29.698485
20
29.698485
11
41.012193
21
41.012193
0
ARC
8
0
62
1
10
0
20
0
40
42.0
50
132.953722
51
137.046278
0
LINE
8
0
62
1
10
40.568885
20
10.8704
11
56.023698
21
15.011505
0
ARC
8
0
62
1
10
0
20
0
40
42.0
50
162.953722
51
167.046278
0
LINE
8
0
62
1
10
40.568885
20
-10.8704
11
56.023698
21
-15.011505
0
ARC
8
0
62
1
10
0
20
0
40
42.0
50
192.953722
51
197.046278
0
LINE
8
0
62
1
10
29.698485
20
-29.698485
11
41.012193
21
-41.012193
0
ARC
8
0
62
1
10
0
20
0
40
42.0
50
222.953722
51
227.046278
0
LINE
8
0
62
1
10
10.8704
20
-40.568885
11
15.011505
21
-56.023698
0
ARC
8
0
62
1
10
0
20
0
40
42.0
50
252.953722
51
257.046278
0
LINE
8
0
62
1
10
-10.8704
20
-40.568885
11
-15.011505
21
-56.023698
0
ARC
8
0
62
1
10
0
20
0
40
42.0
50
282.953722
51
287.046278
0
LINE
8
0
62
1
10
-29.698485
20
-29.698485
11
-41.012193
21
-41.012193
0
ARC
8
0
62
1
10
0
20
0
40
42.0
50
312.953722
51
317.046278
0
LINE
8
0
62
1
10
-40.568885
20
-10.8704
11
-56.023698
21
-15.011505
0
ARC
8
0
62
1
10
0
20
0
40
42.0
50
342.953722
51
347.046278
0
LINE
8
0
62
1
10
-40.568885
20
10.8704
11
-56.023698
21
15.011505
0
ARC
8
0
62
1
10
0
20
0
40
42.0
50
372.953722
51
377.046278
0
LINE
8
0
62
1
10
-29.698485
20
29.698485
11
-41.012193
21
41.012193
0
ARC
8
0
62
1
10
0
20
0
40
42.0
50
402.953722
51
407.046278
0
LINE
8
0
62
1
10
-10.8704
20
40.568885
11
-15.011505
21
56.023698
0
ARC
8
0
62
1
10
0
20
0
40
42.0
50
432.953722
51
437.046278
0
LINE
8
0
10
-30.739981
20
-28.619112
11
-34.931369
21
-26.151906
0
LINE
8
0
10
-40.154868
20
-12.312049
11
-40.1139
21
-17.1755
0
LINE
8
0
10
-34.931369
20
-26.151906
11
-47.546041
21
-33.217074
0
LINE
8
0
10
-40.1139
20
-17.1755
11
-52.53985
21
-24.567542
0
ARC
8
0
10
0
20
0
40
42.0
50
347.046278
51
372.953722
0
LINE
8
0
62
1
10
10.8704
20
40.568885
11
15.011505
21
56.023698
0
ARC
8
0
62
1
10
0
20
0
40
42.0
50
102.953722
51
107.046278
0
LINE
8
0
62
1
10
29.698485
20
29.698485
11
41.012193
21
41.012193
0
ARC
8
0
62
1
10
0
20
0
40
42.0
50
132.953722
51
137.046278
0
LINE
8
0
62
1
10
40.568885
20
10.8704
11
56.023698
21
15.011505
0
ARC
8
0
62
1
10
0
20
0
40
42.0
50
162.953722
51
167.046278
0
LINE
8
0
62
1
10
40.568885
20
-10.8704
11
56.023698
21
-15.011505
0
ARC
8
0
62
1
10
0
20
0
40
42.0
50
192.953722
51
197.046278
0
LINE
8
0
62
1
10
29.698485
20
-29.698485
11
41.012193
21
-41.012193
0
ARC
8
0
62
1
10
0
20
0
40
42.0
50
222.953722
51
227.046278
0
LINE
8
0
62
1
10
10.8704
20
-40.568885
11
15.011505
21
-56.023698
0
ARC
8
0
62
1
10
0
20
0
40
42.0
50
252.953722
51
257.046278
0
LINE
8
0
62
1
10
-10.8704
20
-40.568885
11
-15.011505
21
-56.023698
0
ARC
8
0
62
1
10
0
20
0
40
42.0
50
282.953722
51
287.046278
0
LINE
8
0
62
1
10
-29.698485
20
-29.698485
11
-41.012193
21
-41.012193
0
ARC
8
0
62
1
10
0
20
0
40
42.0
50
312.953722
51
317.046278
0
LINE
8
0
62
1
10
-40.568885
20
-10.8704
11
-56.023698
21
-15.011505
0
ARC
8
0
62
1
10
0
20
0
40
42.0
50
342.953722
51
347.046278
0
LINE
8
0
62
1
10
-40.568885
20
10.8704
11
-56.023698
21
15.011505
0
ARC
8
0
62
1
10
0
20
0
40
42.0
50
372.953722
51
377.046278
0
LINE
8
0
62
1
10
-29.698485
20
29.698485
11
-41.012193
21
41.012193
0
ARC
8
0
62
1
10
0
20
0
40
42.0
50
402.953722
51
407.046278
0
LINE
8
0
62
1
10
-10.8704
20
40.568885
11
-15.011505
21
56.023698
0
ARC
8
0
62
1
10
0
20
0
40
42.0
50
432.953722
51
437.046278
0
LINE
8
0
10
-40.93116
20
-9.414887
11
-43.327406
21
-5.182531
0
LINE
8
0
10
-40.93116
20
9.414887
11
-43.327406
21
5.182531
0
LINE
8
0
10
-43.327406
20
-5.182531
11
-57.784616
21
-4.993809
0
LINE
8
0
10
-43.327406
20
5.182531
11
-57.784616
21
4.993809
0
ARC
8
0
10
0
20
0
40
42.0
50
377.046278
51
402.953722
0
LINE
8
0
62
1
10
10.8704
20
40.568885
11
15.011505
21
56.023698
0
ARC
8
0
62
1
10
0
20
0
40
42.0
50
102.953722
51
107.046278
0
LINE
8
0
62
1
10
29.698485
20
29.698485
11
41.012193
21
41.012193
0
ARC
8
0
62
1
10
0
20
0
40
42.0
50
132.953722
51
137.046278
0
LINE
8
0
62
1
10
40.568885
20
10.8704
11
56.023698
21
15.011505
0
ARC
8
0
62
1
10
0
20
0
40
42.0
50
162.953722
51
167.046278
0
LINE
8
0
62
1
10
40.568885
20
-10.8704
11
56.023698
21
-15.011505
0
ARC
8
0
62
1
10
0
20
0
40
42.0
50
192.953722
51
197.046278
0
LINE
8
0
62
1
10
29.698485
20
-29.698485
11
41.012193
21
-41.012193
0
ARC
8
0
62
1
10
0
20
0
40
42.0
50
222.953722
51
227.046278
0
LINE
8
0
62
1
10
10.8704
20
-40.568885
11
15.011505
21
-56.023698
0
ARC
8
0
62
1
10
0
20
0
40
42.0
50
252.953722
51
257.046278
0
LINE
8
0
62
1
10
-10.8704
20
-40.568885
11
-15.011505
21
-56.023698
0
ARC
8
0
62
1
10
0
20
0
40
42.0
50
282.953722
51
287.046278
0
LINE
8
0
62
1
10
-29.698485
20
-29.698485
11
-41.012193
21
-41.012193
0
ARC
8
0
62
1
10
0
20
0
40
42.0
50
312.953722
51
317.046278
0
LINE
8
0
62
1
10
-40.568885
20
-10.8704
11
-56.023698
21
-15.011505
0
ARC
8
0
62
1
10
0
20
0
40
42.0
50
342.953722
51
347.046278
0
LINE
8
0
62
1
10
-40.568885
20
10.8704
11
-56.023698
21
15.011505
0
ARC
8
0
62
1
10
0
20
0
40
42.0
50
372.953722
51
377.046278
0
LINE
8
0
62
1
10
-29.698485
20
29.698485
11
-41.012193
21
41.012193
0
ARC
8
0
62
1
10
0
20
0
40
42.0
50
402.953722
51
407.046278
0
LINE
8
0
62
1
10
-10.8704
20
40.568885
11
-15.011505
21
56.023698
0
ARC
8
0
62
1
10
0
20
0
40
42.0
50
432.953722
51
437.046278
0
LINE
8
0
10
-40.154868
20
12.312049
11
-40.1139
21
17.1755
0
LINE
8
0
10
-30.739981
20
28.619112
11
-34.931369
21
26.151906
0
LINE
8
0
10
-40.1139
20
17.1755
11
-52.53985
21
24.567542
0
LINE
8
0
10
-34.931369
20
26.151906
11
-47.546041
21
33.217074
0
ARC
8
0
10
0
20
0
40
42.0
50
407.046278
51
432.953722
0
LINE
8
0
62
1
10
10.8704
20
40.568885
11
15.011505
21
56.023698
0
ARC
8
0
62
1
10
0
20
0
40
42.0
50
102.953722
51
107.046278
0
LINE
8
0
62
1
10
29.698485
20
29.698485
11
41.012193
21
41.012193
0
ARC
8
0
62
1
10
0
20
0
40
42.0
50
132.953722
51
137.046278
0
LINE
8
0
62
1
10
40.568885
20
10.8704
11
56.023698
21
15.011505
0
ARC
8
0
62
1
10
0
20
0
40
42.0
50
162.953722
51
167.046278
0
LINE
8
0
62
1
10
40.568885
20
-10.8704
11
56.023698
21
-15.011505
0
ARC
8
0
62
1
10
0
20
0
40
42.0
50
192.953722
51
197.046278
0
LINE
8
0
62
1
10
29.698485
20
-29.698485
11
41.012193
21
-41.012193
0
ARC
8
0
62
1
10
0
20
0
40
42.0
50
222.953722
51
227.046278
0
LINE
8
0
62
1
10
10.8704
20
-40.568885
11
15.011505
21
-56.023698
0
ARC
8
0
62
1
10
0
20
0
40
42.0
50
252.953722
51
257.046278
0
LINE
8
0
62
1
10
-10.8704
20
-40.568885
11
-15.011505
21
-56.023698
0
ARC
8
0
62
1
10
0
20
0
40
42.0
50
282.953722
51
287.046278
0
LINE
8
0
62
1
10
-29.698485
20
-29.698485
11
-41.012193
21
-41.012193
0
ARC
8
0
62
1
10
0
20
0
40
42.0
50
312.953722
51
317.046278
0
LINE
8
0
62
1
10
-40.568885
20
-10.8704
11
-56.023698
21
-15.011505
0
ARC
8
0
62
1
10
0
20
0
40
42.0
50
342.953722
51
347.046278
0
LINE
8
0
62
1
10
-40.568885
20
10.8704
11
-56.023698
21
15.011505
0
ARC
8
0
62
1
10
0
20
0
40
42.0
50
372.953722
51
377.046278
0
LINE
8
0
62
1
10
-29.698485
20
29.698485
11
-41.012193
21
41.012193
0
ARC
8
0
62
1
10
0
20
0
40
42.0
50
402.953722
51
407.046278
0
LINE
8
0
62
1
10
-10.8704
20
40.568885
11
-15.011505
21
56.023698
0
ARC
8
0
62
1
10
0
20
0
40
42.0
50
432.953722
51
437.046278
0
LINE
8
0
10
-28.619112
20
30.739981
11
-26.151906
21
34.931369
0
LINE
8
0
10
-12.312049
20
40.154868
11
-17.1755
21
40.1139
0
LINE
8
0
10
-26.151906
20
34.931369
11
-33.217074
21
47.546041
0
LINE
8
0
10
-17.1755
20
40.1139
11
-24.567542
21
52.53985
0
ARC
8
0
10
0
20
0
40
42.0
50
437.046278
51
462.953722
0
LINE
8
0
62
1
10
10.8704
20
40.568885
11
15.011505
21
56.023698
0
ARC
8
0
62
1
10
0
20
0
40
42.0
50
102.953722
51
107.046278
0
LINE
8
0
62
1
10
29.698485
20
29.698485
11
41.012193
21
41.012193
0
ARC
8
0
62
1
10
0
20
0
40
42.0
50
132.953722
51
137.046278
0
LINE
8
0
62
1
10
40.568885
20
10.8704
11
56.023698
21
15.011505
0
ARC
8
0
62
1
10
0
20
0
40
42.0
50
162.953722
51
167.046278
0
LINE
8
0
62
1
10
40.568885
20
-10.8704
11
56.023698
21
-15.011505
0
ARC
8
0
62
1
10
0
20
0
40
42.0
50
192.953722
51
197.046278
0
LINE
8
0
62
1
10
29.698485
20
-29.698485
11
41.012193
21
-41.012193
0
ARC
8
0
62
1
10
0
20
0
40
42.0
50
222.953722
51
227.046278
0
LINE
8
0
62
1
10
10.8704
20
-40.568885
11
15.011505
21
-56.023698
0
ARC
8
0
62
1
10
0
20
0
40
42.0
50
252.953722
51
257.046278
0
LINE
8
0
62
1
10
-10.8704
20
-40.568885
11
-15.011505
21
-56.023698
0
ARC
8
0
62
1
10
0
20
0
40
42.0
50
282.953722
51
287.046278
0
LINE
8
0
62
1
10
-29.698485
20
-29.698485
11
-41.012193
21
-41.012193
0
ARC
8
0
62
1
10
0
20
0
40
42.0
50
312.953722
51
317.046278
0
LINE
8
0
62
1
10
-40.568885
20
-10.8704
11
-56.023698
21
-15.011505
0
ARC
8
0
62
1
10
0
20
0
40
42.0
50
342.953722
51
347.046278
0
LINE
8
0
62
1
10
-40.568885
20
10.8704
11
-56.023698
21
15.011505
0
ARC
8
0
62
1
10
0
20
0
40
42.0
50
372.953722
51
377.046278
0
LINE
8
0
62
1
10
-29.698485
20
29.698485
11
-41.012193
21
41.012193
0
ARC
8
0
62
1
10
0
20
0
40
42.0
50
402.953722
51
407.046278
0
LINE
8
0
62
1
10
-10.8704
20
40.568885
11
-15.011505
21
56.023698
0
ARC
8
0
62
1
10
0
20
0
40
42.0
50
432.953722
51
437.046278
0
LINE
8
0
10
-9.414887
20
40.93116
11
-5.182531
21
43.327406
0
LINE
8
0
10
9.414887
20
40.93116
11
5.182531
21
43.327406
0
LINE
8
0
10
-5.182531
20
43.327406
11
-4.993809
21
57.784616
0
LINE
8
0
10
5.182531
20
43.327406
11
4.993809
21
57.784616
0
ARC
8
0
10
0
20
0
40
58.0
50
124.939291
51
145.060709
0
ARC
8
0
10
0
20
0
40
58.0
50
154.939291
51
175.060709
0
ARC
8
0
10
0
20
0
40
58.0
50
184.939291
51
205.060709
0
ARC
8
0
10
0
20
0
40
58.0
50
214.939291
51
235.060709
0
ARC
8
0
10
0
20
0
40
58.0
50
244.939291
51
265.060709
0
ARC
8
0
10
0
20
0
40
58.0
50
274.939291
51
295.060709
0
ARC
8
0
10
0
20
0
40
58.0
50
304.939291
51
325.060709
0
ARC
8
0
10
0
20
0
40
58.0
50
334.939291
51
355.060709
0
ARC
8
0
10
0
20
0
40
58.0
50
364.939291
51
385.060709
0
ARC
8
0
10
0
20
0
40
58.0
50
394.939291
51
415.060709
0
ARC
8
0
10
0
20
0
40
58.0
50
424.939291
51
445.060709
0
ARC
8
0
10
0
20
0
40
58.0
50
454.939291
51
115.060709
0
ARC
8
0
10
0
20
0
40
41.5
50
110.302526
51
126.0
0
ARC
8
0
10
0
20
0
40
41.5
50
126.0
51
141.697474
0
LINE
8
0
10
32.567085
20
25.722266
11
28.64334
21
22.623198
0
LINE
8
0
10
12.664661
20
34.232388
11
14.399546
21
38.921756
0
ARC
8
0
10
0
20
0
40
41.5
50
146.302526
51
162.0
0
ARC
8
0
10
0
20
0
40
41.5
50
162.0
51
177.697474
0
LINE
8
0
10
41.466494
20
1.667298
11
36.470531
21
1.466418
0
LINE
8
0
10
30.367218
20
20.250483
11
34.527111
21
23.024521
0
ARC
8
0
10
0
20
0
40
41.5
50
182.302526
51
198.0
0
ARC
8
0
10
0
20
0
40
41.5
50
198.0
51
213.697474
0
LINE
8
0
10
34.527111
20
-23.024521
11
30.367218
21
-20.250483
0
LINE
8
0
10
36.470531
20
-1.466418
11
41.466494
21
-1.667298
0
ARC
8
0
10
0
20
0
40
41.5
50
218.302526
51
234.0
0
ARC
8
0
10
0
20
0
40
41.5
50
234.0
51
249.697474
0
LINE
8
0
10
14.399546
20
-38.921756
11
12.664661
21
-34.232388
0
LINE
8
0
10
28.64334
20
-22.623198
11
32.567085
21
-25.722266
0
ARC
8
0
10
0
20
0
40
41.5
50
254.302526
51
270.0
0
ARC
8
0
10
0
20
0
40
41.5
50
270.0
51
285.697474
0
LINE
8
0
10
-11.228157
20
-39.952203
11
-9.875367
21
-35.138684
0
LINE
8
0
10
9.875367
20
-35.138684
11
11.228157
21
-39.952203
0
ARC
8
0
10
0
20
0
40
41.5
50
290.302526
51
306.0
0
ARC
8
0
10
0
20
0
40
41.5
50
306.0
51
321.697474
0
LINE
8
0
10
-32.567085
20
-25.722266
11
-28.64334
21
-22.623198
0
LINE
8
0
10
-12.664661
20
-34.232388
11
-14.399546
21
-38.921756
0
ARC
8
0
10
0
20
0
40
41.5
50
326.302526
51
342.0
0
ARC
8
0
10
0
20
0
40
41.5
50
342.0
51
357.697474
0
LINE
8
0
10
-41.466494
20
-1.667298
11
-36.470531
21
-1.466418
0
LINE
8
0
10
-30.367218
20
-20.250483
11
-34.527111
21
-23.024521
0
ARC
8
0
10
0
20
0
40
41.5
50
362.302526
51
378.0
0
ARC
8
0
10
0
20
0
40
41.5
50
378.0
51
393.697474
0
LINE
8
0
10
-34.527111
20
23.024521
11
-30.367218
21
20.250483
0
LINE
8
0
10
-36.470531
20
1.466418
11
-41.466494
21
1.667298
0
ARC
8
0
10
0
20
0
40
41.5
50
398.302526
51
414.0
0
ARC
8
0
10
0
20
0
40
41.5
50
414.0
51
429.697474
0
LINE
8
0
10
-14.399546
20
38.921756
11
-12.664661
21
34.232388
0
LINE
8
0
10
-28.64334
20
22.623198
11
-32.567085
21
25.722266
0
ARC
8
0
10
0
20
0
40
41.5
50
434.302526
51
450.0
0
ARC
8
0
10
0
20
0
40
41.5
50
450.0
51
465.697474
0
LINE
8
0
10
11.228157
20
39.952203
11
9.875367
21
35.138684
0
LINE
8
0
10
-9.875367
20
35.138684
11
-11.228157
21
39.952203
0
ENDSEC
0
EOF
