%TF.GenerationSoftware,KiCad,Pcbnew,(6.0.10-0)*%
%TF.CreationDate,2023-01-24T09:25:03+01:00*%
%TF.ProjectId,support,73757070-6f72-4742-9e6b-696361645f70,rev?*%
%TF.SameCoordinates,Original*%
%TF.FileFunction,Copper,L2,Bot*%
%TF.FilePolarity,Positive*%
%FSLAX46Y46*%
G04 Gerber Fmt 4.6, Leading zero omitted, Abs format (unit mm)*
G04 Created by KiCad (PCBNEW (6.0.10-0)) date 2023-01-24 09:25:03*
%MOMM*%
%LPD*%
G01*
G04 APERTURE LIST*
%TA.AperFunction,ComponentPad*%
%ADD10C,1.524000*%
%TD*%
%TA.AperFunction,ComponentPad*%
%ADD11R,1.524000X1.524000*%
%TD*%
%TA.AperFunction,ViaPad*%
%ADD12C,5.000000*%
%TD*%
%TA.AperFunction,ViaPad*%
%ADD13C,0.800000*%
%TD*%
G04 APERTURE END LIST*
D10*
%TO.P,REF\u002A\u002A,80*%
%TO.N,N/C*%
X175972000Y-91440000D03*
%TO.P,REF\u002A\u002A,79*%
X178512000Y-91440000D03*
%TO.P,REF\u002A\u002A,78*%
X181052000Y-91440000D03*
%TO.P,REF\u002A\u002A,77*%
X183592000Y-91440000D03*
%TO.P,REF\u002A\u002A,76*%
X186132000Y-91440000D03*
%TO.P,REF\u002A\u002A,75*%
X188672000Y-91440000D03*
%TO.P,REF\u002A\u002A,74*%
X191212000Y-91440000D03*
%TO.P,REF\u002A\u002A,73*%
X193752000Y-91440000D03*
%TO.P,REF\u002A\u002A,72*%
X196292000Y-91440000D03*
%TO.P,REF\u002A\u002A,71*%
X198832000Y-91440000D03*
%TO.P,REF\u002A\u002A,70*%
X198832000Y-50800000D03*
%TO.P,REF\u002A\u002A,69*%
X196292000Y-50800000D03*
%TO.P,REF\u002A\u002A,68*%
X193752000Y-50800000D03*
%TO.P,REF\u002A\u002A,67*%
X191212000Y-50800000D03*
%TO.P,REF\u002A\u002A,66*%
X188672000Y-50800000D03*
%TO.P,REF\u002A\u002A,65*%
X186132000Y-50800000D03*
%TO.P,REF\u002A\u002A,64*%
X183592000Y-50800000D03*
%TO.P,REF\u002A\u002A,63*%
X181052000Y-50800000D03*
%TO.P,REF\u002A\u002A,62*%
X178512000Y-50800000D03*
%TO.P,REF\u002A\u002A,61*%
X175972000Y-50800000D03*
%TO.P,REF\u002A\u002A,60*%
X175972000Y-93980000D03*
%TO.P,REF\u002A\u002A,59*%
X178512000Y-93980000D03*
%TO.P,REF\u002A\u002A,58*%
X181052000Y-93980000D03*
%TO.P,REF\u002A\u002A,57*%
X183592000Y-93980000D03*
%TO.P,REF\u002A\u002A,56*%
X186132000Y-93980000D03*
%TO.P,REF\u002A\u002A,55*%
X188672000Y-93980000D03*
%TO.P,REF\u002A\u002A,54*%
X191212000Y-93980000D03*
%TO.P,REF\u002A\u002A,53*%
X193752000Y-93980000D03*
%TO.P,REF\u002A\u002A,52*%
X196292000Y-93980000D03*
%TO.P,REF\u002A\u002A,51*%
X198832000Y-93980000D03*
%TO.P,REF\u002A\u002A,50*%
X198832000Y-48260000D03*
%TO.P,REF\u002A\u002A,49*%
X196292000Y-48260000D03*
%TO.P,REF\u002A\u002A,48*%
X193752000Y-48260000D03*
%TO.P,REF\u002A\u002A,47*%
X191212000Y-48260000D03*
%TO.P,REF\u002A\u002A,46*%
X188672000Y-48260000D03*
%TO.P,REF\u002A\u002A,45*%
X186132000Y-48260000D03*
%TO.P,REF\u002A\u002A,44*%
X183592000Y-48260000D03*
%TO.P,REF\u002A\u002A,43*%
X181052000Y-48260000D03*
%TO.P,REF\u002A\u002A,42*%
X178512000Y-48260000D03*
%TO.P,REF\u002A\u002A,41*%
X175972000Y-48260000D03*
%TO.P,REF\u002A\u002A,40*%
X112472000Y-91440000D03*
%TO.P,REF\u002A\u002A,39*%
X115012000Y-91440000D03*
%TO.P,REF\u002A\u002A,38*%
X117552000Y-91440000D03*
%TO.P,REF\u002A\u002A,37*%
X120092000Y-91440000D03*
%TO.P,REF\u002A\u002A,36*%
X122632000Y-91440000D03*
%TO.P,REF\u002A\u002A,35*%
X125172000Y-91440000D03*
%TO.P,REF\u002A\u002A,34*%
X127712000Y-91440000D03*
%TO.P,REF\u002A\u002A,33*%
X130252000Y-91440000D03*
%TO.P,REF\u002A\u002A,32*%
X132792000Y-91440000D03*
%TO.P,REF\u002A\u002A,31*%
X135332000Y-91440000D03*
%TO.P,REF\u002A\u002A,30*%
X135332000Y-50800000D03*
%TO.P,REF\u002A\u002A,29*%
X132792000Y-50800000D03*
%TO.P,REF\u002A\u002A,28*%
X130252000Y-50800000D03*
%TO.P,REF\u002A\u002A,27*%
X127712000Y-50800000D03*
%TO.P,REF\u002A\u002A,26*%
X125172000Y-50800000D03*
%TO.P,REF\u002A\u002A,25*%
X122632000Y-50800000D03*
%TO.P,REF\u002A\u002A,24*%
X120092000Y-50800000D03*
%TO.P,REF\u002A\u002A,23*%
X117552000Y-50800000D03*
%TO.P,REF\u002A\u002A,22*%
X115012000Y-50800000D03*
%TO.P,REF\u002A\u002A,21*%
X112472000Y-50800000D03*
%TO.P,REF\u002A\u002A,20*%
X112472000Y-93980000D03*
%TO.P,REF\u002A\u002A,19*%
X115012000Y-93980000D03*
%TO.P,REF\u002A\u002A,18*%
X117552000Y-93980000D03*
%TO.P,REF\u002A\u002A,17*%
X120092000Y-93980000D03*
%TO.P,REF\u002A\u002A,16*%
X122632000Y-93980000D03*
%TO.P,REF\u002A\u002A,15*%
X125172000Y-93980000D03*
%TO.P,REF\u002A\u002A,14*%
X127712000Y-93980000D03*
%TO.P,REF\u002A\u002A,13*%
X130252000Y-93980000D03*
%TO.P,REF\u002A\u002A,12*%
X132792000Y-93980000D03*
%TO.P,REF\u002A\u002A,11*%
X135332000Y-93980000D03*
%TO.P,REF\u002A\u002A,10*%
X135332000Y-48260000D03*
%TO.P,REF\u002A\u002A,9*%
X132792000Y-48260000D03*
%TO.P,REF\u002A\u002A,8*%
X130252000Y-48260000D03*
%TO.P,REF\u002A\u002A,7*%
X127712000Y-48260000D03*
%TO.P,REF\u002A\u002A,6*%
X125172000Y-48260000D03*
%TO.P,REF\u002A\u002A,5*%
X122632000Y-48260000D03*
%TO.P,REF\u002A\u002A,4*%
X120092000Y-48260000D03*
%TO.P,REF\u002A\u002A,3*%
X117552000Y-48260000D03*
%TO.P,REF\u002A\u002A,2*%
X115012000Y-48260000D03*
D11*
%TO.P,REF\u002A\u002A,1*%
X112472000Y-48260000D03*
%TD*%
D12*
%TO.N,*%
X177800000Y-71120000D03*
X111760000Y-71120000D03*
D13*
X127000000Y-50800000D03*
%TD*%
M02*
