<?xml version="1.0" encoding="UTF-8" standalone="no"?>
<!-- Created with Inkscape (http://www.inkscape.org/) -->

<svg
   width="185.04532mm"
   height="124.43985mm"
   viewBox="0 0 185.04532 124.43985"
   version="1.1"
   id="svg5"
   inkscape:version="1.1.2 (b8e25be8, 2022-02-05)"
   sodipodi:docname="number.svg"
   xmlns:inkscape="http://www.inkscape.org/namespaces/inkscape"
   xmlns:sodipodi="http://sodipodi.sourceforge.net/DTD/sodipodi-0.dtd"
   xmlns="http://www.w3.org/2000/svg"
   xmlns:svg="http://www.w3.org/2000/svg">
  <sodipodi:namedview
     id="namedview7"
     pagecolor="#ffffff"
     bordercolor="#666666"
     borderopacity="1.0"
     inkscape:pageshadow="2"
     inkscape:pageopacity="0.0"
     inkscape:pagecheckerboard="0"
     inkscape:document-units="mm"
     showgrid="false"
     inkscape:zoom="0.64143853"
     inkscape:cx="353.11256"
     inkscape:cy="81.067784"
     inkscape:window-width="1460"
     inkscape:window-height="916"
     inkscape:window-x="44"
     inkscape:window-y="38"
     inkscape:window-maximized="0"
     inkscape:current-layer="layer1"
     fit-margin-top="0"
     fit-margin-left="0"
     fit-margin-right="0"
     fit-margin-bottom="0" />
  <defs
     id="defs2" />
  <g
     inkscape:label="Livello 1"
     inkscape:groupmode="layer"
     id="layer1"
     transform="translate(-39.001327,-85.218968)">
    <path
       id="rect1683"
       style="fill:none;stroke:#0000ff;stroke-width:0.4;stroke-miterlimit:4;stroke-dasharray:none;stop-color:#000000"
       d="m 42.562646,85.418968 h 12.820975 c 1.862171,0 3.361319,1.499149 3.361319,3.361319 v 12.820973 c 0,1.86217 -1.499148,3.36132 -3.361319,3.36132 H 42.562646 c -1.862171,0 -3.361319,-1.49915 -3.361319,-3.36132 V 88.780287 c 0,-1.86217 1.499148,-3.361319 3.361319,-3.361319 z" />
    <path
       id="rect1683-6"
       style="fill:none;stroke:#0000ff;stroke-width:0.4;stroke-miterlimit:4;stroke-dasharray:none;stop-color:#000000"
       d="m 42.562646,106.06502 h 12.820975 c 1.862171,0 3.361319,1.49915 3.361319,3.36132 v 12.82097 c 0,1.86217 -1.499148,3.36132 -3.361319,3.36132 H 42.562646 c -1.862171,0 -3.361319,-1.49915 -3.361319,-3.36132 v -12.82097 c 0,-1.86217 1.499148,-3.36132 3.361319,-3.36132 z" />
    <path
       d="M 51.055687,99.050995 H 46.89058 v -0.785479 h 1.601964 V 93.108224 H 46.89058 v -0.702797 q 0.32556,0 0.697629,-0.05168 0.372069,-0.05684 0.563272,-0.160197 0.237711,-0.129191 0.372069,-0.32556 0.139526,-0.201538 0.160196,-0.537434 h 0.800982 v 6.934956 h 1.570959 z"
       id="path18326"
       style="font-size:10.5833px;line-height:1.25;stroke-width:0.264583" />
    <path
       d="M 51.055687,119.68411 H 46.89058 v -0.78548 h 1.601964 v -5.15729 H 46.89058 v -0.7028 q 0.32556,0 0.697629,-0.0517 0.372069,-0.0568 0.563272,-0.1602 0.237711,-0.12919 0.372069,-0.32556 0.139526,-0.20154 0.160196,-0.53743 h 0.800982 v 6.93495 h 1.570959 z"
       id="path18323"
       style="font-size:10.5833px;line-height:1.25;stroke-width:0.264583" />
    <path
       id="rect1683-68"
       style="fill:none;stroke:#0000ff;stroke-width:0.4;stroke-miterlimit:4;stroke-dasharray:none;stop-color:#000000"
       d="M 63.201795,85.660818 H 76.02277 c 1.862171,0 3.361319,1.499149 3.361319,3.361319 v 12.820973 c 0,1.86217 -1.499148,3.36132 -3.361319,3.36132 H 63.201795 c -1.862171,0 -3.361319,-1.49915 -3.361319,-3.36132 V 89.022137 c 0,-1.86217 1.499148,-3.361319 3.361319,-3.361319 z" />
    <path
       id="rect1683-6-6"
       style="fill:none;stroke:#0000ff;stroke-width:0.4;stroke-miterlimit:4;stroke-dasharray:none;stop-color:#000000"
       d="M 63.201795,106.30687 H 76.02277 c 1.862171,0 3.361319,1.49915 3.361319,3.36132 v 12.82097 c 0,1.86217 -1.499148,3.36132 -3.361319,3.36132 H 63.201795 c -1.862171,0 -3.361319,-1.49915 -3.361319,-3.36132 v -12.82097 c 0,-1.86217 1.499148,-3.36132 3.361319,-3.36132 z" />
    <path
       d="M 72.216767,99.292854 H 67.0078 V 98.21282 q 0.5426,-0.465086 1.085201,-0.930173 0.547769,-0.465086 1.018023,-0.925005 0.992184,-0.961178 1.359086,-1.52445 0.366901,-0.568439 0.366901,-1.224727 0,-0.599445 -0.397907,-0.935341 -0.39274,-0.341063 -1.100705,-0.341063 -0.470254,0 -1.018022,0.165364 -0.547769,0.165364 -1.069699,0.506428 h -0.05168 v -1.085202 q 0.366901,-0.180867 0.976681,-0.330728 0.614948,-0.149861 1.188554,-0.149861 1.183387,0 1.855179,0.573606 0.671791,0.568439 0.671791,1.545121 0,0.439248 -0.113688,0.821652 -0.10852,0.377237 -0.32556,0.7183 -0.201538,0.320393 -0.475422,0.630451 -0.268717,0.310057 -0.656289,0.687294 -0.552936,0.542601 -1.142045,1.054196 -0.58911,0.506427 -1.100705,0.940508 h 4.139269 z"
       id="path18320"
       style="font-size:10.5833px;line-height:1.25;stroke-width:0.264583" />
    <path
       d="M 72.216767,119.92595 H 67.0078 v -1.08003 q 0.5426,-0.46509 1.085201,-0.93018 0.547769,-0.46508 1.018023,-0.925 0.992184,-0.96118 1.359086,-1.52445 0.366901,-0.56844 0.366901,-1.22473 0,-0.59945 -0.397907,-0.93534 -0.39274,-0.34106 -1.100705,-0.34106 -0.470254,0 -1.018022,0.16536 -0.547769,0.16536 -1.069699,0.50643 h -0.05168 v -1.0852 q 0.366901,-0.18087 0.976681,-0.33073 0.614948,-0.14986 1.188554,-0.14986 1.183387,0 1.855179,0.5736 0.671791,0.56844 0.671791,1.54512 0,0.43925 -0.113688,0.82166 -0.10852,0.37723 -0.32556,0.7183 -0.201538,0.32039 -0.475422,0.63045 -0.268717,0.31005 -0.656289,0.68729 -0.552936,0.5426 -1.142045,1.0542 -0.58911,0.50642 -1.100705,0.9405 h 4.139269 z"
       id="path18317"
       style="font-size:10.5833px;line-height:1.25;stroke-width:0.264583" />
    <path
       id="path6217"
       style="fill:none;stroke:#0000ff;stroke-width:0.4;stroke-miterlimit:4;stroke-dasharray:none;stop-color:#000000"
       d="m 83.837647,85.418968 h 12.820975 c 1.862171,0 3.361318,1.499149 3.361318,3.361319 v 12.820973 c 0,1.86217 -1.499147,3.36132 -3.361318,3.36132 H 83.837647 c -1.862171,0 -3.361319,-1.49915 -3.361319,-3.36132 V 88.780287 c 0,-1.86217 1.499148,-3.361319 3.361319,-3.361319 z" />
    <path
       id="path6227"
       style="fill:none;stroke:#0000ff;stroke-width:0.4;stroke-miterlimit:4;stroke-dasharray:none;stop-color:#000000"
       d="m 83.837647,106.06502 h 12.820975 c 1.862171,0 3.361318,1.49915 3.361318,3.36132 v 12.82097 c 0,1.86217 -1.499147,3.36132 -3.361318,3.36132 H 83.837647 c -1.862171,0 -3.361319,-1.49915 -3.361319,-3.36132 v -12.82097 c 0,-1.86217 1.499148,-3.36132 3.361319,-3.36132 z" />
    <path
       d="m 92.09297,95.345806 q 0.248046,0.222208 0.408242,0.558104 0.160197,0.335896 0.160197,0.868161 0,0.527098 -0.191202,0.966347 -0.191202,0.439248 -0.537433,0.764808 -0.387572,0.361734 -0.91467,0.537434 -0.521931,0.170531 -1.147214,0.170531 -0.640785,0 -1.2609,-0.155029 -0.620116,-0.149861 -1.018023,-0.330728 V 97.6454 h 0.07751 q 0.439249,0.289387 1.033526,0.48059 0.594277,0.191202 1.147213,0.191202 0.32556,0 0.692462,-0.10852 0.366901,-0.10852 0.594277,-0.320393 0.237711,-0.227376 0.351399,-0.50126 0.118855,-0.273884 0.118855,-0.692462 0,-0.41341 -0.134358,-0.682127 -0.129191,-0.273884 -0.361734,-0.428913 -0.232543,-0.160196 -0.563271,-0.21704 -0.330729,-0.06201 -0.713133,-0.06201 h -0.465086 v -0.857826 h 0.361734 q 0.785479,0 1.250565,-0.32556 0.470254,-0.330728 0.470254,-0.961179 0,-0.279051 -0.118855,-0.485757 -0.118856,-0.211872 -0.330728,-0.346231 -0.222208,-0.134358 -0.475422,-0.186034 -0.253214,-0.05168 -0.573607,-0.05168 -0.490924,0 -1.04386,0.175699 -0.552936,0.175699 -1.043861,0.496092 h -0.05168 v -1.080034 q 0.366902,-0.180867 0.976681,-0.330728 0.614948,-0.155029 1.188555,-0.155029 0.563271,0 0.992184,0.103353 0.428913,0.103352 0.775144,0.330728 0.372069,0.248046 0.563271,0.599445 0.191202,0.351398 0.191202,0.821652 0,0.640786 -0.454751,1.121375 -0.449583,0.475422 -1.064531,0.599445 v 0.07235 q 0.248046,0.04134 0.568439,0.175699 0.320393,0.129191 0.542601,0.32556 z"
       id="path18314"
       style="font-size:10.5833px;line-height:1.25;stroke-width:0.264583" />
    <path
       d="m 92.09297,115.97892 q 0.248046,0.22221 0.408242,0.55811 0.160197,0.33589 0.160197,0.86816 0,0.5271 -0.191202,0.96635 -0.191202,0.43924 -0.537433,0.7648 -0.387572,0.36174 -0.91467,0.53744 -0.521931,0.17053 -1.147214,0.17053 -0.640785,0 -1.2609,-0.15503 -0.620116,-0.14986 -1.018023,-0.33073 v -1.08003 h 0.07751 q 0.439249,0.28939 1.033526,0.48059 0.594277,0.1912 1.147213,0.1912 0.32556,0 0.692462,-0.10852 0.366901,-0.10852 0.594277,-0.32039 0.237711,-0.22738 0.351399,-0.50126 0.118855,-0.27389 0.118855,-0.69247 0,-0.41341 -0.134358,-0.68212 -0.129191,-0.27389 -0.361734,-0.42892 -0.232543,-0.16019 -0.563271,-0.21704 -0.330729,-0.062 -0.713133,-0.062 h -0.465086 v -0.85782 h 0.361734 q 0.785479,0 1.250565,-0.32556 0.470254,-0.33073 0.470254,-0.96118 0,-0.27905 -0.118855,-0.48576 -0.118856,-0.21187 -0.330728,-0.34623 -0.222208,-0.13436 -0.475422,-0.18603 -0.253214,-0.0517 -0.573607,-0.0517 -0.490924,0 -1.04386,0.1757 -0.552936,0.1757 -1.043861,0.49609 h -0.05168 v -1.08003 q 0.366902,-0.18087 0.976681,-0.33073 0.614948,-0.15503 1.188555,-0.15503 0.563271,0 0.992184,0.10335 0.428913,0.10335 0.775144,0.33073 0.372069,0.24805 0.563271,0.59945 0.191202,0.35139 0.191202,0.82165 0,0.64078 -0.454751,1.12137 -0.449583,0.47542 -1.064531,0.59945 v 0.0723 q 0.248046,0.0413 0.568439,0.1757 0.320393,0.12919 0.542601,0.32556 z"
       id="path18311"
       style="font-size:10.5833px;line-height:1.25;stroke-width:0.264583" />
    <path
       id="path6245"
       style="fill:none;stroke:#0000ff;stroke-width:0.4;stroke-miterlimit:4;stroke-dasharray:none;stop-color:#000000"
       d="m 104.4768,85.660818 h 12.82097 c 1.86217,0 3.36132,1.499149 3.36132,3.361319 v 12.820973 c 0,1.86217 -1.49915,3.36132 -3.36132,3.36132 H 104.4768 c -1.86217,0 -3.36132,-1.49915 -3.36132,-3.36132 V 89.022137 c 0,-1.86217 1.49915,-3.361319 3.36132,-3.361319 z" />
    <path
       id="path6255"
       style="fill:none;stroke:#0000ff;stroke-width:0.4;stroke-miterlimit:4;stroke-dasharray:none;stop-color:#000000"
       d="m 104.4768,106.30687 h 12.82097 c 1.86217,0 3.36132,1.49915 3.36132,3.36132 v 12.82097 c 0,1.86217 -1.49915,3.36132 -3.36132,3.36132 H 104.4768 c -1.86217,0 -3.36132,-1.49915 -3.36132,-3.36132 v -12.82097 c 0,-1.86217 1.49915,-3.36132 3.36132,-3.36132 z" />
    <path
       d="m 113.66744,97.127619 h -1.14205 v 2.165235 h -0.99218 v -2.165235 h -3.68452 v -1.188554 l 3.72586,-4.340807 h 0.95084 v 4.70254 h 1.14205 z m -2.13423,-0.826821 v -3.472645 l -2.98172,3.472645 z"
       id="path18308"
       style="font-size:10.5833px;line-height:1.25;stroke-width:0.264583" />
    <path
       d="m 113.66744,117.76071 h -1.14205 v 2.16524 h -0.99218 v -2.16524 h -3.68452 v -1.18855 l 3.72586,-4.34081 h 0.95084 v 4.70254 h 1.14205 z m -2.13423,-0.82682 v -3.47264 l -2.98172,3.47264 z"
       id="path18305"
       style="font-size:10.5833px;line-height:1.25;stroke-width:0.264583" />
    <path
       id="path6273"
       style="fill:none;stroke:#0000ff;stroke-width:0.4;stroke-miterlimit:4;stroke-dasharray:none;stop-color:#000000"
       d="m 125.11265,85.418968 h 12.82097 c 1.86217,0 3.36132,1.499149 3.36132,3.361319 v 12.820973 c 0,1.86217 -1.49915,3.36132 -3.36132,3.36132 h -12.82097 c -1.86217,0 -3.36132,-1.49915 -3.36132,-3.36132 V 88.780287 c 0,-1.86217 1.49915,-3.361319 3.36132,-3.361319 z" />
    <path
       id="path6283"
       style="fill:none;stroke:#0000ff;stroke-width:0.4;stroke-miterlimit:4;stroke-dasharray:none;stop-color:#000000"
       d="m 125.11265,106.06502 h 12.82097 c 1.86217,0 3.36132,1.49915 3.36132,3.36132 v 12.82097 c 0,1.86217 -1.49915,3.36132 -3.36132,3.36132 h -12.82097 c -1.86217,0 -3.36132,-1.49915 -3.36132,-3.36132 v -12.82097 c 0,-1.86217 1.49915,-3.36132 3.36132,-3.36132 z" />
    <path
       d="m 133.98297,96.606707 q 0,0.537434 -0.19637,1.028358 -0.19637,0.490925 -0.53743,0.82682 -0.37207,0.361734 -0.88883,0.558104 -0.5116,0.191202 -1.18856,0.191202 -0.63045,0 -1.21439,-0.134358 -0.58394,-0.129191 -0.98702,-0.315225 v -1.090369 h 0.0724 q 0.42375,0.268716 0.99219,0.459918 0.56843,0.186035 1.1162,0.186035 0.3669,0 0.70797,-0.103353 0.34623,-0.103352 0.61495,-0.361734 0.22737,-0.222207 0.34106,-0.532265 0.11885,-0.310058 0.11885,-0.7183 0,-0.397907 -0.13952,-0.671792 -0.13436,-0.273884 -0.37724,-0.439248 -0.26872,-0.19637 -0.65629,-0.273884 -0.3824,-0.08268 -0.85782,-0.08268 -0.45475,0 -0.8785,0.06201 -0.41858,0.06201 -0.72347,0.124023 V 91.3564 h 4.6302 v 0.904334 h -3.63285 v 2.04638 q 0.22221,-0.02067 0.45476,-0.03101 0.23254,-0.01034 0.40307,-0.01034 0.62528,0 1.09554,0.108521 0.47025,0.103352 0.86299,0.372069 0.41341,0.284219 0.64079,0.733803 0.22737,0.449583 0.22737,1.126542 z"
       id="path18302"
       style="font-size:10.5833px;line-height:1.25;stroke-width:0.264583" />
    <path
       d="m 133.98297,117.23983 q 0,0.53743 -0.19637,1.02835 -0.19637,0.49093 -0.53743,0.82682 -0.37207,0.36174 -0.88883,0.55811 -0.5116,0.1912 -1.18856,0.1912 -0.63045,0 -1.21439,-0.13436 -0.58394,-0.12919 -0.98702,-0.31522 v -1.09037 h 0.0724 q 0.42375,0.26871 0.99219,0.45991 0.56843,0.18604 1.1162,0.18604 0.3669,0 0.70797,-0.10335 0.34623,-0.10336 0.61495,-0.36174 0.22737,-0.2222 0.34106,-0.53226 0.11885,-0.31006 0.11885,-0.7183 0,-0.39791 -0.13952,-0.67179 -0.13436,-0.27389 -0.37724,-0.43925 -0.26872,-0.19637 -0.65629,-0.27389 -0.3824,-0.0827 -0.85782,-0.0827 -0.45475,0 -0.8785,0.062 -0.41858,0.062 -0.72347,0.12403 v -3.96357 h 4.6302 v 0.90433 h -3.63285 v 2.04638 q 0.22221,-0.0207 0.45476,-0.031 0.23254,-0.0103 0.40307,-0.0103 0.62528,0 1.09554,0.10852 0.47025,0.10335 0.86299,0.37207 0.41341,0.28422 0.64079,0.7338 0.22737,0.44959 0.22737,1.12655 z"
       id="path18299"
       style="font-size:10.5833px;line-height:1.25;stroke-width:0.264583" />
    <path
       id="path6301"
       style="fill:none;stroke:#0000ff;stroke-width:0.4;stroke-miterlimit:4;stroke-dasharray:none;stop-color:#000000"
       d="m 145.75178,85.660818 h 12.82098 c 1.86217,0 3.36132,1.499149 3.36132,3.361319 v 12.820973 c 0,1.86217 -1.49915,3.36132 -3.36132,3.36132 h -12.82098 c -1.86217,0 -3.36132,-1.49915 -3.36132,-3.36132 V 89.022137 c 0,-1.86217 1.49915,-3.361319 3.36132,-3.361319 z" />
    <path
       id="path6311"
       style="fill:none;stroke:#0000ff;stroke-width:0.4;stroke-miterlimit:4;stroke-dasharray:none;stop-color:#000000"
       d="m 145.75178,106.30687 h 12.82098 c 1.86217,0 3.36132,1.49915 3.36132,3.36132 v 12.82097 c 0,1.86217 -1.49915,3.36132 -3.36132,3.36132 h -12.82098 c -1.86217,0 -3.36132,-1.49915 -3.36132,-3.36132 v -12.82097 c 0,-1.86217 1.49915,-3.36132 3.36132,-3.36132 z" />
    <path
       d="m 154.88049,96.796891 q 0,1.173051 -0.77515,1.917189 -0.76997,0.738971 -1.89135,0.738971 -0.56844,0 -1.03352,-0.1757 -0.46509,-0.175699 -0.82165,-0.52193 -0.44442,-0.428913 -0.6873,-1.136878 -0.23771,-0.707965 -0.23771,-1.705317 0,-1.02319 0.21704,-1.813837 0.22221,-0.790646 0.7028,-1.405594 0.45475,-0.583942 1.17305,-0.909502 0.7183,-0.330729 1.67431,-0.330729 0.30489,0 0.5116,0.02584 0.2067,0.02584 0.41857,0.09302 v 0.987017 h -0.0517 q -0.1447,-0.07752 -0.43925,-0.144694 -0.28939,-0.07235 -0.59428,-0.07235 -1.11104,0 -1.77249,0.69763 -0.66146,0.692462 -0.76998,1.875848 0.43408,-0.263549 0.85266,-0.397907 0.42374,-0.139526 0.97668,-0.139526 0.49092,0 0.86299,0.09302 0.37724,0.08785 0.76998,0.361733 0.45475,0.315226 0.68213,0.795815 0.23254,0.480589 0.23254,1.167884 z m -1.04903,0.04134 q 0,-0.48059 -0.14469,-0.795815 -0.13953,-0.315225 -0.46509,-0.547768 -0.23771,-0.165364 -0.5271,-0.217041 -0.28938,-0.05168 -0.60461,-0.05168 -0.43925,0 -0.81648,0.103353 -0.37724,0.103352 -0.77515,0.320392 -0.0103,0.113688 -0.0155,0.222208 -0.005,0.103353 -0.005,0.263549 0,0.816485 0.16536,1.291907 0.17054,0.470254 0.46509,0.744138 0.23771,0.227376 0.5116,0.335896 0.27905,0.103353 0.60461,0.103353 0.7493,0 1.17822,-0.454752 0.42891,-0.459918 0.42891,-1.317744 z"
       id="path18296"
       style="font-size:10.5833px;line-height:1.25;stroke-width:0.264583" />
    <path
       d="m 154.88049,117.42999 q 0,1.17305 -0.77515,1.91718 -0.76997,0.73898 -1.89135,0.73898 -0.56844,0 -1.03352,-0.1757 -0.46509,-0.1757 -0.82165,-0.52193 -0.44442,-0.42892 -0.6873,-1.13688 -0.23771,-0.70797 -0.23771,-1.70532 0,-1.02319 0.21704,-1.81384 0.22221,-0.79064 0.7028,-1.40559 0.45475,-0.58394 1.17305,-0.9095 0.7183,-0.33073 1.67431,-0.33073 0.30489,0 0.5116,0.0258 0.2067,0.0258 0.41857,0.093 v 0.98702 h -0.0517 q -0.1447,-0.0775 -0.43925,-0.14469 -0.28939,-0.0724 -0.59428,-0.0724 -1.11104,0 -1.77249,0.69763 -0.66146,0.69246 -0.76998,1.87585 0.43408,-0.26355 0.85266,-0.39791 0.42374,-0.13952 0.97668,-0.13952 0.49092,0 0.86299,0.093 0.37724,0.0879 0.76998,0.36174 0.45475,0.31522 0.68213,0.79581 0.23254,0.48059 0.23254,1.16789 z m -1.04903,0.0413 q 0,-0.48059 -0.14469,-0.79582 -0.13953,-0.31522 -0.46509,-0.54777 -0.23771,-0.16536 -0.5271,-0.21704 -0.28938,-0.0517 -0.60461,-0.0517 -0.43925,0 -0.81648,0.10335 -0.37724,0.10335 -0.77515,0.32039 -0.0103,0.11369 -0.0155,0.22221 -0.005,0.10335 -0.005,0.26355 0,0.81648 0.16536,1.29191 0.17054,0.47025 0.46509,0.74413 0.23771,0.22738 0.5116,0.3359 0.27905,0.10335 0.60461,0.10335 0.7493,0 1.17822,-0.45475 0.42891,-0.45992 0.42891,-1.31774 z"
       id="path18293"
       style="font-size:10.5833px;line-height:1.25;stroke-width:0.264583" />
    <path
       id="path6329"
       style="fill:none;stroke:#0000ff;stroke-width:0.4;stroke-miterlimit:4;stroke-dasharray:none;stop-color:#000000"
       d="m 166.38764,85.418968 h 12.82098 c 1.86217,0 3.36132,1.499149 3.36132,3.361319 v 12.820973 c 0,1.86217 -1.49915,3.36132 -3.36132,3.36132 h -12.82098 c -1.86217,0 -3.36132,-1.49915 -3.36132,-3.36132 V 88.780287 c 0,-1.86217 1.49915,-3.361319 3.36132,-3.361319 z" />
    <path
       id="path6339"
       style="fill:none;stroke:#0000ff;stroke-width:0.4;stroke-miterlimit:4;stroke-dasharray:none;stop-color:#000000"
       d="m 166.38764,106.06502 h 12.82098 c 1.86217,0 3.36132,1.49915 3.36132,3.36132 v 12.82097 c 0,1.86217 -1.49915,3.36132 -3.36132,3.36132 h -12.82098 c -1.86217,0 -3.36132,-1.49915 -3.36132,-3.36132 v -12.82097 c 0,-1.86217 1.49915,-3.36132 3.36132,-3.36132 z" />
    <path
       d="m 175.34068,92.508779 -3.48298,6.542216 h -1.10587 l 3.70518,-6.790262 h -4.38214 v -0.904334 h 5.26581 z"
       id="path18290"
       style="font-size:10.5833px;line-height:1.25;stroke-width:0.264583" />
    <path
       d="m 175.34068,113.1419 -3.48298,6.54221 h -1.10587 l 3.70518,-6.79026 h -4.38214 v -0.90433 h 5.26581 z"
       id="path18287"
       style="font-size:10.5833px;line-height:1.25;stroke-width:0.264583" />
    <path
       id="path6357"
       style="fill:none;stroke:#0000ff;stroke-width:0.4;stroke-miterlimit:4;stroke-dasharray:none;stop-color:#000000"
       d="m 187.0268,85.660818 h 12.82098 c 1.86217,0 3.36132,1.499149 3.36132,3.361319 v 12.820973 c 0,1.86217 -1.49915,3.36132 -3.36132,3.36132 H 187.0268 c -1.86217,0 -3.36132,-1.49915 -3.36132,-3.36132 V 89.022137 c 0,-1.86217 1.49915,-3.361319 3.36132,-3.361319 z" />
    <path
       id="path6367"
       style="fill:none;stroke:#0000ff;stroke-width:0.4;stroke-miterlimit:4;stroke-dasharray:none;stop-color:#000000"
       d="m 187.0268,106.30687 h 12.82098 c 1.86217,0 3.36132,1.49915 3.36132,3.36132 v 12.82097 c 0,1.86217 -1.49915,3.36132 -3.36132,3.36132 H 187.0268 c -1.86217,0 -3.36132,-1.49915 -3.36132,-3.36132 v -12.82097 c 0,-1.86217 1.49915,-3.36132 3.36132,-3.36132 z" />
    <path
       d="m 196.17097,97.148289 q 0,0.997352 -0.78032,1.658808 -0.77514,0.661457 -1.95336,0.661457 -1.25056,0 -1.9947,-0.645954 -0.73897,-0.645953 -0.73897,-1.65364 0,-0.640786 0.37207,-1.157549 0.37206,-0.52193 1.04902,-0.82682 v -0.03101 q -0.62011,-0.330728 -0.91983,-0.723467 -0.29456,-0.39274 -0.29456,-0.98185 0,-0.868161 0.71313,-1.446935 0.71314,-0.578774 1.81384,-0.578774 1.15238,0 1.83968,0.552936 0.68729,0.552936 0.68729,1.405594 0,0.521931 -0.32556,1.028358 -0.32556,0.50126 -0.95601,0.785479 v 0.03101 q 0.72347,0.310058 1.10587,0.764809 0.38241,0.454751 0.38241,1.157548 z m -1.22473,-3.756864 q 0,-0.552937 -0.42892,-0.878497 -0.42374,-0.330728 -1.0852,-0.330728 -0.65112,0 -1.0697,0.310057 -0.41341,0.310058 -0.41341,0.837156 0,0.372069 0.20671,0.645953 0.21187,0.268717 0.63562,0.48059 0.1912,0.09302 0.54777,0.242878 0.36173,0.149861 0.70279,0.248046 0.5116,-0.341063 0.70797,-0.707965 0.19637,-0.366901 0.19637,-0.84749 z m 0.16019,3.855049 q 0,-0.475422 -0.21187,-0.759641 -0.2067,-0.289387 -0.81648,-0.578774 -0.24288,-0.113688 -0.53227,-0.211873 -0.28939,-0.09819 -0.76998,-0.273884 -0.46508,0.253214 -0.7493,0.687294 -0.27905,0.434081 -0.27905,0.981849 0,0.69763 0.48059,1.152381 0.48059,0.454751 1.21956,0.454751 0.75447,0 1.20405,-0.387572 0.45475,-0.387572 0.45475,-1.064531 z"
       id="path18284"
       style="font-size:10.5833px;line-height:1.25;stroke-width:0.264583" />
    <path
       d="m 196.17097,117.78138 q 0,0.99736 -0.78032,1.65881 -0.77514,0.66146 -1.95336,0.66146 -1.25056,0 -1.9947,-0.64595 -0.73897,-0.64596 -0.73897,-1.65365 0,-0.64078 0.37207,-1.15754 0.37206,-0.52193 1.04902,-0.82682 v -0.031 q -0.62011,-0.33073 -0.91983,-0.72347 -0.29456,-0.39274 -0.29456,-0.98185 0,-0.86816 0.71313,-1.44693 0.71314,-0.57878 1.81384,-0.57878 1.15238,0 1.83968,0.55294 0.68729,0.55294 0.68729,1.40559 0,0.52193 -0.32556,1.02836 -0.32556,0.50126 -0.95601,0.78548 v 0.031 q 0.72347,0.31005 1.10587,0.76481 0.38241,0.45475 0.38241,1.15754 z m -1.22473,-3.75686 q 0,-0.55294 -0.42892,-0.8785 -0.42374,-0.33073 -1.0852,-0.33073 -0.65112,0 -1.0697,0.31006 -0.41341,0.31006 -0.41341,0.83716 0,0.37207 0.20671,0.64595 0.21187,0.26872 0.63562,0.48059 0.1912,0.093 0.54777,0.24288 0.36173,0.14986 0.70279,0.24804 0.5116,-0.34106 0.70797,-0.70796 0.19637,-0.3669 0.19637,-0.84749 z m 0.16019,3.85505 q 0,-0.47542 -0.21187,-0.75964 -0.2067,-0.28939 -0.81648,-0.57878 -0.24288,-0.11368 -0.53227,-0.21187 -0.28939,-0.0982 -0.76998,-0.27388 -0.46508,0.25321 -0.7493,0.68729 -0.27905,0.43408 -0.27905,0.98185 0,0.69763 0.48059,1.15238 0.48059,0.45475 1.21956,0.45475 0.75447,0 1.20405,-0.38757 0.45475,-0.38757 0.45475,-1.06453 z"
       id="path18281"
       style="font-size:10.5833px;line-height:1.25;stroke-width:0.264583" />
    <path
       id="path6385"
       style="fill:none;stroke:#0000ff;stroke-width:0.4;stroke-miterlimit:4;stroke-dasharray:none;stop-color:#000000"
       d="m 207.66434,85.660818 h 12.82098 c 1.86217,0 3.36132,1.499149 3.36132,3.361319 v 12.820973 c 0,1.86217 -1.49915,3.36132 -3.36132,3.36132 h -12.82098 c -1.86217,0 -3.36132,-1.49915 -3.36132,-3.36132 V 89.022137 c 0,-1.86217 1.49915,-3.361319 3.36132,-3.361319 z" />
    <path
       id="path6395"
       style="fill:none;stroke:#0000ff;stroke-width:0.4;stroke-miterlimit:4;stroke-dasharray:none;stop-color:#000000"
       d="m 207.66434,106.30687 h 12.82098 c 1.86217,0 3.36132,1.49915 3.36132,3.36132 v 12.82097 c 0,1.86217 -1.49915,3.36132 -3.36132,3.36132 h -12.82098 c -1.86217,0 -3.36132,-1.49915 -3.36132,-3.36132 v -12.82097 c 0,-1.86217 1.49915,-3.36132 3.36132,-3.36132 z" />
    <path
       d="m 216.79817,94.983054 q 0,1.007687 -0.23255,1.829339 -0.22737,0.821653 -0.69246,1.400427 -0.47025,0.58911 -1.17822,0.909503 -0.70796,0.320392 -1.66397,0.320392 -0.26872,0 -0.50643,-0.03101 -0.23771,-0.02584 -0.42374,-0.08785 v -0.987017 h 0.0517 q 0.14986,0.07751 0.42375,0.149862 0.27388,0.06718 0.60978,0.06718 1.14204,0 1.788,-0.682127 0.65112,-0.687294 0.75447,-1.891351 -0.48059,0.289387 -0.90434,0.41341 -0.42374,0.124023 -0.925,0.124023 -0.47542,0 -0.86299,-0.09302 -0.38241,-0.09302 -0.76998,-0.361733 -0.45475,-0.315226 -0.68729,-0.800983 -0.22738,-0.485756 -0.22738,-1.162716 0,-1.178219 0.77514,-1.917189 0.77515,-0.738971 1.89135,-0.738971 0.55811,0 1.03353,0.1757 0.47542,0.170531 0.83199,0.516762 0.43925,0.428913 0.67696,1.105872 0.23771,0.671792 0.23771,1.741491 z m -1.04386,-0.222208 q 0,-0.800983 -0.16537,-1.286739 -0.16536,-0.485757 -0.45475,-0.754474 -0.24288,-0.232543 -0.52193,-0.330728 -0.27905,-0.103353 -0.60461,-0.103353 -0.74414,0 -1.17822,0.465087 -0.42891,0.465086 -0.42891,1.307409 0,0.490925 0.13952,0.800983 0.13953,0.310057 0.47026,0.5426 0.23254,0.160197 0.51159,0.217041 0.27905,0.05168 0.62012,0.05168 0.40307,0 0.81648,-0.10852 0.41341,-0.10852 0.77515,-0.315225 0.005,-0.108521 0.0103,-0.211873 0.0103,-0.10852 0.0103,-0.273884 z"
       id="path18278"
       style="font-size:10.5833px;line-height:1.25;stroke-width:0.264583" />
    <path
       d="m 216.79817,115.61615 q 0,1.00769 -0.23255,1.82934 -0.22737,0.82165 -0.69246,1.40043 -0.47025,0.5891 -1.17822,0.9095 -0.70796,0.32039 -1.66397,0.32039 -0.26872,0 -0.50643,-0.031 -0.23771,-0.0258 -0.42374,-0.0878 V 118.97 h 0.0517 q 0.14986,0.0775 0.42375,0.14986 0.27388,0.0672 0.60978,0.0672 1.14204,0 1.788,-0.68213 0.65112,-0.68729 0.75447,-1.89135 -0.48059,0.28939 -0.90434,0.41341 -0.42374,0.12402 -0.925,0.12402 -0.47542,0 -0.86299,-0.093 -0.38241,-0.093 -0.76998,-0.36174 -0.45475,-0.31522 -0.68729,-0.80098 -0.22738,-0.48576 -0.22738,-1.16272 0,-1.17821 0.77514,-1.91719 0.77515,-0.73897 1.89135,-0.73897 0.55811,0 1.03353,0.1757 0.47542,0.17054 0.83199,0.51677 0.43925,0.42891 0.67696,1.10587 0.23771,0.67179 0.23771,1.74149 z m -1.04386,-0.22221 q 0,-0.80098 -0.16537,-1.28674 -0.16536,-0.48576 -0.45475,-0.75447 -0.24288,-0.23255 -0.52193,-0.33073 -0.27905,-0.10335 -0.60461,-0.10335 -0.74414,0 -1.17822,0.46508 -0.42891,0.46509 -0.42891,1.30741 0,0.49093 0.13952,0.80099 0.13953,0.31005 0.47026,0.5426 0.23254,0.16019 0.51159,0.21704 0.27905,0.0517 0.62012,0.0517 0.40307,0 0.81648,-0.10852 0.41341,-0.10852 0.77515,-0.31522 0.005,-0.10852 0.0103,-0.21188 0.0103,-0.10852 0.0103,-0.27388 z"
       id="path18275"
       style="font-size:10.5833px;line-height:1.25;stroke-width:0.264583" />
    <path
       id="path10617"
       style="fill:none;stroke:#0000ff;stroke-width:0.4;stroke-miterlimit:4;stroke-dasharray:none;stop-color:#000000"
       d="m 42.562646,127.7523 h 12.820975 c 1.862171,0 3.361319,1.49915 3.361319,3.36132 v 12.82097 c 0,1.86217 -1.499148,3.36132 -3.361319,3.36132 H 42.562646 c -1.862171,0 -3.361319,-1.49915 -3.361319,-3.36132 v -12.82097 c 0,-1.86217 1.499148,-3.36132 3.361319,-3.36132 z" />
    <path
       id="path10627"
       style="fill:none;stroke:#0000ff;stroke-width:0.4;stroke-miterlimit:4;stroke-dasharray:none;stop-color:#000000"
       d="m 42.562646,148.39836 h 12.820975 c 1.862171,0 3.361319,1.49915 3.361319,3.36132 v 12.82097 c 0,1.86217 -1.499148,3.36132 -3.361319,3.36132 H 42.562646 c -1.862171,0 -3.361319,-1.49915 -3.361319,-3.36132 v -12.82097 c 0,-1.86217 1.499148,-3.36132 3.361319,-3.36132 z" />
    <path
       d="m 47.471939,141.38434 h -4.165107 v -0.78548 h 1.601964 v -5.15729 h -1.601964 v -0.7028 q 0.32556,0 0.697629,-0.0517 0.37207,-0.0568 0.563272,-0.16019 0.237711,-0.12919 0.372069,-0.32556 0.139526,-0.20154 0.160196,-0.53744 h 0.800983 v 6.93496 h 1.570958 z"
       id="path18270"
       style="font-size:10.5833px;line-height:1.25;stroke-width:0.264583" />
    <path
       d="m 54.639438,137.53446 q 0,2.07221 -0.651121,3.04373 -0.645954,0.96634 -2.010207,0.96634 -1.384924,0 -2.02571,-0.98184 -0.635618,-0.98185 -0.635618,-3.0179 0,-2.05155 0.645953,-3.02823 0.645954,-0.98185 2.015375,-0.98185 1.384924,0 2.020542,0.99736 0.640786,0.99218 0.640786,3.00239 z m -1.359086,2.3461 q 0.180867,-0.41858 0.242878,-0.98185 0.06718,-0.56844 0.06718,-1.36425 0,-0.78548 -0.06718,-1.36426 -0.06201,-0.57877 -0.248046,-0.98185 -0.180867,-0.3979 -0.496092,-0.59944 -0.310058,-0.20154 -0.800982,-0.20154 -0.485757,0 -0.80615,0.20154 -0.315225,0.20154 -0.50126,0.60978 -0.175699,0.3824 -0.242878,0.99735 -0.06201,0.61495 -0.06201,1.34875 0,0.80615 0.05684,1.34875 0.05684,0.5426 0.242879,0.97152 0.170531,0.40307 0.480589,0.61494 0.315225,0.21188 0.831988,0.21188 0.485757,0 0.80615,-0.20154 0.320392,-0.20154 0.496092,-0.60978 z"
       id="path18272"
       style="font-size:10.5833px;line-height:1.25;stroke-width:0.264583" />
    <path
       d="m 47.471939,162.01747 h -4.165107 v -0.78548 h 1.601964 v -5.15729 h -1.601964 v -0.7028 q 0.32556,0 0.697629,-0.0517 0.37207,-0.0568 0.563272,-0.1602 0.237711,-0.12919 0.372069,-0.32556 0.139526,-0.20154 0.160196,-0.53743 h 0.800983 v 6.93495 h 1.570958 z"
       id="path18265"
       style="font-size:10.5833px;line-height:1.25;stroke-width:0.264583" />
    <path
       d="m 54.639438,158.16759 q 0,2.07222 -0.651121,3.04373 -0.645954,0.96635 -2.010207,0.96635 -1.384924,0 -2.02571,-0.98185 -0.635618,-0.98185 -0.635618,-3.0179 0,-2.05154 0.645953,-3.02822 0.645954,-0.98185 2.015375,-0.98185 1.384924,0 2.020542,0.99735 0.640786,0.99218 0.640786,3.00239 z m -1.359086,2.3461 q 0.180867,-0.41858 0.242878,-0.98185 0.06718,-0.56844 0.06718,-1.36425 0,-0.78548 -0.06718,-1.36425 -0.06201,-0.57878 -0.248046,-0.98185 -0.180867,-0.39791 -0.496092,-0.59945 -0.310058,-0.20154 -0.800982,-0.20154 -0.485757,0 -0.80615,0.20154 -0.315225,0.20154 -0.50126,0.60978 -0.175699,0.38241 -0.242878,0.99735 -0.06201,0.61495 -0.06201,1.34875 0,0.80615 0.05684,1.34876 0.05684,0.5426 0.242879,0.97151 0.170531,0.40307 0.480589,0.61495 0.315225,0.21187 0.831988,0.21187 0.485757,0 0.80615,-0.20154 0.320392,-0.20154 0.496092,-0.60978 z"
       id="path18267"
       style="font-size:10.5833px;line-height:1.25;stroke-width:0.264583" />
    <path
       id="path10645"
       style="fill:none;stroke:#0000ff;stroke-width:0.4;stroke-miterlimit:4;stroke-dasharray:none;stop-color:#000000"
       d="M 63.201795,127.99415 H 76.02277 c 1.862171,0 3.361319,1.49915 3.361319,3.36132 v 12.82097 c 0,1.86217 -1.499148,3.36132 -3.361319,3.36132 H 63.201795 c -1.862171,0 -3.361319,-1.49915 -3.361319,-3.36132 v -12.82097 c 0,-1.86217 1.499148,-3.36132 3.361319,-3.36132 z" />
    <path
       id="path10655"
       style="fill:none;stroke:#0000ff;stroke-width:0.4;stroke-miterlimit:4;stroke-dasharray:none;stop-color:#000000"
       d="M 63.201795,148.64021 H 76.02277 c 1.862171,0 3.361319,1.49915 3.361319,3.36132 v 12.82097 c 0,1.86217 -1.499148,3.36132 -3.361319,3.36132 H 63.201795 c -1.862171,0 -3.361319,-1.49915 -3.361319,-3.36132 v -12.82097 c 0,-1.86217 1.499148,-3.36132 3.361319,-3.36132 z" />
    <path
       d="M 68.325542,141.62617 H 64.160435 V 140.8407 H 65.7624 v -5.1573 h -1.601965 v -0.70279 q 0.325561,0 0.69763,-0.0517 0.372069,-0.0568 0.563271,-0.1602 0.237711,-0.12919 0.372069,-0.32556 0.139526,-0.20153 0.160197,-0.53743 h 0.800982 v 6.93496 h 1.570958 z"
       id="path18260"
       style="font-size:10.5833px;line-height:1.25;stroke-width:0.264583" />
    <path
       d="m 75.064128,141.62617 h -4.165107 v -0.78547 h 1.601964 v -5.1573 h -1.601964 v -0.70279 q 0.32556,0 0.697629,-0.0517 0.372069,-0.0568 0.563272,-0.1602 0.23771,-0.12919 0.372069,-0.32556 0.139526,-0.20153 0.160196,-0.53743 h 0.800982 v 6.93496 h 1.570959 z"
       id="path18262"
       style="font-size:10.5833px;line-height:1.25;stroke-width:0.264583" />
    <path
       d="m 68.325542,162.25931 h -4.165107 v -0.78548 H 65.7624 v -5.15729 h -1.601965 v -0.7028 q 0.325561,0 0.69763,-0.0517 0.372069,-0.0568 0.563271,-0.16019 0.237711,-0.12919 0.372069,-0.32556 0.139526,-0.20154 0.160197,-0.53744 h 0.800982 v 6.93496 h 1.570958 z"
       id="path18255"
       style="font-size:10.5833px;line-height:1.25;stroke-width:0.264583" />
    <path
       d="m 75.064128,162.25931 h -4.165107 v -0.78548 h 1.601964 v -5.15729 h -1.601964 v -0.7028 q 0.32556,0 0.697629,-0.0517 0.372069,-0.0568 0.563272,-0.16019 0.23771,-0.12919 0.372069,-0.32556 0.139526,-0.20154 0.160196,-0.53744 h 0.800982 v 6.93496 h 1.570959 z"
       id="path18257"
       style="font-size:10.5833px;line-height:1.25;stroke-width:0.264583" />
    <path
       id="path10673"
       style="fill:none;stroke:#0000ff;stroke-width:0.4;stroke-miterlimit:4;stroke-dasharray:none;stop-color:#000000"
       d="m 83.837647,127.7523 h 12.820975 c 1.862171,0 3.361318,1.49915 3.361318,3.36132 v 12.82097 c 0,1.86217 -1.499147,3.36132 -3.361318,3.36132 H 83.837647 c -1.862171,0 -3.361319,-1.49915 -3.361319,-3.36132 v -12.82097 c 0,-1.86217 1.499148,-3.36132 3.361319,-3.36132 z" />
    <path
       id="path10683"
       style="fill:none;stroke:#0000ff;stroke-width:0.4;stroke-miterlimit:4;stroke-dasharray:none;stop-color:#000000"
       d="m 83.837647,148.39836 h 12.820975 c 1.862171,0 3.361318,1.49915 3.361318,3.36132 v 12.82097 c 0,1.86217 -1.499147,3.36132 -3.361318,3.36132 H 83.837647 c -1.862171,0 -3.361319,-1.49915 -3.361319,-3.36132 v -12.82097 c 0,-1.86217 1.499148,-3.36132 3.361319,-3.36132 z" />
    <path
       d="m 88.741768,141.38434 h -4.165107 v -0.78548 h 1.601964 v -5.15729 h -1.601964 v -0.7028 q 0.32556,0 0.697629,-0.0517 0.372069,-0.0568 0.563272,-0.16019 0.23771,-0.12919 0.372069,-0.32556 0.139526,-0.20154 0.160196,-0.53744 h 0.800982 v 6.93496 h 1.570959 z"
       id="path18250"
       style="font-size:10.5833px;line-height:1.25;stroke-width:0.264583" />
    <path
       d="m 95.919602,141.38434 h -5.208968 v -1.08004 q 0.542601,-0.46508 1.085201,-0.93017 0.547769,-0.46508 1.018023,-0.925 0.992184,-0.96118 1.359086,-1.52445 0.366901,-0.56844 0.366901,-1.22473 0,-0.59945 -0.397907,-0.93534 -0.39274,-0.34106 -1.100705,-0.34106 -0.470254,0 -1.018022,0.16536 -0.547768,0.16536 -1.069699,0.50643 h -0.05168 v -1.08521 q 0.366901,-0.18086 0.976681,-0.33072 0.614948,-0.14986 1.188555,-0.14986 1.183386,0 1.855178,0.5736 0.671791,0.56844 0.671791,1.54512 0,0.43925 -0.113688,0.82166 -0.10852,0.37723 -0.32556,0.7183 -0.201538,0.32039 -0.475422,0.63045 -0.268716,0.31005 -0.656288,0.68729 -0.552936,0.5426 -1.142046,1.0542 -0.589109,0.50642 -1.100704,0.9405 h 4.139269 z"
       id="path18252"
       style="font-size:10.5833px;line-height:1.25;stroke-width:0.264583" />
    <path
       d="m 88.741768,162.01747 h -4.165107 v -0.78548 h 1.601964 v -5.15729 h -1.601964 v -0.7028 q 0.32556,0 0.697629,-0.0517 0.372069,-0.0568 0.563272,-0.1602 0.23771,-0.12919 0.372069,-0.32556 0.139526,-0.20154 0.160196,-0.53743 h 0.800982 v 6.93495 h 1.570959 z"
       id="path18245"
       style="font-size:10.5833px;line-height:1.25;stroke-width:0.264583" />
    <path
       d="m 95.919602,162.01747 h -5.208968 v -1.08003 q 0.542601,-0.46509 1.085201,-0.93018 0.547769,-0.46508 1.018023,-0.925 0.992184,-0.96118 1.359086,-1.52445 0.366901,-0.56844 0.366901,-1.22473 0,-0.59944 -0.397907,-0.93534 -0.39274,-0.34106 -1.100705,-0.34106 -0.470254,0 -1.018022,0.16536 -0.547768,0.16537 -1.069699,0.50643 h -0.05168 v -1.0852 q 0.366901,-0.18087 0.976681,-0.33073 0.614948,-0.14986 1.188555,-0.14986 1.183386,0 1.855178,0.57361 0.671791,0.56843 0.671791,1.54512 0,0.43924 -0.113688,0.82165 -0.10852,0.37724 -0.32556,0.7183 -0.201538,0.32039 -0.475422,0.63045 -0.268716,0.31006 -0.656288,0.68729 -0.552936,0.5426 -1.142046,1.0542 -0.589109,0.50643 -1.100704,0.94051 h 4.139269 z"
       id="path18247"
       style="font-size:10.5833px;line-height:1.25;stroke-width:0.264583" />
    <path
       id="path10701"
       style="fill:none;stroke:#0000ff;stroke-width:0.4;stroke-miterlimit:4;stroke-dasharray:none;stop-color:#000000"
       d="m 104.4768,127.99415 h 12.82097 c 1.86217,0 3.36132,1.49915 3.36132,3.36132 v 12.82097 c 0,1.86217 -1.49915,3.36132 -3.36132,3.36132 H 104.4768 c -1.86217,0 -3.36132,-1.49915 -3.36132,-3.36132 v -12.82097 c 0,-1.86217 1.49915,-3.36132 3.36132,-3.36132 z" />
    <path
       id="path10711"
       style="fill:none;stroke:#0000ff;stroke-width:0.4;stroke-miterlimit:4;stroke-dasharray:none;stop-color:#000000"
       d="m 104.4768,148.64021 h 12.82097 c 1.86217,0 3.36132,1.49915 3.36132,3.36132 v 12.82097 c 0,1.86217 -1.49915,3.36132 -3.36132,3.36132 H 104.4768 c -1.86217,0 -3.36132,-1.49915 -3.36132,-3.36132 v -12.82097 c 0,-1.86217 1.49915,-3.36132 3.36132,-3.36132 z" />
    <path
       d="m 109.43518,141.62617 h -4.16511 v -0.78547 h 1.60197 v -5.1573 h -1.60197 v -0.70279 q 0.32556,0 0.69763,-0.0517 0.37207,-0.0568 0.56327,-0.1602 0.23772,-0.12919 0.37207,-0.32556 0.13953,-0.20153 0.1602,-0.53743 h 0.80098 v 6.93496 h 1.57096 z"
       id="path18240"
       style="font-size:10.5833px;line-height:1.25;stroke-width:0.264583" />
    <path
       d="m 115.93606,137.92099 q 0.24804,0.2222 0.40824,0.5581 0.16019,0.3359 0.16019,0.86816 0,0.5271 -0.1912,0.96635 -0.1912,0.43925 -0.53743,0.76481 -0.38757,0.36173 -0.91467,0.53743 -0.52193,0.17053 -1.14721,0.17053 -0.64079,0 -1.26091,-0.15503 -0.62011,-0.14986 -1.01802,-0.33073 v -1.08003 h 0.0775 q 0.43925,0.28939 1.03352,0.48059 0.59428,0.1912 1.14722,0.1912 0.32556,0 0.69246,-0.10852 0.3669,-0.10852 0.59427,-0.32039 0.23772,-0.22738 0.3514,-0.50126 0.11886,-0.27389 0.11886,-0.69246 0,-0.41341 -0.13436,-0.68213 -0.12919,-0.27388 -0.36173,-0.42891 -0.23255,-0.1602 -0.56328,-0.21704 -0.33072,-0.062 -0.71313,-0.062 h -0.46508 v -0.85783 h 0.36173 q 0.78548,0 1.25057,-0.32556 0.47025,-0.33073 0.47025,-0.96118 0,-0.27905 -0.11886,-0.48576 -0.11885,-0.21187 -0.33072,-0.34623 -0.22221,-0.13436 -0.47543,-0.18603 -0.25321,-0.0517 -0.5736,-0.0517 -0.49093,0 -1.04386,0.1757 -0.55294,0.1757 -1.04386,0.49609 h -0.0517 v -1.08003 q 0.3669,-0.18087 0.97668,-0.33073 0.61495,-0.15503 1.18856,-0.15503 0.56327,0 0.99218,0.10335 0.42891,0.10336 0.77514,0.33073 0.37207,0.24805 0.56328,0.59945 0.1912,0.3514 0.1912,0.82165 0,0.64079 -0.45475,1.12138 -0.44959,0.47542 -1.06453,0.59944 v 0.0724 q 0.24804,0.0413 0.56843,0.1757 0.3204,0.12919 0.54261,0.32556 z"
       id="path18242"
       style="font-size:10.5833px;line-height:1.25;stroke-width:0.264583" />
    <path
       d="m 109.43518,162.25931 h -4.16511 v -0.78548 h 1.60197 v -5.15729 h -1.60197 v -0.7028 q 0.32556,0 0.69763,-0.0517 0.37207,-0.0568 0.56327,-0.16019 0.23772,-0.12919 0.37207,-0.32556 0.13953,-0.20154 0.1602,-0.53744 h 0.80098 v 6.93496 h 1.57096 z"
       id="path18235"
       style="font-size:10.5833px;line-height:1.25;stroke-width:0.264583" />
    <path
       d="m 115.93606,158.55412 q 0.24804,0.22221 0.40824,0.5581 0.16019,0.3359 0.16019,0.86816 0,0.5271 -0.1912,0.96635 -0.1912,0.43925 -0.53743,0.76481 -0.38757,0.36173 -0.91467,0.53743 -0.52193,0.17053 -1.14721,0.17053 -0.64079,0 -1.26091,-0.15502 -0.62011,-0.14987 -1.01802,-0.33073 v -1.08004 h 0.0775 q 0.43925,0.28939 1.03352,0.48059 0.59428,0.1912 1.14722,0.1912 0.32556,0 0.69246,-0.10852 0.3669,-0.10852 0.59427,-0.32039 0.23772,-0.22737 0.3514,-0.50126 0.11886,-0.27388 0.11886,-0.69246 0,-0.41341 -0.13436,-0.68213 -0.12919,-0.27388 -0.36173,-0.42891 -0.23255,-0.1602 -0.56328,-0.21704 -0.33072,-0.062 -0.71313,-0.062 h -0.46508 v -0.85783 h 0.36173 q 0.78548,0 1.25057,-0.32556 0.47025,-0.33073 0.47025,-0.96118 0,-0.27905 -0.11886,-0.48575 -0.11885,-0.21188 -0.33072,-0.34623 -0.22221,-0.13436 -0.47543,-0.18604 -0.25321,-0.0517 -0.5736,-0.0517 -0.49093,0 -1.04386,0.1757 -0.55294,0.1757 -1.04386,0.4961 h -0.0517 v -1.08004 q 0.3669,-0.18086 0.97668,-0.33073 0.61495,-0.15502 1.18856,-0.15502 0.56327,0 0.99218,0.10335 0.42891,0.10335 0.77514,0.33073 0.37207,0.24804 0.56328,0.59944 0.1912,0.3514 0.1912,0.82165 0,0.64079 -0.45475,1.12138 -0.44959,0.47542 -1.06453,0.59944 v 0.0724 q 0.24804,0.0413 0.56843,0.1757 0.3204,0.12919 0.54261,0.32556 z"
       id="path18237"
       style="font-size:10.5833px;line-height:1.25;stroke-width:0.264583" />
    <path
       id="path10729"
       style="fill:none;stroke:#0000ff;stroke-width:0.4;stroke-miterlimit:4;stroke-dasharray:none;stop-color:#000000"
       d="m 125.11265,127.7523 h 12.82097 c 1.86217,0 3.36132,1.49915 3.36132,3.36132 v 12.82097 c 0,1.86217 -1.49915,3.36132 -3.36132,3.36132 h -12.82097 c -1.86217,0 -3.36132,-1.49915 -3.36132,-3.36132 v -12.82097 c 0,-1.86217 1.49915,-3.36132 3.36132,-3.36132 z" />
    <path
       id="path10739"
       style="fill:none;stroke:#0000ff;stroke-width:0.4;stroke-miterlimit:4;stroke-dasharray:none;stop-color:#000000"
       d="m 125.11265,148.39836 h 12.82097 c 1.86217,0 3.36132,1.49915 3.36132,3.36132 v 12.82097 c 0,1.86217 -1.49915,3.36132 -3.36132,3.36132 h -12.82097 c -1.86217,0 -3.36132,-1.49915 -3.36132,-3.36132 v -12.82097 c 0,-1.86217 1.49915,-3.36132 3.36132,-3.36132 z" />
    <path
       d="m 129.92892,141.38434 h -4.1651 v -0.78548 h 1.60196 v -5.15729 h -1.60196 v -0.7028 q 0.32556,0 0.69763,-0.0517 0.37207,-0.0568 0.56327,-0.16019 0.23771,-0.12919 0.37207,-0.32556 0.13952,-0.20154 0.16019,-0.53744 h 0.80099 v 6.93496 h 1.57095 z"
       id="path18230"
       style="font-size:10.5833px;line-height:1.25;stroke-width:0.264583" />
    <path
       d="m 137.28246,139.2191 h -1.14205 v 2.16524 h -0.99218 v -2.16524 h -3.68452 v -1.18855 l 3.72586,-4.34081 h 0.95084 v 4.70254 h 1.14205 z m -2.13423,-0.82682 v -3.47264 l -2.98172,3.47264 z"
       id="path18232"
       style="font-size:10.5833px;line-height:1.25;stroke-width:0.264583" />
    <path
       d="m 129.92892,162.01747 h -4.1651 v -0.78548 h 1.60196 v -5.15729 h -1.60196 v -0.7028 q 0.32556,0 0.69763,-0.0517 0.37207,-0.0568 0.56327,-0.1602 0.23771,-0.12919 0.37207,-0.32556 0.13952,-0.20154 0.16019,-0.53743 h 0.80099 v 6.93495 h 1.57095 z"
       id="path18225"
       style="font-size:10.5833px;line-height:1.25;stroke-width:0.264583" />
    <path
       d="m 137.28246,159.85224 h -1.14205 v 2.16523 h -0.99218 v -2.16523 h -3.68452 v -1.18856 l 3.72586,-4.3408 h 0.95084 v 4.70254 h 1.14205 z m -2.13423,-0.82682 v -3.47265 l -2.98172,3.47265 z"
       id="path18227"
       style="font-size:10.5833px;line-height:1.25;stroke-width:0.264583" />
    <path
       id="path10757"
       style="fill:none;stroke:#0000ff;stroke-width:0.4;stroke-miterlimit:4;stroke-dasharray:none;stop-color:#000000"
       d="m 145.75178,127.99415 h 12.82098 c 1.86217,0 3.36132,1.49915 3.36132,3.36132 v 12.82097 c 0,1.86217 -1.49915,3.36132 -3.36132,3.36132 h -12.82098 c -1.86217,0 -3.36132,-1.49915 -3.36132,-3.36132 v -12.82097 c 0,-1.86217 1.49915,-3.36132 3.36132,-3.36132 z" />
    <path
       id="path10767"
       style="fill:none;stroke:#0000ff;stroke-width:0.4;stroke-miterlimit:4;stroke-dasharray:none;stop-color:#000000"
       d="m 145.75178,148.64021 h 12.82098 c 1.86217,0 3.36132,1.49915 3.36132,3.36132 v 12.82097 c 0,1.86217 -1.49915,3.36132 -3.36132,3.36132 h -12.82098 c -1.86217,0 -3.36132,-1.49915 -3.36132,-3.36132 v -12.82097 c 0,-1.86217 1.49915,-3.36132 3.36132,-3.36132 z" />
    <path
       d="m 150.68691,141.62617 h -4.1651 v -0.78547 h 1.60196 v -5.1573 h -1.60196 v -0.70279 q 0.32556,0 0.69762,-0.0517 0.37207,-0.0568 0.56328,-0.1602 0.23771,-0.12919 0.37207,-0.32556 0.13952,-0.20153 0.16019,-0.53743 h 0.80098 v 6.93496 h 1.57096 z"
       id="path18220"
       style="font-size:10.5833px;line-height:1.25;stroke-width:0.264583" />
    <path
       d="m 157.80273,139.18189 q 0,0.53743 -0.19637,1.02836 -0.19636,0.49092 -0.53743,0.82682 -0.37207,0.36173 -0.88883,0.5581 -0.5116,0.1912 -1.18855,0.1912 -0.63045,0 -1.2144,-0.13436 -0.58394,-0.12919 -0.98701,-0.31522 v -1.09037 h 0.0723 q 0.42375,0.26872 0.99219,0.45992 0.56844,0.18603 1.11621,0.18603 0.3669,0 0.70796,-0.10335 0.34623,-0.10335 0.61495,-0.36173 0.22737,-0.22221 0.34106,-0.53227 0.11886,-0.31006 0.11886,-0.7183 0,-0.39791 -0.13953,-0.67179 -0.13436,-0.27389 -0.37724,-0.43925 -0.26871,-0.19637 -0.65628,-0.27388 -0.38241,-0.0827 -0.85783,-0.0827 -0.45475,0 -0.8785,0.062 -0.41858,0.062 -0.72347,0.12402 v -3.96357 h 4.6302 v 0.90433 h -3.63284 v 2.04638 q 0.2222,-0.0207 0.45475,-0.031 0.23254,-0.0103 0.40307,-0.0103 0.62529,0 1.09554,0.10852 0.47025,0.10336 0.86299,0.37207 0.41341,0.28422 0.64079,0.7338 0.22737,0.44959 0.22737,1.12655 z"
       id="path18222"
       style="font-size:10.5833px;line-height:1.25;stroke-width:0.264583" />
    <path
       d="m 150.68691,162.25931 h -4.1651 v -0.78548 h 1.60196 v -5.15729 h -1.60196 v -0.7028 q 0.32556,0 0.69762,-0.0517 0.37207,-0.0568 0.56328,-0.16019 0.23771,-0.12919 0.37207,-0.32556 0.13952,-0.20154 0.16019,-0.53744 h 0.80098 v 6.93496 h 1.57096 z"
       id="path18215"
       style="font-size:10.5833px;line-height:1.25;stroke-width:0.264583" />
    <path
       d="m 157.80273,159.81502 q 0,0.53743 -0.19637,1.02836 -0.19636,0.49092 -0.53743,0.82682 -0.37207,0.36173 -0.88883,0.5581 -0.5116,0.1912 -1.18855,0.1912 -0.63045,0 -1.2144,-0.13435 -0.58394,-0.12919 -0.98701,-0.31523 v -1.09037 h 0.0723 q 0.42375,0.26872 0.99219,0.45992 0.56844,0.18603 1.11621,0.18603 0.3669,0 0.70796,-0.10335 0.34623,-0.10335 0.61495,-0.36173 0.22737,-0.22221 0.34106,-0.53227 0.11886,-0.31005 0.11886,-0.7183 0,-0.3979 -0.13953,-0.67179 -0.13436,-0.27388 -0.37724,-0.43925 -0.26871,-0.19637 -0.65628,-0.27388 -0.38241,-0.0827 -0.85783,-0.0827 -0.45475,0 -0.8785,0.062 -0.41858,0.062 -0.72347,0.12402 v -3.96357 h 4.6302 v 0.90434 h -3.63284 v 2.04638 q 0.2222,-0.0207 0.45475,-0.031 0.23254,-0.0103 0.40307,-0.0103 0.62529,0 1.09554,0.10852 0.47025,0.10335 0.86299,0.37206 0.41341,0.28422 0.64079,0.73381 0.22737,0.44958 0.22737,1.12654 z"
       id="path18217"
       style="font-size:10.5833px;line-height:1.25;stroke-width:0.264583" />
    <path
       id="path10785"
       style="fill:none;stroke:#0000ff;stroke-width:0.4;stroke-miterlimit:4;stroke-dasharray:none;stop-color:#000000"
       d="m 166.38764,127.7523 h 12.82098 c 1.86217,0 3.36132,1.49915 3.36132,3.36132 v 12.82097 c 0,1.86217 -1.49915,3.36132 -3.36132,3.36132 h -12.82098 c -1.86217,0 -3.36132,-1.49915 -3.36132,-3.36132 v -12.82097 c 0,-1.86217 1.49915,-3.36132 3.36132,-3.36132 z" />
    <path
       id="path10795"
       style="fill:none;stroke:#0000ff;stroke-width:0.4;stroke-miterlimit:4;stroke-dasharray:none;stop-color:#000000"
       d="m 166.38764,148.39836 h 12.82098 c 1.86217,0 3.36132,1.49915 3.36132,3.36132 v 12.82097 c 0,1.86217 -1.49915,3.36132 -3.36132,3.36132 h -12.82098 c -1.86217,0 -3.36132,-1.49915 -3.36132,-3.36132 v -12.82097 c 0,-1.86217 1.49915,-3.36132 3.36132,-3.36132 z" />
    <path
       d="m 171.23493,141.38434 h -4.16511 v -0.78548 h 1.60197 v -5.15729 h -1.60197 v -0.7028 q 0.32557,0 0.69763,-0.0517 0.37207,-0.0568 0.56328,-0.16019 0.23771,-0.12919 0.37206,-0.32556 0.13953,-0.20154 0.1602,-0.53744 h 0.80098 v 6.93496 h 1.57096 z"
       id="path18210"
       style="font-size:10.5833px;line-height:1.25;stroke-width:0.264583" />
    <path
       d="m 178.52645,138.88837 q 0,1.17306 -0.77514,1.91719 -0.76998,0.73897 -1.89135,0.73897 -0.56844,0 -1.03353,-0.17569 -0.46508,-0.1757 -0.82165,-0.52193 -0.44442,-0.42892 -0.68729,-1.13688 -0.23772,-0.70797 -0.23772,-1.70532 0,-1.02319 0.21705,-1.81384 0.2222,-0.79064 0.70279,-1.40559 0.45475,-0.58394 1.17305,-0.9095 0.7183,-0.33073 1.67431,-0.33073 0.30489,0 0.5116,0.0258 0.2067,0.0258 0.41858,0.093 v 0.98702 h -0.0517 q -0.14469,-0.0775 -0.43925,-0.14469 -0.28938,-0.0724 -0.59427,-0.0724 -1.11104,0 -1.7725,0.69763 -0.66146,0.69246 -0.76998,1.87585 0.43408,-0.26355 0.85266,-0.39791 0.42375,-0.13952 0.97668,-0.13952 0.49093,0 0.863,0.093 0.37723,0.0879 0.76997,0.36174 0.45475,0.31522 0.68213,0.79581 0.23254,0.48059 0.23254,1.16788 z m -1.04902,0.0413 q 0,-0.48059 -0.1447,-0.79582 -0.13952,-0.31522 -0.46508,-0.54777 -0.23772,-0.16536 -0.5271,-0.21704 -0.28939,-0.0517 -0.60462,-0.0517 -0.43924,0 -0.81648,0.10335 -0.37724,0.10335 -0.77514,0.32039 -0.0103,0.11369 -0.0155,0.22221 -0.005,0.10335 -0.005,0.26355 0,0.81648 0.16536,1.29191 0.17053,0.47025 0.46509,0.74413 0.23771,0.22738 0.51159,0.3359 0.27905,0.10335 0.60461,0.10335 0.74931,0 1.17822,-0.45475 0.42892,-0.45992 0.42892,-1.31774 z"
       id="path18212"
       style="font-size:10.5833px;line-height:1.25;stroke-width:0.264583" />
    <path
       d="m 171.23493,162.01747 h -4.16511 v -0.78548 h 1.60197 v -5.15729 h -1.60197 v -0.7028 q 0.32557,0 0.69763,-0.0517 0.37207,-0.0568 0.56328,-0.1602 0.23771,-0.12919 0.37206,-0.32556 0.13953,-0.20154 0.1602,-0.53743 h 0.80098 v 6.93495 h 1.57096 z"
       id="path18205"
       style="font-size:10.5833px;line-height:1.25;stroke-width:0.264583" />
    <path
       d="m 178.52645,159.52151 q 0,1.17305 -0.77514,1.91719 -0.76998,0.73897 -1.89135,0.73897 -0.56844,0 -1.03353,-0.1757 -0.46508,-0.1757 -0.82165,-0.52193 -0.44442,-0.42891 -0.68729,-1.13688 -0.23772,-0.70796 -0.23772,-1.70532 0,-1.02319 0.21705,-1.81383 0.2222,-0.79065 0.70279,-1.4056 0.45475,-0.58394 1.17305,-0.9095 0.7183,-0.33073 1.67431,-0.33073 0.30489,0 0.5116,0.0258 0.2067,0.0258 0.41858,0.093 v 0.98701 h -0.0517 q -0.14469,-0.0775 -0.43925,-0.14469 -0.28938,-0.0724 -0.59427,-0.0724 -1.11104,0 -1.7725,0.69763 -0.66146,0.69246 -0.76998,1.87585 0.43408,-0.26355 0.85266,-0.39791 0.42375,-0.13952 0.97668,-0.13952 0.49093,0 0.863,0.093 0.37723,0.0879 0.76997,0.36173 0.45475,0.31522 0.68213,0.79581 0.23254,0.48059 0.23254,1.16789 z m -1.04902,0.0413 q 0,-0.48059 -0.1447,-0.79582 -0.13952,-0.31522 -0.46508,-0.54776 -0.23772,-0.16537 -0.5271,-0.21704 -0.28939,-0.0517 -0.60462,-0.0517 -0.43924,0 -0.81648,0.10335 -0.37724,0.10335 -0.77514,0.32039 -0.0103,0.11369 -0.0155,0.22221 -0.005,0.10335 -0.005,0.26355 0,0.81649 0.16536,1.29191 0.17053,0.47025 0.46509,0.74414 0.23771,0.22737 0.51159,0.33589 0.27905,0.10335 0.60461,0.10335 0.74931,0 1.17822,-0.45475 0.42892,-0.45992 0.42892,-1.31774 z"
       id="path18207"
       style="font-size:10.5833px;line-height:1.25;stroke-width:0.264583" />
    <path
       id="path10813"
       style="fill:none;stroke:#0000ff;stroke-width:0.4;stroke-miterlimit:4;stroke-dasharray:none;stop-color:#000000"
       d="m 187.0268,127.99415 h 12.82098 c 1.86217,0 3.36132,1.49915 3.36132,3.36132 v 12.82097 c 0,1.86217 -1.49915,3.36132 -3.36132,3.36132 H 187.0268 c -1.86217,0 -3.36132,-1.49915 -3.36132,-3.36132 v -12.82097 c 0,-1.86217 1.49915,-3.36132 3.36132,-3.36132 z" />
    <path
       id="path10823"
       style="fill:none;stroke:#0000ff;stroke-width:0.4;stroke-miterlimit:4;stroke-dasharray:none;stop-color:#000000"
       d="m 187.0268,148.64021 h 12.82098 c 1.86217,0 3.36132,1.49915 3.36132,3.36132 v 12.82097 c 0,1.86217 -1.49915,3.36132 -3.36132,3.36132 H 187.0268 c -1.86217,0 -3.36132,-1.49915 -3.36132,-3.36132 v -12.82097 c 0,-1.86217 1.49915,-3.36132 3.36132,-3.36132 z" />
    <path
       d="m 191.92059,141.62617 h -4.16511 v -0.78547 h 1.60196 v -5.1573 h -1.60196 v -0.70279 q 0.32556,0 0.69763,-0.0517 0.37207,-0.0568 0.56327,-0.1602 0.23771,-0.12919 0.37207,-0.32556 0.13952,-0.20153 0.16019,-0.53743 h 0.80099 v 6.93496 h 1.57096 z"
       id="path18200"
       style="font-size:10.5833px;line-height:1.25;stroke-width:0.264583" />
    <path
       d="m 199.11909,135.08396 -3.48298,6.54221 h -1.10587 l 3.70519,-6.79026 h -4.38215 v -0.90433 h 5.26581 z"
       id="path18202"
       style="font-size:10.5833px;line-height:1.25;stroke-width:0.264583" />
    <path
       d="m 191.92059,162.25931 h -4.16511 v -0.78548 h 1.60196 v -5.15729 h -1.60196 v -0.7028 q 0.32556,0 0.69763,-0.0517 0.37207,-0.0568 0.56327,-0.16019 0.23771,-0.12919 0.37207,-0.32556 0.13952,-0.20154 0.16019,-0.53744 h 0.80099 v 6.93496 h 1.57096 z"
       id="path18195"
       style="font-size:10.5833px;line-height:1.25;stroke-width:0.264583" />
    <path
       d="m 199.11909,155.71709 -3.48298,6.54222 h -1.10587 l 3.70519,-6.79026 h -4.38215 v -0.90434 h 5.26581 z"
       id="path18197"
       style="font-size:10.5833px;line-height:1.25;stroke-width:0.264583" />
    <path
       id="path10841"
       style="fill:none;stroke:#0000ff;stroke-width:0.4;stroke-miterlimit:4;stroke-dasharray:none;stop-color:#000000"
       d="m 207.66434,127.99415 h 12.82098 c 1.86217,0 3.36132,1.49915 3.36132,3.36132 v 12.82097 c 0,1.86217 -1.49915,3.36132 -3.36132,3.36132 h -12.82098 c -1.86217,0 -3.36132,-1.49915 -3.36132,-3.36132 v -12.82097 c 0,-1.86217 1.49915,-3.36132 3.36132,-3.36132 z" />
    <path
       id="path10851"
       style="fill:none;stroke:#0000ff;stroke-width:0.4;stroke-miterlimit:4;stroke-dasharray:none;stop-color:#000000"
       d="m 207.66434,148.64021 h 12.82098 c 1.86217,0 3.36132,1.49915 3.36132,3.36132 v 12.82097 c 0,1.86217 -1.49915,3.36132 -3.36132,3.36132 h -12.82098 c -1.86217,0 -3.36132,-1.49915 -3.36132,-3.36132 v -12.82097 c 0,-1.86217 1.49915,-3.36132 3.36132,-3.36132 z" />
    <path
       d="m 212.54005,141.62617 h -4.16511 v -0.78547 h 1.60196 v -5.1573 h -1.60196 v -0.70279 q 0.32556,0 0.69763,-0.0517 0.37207,-0.0568 0.56327,-0.1602 0.23771,-0.12919 0.37207,-0.32556 0.13953,-0.20153 0.1602,-0.53743 h 0.80098 v 6.93496 h 1.57096 z"
       id="path18190"
       style="font-size:10.5833px;line-height:1.25;stroke-width:0.264583" />
    <path
       d="m 219.77472,139.48161 q 0,0.99735 -0.78031,1.65881 -0.77514,0.66145 -1.95336,0.66145 -1.25057,0 -1.9947,-0.64595 -0.73897,-0.64595 -0.73897,-1.65364 0,-0.64079 0.37206,-1.15755 0.37207,-0.52193 1.04903,-0.82682 v -0.031 q -0.62011,-0.33073 -0.91984,-0.72347 -0.29455,-0.39274 -0.29455,-0.98185 0,-0.86816 0.71313,-1.44694 0.71314,-0.57877 1.81384,-0.57877 1.15238,0 1.83967,0.55294 0.6873,0.55293 0.6873,1.40559 0,0.52193 -0.32556,1.02836 -0.32556,0.50126 -0.95601,0.78548 v 0.031 q 0.72347,0.31006 1.10587,0.76481 0.3824,0.45475 0.3824,1.15755 z M 218.55,135.72475 q 0,-0.55294 -0.42892,-0.8785 -0.42374,-0.33073 -1.0852,-0.33073 -0.65112,0 -1.0697,0.31006 -0.41341,0.31006 -0.41341,0.83715 0,0.37207 0.20671,0.64596 0.21187,0.26871 0.63562,0.48059 0.1912,0.093 0.54776,0.24287 0.36174,0.14987 0.7028,0.24805 0.5116,-0.34106 0.70797,-0.70796 0.19637,-0.36691 0.19637,-0.84749 z m 0.16019,3.85504 q 0,-0.47542 -0.21187,-0.75964 -0.2067,-0.28938 -0.81648,-0.57877 -0.24288,-0.11369 -0.53227,-0.21187 -0.28939,-0.0982 -0.76998,-0.27389 -0.46508,0.25322 -0.7493,0.6873 -0.27905,0.43408 -0.27905,0.98185 0,0.69763 0.48059,1.15238 0.48058,0.45475 1.21955,0.45475 0.75448,0 1.20406,-0.38757 0.45475,-0.38758 0.45475,-1.06454 z"
       id="path18192"
       style="font-size:10.5833px;line-height:1.25;stroke-width:0.264583" />
    <path
       d="m 212.54005,162.25931 h -4.16511 v -0.78548 h 1.60196 v -5.15729 h -1.60196 v -0.7028 q 0.32556,0 0.69763,-0.0517 0.37207,-0.0568 0.56327,-0.16019 0.23771,-0.12919 0.37207,-0.32556 0.13953,-0.20154 0.1602,-0.53744 h 0.80098 v 6.93496 h 1.57096 z"
       id="path18185"
       style="font-size:10.5833px;line-height:1.25;stroke-width:0.264583" />
    <path
       d="m 219.77472,160.11474 q 0,0.99735 -0.78031,1.65881 -0.77514,0.66146 -1.95336,0.66146 -1.25057,0 -1.9947,-0.64596 -0.73897,-0.64595 -0.73897,-1.65364 0,-0.64078 0.37206,-1.15755 0.37207,-0.52193 1.04903,-0.82682 v -0.031 q -0.62011,-0.33073 -0.91984,-0.72347 -0.29455,-0.39274 -0.29455,-0.98185 0,-0.86816 0.71313,-1.44693 0.71314,-0.57878 1.81384,-0.57878 1.15238,0 1.83967,0.55294 0.6873,0.55293 0.6873,1.40559 0,0.52193 -0.32556,1.02836 -0.32556,0.50126 -0.95601,0.78548 v 0.031 q 0.72347,0.31005 1.10587,0.7648 0.3824,0.45476 0.3824,1.15755 z M 218.55,156.35788 q 0,-0.55294 -0.42892,-0.8785 -0.42374,-0.33073 -1.0852,-0.33073 -0.65112,0 -1.0697,0.31006 -0.41341,0.31006 -0.41341,0.83716 0,0.37207 0.20671,0.64595 0.21187,0.26872 0.63562,0.48059 0.1912,0.093 0.54776,0.24288 0.36174,0.14986 0.7028,0.24804 0.5116,-0.34106 0.70797,-0.70796 0.19637,-0.3669 0.19637,-0.84749 z m 0.16019,3.85505 q 0,-0.47542 -0.21187,-0.75964 -0.2067,-0.28939 -0.81648,-0.57878 -0.24288,-0.11369 -0.53227,-0.21187 -0.28939,-0.0982 -0.76998,-0.27388 -0.46508,0.25321 -0.7493,0.68729 -0.27905,0.43408 -0.27905,0.98185 0,0.69763 0.48059,1.15238 0.48058,0.45475 1.21955,0.45475 0.75448,0 1.20406,-0.38757 0.45475,-0.38757 0.45475,-1.06453 z"
       id="path18187"
       style="font-size:10.5833px;line-height:1.25;stroke-width:0.264583" />
    <path
       id="path15955"
       style="fill:none;stroke:#0000ff;stroke-width:0.4;stroke-miterlimit:4;stroke-dasharray:none;stop-color:#000000"
       d="m 42.562646,169.02731 h 12.820975 c 1.862171,0 3.361319,1.49915 3.361319,3.36132 v 12.82097 c 0,1.86217 -1.499148,3.36132 -3.361319,3.36132 H 42.562646 c -1.862171,0 -3.361319,-1.49915 -3.361319,-3.36132 v -12.82097 c 0,-1.86217 1.499148,-3.36132 3.361319,-3.36132 z" />
    <path
       id="path15965"
       style="fill:none;stroke:#0000ff;stroke-width:0.4;stroke-miterlimit:4;stroke-dasharray:none;stop-color:#000000"
       d="m 42.562646,189.67336 h 12.820975 c 1.862171,0 3.361319,1.49915 3.361319,3.36132 v 12.82097 c 0,1.86217 -1.499148,3.36132 -3.361319,3.36132 H 42.562646 c -1.862171,0 -3.361319,-1.49915 -3.361319,-3.36132 v -12.82097 c 0,-1.86217 1.499148,-3.36132 3.361319,-3.36132 z" />
    <path
       d="m 47.471939,182.65924 h -4.165107 v -0.78548 h 1.601964 v -5.15729 h -1.601964 v -0.7028 q 0.32556,0 0.697629,-0.0517 0.37207,-0.0568 0.563272,-0.1602 0.237711,-0.12919 0.372069,-0.32556 0.139526,-0.20154 0.160196,-0.53743 h 0.800983 v 6.93495 h 1.570958 z"
       id="path18180"
       style="font-size:10.5833px;line-height:1.25;stroke-width:0.264583" />
    <path
       d="m 54.639438,178.34944 q 0,1.00769 -0.232544,1.82934 -0.227375,0.82165 -0.692462,1.40043 -0.470254,0.58911 -1.178219,0.9095 -0.707964,0.32039 -1.663975,0.32039 -0.268717,0 -0.506428,-0.031 -0.237711,-0.0258 -0.423745,-0.0879 v -0.98702 h 0.05168 q 0.149861,0.0775 0.423745,0.14986 0.273885,0.0672 0.60978,0.0672 1.142046,0 1.787999,-0.68213 0.651121,-0.68729 0.754474,-1.89135 -0.480589,0.28939 -0.904335,0.41341 -0.423745,0.12403 -0.925005,0.12403 -0.475422,0 -0.862994,-0.093 -0.382404,-0.093 -0.769976,-0.36174 -0.454751,-0.31522 -0.687294,-0.80098 -0.227376,-0.48576 -0.227376,-1.16271 0,-1.17822 0.775144,-1.91719 0.775144,-0.73897 1.891351,-0.73897 0.558104,0 1.033526,0.17569 0.475421,0.17054 0.831988,0.51677 0.439248,0.42891 0.676959,1.10587 0.237711,0.67179 0.237711,1.74149 z m -1.043861,-0.22221 q 0,-0.80098 -0.165364,-1.28674 -0.165364,-0.48575 -0.454751,-0.75447 -0.242879,-0.23254 -0.521931,-0.33073 -0.279051,-0.10335 -0.604612,-0.10335 -0.744138,0 -1.178219,0.46509 -0.428913,0.46508 -0.428913,1.3074 0,0.49093 0.139526,0.80099 0.139526,0.31005 0.470254,0.5426 0.232543,0.16019 0.511595,0.21704 0.279052,0.0517 0.620115,0.0517 0.403075,0 0.816485,-0.10852 0.413411,-0.10852 0.775144,-0.31522 0.0052,-0.10852 0.01034,-0.21187 0.01033,-0.10852 0.01033,-0.27389 z"
       id="path18182"
       style="font-size:10.5833px;line-height:1.25;stroke-width:0.264583" />
    <path
       d="m 47.471939,203.29237 h -4.165107 v -0.78548 h 1.601964 v -5.15729 h -1.601964 v -0.70279 q 0.32556,0 0.697629,-0.0517 0.37207,-0.0568 0.563272,-0.1602 0.237711,-0.12919 0.372069,-0.32556 0.139526,-0.20154 0.160196,-0.53743 h 0.800983 v 6.93495 h 1.570958 z"
       id="path18175"
       style="font-size:10.5833px;line-height:1.25;stroke-width:0.264583" />
    <path
       d="m 54.639438,198.98257 q 0,1.00769 -0.232544,1.82934 -0.227375,0.82166 -0.692462,1.40043 -0.470254,0.58911 -1.178219,0.9095 -0.707964,0.32039 -1.663975,0.32039 -0.268717,0 -0.506428,-0.031 -0.237711,-0.0258 -0.423745,-0.0879 v -0.98702 h 0.05168 q 0.149861,0.0775 0.423745,0.14986 0.273885,0.0672 0.60978,0.0672 1.142046,0 1.787999,-0.68212 0.651121,-0.6873 0.754474,-1.89136 -0.480589,0.28939 -0.904335,0.41342 -0.423745,0.12402 -0.925005,0.12402 -0.475422,0 -0.862994,-0.093 -0.382404,-0.093 -0.769976,-0.36173 -0.454751,-0.31523 -0.687294,-0.80099 -0.227376,-0.48575 -0.227376,-1.16271 0,-1.17822 0.775144,-1.91719 0.775144,-0.73897 1.891351,-0.73897 0.558104,0 1.033526,0.1757 0.475421,0.17053 0.831988,0.51676 0.439248,0.42891 0.676959,1.10587 0.237711,0.67179 0.237711,1.74149 z m -1.043861,-0.22221 q 0,-0.80098 -0.165364,-1.28673 -0.165364,-0.48576 -0.454751,-0.75448 -0.242879,-0.23254 -0.521931,-0.33073 -0.279051,-0.10335 -0.604612,-0.10335 -0.744138,0 -1.178219,0.46509 -0.428913,0.46508 -0.428913,1.30741 0,0.49092 0.139526,0.80098 0.139526,0.31006 0.470254,0.5426 0.232543,0.1602 0.511595,0.21704 0.279052,0.0517 0.620115,0.0517 0.403075,0 0.816485,-0.10852 0.413411,-0.10852 0.775144,-0.31523 0.0052,-0.10852 0.01034,-0.21187 0.01033,-0.10852 0.01033,-0.27389 z"
       id="path18177"
       style="font-size:10.5833px;line-height:1.25;stroke-width:0.264583" />
    <path
       id="path15983"
       style="fill:none;stroke:#0000ff;stroke-width:0.4;stroke-miterlimit:4;stroke-dasharray:none;stop-color:#000000"
       d="M 63.201795,169.26916 H 76.02277 c 1.862171,0 3.361319,1.49915 3.361319,3.36132 v 12.82097 c 0,1.86217 -1.499148,3.36132 -3.361319,3.36132 H 63.201795 c -1.862171,0 -3.361319,-1.49915 -3.361319,-3.36132 v -12.82097 c 0,-1.86217 1.499148,-3.36132 3.361319,-3.36132 z" />
    <path
       id="path15993"
       style="fill:none;stroke:#0000ff;stroke-width:0.4;stroke-miterlimit:4;stroke-dasharray:none;stop-color:#000000"
       d="M 63.201795,189.91521 H 76.02277 c 1.862171,0 3.361319,1.49915 3.361319,3.36132 v 12.82097 c 0,1.86217 -1.499148,3.36132 -3.361319,3.36132 H 63.201795 c -1.862171,0 -3.361319,-1.49915 -3.361319,-3.36132 v -12.82097 c 0,-1.86217 1.499148,-3.36132 3.361319,-3.36132 z" />
    <path
       d="m 68.764791,182.90108 h -5.208968 v -1.08004 q 0.542601,-0.46508 1.085202,-0.93017 0.547768,-0.46509 1.018022,-0.925 0.992184,-0.96118 1.359086,-1.52445 0.366901,-0.56844 0.366901,-1.22473 0,-0.59945 -0.397907,-0.93534 -0.39274,-0.34107 -1.100704,-0.34107 -0.470254,0 -1.018023,0.16537 -0.547768,0.16536 -1.069699,0.50643 h -0.05168 v -1.08521 q 0.366902,-0.18086 0.976682,-0.33072 0.614947,-0.14987 1.188554,-0.14987 1.183386,0 1.855178,0.57361 0.671791,0.56844 0.671791,1.54512 0,0.43925 -0.113688,0.82165 -0.10852,0.37724 -0.32556,0.7183 -0.201538,0.3204 -0.475422,0.63045 -0.268716,0.31006 -0.656288,0.6873 -0.552936,0.5426 -1.142046,1.0542 -0.589109,0.50642 -1.100704,0.9405 h 4.139269 z"
       id="path18170"
       style="font-size:10.5833px;line-height:1.25;stroke-width:0.264583" />
    <path
       d="m 75.493041,179.0512 q 0,2.07221 -0.651121,3.04373 -0.645953,0.96634 -2.010207,0.96634 -1.384924,0 -2.02571,-0.98185 -0.635618,-0.98184 -0.635618,-3.01789 0,-2.05155 0.645954,-3.02823 0.645953,-0.98185 2.015374,-0.98185 1.384924,0 2.020542,0.99735 0.640786,0.99219 0.640786,3.0024 z m -1.359086,2.3461 q 0.180867,-0.41858 0.242879,-0.98185 0.06718,-0.56844 0.06718,-1.36425 0,-0.78548 -0.06718,-1.36426 -0.06201,-0.57877 -0.248047,-0.98185 -0.180866,-0.3979 -0.496092,-0.59944 -0.310057,-0.20154 -0.800982,-0.20154 -0.485757,0 -0.80615,0.20154 -0.315225,0.20154 -0.501259,0.60978 -0.1757,0.3824 -0.242879,0.99735 -0.06201,0.61495 -0.06201,1.34875 0,0.80615 0.05684,1.34875 0.05684,0.5426 0.242879,0.97151 0.170532,0.40308 0.480589,0.61495 0.315225,0.21188 0.831988,0.21188 0.485757,0 0.80615,-0.20154 0.320393,-0.20154 0.496092,-0.60978 z"
       id="path18172"
       style="font-size:10.5833px;line-height:1.25;stroke-width:0.264583" />
    <path
       d="m 68.764791,203.53421 h -5.208968 v -1.08003 q 0.542601,-0.46509 1.085202,-0.93018 0.547768,-0.46508 1.018022,-0.925 0.992184,-0.96118 1.359086,-1.52445 0.366901,-0.56844 0.366901,-1.22473 0,-0.59944 -0.397907,-0.93534 -0.39274,-0.34106 -1.100704,-0.34106 -0.470254,0 -1.018023,0.16536 -0.547768,0.16537 -1.069699,0.50643 h -0.05168 v -1.0852 q 0.366902,-0.18087 0.976682,-0.33073 0.614947,-0.14986 1.188554,-0.14986 1.183386,0 1.855178,0.5736 0.671791,0.56844 0.671791,1.54512 0,0.43925 -0.113688,0.82166 -0.10852,0.37723 -0.32556,0.7183 -0.201538,0.32039 -0.475422,0.63045 -0.268716,0.31006 -0.656288,0.68729 -0.552936,0.5426 -1.142046,1.0542 -0.589109,0.50643 -1.100704,0.94051 h 4.139269 z"
       id="path18165"
       style="font-size:10.5833px;line-height:1.25;stroke-width:0.264583" />
    <path
       d="m 75.493041,199.68433 q 0,2.07222 -0.651121,3.04373 -0.645953,0.96635 -2.010207,0.96635 -1.384924,0 -2.02571,-0.98185 -0.635618,-0.98185 -0.635618,-3.0179 0,-2.05154 0.645954,-3.02823 0.645953,-0.98184 2.015374,-0.98184 1.384924,0 2.020542,0.99735 0.640786,0.99218 0.640786,3.00239 z m -1.359086,2.3461 q 0.180867,-0.41858 0.242879,-0.98185 0.06718,-0.56844 0.06718,-1.36425 0,-0.78548 -0.06718,-1.36426 -0.06201,-0.57877 -0.248047,-0.98184 -0.180866,-0.39791 -0.496092,-0.59945 -0.310057,-0.20154 -0.800982,-0.20154 -0.485757,0 -0.80615,0.20154 -0.315225,0.20154 -0.501259,0.60978 -0.1757,0.38241 -0.242879,0.99735 -0.06201,0.61495 -0.06201,1.34875 0,0.80615 0.05684,1.34875 0.05684,0.5426 0.242879,0.97152 0.170532,0.40307 0.480589,0.61495 0.315225,0.21187 0.831988,0.21187 0.485757,0 0.80615,-0.20154 0.320393,-0.20154 0.496092,-0.60978 z"
       id="path18167"
       style="font-size:10.5833px;line-height:1.25;stroke-width:0.264583" />
  </g>
</svg>
