999
"DXF R12 Output" (www.mydxf.blogspot.com)
 0 
SECTION
 2 
HEADER
 9 
$ACADVER
 1 
AC1009
 9 
$EXTMIN
 10 
 0 
 20 
 0 
 9 
$EXTMAX
 10 
 8.5 
 20 
 11 
 0 
ENDSEC
 0 
SECTION
 2 
ENTITIES
0
LINE
8
Livello 1
10
12.012100
20
11.012600
11
15.630500
21
11.012600
0
LINE
8
Livello 1
10
15.630500
20
11.012600
11
16.000439
21
10.938280
0
LINE
8
Livello 1
10
16.000439
20
10.938280
11
16.301899
21
10.735360
0
LINE
8
Livello 1
10
16.301899
20
10.735360
11
16.504818
21
10.433901
0
LINE
8
Livello 1
10
16.504818
20
10.433901
11
16.579138
21
10.063962
0
LINE
8
Livello 1
10
16.579138
20
10.063962
11
16.579100
21
6.445590
0
LINE
8
Livello 1
10
16.579100
20
6.445590
11
16.504780
21
6.075651
0
LINE
8
Livello 1
10
16.504780
20
6.075651
11
16.301860
21
5.774192
0
LINE
8
Livello 1
10
16.301860
20
5.774192
11
16.000401
21
5.571272
0
LINE
8
Livello 1
10
16.000401
20
5.571272
11
15.630462
21
5.496952
0
LINE
8
Livello 1
10
15.630462
20
5.496952
11
12.012100
21
5.496950
0
LINE
8
Livello 1
10
12.012100
20
5.496950
11
11.642161
21
5.571270
0
LINE
8
Livello 1
10
11.642161
20
5.571270
11
11.340701
21
5.774190
0
LINE
8
Livello 1
10
11.340701
20
5.774190
11
11.137782
21
6.075649
0
LINE
8
Livello 1
10
11.137782
20
6.075649
11
11.063462
21
6.445588
0
LINE
8
Livello 1
10
11.063462
20
6.445588
11
11.063500
21
10.063900
0
LINE
8
Livello 1
10
11.063500
20
10.063900
11
11.137820
21
10.433839
0
LINE
8
Livello 1
10
11.137820
20
10.433839
11
11.340740
21
10.735298
0
LINE
8
Livello 1
10
11.340740
20
10.735298
11
11.642199
21
10.938218
0
LINE
8
Livello 1
10
11.642199
20
10.938218
11
12.012138
21
11.012538
0
LINE
8
Livello 1
10
12.012138
20
11.012538
11
12.012100
21
11.012600
0
LINE
8
Livello 1
10
12.012100
20
5.185820
11
15.630500
21
5.185820
0
LINE
8
Livello 1
10
15.630500
20
5.185820
11
16.000439
21
5.111500
0
LINE
8
Livello 1
10
16.000439
20
5.111500
11
16.301899
21
4.908580
0
LINE
8
Livello 1
10
16.301899
20
4.908580
11
16.504818
21
4.607121
0
LINE
8
Livello 1
10
16.504818
20
4.607121
11
16.579138
21
4.237182
0
LINE
8
Livello 1
10
16.579138
20
4.237182
11
16.579100
21
0.618820
0
LINE
8
Livello 1
10
16.579100
20
0.618820
11
16.504780
21
0.248881
0
LINE
8
Livello 1
10
16.504780
20
0.248881
11
16.301860
21
-0.052578
0
LINE
8
Livello 1
10
16.301860
20
-0.052578
11
16.000401
21
-0.255498
0
LINE
8
Livello 1
10
16.000401
20
-0.255498
11
15.630462
21
-0.329818
0
LINE
8
Livello 1
10
15.630462
20
-0.329818
11
12.012100
21
-0.329819
0
LINE
8
Livello 1
10
12.012100
20
-0.329819
11
11.642161
21
-0.255499
0
LINE
8
Livello 1
10
11.642161
20
-0.255499
11
11.340701
21
-0.052579
0
LINE
8
Livello 1
10
11.340701
20
-0.052579
11
11.137782
21
0.248880
0
LINE
8
Livello 1
10
11.137782
20
0.248880
11
11.063462
21
0.618819
0
LINE
8
Livello 1
10
11.063462
20
0.618819
11
11.063500
21
4.237180
0
LINE
8
Livello 1
10
11.063500
20
4.237180
11
11.137820
21
4.607119
0
LINE
8
Livello 1
10
11.137820
20
4.607119
11
11.340740
21
4.908578
0
LINE
8
Livello 1
10
11.340740
20
4.908578
11
11.642199
21
5.111498
0
LINE
8
Livello 1
10
11.642199
20
5.111498
11
12.012138
21
5.185818
0
LINE
8
Livello 1
10
12.012138
20
5.185818
11
12.012100
21
5.185820
0
LINE
8
Livello 1
10
14.409000
20
7.165330
11
13.233600
21
7.165330
0
LINE
8
Livello 1
10
13.233600
20
7.165330
11
13.233600
21
7.387010
0
LINE
8
Livello 1
10
13.233600
20
7.387010
11
13.685700
21
7.387010
0
LINE
8
Livello 1
10
13.685700
20
7.387010
11
13.685700
21
8.842510
0
LINE
8
Livello 1
10
13.685700
20
8.842510
11
13.233600
21
8.842510
0
LINE
8
Livello 1
10
13.233600
20
8.842510
11
13.233600
21
9.040860
0
LINE
8
Livello 1
10
13.233600
20
9.040860
11
13.430486
21
9.055445
0
LINE
8
Livello 1
10
13.430486
20
9.055445
11
13.589454
21
9.100656
0
LINE
8
Livello 1
10
13.589454
20
9.100656
11
13.694460
21
9.192537
0
LINE
8
Livello 1
10
13.694460
20
9.192537
11
13.739671
21
9.344213
0
LINE
8
Livello 1
10
13.739671
20
9.344213
11
13.965700
21
9.344210
0
LINE
8
Livello 1
10
13.965700
20
9.344210
11
13.965700
21
7.387010
0
LINE
8
Livello 1
10
13.965700
20
7.387010
11
14.409000
21
7.387010
0
LINE
8
Livello 1
10
14.409000
20
7.387010
11
14.409000
21
7.165330
0
LINE
8
Livello 1
10
14.409000
20
1.342210
11
13.233600
21
1.342210
0
LINE
8
Livello 1
10
13.233600
20
1.342210
11
13.233600
21
1.563890
0
LINE
8
Livello 1
10
13.233600
20
1.563890
11
13.685700
21
1.563890
0
LINE
8
Livello 1
10
13.685700
20
1.563890
11
13.685700
21
3.019390
0
LINE
8
Livello 1
10
13.685700
20
3.019390
11
13.233600
21
3.019390
0
LINE
8
Livello 1
10
13.233600
20
3.019390
11
13.233600
21
3.217740
0
LINE
8
Livello 1
10
13.233600
20
3.217740
11
13.430486
21
3.232331
0
LINE
8
Livello 1
10
13.430486
20
3.232331
11
13.589454
21
3.277543
0
LINE
8
Livello 1
10
13.589454
20
3.277543
11
13.694460
21
3.369423
0
LINE
8
Livello 1
10
13.694460
20
3.369423
11
13.739671
21
3.521098
0
LINE
8
Livello 1
10
13.739671
20
3.521098
11
13.965700
21
3.521090
0
LINE
8
Livello 1
10
13.965700
20
3.521090
11
13.965700
21
1.563900
0
LINE
8
Livello 1
10
13.965700
20
1.563900
11
14.409000
21
1.563900
0
LINE
8
Livello 1
10
14.409000
20
1.563900
11
14.409000
21
1.342210
0
LINE
8
Livello 1
10
17.836900
20
10.944300
11
21.455300
21
10.944300
0
LINE
8
Livello 1
10
21.455300
20
10.944300
11
21.825239
21
10.869980
0
LINE
8
Livello 1
10
21.825239
20
10.869980
11
22.126699
21
10.667060
0
LINE
8
Livello 1
10
22.126699
20
10.667060
11
22.329618
21
10.365601
0
LINE
8
Livello 1
10
22.329618
20
10.365601
11
22.403938
21
9.995662
0
LINE
8
Livello 1
10
22.403938
20
9.995662
11
22.403900
21
6.377330
0
LINE
8
Livello 1
10
22.403900
20
6.377330
11
22.329580
21
6.007391
0
LINE
8
Livello 1
10
22.329580
20
6.007391
11
22.126660
21
5.705932
0
LINE
8
Livello 1
10
22.126660
20
5.705932
11
21.825201
21
5.503012
0
LINE
8
Livello 1
10
21.825201
20
5.503012
11
21.455262
21
5.428692
0
LINE
8
Livello 1
10
21.455262
20
5.428692
11
17.836900
21
5.428700
0
LINE
8
Livello 1
10
17.836900
20
5.428700
11
17.466961
21
5.503020
0
LINE
8
Livello 1
10
17.466961
20
5.503020
11
17.165501
21
5.705940
0
LINE
8
Livello 1
10
17.165501
20
5.705940
11
16.962582
21
6.007399
0
LINE
8
Livello 1
10
16.962582
20
6.007399
11
16.888262
21
6.377338
0
LINE
8
Livello 1
10
16.888262
20
6.377338
11
16.888300
21
9.995690
0
LINE
8
Livello 1
10
16.888300
20
9.995690
11
16.962620
21
10.365629
0
LINE
8
Livello 1
10
16.962620
20
10.365629
11
17.165540
21
10.667088
0
LINE
8
Livello 1
10
17.165540
20
10.667088
11
17.466999
21
10.870008
0
LINE
8
Livello 1
10
17.466999
20
10.870008
11
17.836938
21
10.944328
0
LINE
8
Livello 1
10
17.836938
20
10.944328
11
17.836900
21
10.944300
0
LINE
8
Livello 1
10
17.836900
20
5.117560
11
21.455300
21
5.117560
0
LINE
8
Livello 1
10
21.455300
20
5.117560
11
21.825239
21
5.043240
0
LINE
8
Livello 1
10
21.825239
20
5.043240
11
22.126699
21
4.840320
0
LINE
8
Livello 1
10
22.126699
20
4.840320
11
22.329618
21
4.538861
0
LINE
8
Livello 1
10
22.329618
20
4.538861
11
22.403938
21
4.168922
0
LINE
8
Livello 1
10
22.403938
20
4.168922
11
22.403900
21
0.550564
0
LINE
8
Livello 1
10
22.403900
20
0.550564
11
22.329580
21
0.180625
0
LINE
8
Livello 1
10
22.329580
20
0.180625
11
22.126660
21
-0.120834
0
LINE
8
Livello 1
10
22.126660
20
-0.120834
11
21.825201
21
-0.323754
0
LINE
8
Livello 1
10
21.825201
20
-0.323754
11
21.455262
21
-0.398074
0
LINE
8
Livello 1
10
21.455262
20
-0.398074
11
17.836900
21
-0.398074
0
LINE
8
Livello 1
10
17.836900
20
-0.398074
11
17.466961
21
-0.323754
0
LINE
8
Livello 1
10
17.466961
20
-0.323754
11
17.165501
21
-0.120834
0
LINE
8
Livello 1
10
17.165501
20
-0.120834
11
16.962582
21
0.180625
0
LINE
8
Livello 1
10
16.962582
20
0.180625
11
16.888262
21
0.550564
0
LINE
8
Livello 1
10
16.888262
20
0.550564
11
16.888300
21
4.168920
0
LINE
8
Livello 1
10
16.888300
20
4.168920
11
16.962620
21
4.538859
0
LINE
8
Livello 1
10
16.962620
20
4.538859
11
17.165540
21
4.840318
0
LINE
8
Livello 1
10
17.165540
20
4.840318
11
17.466999
21
5.043238
0
LINE
8
Livello 1
10
17.466999
20
5.043238
11
17.836938
21
5.117558
0
LINE
8
Livello 1
10
17.836938
20
5.117558
11
17.836900
21
5.117560
0
LINE
8
Livello 1
10
20.381200
20
7.097070
11
18.911100
21
7.097070
0
LINE
8
Livello 1
10
18.911100
20
7.097070
11
18.911100
21
7.401880
0
LINE
8
Livello 1
10
18.911100
20
7.401880
11
19.217368
21
7.664395
0
LINE
8
Livello 1
10
19.217368
20
7.664395
11
19.504676
21
7.925452
0
LINE
8
Livello 1
10
19.504676
20
7.925452
11
19.888240
21
8.355685
0
LINE
8
Livello 1
10
19.888240
20
8.355685
11
19.991788
21
8.701330
0
LINE
8
Livello 1
10
19.991788
20
8.701330
11
19.879490
21
8.965304
0
LINE
8
Livello 1
10
19.879490
20
8.965304
11
19.568847
21
9.061559
0
LINE
8
Livello 1
10
19.568847
20
9.061559
11
19.281539
21
9.014890
0
LINE
8
Livello 1
10
19.281539
20
9.014890
11
18.979646
21
8.871965
0
LINE
8
Livello 1
10
18.979646
20
8.871965
11
18.965000
21
8.871970
0
LINE
8
Livello 1
10
18.965000
20
8.871970
11
18.965000
21
9.178230
0
LINE
8
Livello 1
10
18.965000
20
9.178230
11
19.240641
21
9.271569
0
LINE
8
Livello 1
10
19.240641
20
9.271569
11
19.576077
21
9.313863
0
LINE
8
Livello 1
10
19.576077
20
9.313863
11
20.099649
21
9.151979
0
LINE
8
Livello 1
10
20.099649
20
9.151979
11
20.289243
21
8.715912
0
LINE
8
Livello 1
10
20.289243
20
8.715912
11
20.257158
21
8.484024
0
LINE
8
Livello 1
10
20.257158
20
8.484024
11
20.165278
21
8.281304
0
LINE
8
Livello 1
10
20.165278
20
8.281304
11
20.031103
21
8.103377
0
LINE
8
Livello 1
10
20.031103
20
8.103377
11
19.845884
21
7.909408
0
LINE
8
Livello 1
10
19.845884
20
7.909408
11
19.523574
21
7.611891
0
LINE
8
Livello 1
10
19.523574
20
7.611891
11
19.212931
21
7.346459
0
LINE
8
Livello 1
10
19.212931
20
7.346459
11
20.381200
21
7.346460
0
LINE
8
Livello 1
10
20.381200
20
7.346460
11
20.381200
21
7.097070
0
LINE
8
Livello 1
10
20.381200
20
1.273960
11
18.911100
21
1.273960
0
LINE
8
Livello 1
10
18.911100
20
1.273960
11
18.911100
21
1.578770
0
LINE
8
Livello 1
10
18.911100
20
1.578770
11
19.217368
21
1.841287
0
LINE
8
Livello 1
10
19.217368
20
1.841287
11
19.504676
21
2.102342
0
LINE
8
Livello 1
10
19.504676
20
2.102342
11
19.888240
21
2.532575
0
LINE
8
Livello 1
10
19.888240
20
2.532575
11
19.991788
21
2.878221
0
LINE
8
Livello 1
10
19.991788
20
2.878221
11
19.879490
21
3.142195
0
LINE
8
Livello 1
10
19.879490
20
3.142195
11
19.568847
21
3.238450
0
LINE
8
Livello 1
10
19.568847
20
3.238450
11
19.281539
21
3.191781
0
LINE
8
Livello 1
10
19.281539
20
3.191781
11
18.979646
21
3.048855
0
LINE
8
Livello 1
10
18.979646
20
3.048855
11
18.965000
21
3.048850
0
LINE
8
Livello 1
10
18.965000
20
3.048850
11
18.965000
21
3.355120
0
LINE
8
Livello 1
10
18.965000
20
3.355120
11
19.240641
21
3.448459
0
LINE
8
Livello 1
10
19.240641
20
3.448459
11
19.576077
21
3.490753
0
LINE
8
Livello 1
10
19.576077
20
3.490753
11
20.099649
21
3.328870
0
LINE
8
Livello 1
10
20.099649
20
3.328870
11
20.289243
21
2.892803
0
LINE
8
Livello 1
10
20.289243
20
2.892803
11
20.257158
21
2.660912
0
LINE
8
Livello 1
10
20.257158
20
2.660912
11
20.165278
21
2.458192
0
LINE
8
Livello 1
10
20.165278
20
2.458192
11
20.031103
21
2.280265
0
LINE
8
Livello 1
10
20.031103
20
2.280265
11
19.845884
21
2.086297
0
LINE
8
Livello 1
10
19.845884
20
2.086297
11
19.523574
21
1.788779
0
LINE
8
Livello 1
10
19.523574
20
1.788779
11
19.212931
21
1.523349
0
LINE
8
Livello 1
10
19.212931
20
1.523349
11
20.381200
21
1.523350
0
LINE
8
Livello 1
10
20.381200
20
1.523350
11
20.381200
21
1.273960
0
LINE
8
Livello 1
10
23.660800
20
11.012600
11
27.279200
21
11.012600
0
LINE
8
Livello 1
10
27.279200
20
11.012600
11
27.649139
21
10.938280
0
LINE
8
Livello 1
10
27.649139
20
10.938280
11
27.950599
21
10.735360
0
LINE
8
Livello 1
10
27.950599
20
10.735360
11
28.153518
21
10.433901
0
LINE
8
Livello 1
10
28.153518
20
10.433901
11
28.227838
21
10.063962
0
LINE
8
Livello 1
10
28.227838
20
10.063962
11
28.227800
21
6.445590
0
LINE
8
Livello 1
10
28.227800
20
6.445590
11
28.153480
21
6.075651
0
LINE
8
Livello 1
10
28.153480
20
6.075651
11
27.950561
21
5.774192
0
LINE
8
Livello 1
10
27.950561
20
5.774192
11
27.649101
21
5.571272
0
LINE
8
Livello 1
10
27.649101
20
5.571272
11
27.279162
21
5.496952
0
LINE
8
Livello 1
10
27.279162
20
5.496952
11
23.660800
21
5.496950
0
LINE
8
Livello 1
10
23.660800
20
5.496950
11
23.290861
21
5.571270
0
LINE
8
Livello 1
10
23.290861
20
5.571270
11
22.989401
21
5.774190
0
LINE
8
Livello 1
10
22.989401
20
5.774190
11
22.786482
21
6.075649
0
LINE
8
Livello 1
10
22.786482
20
6.075649
11
22.712162
21
6.445588
0
LINE
8
Livello 1
10
22.712162
20
6.445588
11
22.712200
21
10.063900
0
LINE
8
Livello 1
10
22.712200
20
10.063900
11
22.786520
21
10.433839
0
LINE
8
Livello 1
10
22.786520
20
10.433839
11
22.989440
21
10.735298
0
LINE
8
Livello 1
10
22.989440
20
10.735298
11
23.290899
21
10.938218
0
LINE
8
Livello 1
10
23.290899
20
10.938218
11
23.660838
21
11.012538
0
LINE
8
Livello 1
10
23.660838
20
11.012538
11
23.660800
21
11.012600
0
LINE
8
Livello 1
10
23.660800
20
5.185820
11
27.279200
21
5.185820
0
LINE
8
Livello 1
10
27.279200
20
5.185820
11
27.649139
21
5.111500
0
LINE
8
Livello 1
10
27.649139
20
5.111500
11
27.950599
21
4.908580
0
LINE
8
Livello 1
10
27.950599
20
4.908580
11
28.153518
21
4.607121
0
LINE
8
Livello 1
10
28.153518
20
4.607121
11
28.227838
21
4.237182
0
LINE
8
Livello 1
10
28.227838
20
4.237182
11
28.227800
21
0.618820
0
LINE
8
Livello 1
10
28.227800
20
0.618820
11
28.153480
21
0.248881
0
LINE
8
Livello 1
10
28.153480
20
0.248881
11
27.950561
21
-0.052578
0
LINE
8
Livello 1
10
27.950561
20
-0.052578
11
27.649101
21
-0.255498
0
LINE
8
Livello 1
10
27.649101
20
-0.255498
11
27.279162
21
-0.329818
0
LINE
8
Livello 1
10
27.279162
20
-0.329818
11
23.660800
21
-0.329819
0
LINE
8
Livello 1
10
23.660800
20
-0.329819
11
23.290861
21
-0.255499
0
LINE
8
Livello 1
10
23.290861
20
-0.255499
11
22.989401
21
-0.052579
0
LINE
8
Livello 1
10
22.989401
20
-0.052579
11
22.786482
21
0.248880
0
LINE
8
Livello 1
10
22.786482
20
0.248880
11
22.712162
21
0.618819
0
LINE
8
Livello 1
10
22.712162
20
0.618819
11
22.712200
21
4.237180
0
LINE
8
Livello 1
10
22.712200
20
4.237180
11
22.786520
21
4.607119
0
LINE
8
Livello 1
10
22.786520
20
4.607119
11
22.989440
21
4.908578
0
LINE
8
Livello 1
10
22.989440
20
4.908578
11
23.290899
21
5.111498
0
LINE
8
Livello 1
10
23.290899
20
5.111498
11
23.660838
21
5.185818
0
LINE
8
Livello 1
10
23.660838
20
5.185818
11
23.660800
21
5.185820
0
LINE
8
Livello 1
10
25.990700
20
8.211020
11
26.105915
21
8.053511
0
LINE
8
Livello 1
10
26.105915
20
8.053511
11
26.151126
21
7.808497
0
LINE
8
Livello 1
10
26.151126
20
7.808497
11
26.097165
21
7.535773
0
LINE
8
Livello 1
10
26.097165
20
7.535773
11
25.945490
21
7.319927
0
LINE
8
Livello 1
10
25.945490
20
7.319927
11
25.687350
21
7.168251
0
LINE
8
Livello 1
10
25.687350
20
7.168251
11
25.363581
21
7.120123
0
LINE
8
Livello 1
10
25.363581
20
7.120123
11
25.007727
21
7.163876
0
LINE
8
Livello 1
10
25.007727
20
7.163876
11
24.720419
21
7.257215
0
LINE
8
Livello 1
10
24.720419
20
7.257215
11
24.720400
21
7.562020
0
LINE
8
Livello 1
10
24.720400
20
7.562020
11
24.742300
21
7.562020
0
LINE
8
Livello 1
10
24.742300
20
7.562020
11
25.033984
21
7.426387
0
LINE
8
Livello 1
10
25.033984
20
7.426387
11
25.357753
21
7.372426
0
LINE
8
Livello 1
10
25.357753
20
7.372426
11
25.553181
21
7.403052
0
LINE
8
Livello 1
10
25.553181
20
7.403052
11
25.720899
21
7.493474
0
LINE
8
Livello 1
10
25.720899
20
7.493474
11
25.820072
21
7.634941
0
LINE
8
Livello 1
10
25.820072
20
7.634941
11
25.853615
21
7.830369
0
LINE
8
Livello 1
10
25.853615
20
7.830369
11
25.815696
21
8.022880
0
LINE
8
Livello 1
10
25.815696
20
8.022880
11
25.713607
21
8.143929
0
LINE
8
Livello 1
10
25.713607
20
8.143929
11
25.554640
21
8.205183
0
LINE
8
Livello 1
10
25.554640
20
8.205183
11
25.353378
21
8.222683
0
LINE
8
Livello 1
10
25.353378
20
8.222683
11
25.222100
21
8.222680
0
LINE
8
Livello 1
10
25.222100
20
8.222680
11
25.222100
21
8.464780
0
LINE
8
Livello 1
10
25.222100
20
8.464780
11
25.324200
21
8.464780
0
LINE
8
Livello 1
10
25.324200
20
8.464780
11
25.677137
21
8.556660
0
LINE
8
Livello 1
10
25.677137
20
8.556660
11
25.809853
21
8.827926
0
LINE
8
Livello 1
10
25.809853
20
8.827926
11
25.776309
21
8.965017
0
LINE
8
Livello 1
10
25.776309
20
8.965017
11
25.682971
21
9.062731
0
LINE
8
Livello 1
10
25.682971
20
9.062731
11
25.548796
21
9.115234
0
LINE
8
Livello 1
10
25.548796
20
9.115234
11
25.386911
21
9.129819
0
LINE
8
Livello 1
10
25.386911
20
9.129819
11
25.092311
21
9.080233
0
LINE
8
Livello 1
10
25.092311
20
9.080233
11
24.797710
21
8.940225
0
LINE
8
Livello 1
10
24.797710
20
8.940225
11
24.783100
21
8.940230
0
LINE
8
Livello 1
10
24.783100
20
8.940230
11
24.783100
21
9.245030
0
LINE
8
Livello 1
10
24.783100
20
9.245030
11
25.058741
21
9.338369
0
LINE
8
Livello 1
10
25.058741
20
9.338369
11
25.394177
21
9.382121
0
LINE
8
Livello 1
10
25.394177
20
9.382121
11
25.674193
21
9.352953
0
LINE
8
Livello 1
10
25.674193
20
9.352953
11
25.892956
21
9.259614
0
LINE
8
Livello 1
10
25.892956
20
9.259614
11
26.051923
21
9.090437
0
LINE
8
Livello 1
10
26.051923
20
9.090437
11
26.105884
21
8.858549
0
LINE
8
Livello 1
10
26.105884
20
8.858549
11
25.977543
21
8.542072
0
LINE
8
Livello 1
10
25.977543
20
8.542072
11
25.677109
21
8.372895
0
LINE
8
Livello 1
10
25.677109
20
8.372895
11
25.677100
21
8.352480
0
LINE
8
Livello 1
10
25.677100
20
8.352480
11
25.837526
21
8.302894
0
LINE
8
Livello 1
10
25.837526
20
8.302894
11
25.990660
21
8.211014
0
LINE
8
Livello 1
10
25.990660
20
8.211014
11
25.990700
21
8.211020
0
LINE
8
Livello 1
10
25.990700
20
2.387900
11
26.105915
21
2.230389
0
LINE
8
Livello 1
10
26.105915
20
2.230389
11
26.151126
21
1.985375
0
LINE
8
Livello 1
10
26.151126
20
1.985375
11
26.097165
21
1.712650
0
LINE
8
Livello 1
10
26.097165
20
1.712650
11
25.945490
21
1.496807
0
LINE
8
Livello 1
10
25.945490
20
1.496807
11
25.687350
21
1.345130
0
LINE
8
Livello 1
10
25.687350
20
1.345130
11
25.363581
21
1.297003
0
LINE
8
Livello 1
10
25.363581
20
1.297003
11
25.007727
21
1.340756
0
LINE
8
Livello 1
10
25.007727
20
1.340756
11
24.720419
21
1.434095
0
LINE
8
Livello 1
10
24.720419
20
1.434095
11
24.720400
21
1.738900
0
LINE
8
Livello 1
10
24.720400
20
1.738900
11
24.742300
21
1.738900
0
LINE
8
Livello 1
10
24.742300
20
1.738900
11
25.033984
21
1.603267
0
LINE
8
Livello 1
10
25.033984
20
1.603267
11
25.357753
21
1.549306
0
LINE
8
Livello 1
10
25.357753
20
1.549306
11
25.553181
21
1.579933
0
LINE
8
Livello 1
10
25.553181
20
1.579933
11
25.720899
21
1.670354
0
LINE
8
Livello 1
10
25.720899
20
1.670354
11
25.820072
21
1.811821
0
LINE
8
Livello 1
10
25.820072
20
1.811821
11
25.853615
21
2.007251
0
LINE
8
Livello 1
10
25.853615
20
2.007251
11
25.815696
21
2.199760
0
LINE
8
Livello 1
10
25.815696
20
2.199760
11
25.713607
21
2.320811
0
LINE
8
Livello 1
10
25.713607
20
2.320811
11
25.554640
21
2.382064
0
LINE
8
Livello 1
10
25.554640
20
2.382064
11
25.353378
21
2.399562
0
LINE
8
Livello 1
10
25.353378
20
2.399562
11
25.222100
21
2.399560
0
LINE
8
Livello 1
10
25.222100
20
2.399560
11
25.222100
21
2.641660
0
LINE
8
Livello 1
10
25.222100
20
2.641660
11
25.324200
21
2.641660
0
LINE
8
Livello 1
10
25.324200
20
2.641660
11
25.677137
21
2.733540
0
LINE
8
Livello 1
10
25.677137
20
2.733540
11
25.809853
21
3.004806
0
LINE
8
Livello 1
10
25.809853
20
3.004806
11
25.776309
21
3.141898
0
LINE
8
Livello 1
10
25.776309
20
3.141898
11
25.682971
21
3.239612
0
LINE
8
Livello 1
10
25.682971
20
3.239612
11
25.548796
21
3.292114
0
LINE
8
Livello 1
10
25.548796
20
3.292114
11
25.386911
21
3.306705
0
LINE
8
Livello 1
10
25.386911
20
3.306705
11
25.092311
21
3.257118
0
LINE
8
Livello 1
10
25.092311
20
3.257118
11
24.797710
21
3.117110
0
LINE
8
Livello 1
10
24.797710
20
3.117110
11
24.783100
21
3.117110
0
LINE
8
Livello 1
10
24.783100
20
3.117110
11
24.783100
21
3.421920
0
LINE
8
Livello 1
10
24.783100
20
3.421920
11
25.058741
21
3.515259
0
LINE
8
Livello 1
10
25.058741
20
3.515259
11
25.394177
21
3.559012
0
LINE
8
Livello 1
10
25.394177
20
3.559012
11
25.674193
21
3.529845
0
LINE
8
Livello 1
10
25.674193
20
3.529845
11
25.892956
21
3.436505
0
LINE
8
Livello 1
10
25.892956
20
3.436505
11
26.051923
21
3.267327
0
LINE
8
Livello 1
10
26.051923
20
3.267327
11
26.105884
21
3.035439
0
LINE
8
Livello 1
10
26.105884
20
3.035439
11
25.977543
21
2.718964
0
LINE
8
Livello 1
10
25.977543
20
2.718964
11
25.677109
21
2.549786
0
LINE
8
Livello 1
10
25.677109
20
2.549786
11
25.677100
21
2.529380
0
LINE
8
Livello 1
10
25.677100
20
2.529380
11
25.837526
21
2.479794
0
LINE
8
Livello 1
10
25.837526
20
2.479794
11
25.990660
21
2.387913
0
LINE
8
Livello 1
10
25.990660
20
2.387913
11
25.990700
21
2.387900
0
LINE
8
Livello 1
10
29.485700
20
10.944300
11
33.104000
21
10.944300
0
LINE
8
Livello 1
10
33.104000
20
10.944300
11
33.473939
21
10.869980
0
LINE
8
Livello 1
10
33.473939
20
10.869980
11
33.775398
21
10.667060
0
LINE
8
Livello 1
10
33.775398
20
10.667060
11
33.978318
21
10.365601
0
LINE
8
Livello 1
10
33.978318
20
10.365601
11
34.052638
21
9.995662
0
LINE
8
Livello 1
10
34.052638
20
9.995662
11
34.052600
21
6.377330
0
LINE
8
Livello 1
10
34.052600
20
6.377330
11
33.978280
21
6.007391
0
LINE
8
Livello 1
10
33.978280
20
6.007391
11
33.775360
21
5.705932
0
LINE
8
Livello 1
10
33.775360
20
5.705932
11
33.473901
21
5.503012
0
LINE
8
Livello 1
10
33.473901
20
5.503012
11
33.103962
21
5.428692
0
LINE
8
Livello 1
10
33.103962
20
5.428692
11
29.485700
21
5.428700
0
LINE
8
Livello 1
10
29.485700
20
5.428700
11
29.115761
21
5.503020
0
LINE
8
Livello 1
10
29.115761
20
5.503020
11
28.814302
21
5.705940
0
LINE
8
Livello 1
10
28.814302
20
5.705940
11
28.611382
21
6.007399
0
LINE
8
Livello 1
10
28.611382
20
6.007399
11
28.537062
21
6.377338
0
LINE
8
Livello 1
10
28.537062
20
6.377338
11
28.537000
21
9.995690
0
LINE
8
Livello 1
10
28.537000
20
9.995690
11
28.611320
21
10.365629
0
LINE
8
Livello 1
10
28.611320
20
10.365629
11
28.814240
21
10.667088
0
LINE
8
Livello 1
10
28.814240
20
10.667088
11
29.115699
21
10.870008
0
LINE
8
Livello 1
10
29.115699
20
10.870008
11
29.485638
21
10.944328
0
LINE
8
Livello 1
10
29.485638
20
10.944328
11
29.485700
21
10.944300
0
LINE
8
Livello 1
10
29.485700
20
5.117560
11
33.104000
21
5.117560
0
LINE
8
Livello 1
10
33.104000
20
5.117560
11
33.473939
21
5.043240
0
LINE
8
Livello 1
10
33.473939
20
5.043240
11
33.775398
21
4.840320
0
LINE
8
Livello 1
10
33.775398
20
4.840320
11
33.978318
21
4.538861
0
LINE
8
Livello 1
10
33.978318
20
4.538861
11
34.052638
21
4.168922
0
LINE
8
Livello 1
10
34.052638
20
4.168922
11
34.052600
21
0.550564
0
LINE
8
Livello 1
10
34.052600
20
0.550564
11
33.978280
21
0.180625
0
LINE
8
Livello 1
10
33.978280
20
0.180625
11
33.775360
21
-0.120834
0
LINE
8
Livello 1
10
33.775360
20
-0.120834
11
33.473901
21
-0.323754
0
LINE
8
Livello 1
10
33.473901
20
-0.323754
11
33.103962
21
-0.398074
0
LINE
8
Livello 1
10
33.103962
20
-0.398074
11
29.485700
21
-0.398074
0
LINE
8
Livello 1
10
29.485700
20
-0.398074
11
29.115761
21
-0.323754
0
LINE
8
Livello 1
10
29.115761
20
-0.323754
11
28.814302
21
-0.120834
0
LINE
8
Livello 1
10
28.814302
20
-0.120834
11
28.611382
21
0.180625
0
LINE
8
Livello 1
10
28.611382
20
0.180625
11
28.537062
21
0.550564
0
LINE
8
Livello 1
10
28.537062
20
0.550564
11
28.537000
21
4.168920
0
LINE
8
Livello 1
10
28.537000
20
4.168920
11
28.611320
21
4.538859
0
LINE
8
Livello 1
10
28.611320
20
4.538859
11
28.814240
21
4.840318
0
LINE
8
Livello 1
10
28.814240
20
4.840318
11
29.115699
21
5.043238
0
LINE
8
Livello 1
10
29.115699
20
5.043238
11
29.485638
21
5.117558
0
LINE
8
Livello 1
10
29.485638
20
5.117558
11
29.485700
21
5.117560
0
LINE
8
Livello 1
10
32.079500
20
7.708150
11
31.757100
21
7.708150
0
LINE
8
Livello 1
10
31.757100
20
7.708150
11
31.757100
21
7.097070
0
LINE
8
Livello 1
10
31.757100
20
7.097070
11
31.477100
21
7.097070
0
LINE
8
Livello 1
10
31.477100
20
7.097070
11
31.477100
21
7.708150
0
LINE
8
Livello 1
10
31.477100
20
7.708150
11
30.437300
21
7.708150
0
LINE
8
Livello 1
10
30.437300
20
7.708150
11
30.437300
21
8.043590
0
LINE
8
Livello 1
10
30.437300
20
8.043590
11
31.488820
21
9.268660
0
LINE
8
Livello 1
10
31.488820
20
9.268660
11
31.757100
21
9.268660
0
LINE
8
Livello 1
10
31.757100
20
9.268660
11
31.757100
21
7.941500
0
LINE
8
Livello 1
10
31.757100
20
7.941500
11
32.079500
21
7.941500
0
LINE
8
Livello 1
10
32.079500
20
7.941500
11
32.079500
21
7.708150
0
LINE
8
Livello 1
10
31.477173
20
7.941497
11
31.477100
21
8.921550
0
LINE
8
Livello 1
10
31.477100
20
8.921550
11
30.635593
21
7.941493
0
LINE
8
Livello 1
10
30.635593
20
7.941493
11
31.477173
21
7.941497
0
LINE
8
Livello 1
10
32.079500
20
1.885040
11
31.757100
21
1.885040
0
LINE
8
Livello 1
10
31.757100
20
1.885040
11
31.757100
21
1.273960
0
LINE
8
Livello 1
10
31.757100
20
1.273960
11
31.477100
21
1.273960
0
LINE
8
Livello 1
10
31.477100
20
1.273960
11
31.477100
21
1.885040
0
LINE
8
Livello 1
10
31.477100
20
1.885040
11
30.437300
21
1.885040
0
LINE
8
Livello 1
10
30.437300
20
1.885040
11
30.437300
21
2.220470
0
LINE
8
Livello 1
10
30.437300
20
2.220470
11
31.488820
21
3.445540
0
LINE
8
Livello 1
10
31.488820
20
3.445540
11
31.757100
21
3.445540
0
LINE
8
Livello 1
10
31.757100
20
3.445540
11
31.757100
21
2.118380
0
LINE
8
Livello 1
10
31.757100
20
2.118380
11
32.079500
21
2.118380
0
LINE
8
Livello 1
10
32.079500
20
2.118380
11
32.079500
21
1.885040
0
LINE
8
Livello 1
10
31.477173
20
2.118387
11
31.477100
21
3.098440
0
LINE
8
Livello 1
10
31.477100
20
3.098440
11
30.635593
21
2.118385
0
LINE
8
Livello 1
10
30.635593
20
2.118385
11
31.477173
21
2.118387
0
LINE
8
Livello 1
10
35.309500
20
11.012600
11
38.927900
21
11.012600
0
LINE
8
Livello 1
10
38.927900
20
11.012600
11
39.297839
21
10.938280
0
LINE
8
Livello 1
10
39.297839
20
10.938280
11
39.599298
21
10.735360
0
LINE
8
Livello 1
10
39.599298
20
10.735360
11
39.802218
21
10.433901
0
LINE
8
Livello 1
10
39.802218
20
10.433901
11
39.876538
21
10.063962
0
LINE
8
Livello 1
10
39.876538
20
10.063962
11
39.876500
21
6.445590
0
LINE
8
Livello 1
10
39.876500
20
6.445590
11
39.802180
21
6.075651
0
LINE
8
Livello 1
10
39.802180
20
6.075651
11
39.599260
21
5.774192
0
LINE
8
Livello 1
10
39.599260
20
5.774192
11
39.297801
21
5.571272
0
LINE
8
Livello 1
10
39.297801
20
5.571272
11
38.927862
21
5.496952
0
LINE
8
Livello 1
10
38.927862
20
5.496952
11
35.309500
21
5.496950
0
LINE
8
Livello 1
10
35.309500
20
5.496950
11
34.939561
21
5.571270
0
LINE
8
Livello 1
10
34.939561
20
5.571270
11
34.638102
21
5.774190
0
LINE
8
Livello 1
10
34.638102
20
5.774190
11
34.435182
21
6.075649
0
LINE
8
Livello 1
10
34.435182
20
6.075649
11
34.360862
21
6.445588
0
LINE
8
Livello 1
10
34.360862
20
6.445588
11
34.360900
21
10.063900
0
LINE
8
Livello 1
10
34.360900
20
10.063900
11
34.435220
21
10.433839
0
LINE
8
Livello 1
10
34.435220
20
10.433839
11
34.638140
21
10.735298
0
LINE
8
Livello 1
10
34.638140
20
10.735298
11
34.939599
21
10.938218
0
LINE
8
Livello 1
10
34.939599
20
10.938218
11
35.309538
21
11.012538
0
LINE
8
Livello 1
10
35.309538
20
11.012538
11
35.309500
21
11.012600
0
LINE
8
Livello 1
10
35.309500
20
5.185820
11
38.927900
21
5.185820
0
LINE
8
Livello 1
10
38.927900
20
5.185820
11
39.297839
21
5.111500
0
LINE
8
Livello 1
10
39.297839
20
5.111500
11
39.599298
21
4.908580
0
LINE
8
Livello 1
10
39.599298
20
4.908580
11
39.802218
21
4.607121
0
LINE
8
Livello 1
10
39.802218
20
4.607121
11
39.876538
21
4.237182
0
LINE
8
Livello 1
10
39.876538
20
4.237182
11
39.876500
21
0.618820
0
LINE
8
Livello 1
10
39.876500
20
0.618820
11
39.802180
21
0.248881
0
LINE
8
Livello 1
10
39.802180
20
0.248881
11
39.599260
21
-0.052578
0
LINE
8
Livello 1
10
39.599260
20
-0.052578
11
39.297801
21
-0.255498
0
LINE
8
Livello 1
10
39.297801
20
-0.255498
11
38.927862
21
-0.329818
0
LINE
8
Livello 1
10
38.927862
20
-0.329818
11
35.309500
21
-0.329819
0
LINE
8
Livello 1
10
35.309500
20
-0.329819
11
34.939561
21
-0.255499
0
LINE
8
Livello 1
10
34.939561
20
-0.255499
11
34.638102
21
-0.052579
0
LINE
8
Livello 1
10
34.638102
20
-0.052579
11
34.435182
21
0.248880
0
LINE
8
Livello 1
10
34.435182
20
0.248880
11
34.360862
21
0.618819
0
LINE
8
Livello 1
10
34.360862
20
0.618819
11
34.360900
21
4.237180
0
LINE
8
Livello 1
10
34.360900
20
4.237180
11
34.435220
21
4.607119
0
LINE
8
Livello 1
10
34.435220
20
4.607119
11
34.638140
21
4.908578
0
LINE
8
Livello 1
10
34.638140
20
4.908578
11
34.939599
21
5.111498
0
LINE
8
Livello 1
10
34.939599
20
5.111498
11
35.309538
21
5.185818
0
LINE
8
Livello 1
10
35.309538
20
5.185818
11
35.309500
21
5.185820
0
LINE
8
Livello 1
10
37.812900
20
7.855160
11
37.757480
21
7.564935
0
LINE
8
Livello 1
10
37.757480
20
7.564935
11
37.605805
21
7.331588
0
LINE
8
Livello 1
10
37.605805
20
7.331588
11
37.354958
21
7.174079
0
LINE
8
Livello 1
10
37.354958
20
7.174079
11
37.019520
21
7.120118
0
LINE
8
Livello 1
10
37.019520
20
7.120118
11
36.676792
21
7.158036
0
LINE
8
Livello 1
10
36.676792
20
7.158036
11
36.398233
21
7.247000
0
LINE
8
Livello 1
10
36.398233
20
7.247000
11
36.398300
21
7.554730
0
LINE
8
Livello 1
10
36.398300
20
7.554730
11
36.418700
21
7.554730
0
LINE
8
Livello 1
10
36.418700
20
7.554730
11
36.698718
21
7.424931
0
LINE
8
Livello 1
10
36.698718
20
7.424931
11
37.013734
21
7.372428
0
LINE
8
Livello 1
10
37.013734
20
7.372428
11
37.213539
21
7.401596
0
LINE
8
Livello 1
10
37.213539
20
7.401596
11
37.387091
21
7.503685
0
LINE
8
Livello 1
10
37.387091
20
7.503685
11
37.483346
21
7.653902
0
LINE
8
Livello 1
10
37.483346
20
7.653902
11
37.516888
21
7.856622
0
LINE
8
Livello 1
10
37.516888
20
7.856622
11
37.477512
21
8.046216
0
LINE
8
Livello 1
10
37.477512
20
8.046216
11
37.371047
21
8.170181
0
LINE
8
Livello 1
10
37.371047
20
8.170181
11
37.185828
21
8.247477
0
LINE
8
Livello 1
10
37.185828
20
8.247477
11
36.943732
21
8.270811
0
LINE
8
Livello 1
10
36.943732
20
8.270811
11
36.695800
21
8.253311
0
LINE
8
Livello 1
10
36.695800
20
8.253311
11
36.491621
21
8.218309
0
LINE
8
Livello 1
10
36.491621
20
8.218309
11
36.491600
21
9.336910
0
LINE
8
Livello 1
10
36.491600
20
9.336910
11
37.798400
21
9.336910
0
LINE
8
Livello 1
10
37.798400
20
9.336910
11
37.798400
21
9.081690
0
LINE
8
Livello 1
10
37.798400
20
9.081690
11
36.773100
21
9.081690
0
LINE
8
Livello 1
10
36.773100
20
9.081690
11
36.773100
21
8.504160
0
LINE
8
Livello 1
10
36.773100
20
8.504160
11
36.901443
21
8.512912
0
LINE
8
Livello 1
10
36.901443
20
8.512912
11
37.015198
21
8.515830
0
LINE
8
Livello 1
10
37.015198
20
8.515830
11
37.324383
21
8.485203
0
LINE
8
Livello 1
10
37.324383
20
8.485203
11
37.567938
21
8.380197
0
LINE
8
Livello 1
10
37.567938
20
8.380197
11
37.748783
21
8.173102
0
LINE
8
Livello 1
10
37.748783
20
8.173102
11
37.812952
21
7.855167
0
LINE
8
Livello 1
10
37.812952
20
7.855167
11
37.812900
21
7.855160
0
LINE
8
Livello 1
10
37.812900
20
2.032040
11
37.757480
21
1.741817
0
LINE
8
Livello 1
10
37.757480
20
1.741817
11
37.605805
21
1.508470
0
LINE
8
Livello 1
10
37.605805
20
1.508470
11
37.354958
21
1.350959
0
LINE
8
Livello 1
10
37.354958
20
1.350959
11
37.019520
21
1.296998
0
LINE
8
Livello 1
10
37.019520
20
1.296998
11
36.676792
21
1.334917
0
LINE
8
Livello 1
10
36.676792
20
1.334917
11
36.398233
21
1.423879
0
LINE
8
Livello 1
10
36.398233
20
1.423879
11
36.398300
21
1.731610
0
LINE
8
Livello 1
10
36.398300
20
1.731610
11
36.418700
21
1.731610
0
LINE
8
Livello 1
10
36.418700
20
1.731610
11
36.698718
21
1.601813
0
LINE
8
Livello 1
10
36.698718
20
1.601813
11
37.013734
21
1.549308
0
LINE
8
Livello 1
10
37.013734
20
1.549308
11
37.213539
21
1.578476
0
LINE
8
Livello 1
10
37.213539
20
1.578476
11
37.387091
21
1.680567
0
LINE
8
Livello 1
10
37.387091
20
1.680567
11
37.483346
21
1.830782
0
LINE
8
Livello 1
10
37.483346
20
1.830782
11
37.516888
21
2.033502
0
LINE
8
Livello 1
10
37.516888
20
2.033502
11
37.477512
21
2.223096
0
LINE
8
Livello 1
10
37.477512
20
2.223096
11
37.371047
21
2.347062
0
LINE
8
Livello 1
10
37.371047
20
2.347062
11
37.185828
21
2.424360
0
LINE
8
Livello 1
10
37.185828
20
2.424360
11
36.943732
21
2.447700
0
LINE
8
Livello 1
10
36.943732
20
2.447700
11
36.695800
21
2.430202
0
LINE
8
Livello 1
10
36.695800
20
2.430202
11
36.491621
21
2.395198
0
LINE
8
Livello 1
10
36.491621
20
2.395198
11
36.491600
21
3.513800
0
LINE
8
Livello 1
10
36.491600
20
3.513800
11
37.798400
21
3.513800
0
LINE
8
Livello 1
10
37.798400
20
3.513800
11
37.798400
21
3.258580
0
LINE
8
Livello 1
10
37.798400
20
3.258580
11
36.773100
21
3.258580
0
LINE
8
Livello 1
10
36.773100
20
3.258580
11
36.773100
21
2.681050
0
LINE
8
Livello 1
10
36.773100
20
2.681050
11
36.901443
21
2.689799
0
LINE
8
Livello 1
10
36.901443
20
2.689799
11
37.015198
21
2.692706
0
LINE
8
Livello 1
10
37.015198
20
2.692706
11
37.324383
21
2.662079
0
LINE
8
Livello 1
10
37.324383
20
2.662079
11
37.567938
21
2.557073
0
LINE
8
Livello 1
10
37.567938
20
2.557073
11
37.748783
21
2.349978
0
LINE
8
Livello 1
10
37.748783
20
2.349978
11
37.812952
21
2.032041
0
LINE
8
Livello 1
10
37.812952
20
2.032041
11
37.812900
21
2.032040
0
LINE
8
Livello 1
10
41.134400
20
10.944300
11
44.752700
21
10.944300
0
LINE
8
Livello 1
10
44.752700
20
10.944300
11
45.122639
21
10.869980
0
LINE
8
Livello 1
10
45.122639
20
10.869980
11
45.424098
21
10.667060
0
LINE
8
Livello 1
10
45.424098
20
10.667060
11
45.627018
21
10.365601
0
LINE
8
Livello 1
10
45.627018
20
10.365601
11
45.701338
21
9.995662
0
LINE
8
Livello 1
10
45.701338
20
9.995662
11
45.701400
21
6.377330
0
LINE
8
Livello 1
10
45.701400
20
6.377330
11
45.627080
21
6.007391
0
LINE
8
Livello 1
10
45.627080
20
6.007391
11
45.424160
21
5.705932
0
LINE
8
Livello 1
10
45.424160
20
5.705932
11
45.122701
21
5.503012
0
LINE
8
Livello 1
10
45.122701
20
5.503012
11
44.752762
21
5.428692
0
LINE
8
Livello 1
10
44.752762
20
5.428692
11
41.134400
21
5.428700
0
LINE
8
Livello 1
10
41.134400
20
5.428700
11
40.764461
21
5.503020
0
LINE
8
Livello 1
10
40.764461
20
5.503020
11
40.463002
21
5.705940
0
LINE
8
Livello 1
10
40.463002
20
5.705940
11
40.260082
21
6.007399
0
LINE
8
Livello 1
10
40.260082
20
6.007399
11
40.185762
21
6.377338
0
LINE
8
Livello 1
10
40.185762
20
6.377338
11
40.185700
21
9.995690
0
LINE
8
Livello 1
10
40.185700
20
9.995690
11
40.260020
21
10.365629
0
LINE
8
Livello 1
10
40.260020
20
10.365629
11
40.462940
21
10.667088
0
LINE
8
Livello 1
10
40.462940
20
10.667088
11
40.764399
21
10.870008
0
LINE
8
Livello 1
10
40.764399
20
10.870008
11
41.134338
21
10.944328
0
LINE
8
Livello 1
10
41.134338
20
10.944328
11
41.134400
21
10.944300
0
LINE
8
Livello 1
10
41.134400
20
5.117560
11
44.752700
21
5.117560
0
LINE
8
Livello 1
10
44.752700
20
5.117560
11
45.122639
21
5.043240
0
LINE
8
Livello 1
10
45.122639
20
5.043240
11
45.424098
21
4.840320
0
LINE
8
Livello 1
10
45.424098
20
4.840320
11
45.627018
21
4.538861
0
LINE
8
Livello 1
10
45.627018
20
4.538861
11
45.701338
21
4.168922
0
LINE
8
Livello 1
10
45.701338
20
4.168922
11
45.701400
21
0.550564
0
LINE
8
Livello 1
10
45.701400
20
0.550564
11
45.627080
21
0.180625
0
LINE
8
Livello 1
10
45.627080
20
0.180625
11
45.424160
21
-0.120834
0
LINE
8
Livello 1
10
45.424160
20
-0.120834
11
45.122701
21
-0.323754
0
LINE
8
Livello 1
10
45.122701
20
-0.323754
11
44.752762
21
-0.398074
0
LINE
8
Livello 1
10
44.752762
20
-0.398074
11
41.134400
21
-0.398074
0
LINE
8
Livello 1
10
41.134400
20
-0.398074
11
40.764461
21
-0.323754
0
LINE
8
Livello 1
10
40.764461
20
-0.323754
11
40.463002
21
-0.120834
0
LINE
8
Livello 1
10
40.463002
20
-0.120834
11
40.260082
21
0.180625
0
LINE
8
Livello 1
10
40.260082
20
0.180625
11
40.185762
21
0.550564
0
LINE
8
Livello 1
10
40.185762
20
0.550564
11
40.185700
21
4.168920
0
LINE
8
Livello 1
10
40.185700
20
4.168920
11
40.260020
21
4.538859
0
LINE
8
Livello 1
10
40.260020
20
4.538859
11
40.462940
21
4.840318
0
LINE
8
Livello 1
10
40.462940
20
4.840318
11
40.764399
21
5.043238
0
LINE
8
Livello 1
10
40.764399
20
5.043238
11
41.134338
21
5.117558
0
LINE
8
Livello 1
10
41.134338
20
5.117558
11
41.134400
21
5.117560
0
LINE
8
Livello 1
10
43.710700
20
7.801490
11
43.491936
21
7.260417
0
LINE
8
Livello 1
10
43.491936
20
7.260417
11
42.958155
21
7.051863
0
LINE
8
Livello 1
10
42.958155
20
7.051863
11
42.666473
21
7.101449
0
LINE
8
Livello 1
10
42.666473
20
7.101449
11
42.434585
21
7.248749
0
LINE
8
Livello 1
10
42.434585
20
7.248749
11
42.240614
21
7.569601
0
LINE
8
Livello 1
10
42.240614
20
7.569601
11
42.173527
21
8.050879
0
LINE
8
Livello 1
10
42.173527
20
8.050879
11
42.234781
21
8.562784
0
LINE
8
Livello 1
10
42.234781
20
8.562784
11
42.433127
21
8.959474
0
LINE
8
Livello 1
10
42.433127
20
8.959474
11
42.764188
21
9.216155
0
LINE
8
Livello 1
10
42.764188
20
9.216155
11
43.236715
21
9.309494
0
LINE
8
Livello 1
10
43.236715
20
9.309494
11
43.381100
21
9.302202
0
LINE
8
Livello 1
10
43.381100
20
9.302202
11
43.499230
21
9.275949
0
LINE
8
Livello 1
10
43.499230
20
9.275949
11
43.499200
21
8.997390
0
LINE
8
Livello 1
10
43.499200
20
8.997390
11
43.484600
21
8.997390
0
LINE
8
Livello 1
10
43.484600
20
8.997390
11
43.360634
21
9.038226
0
LINE
8
Livello 1
10
43.360634
20
9.038226
11
43.192915
21
9.058645
0
LINE
8
Livello 1
10
43.192915
20
9.058645
11
42.692679
21
8.861758
0
LINE
8
Livello 1
10
42.692679
20
8.861758
11
42.475374
21
8.332352
0
LINE
8
Livello 1
10
42.475374
20
8.332352
11
42.716013
21
8.444650
0
LINE
8
Livello 1
10
42.716013
20
8.444650
11
42.991654
21
8.484027
0
LINE
8
Livello 1
10
42.991654
20
8.484027
11
43.235209
21
8.457775
0
LINE
8
Livello 1
10
43.235209
20
8.457775
11
43.452514
21
8.355686
0
LINE
8
Livello 1
10
43.452514
20
8.355686
11
43.645026
21
8.131089
0
LINE
8
Livello 1
10
43.645026
20
8.131089
11
43.710654
21
7.801486
0
LINE
8
Livello 1
10
43.710654
20
7.801486
11
43.710700
21
7.801490
0
LINE
8
Livello 1
10
43.414641
20
7.789823
11
43.373806
21
8.014420
0
LINE
8
Livello 1
10
43.373806
20
8.014420
11
43.242547
21
8.169012
0
LINE
8
Livello 1
10
43.242547
20
8.169012
11
43.093788
21
8.230266
0
LINE
8
Livello 1
10
43.093788
20
8.230266
11
42.923154
21
8.244851
0
LINE
8
Livello 1
10
42.923154
20
8.244851
11
42.692725
21
8.215682
0
LINE
8
Livello 1
10
42.692725
20
8.215682
11
42.473961
21
8.125261
0
LINE
8
Livello 1
10
42.473961
20
8.125261
11
42.469587
21
8.062549
0
LINE
8
Livello 1
10
42.469587
20
8.062549
11
42.468176
21
7.988169
0
LINE
8
Livello 1
10
42.468176
20
7.988169
11
42.514844
21
7.623564
0
LINE
8
Livello 1
10
42.514844
20
7.623564
11
42.646103
21
7.413552
0
LINE
8
Livello 1
10
42.646103
20
7.413552
11
42.790488
21
7.318755
0
LINE
8
Livello 1
10
42.790488
20
7.318755
11
42.961122
21
7.289587
0
LINE
8
Livello 1
10
42.961122
20
7.289587
11
43.293642
21
7.417928
0
LINE
8
Livello 1
10
43.293642
20
7.417928
11
43.414690
21
7.789824
0
LINE
8
Livello 1
10
43.414690
20
7.789824
11
43.414641
21
7.789823
0
LINE
8
Livello 1
10
43.710700
20
1.978370
11
43.491936
21
1.437300
0
LINE
8
Livello 1
10
43.491936
20
1.437300
11
42.958155
21
1.228744
0
LINE
8
Livello 1
10
42.958155
20
1.228744
11
42.666473
21
1.278330
0
LINE
8
Livello 1
10
42.666473
20
1.278330
11
42.434585
21
1.425630
0
LINE
8
Livello 1
10
42.434585
20
1.425630
11
42.240614
21
1.746483
0
LINE
8
Livello 1
10
42.240614
20
1.746483
11
42.173527
21
2.227762
0
LINE
8
Livello 1
10
42.173527
20
2.227762
11
42.234781
21
2.739668
0
LINE
8
Livello 1
10
42.234781
20
2.739668
11
42.433127
21
3.136356
0
LINE
8
Livello 1
10
42.433127
20
3.136356
11
42.764188
21
3.393037
0
LINE
8
Livello 1
10
42.764188
20
3.393037
11
43.236715
21
3.486377
0
LINE
8
Livello 1
10
43.236715
20
3.486377
11
43.381100
21
3.479095
0
LINE
8
Livello 1
10
43.381100
20
3.479095
11
43.499230
21
3.452849
0
LINE
8
Livello 1
10
43.499230
20
3.452849
11
43.499200
21
3.174290
0
LINE
8
Livello 1
10
43.499200
20
3.174290
11
43.484600
21
3.174290
0
LINE
8
Livello 1
10
43.484600
20
3.174290
11
43.360634
21
3.215125
0
LINE
8
Livello 1
10
43.360634
20
3.215125
11
43.192915
21
3.235558
0
LINE
8
Livello 1
10
43.192915
20
3.235558
11
42.692679
21
3.038671
0
LINE
8
Livello 1
10
42.692679
20
3.038671
11
42.475374
21
2.509265
0
LINE
8
Livello 1
10
42.475374
20
2.509265
11
42.716013
21
2.621564
0
LINE
8
Livello 1
10
42.716013
20
2.621564
11
42.991654
21
2.660939
0
LINE
8
Livello 1
10
42.991654
20
2.660939
11
43.235209
21
2.634693
0
LINE
8
Livello 1
10
43.235209
20
2.634693
11
43.452514
21
2.532602
0
LINE
8
Livello 1
10
43.452514
20
2.532602
11
43.645026
21
2.308007
0
LINE
8
Livello 1
10
43.645026
20
2.308007
11
43.710654
21
1.978403
0
LINE
8
Livello 1
10
43.710654
20
1.978403
11
43.710700
21
1.978370
0
LINE
8
Livello 1
10
43.414641
20
1.966714
11
43.373806
21
2.191312
0
LINE
8
Livello 1
10
43.373806
20
2.191312
11
43.242547
21
2.345905
0
LINE
8
Livello 1
10
43.242547
20
2.345905
11
43.093788
21
2.407159
0
LINE
8
Livello 1
10
43.093788
20
2.407159
11
42.923154
21
2.421750
0
LINE
8
Livello 1
10
42.923154
20
2.421750
11
42.692725
21
2.392582
0
LINE
8
Livello 1
10
42.692725
20
2.392582
11
42.473961
21
2.302161
0
LINE
8
Livello 1
10
42.473961
20
2.302161
11
42.469587
21
2.239448
0
LINE
8
Livello 1
10
42.469587
20
2.239448
11
42.468176
21
2.165069
0
LINE
8
Livello 1
10
42.468176
20
2.165069
11
42.514844
21
1.800464
0
LINE
8
Livello 1
10
42.514844
20
1.800464
11
42.646103
21
1.590454
0
LINE
8
Livello 1
10
42.646103
20
1.590454
11
42.790488
21
1.495655
0
LINE
8
Livello 1
10
42.790488
20
1.495655
11
42.961122
21
1.466488
0
LINE
8
Livello 1
10
42.961122
20
1.466488
11
43.293642
21
1.594828
0
LINE
8
Livello 1
10
43.293642
20
1.594828
11
43.414690
21
1.966723
0
LINE
8
Livello 1
10
43.414690
20
1.966723
11
43.414641
21
1.966714
0
LINE
8
Livello 1
10
46.958300
20
11.012600
11
50.576600
21
11.012600
0
LINE
8
Livello 1
10
50.576600
20
11.012600
11
50.946539
21
10.938280
0
LINE
8
Livello 1
10
50.946539
20
10.938280
11
51.247998
21
10.735360
0
LINE
8
Livello 1
10
51.247998
20
10.735360
11
51.450918
21
10.433901
0
LINE
8
Livello 1
10
51.450918
20
10.433901
11
51.525238
21
10.063962
0
LINE
8
Livello 1
10
51.525238
20
10.063962
11
51.525300
21
6.445590
0
LINE
8
Livello 1
10
51.525300
20
6.445590
11
51.450980
21
6.075651
0
LINE
8
Livello 1
10
51.450980
20
6.075651
11
51.248060
21
5.774192
0
LINE
8
Livello 1
10
51.248060
20
5.774192
11
50.946601
21
5.571272
0
LINE
8
Livello 1
10
50.946601
20
5.571272
11
50.576662
21
5.496952
0
LINE
8
Livello 1
10
50.576662
20
5.496952
11
46.958300
21
5.496950
0
LINE
8
Livello 1
10
46.958300
20
5.496950
11
46.588361
21
5.571270
0
LINE
8
Livello 1
10
46.588361
20
5.571270
11
46.286902
21
5.774190
0
LINE
8
Livello 1
10
46.286902
20
5.774190
11
46.083982
21
6.075649
0
LINE
8
Livello 1
10
46.083982
20
6.075649
11
46.009662
21
6.445588
0
LINE
8
Livello 1
10
46.009662
20
6.445588
11
46.009600
21
10.063900
0
LINE
8
Livello 1
10
46.009600
20
10.063900
11
46.083920
21
10.433839
0
LINE
8
Livello 1
10
46.083920
20
10.433839
11
46.286840
21
10.735298
0
LINE
8
Livello 1
10
46.286840
20
10.735298
11
46.588299
21
10.938218
0
LINE
8
Livello 1
10
46.588299
20
10.938218
11
46.958238
21
11.012538
0
LINE
8
Livello 1
10
46.958238
20
11.012538
11
46.958300
21
11.012600
0
LINE
8
Livello 1
10
46.958300
20
5.185820
11
50.576600
21
5.185820
0
LINE
8
Livello 1
10
50.576600
20
5.185820
11
50.946539
21
5.111500
0
LINE
8
Livello 1
10
50.946539
20
5.111500
11
51.247998
21
4.908580
0
LINE
8
Livello 1
10
51.247998
20
4.908580
11
51.450918
21
4.607121
0
LINE
8
Livello 1
10
51.450918
20
4.607121
11
51.525238
21
4.237182
0
LINE
8
Livello 1
10
51.525238
20
4.237182
11
51.525300
21
0.618820
0
LINE
8
Livello 1
10
51.525300
20
0.618820
11
51.450980
21
0.248881
0
LINE
8
Livello 1
10
51.450980
20
0.248881
11
51.248060
21
-0.052578
0
LINE
8
Livello 1
10
51.248060
20
-0.052578
11
50.946601
21
-0.255498
0
LINE
8
Livello 1
10
50.946601
20
-0.255498
11
50.576662
21
-0.329818
0
LINE
8
Livello 1
10
50.576662
20
-0.329818
11
46.958300
21
-0.329819
0
LINE
8
Livello 1
10
46.958300
20
-0.329819
11
46.588361
21
-0.255499
0
LINE
8
Livello 1
10
46.588361
20
-0.255499
11
46.286902
21
-0.052579
0
LINE
8
Livello 1
10
46.286902
20
-0.052579
11
46.083982
21
0.248880
0
LINE
8
Livello 1
10
46.083982
20
0.248880
11
46.009662
21
0.618819
0
LINE
8
Livello 1
10
46.009662
20
0.618819
11
46.009600
21
4.237180
0
LINE
8
Livello 1
10
46.009600
20
4.237180
11
46.083920
21
4.607119
0
LINE
8
Livello 1
10
46.083920
20
4.607119
11
46.286840
21
4.908578
0
LINE
8
Livello 1
10
46.286840
20
4.908578
11
46.588299
21
5.111498
0
LINE
8
Livello 1
10
46.588299
20
5.111498
11
46.958238
21
5.185818
0
LINE
8
Livello 1
10
46.958238
20
5.185818
11
46.958300
21
5.185820
0
LINE
8
Livello 1
10
49.485000
20
9.011690
11
48.502026
21
7.165330
0
LINE
8
Livello 1
10
48.502026
20
7.165330
11
48.189900
21
7.165330
0
LINE
8
Livello 1
10
48.189900
20
7.165330
11
49.235580
21
9.081690
0
LINE
8
Livello 1
10
49.235580
20
9.081690
11
47.998900
21
9.081690
0
LINE
8
Livello 1
10
47.998900
20
9.081690
11
47.998900
21
9.336910
0
LINE
8
Livello 1
10
47.998900
20
9.336910
11
49.485000
21
9.336910
0
LINE
8
Livello 1
10
49.485000
20
9.336910
11
49.485000
21
9.011690
0
LINE
8
Livello 1
10
49.485000
20
3.188570
11
48.502026
21
1.342210
0
LINE
8
Livello 1
10
48.502026
20
1.342210
11
48.189900
21
1.342210
0
LINE
8
Livello 1
10
48.189900
20
1.342210
11
49.235580
21
3.258570
0
LINE
8
Livello 1
10
49.235580
20
3.258570
11
47.998900
21
3.258570
0
LINE
8
Livello 1
10
47.998900
20
3.258570
11
47.998900
21
3.513790
0
LINE
8
Livello 1
10
47.998900
20
3.513790
11
49.485000
21
3.513790
0
LINE
8
Livello 1
10
49.485000
20
3.513790
11
49.485000
21
3.188570
0
LINE
8
Livello 1
10
52.783100
20
10.944300
11
56.401400
21
10.944300
0
LINE
8
Livello 1
10
56.401400
20
10.944300
11
56.771339
21
10.869980
0
LINE
8
Livello 1
10
56.771339
20
10.869980
11
57.072798
21
10.667060
0
LINE
8
Livello 1
10
57.072798
20
10.667060
11
57.275718
21
10.365601
0
LINE
8
Livello 1
10
57.275718
20
10.365601
11
57.350038
21
9.995662
0
LINE
8
Livello 1
10
57.350038
20
9.995662
11
57.350100
21
6.377330
0
LINE
8
Livello 1
10
57.350100
20
6.377330
11
57.275780
21
6.007391
0
LINE
8
Livello 1
10
57.275780
20
6.007391
11
57.072860
21
5.705932
0
LINE
8
Livello 1
10
57.072860
20
5.705932
11
56.771401
21
5.503012
0
LINE
8
Livello 1
10
56.771401
20
5.503012
11
56.401462
21
5.428692
0
LINE
8
Livello 1
10
56.401462
20
5.428692
11
52.783100
21
5.428700
0
LINE
8
Livello 1
10
52.783100
20
5.428700
11
52.413161
21
5.503020
0
LINE
8
Livello 1
10
52.413161
20
5.503020
11
52.111702
21
5.705940
0
LINE
8
Livello 1
10
52.111702
20
5.705940
11
51.908782
21
6.007399
0
LINE
8
Livello 1
10
51.908782
20
6.007399
11
51.834462
21
6.377338
0
LINE
8
Livello 1
10
51.834462
20
6.377338
11
51.834400
21
9.995690
0
LINE
8
Livello 1
10
51.834400
20
9.995690
11
51.908720
21
10.365629
0
LINE
8
Livello 1
10
51.908720
20
10.365629
11
52.111640
21
10.667088
0
LINE
8
Livello 1
10
52.111640
20
10.667088
11
52.413099
21
10.870008
0
LINE
8
Livello 1
10
52.413099
20
10.870008
11
52.783038
21
10.944328
0
LINE
8
Livello 1
10
52.783038
20
10.944328
11
52.783100
21
10.944300
0
LINE
8
Livello 1
10
52.783100
20
5.117560
11
56.401400
21
5.117560
0
LINE
8
Livello 1
10
56.401400
20
5.117560
11
56.771339
21
5.043240
0
LINE
8
Livello 1
10
56.771339
20
5.043240
11
57.072798
21
4.840320
0
LINE
8
Livello 1
10
57.072798
20
4.840320
11
57.275718
21
4.538861
0
LINE
8
Livello 1
10
57.275718
20
4.538861
11
57.350038
21
4.168922
0
LINE
8
Livello 1
10
57.350038
20
4.168922
11
57.350100
21
0.550564
0
LINE
8
Livello 1
10
57.350100
20
0.550564
11
57.275780
21
0.180625
0
LINE
8
Livello 1
10
57.275780
20
0.180625
11
57.072860
21
-0.120834
0
LINE
8
Livello 1
10
57.072860
20
-0.120834
11
56.771401
21
-0.323754
0
LINE
8
Livello 1
10
56.771401
20
-0.323754
11
56.401462
21
-0.398074
0
LINE
8
Livello 1
10
56.401462
20
-0.398074
11
52.783100
21
-0.398074
0
LINE
8
Livello 1
10
52.783100
20
-0.398074
11
52.413161
21
-0.323754
0
LINE
8
Livello 1
10
52.413161
20
-0.323754
11
52.111702
21
-0.120834
0
LINE
8
Livello 1
10
52.111702
20
-0.120834
11
51.908782
21
0.180625
0
LINE
8
Livello 1
10
51.908782
20
0.180625
11
51.834462
21
0.550564
0
LINE
8
Livello 1
10
51.834462
20
0.550564
11
51.834400
21
4.168920
0
LINE
8
Livello 1
10
51.834400
20
4.168920
11
51.908720
21
4.538859
0
LINE
8
Livello 1
10
51.908720
20
4.538859
11
52.111640
21
4.840318
0
LINE
8
Livello 1
10
52.111640
20
4.840318
11
52.413099
21
5.043238
0
LINE
8
Livello 1
10
52.413099
20
5.043238
11
52.783038
21
5.117558
0
LINE
8
Livello 1
10
52.783038
20
5.117558
11
52.783100
21
5.117560
0
LINE
8
Livello 1
10
55.363800
20
7.702320
11
55.143577
21
7.234168
0
LINE
8
Livello 1
10
55.143577
20
7.234168
11
54.592296
21
7.047490
0
LINE
8
Livello 1
10
54.592296
20
7.047490
11
54.029348
21
7.229792
0
LINE
8
Livello 1
10
54.029348
20
7.229792
11
53.820794
21
7.696486
0
LINE
8
Livello 1
10
53.820794
20
7.696486
11
53.925800
21
8.023172
0
LINE
8
Livello 1
10
53.925800
20
8.023172
11
54.221857
21
8.256519
0
LINE
8
Livello 1
10
54.221857
20
8.256519
11
54.221800
21
8.265270
0
LINE
8
Livello 1
10
54.221800
20
8.265270
11
53.962204
21
8.469448
0
LINE
8
Livello 1
10
53.962204
20
8.469448
11
53.879073
21
8.746548
0
LINE
8
Livello 1
10
53.879073
20
8.746548
11
54.080334
21
9.154905
0
LINE
8
Livello 1
10
54.080334
20
9.154905
11
54.592240
21
9.318248
0
LINE
8
Livello 1
10
54.592240
20
9.318248
11
55.111438
21
9.162197
0
LINE
8
Livello 1
10
55.111438
20
9.162197
11
55.305406
21
8.765507
0
LINE
8
Livello 1
10
55.305406
20
8.765507
11
55.213526
21
8.475282
0
LINE
8
Livello 1
10
55.213526
20
8.475282
11
54.943719
21
8.253603
0
LINE
8
Livello 1
10
54.943719
20
8.253603
11
54.943700
21
8.244850
0
LINE
8
Livello 1
10
54.943700
20
8.244850
11
55.255801
21
8.029004
0
LINE
8
Livello 1
10
55.255801
20
8.029004
11
55.363726
21
7.702318
0
LINE
8
Livello 1
10
55.363726
20
7.702318
11
55.363800
21
7.702320
0
LINE
8
Livello 1
10
55.018154
20
8.762590
11
54.897103
21
9.010521
0
LINE
8
Livello 1
10
54.897103
20
9.010521
11
54.590836
21
9.103860
0
LINE
8
Livello 1
10
54.590836
20
9.103860
11
54.288943
21
9.016355
0
LINE
8
Livello 1
10
54.288943
20
9.016355
11
54.172270
21
8.780091
0
LINE
8
Livello 1
10
54.172270
20
8.780091
11
54.230608
21
8.597789
0
LINE
8
Livello 1
10
54.230608
20
8.597789
11
54.409994
21
8.462156
0
LINE
8
Livello 1
10
54.409994
20
8.462156
11
54.564587
21
8.393610
0
LINE
8
Livello 1
10
54.564587
20
8.393610
11
54.762930
21
8.323606
0
LINE
8
Livello 1
10
54.762930
20
8.323606
11
54.962735
21
8.523409
0
LINE
8
Livello 1
10
54.962735
20
8.523409
11
55.018155
21
8.762589
0
LINE
8
Livello 1
10
55.018155
20
8.762589
11
55.018154
21
8.762590
0
LINE
8
Livello 1
10
55.063363
20
7.674610
11
55.003569
21
7.888997
0
LINE
8
Livello 1
10
55.003569
20
7.888997
11
54.773140
21
8.052340
0
LINE
8
Livello 1
10
54.773140
20
8.052340
11
54.622922
21
8.112135
0
LINE
8
Livello 1
10
54.622922
20
8.112135
11
54.405617
21
8.189431
0
LINE
8
Livello 1
10
54.405617
20
8.189431
11
54.194148
21
7.995462
0
LINE
8
Livello 1
10
54.194148
20
7.995462
11
54.115394
21
7.718363
0
LINE
8
Livello 1
10
54.115394
20
7.718363
11
54.251027
21
7.393136
0
LINE
8
Livello 1
10
54.251027
20
7.393136
11
54.595214
21
7.264795
0
LINE
8
Livello 1
10
54.595214
20
7.264795
11
54.935023
21
7.374176
0
LINE
8
Livello 1
10
54.935023
20
7.374176
11
55.063363
21
7.674610
0
LINE
8
Livello 1
10
55.063363
20
7.674610
11
55.063363
21
7.674610
0
LINE
8
Livello 1
10
55.363800
20
1.879200
11
55.143577
21
1.411047
0
LINE
8
Livello 1
10
55.143577
20
1.411047
11
54.592296
21
1.224368
0
LINE
8
Livello 1
10
54.592296
20
1.224368
11
54.029348
21
1.406669
0
LINE
8
Livello 1
10
54.029348
20
1.406669
11
53.820794
21
1.873365
0
LINE
8
Livello 1
10
53.820794
20
1.873365
11
53.925800
21
2.200048
0
LINE
8
Livello 1
10
53.925800
20
2.200048
11
54.221857
21
2.433395
0
LINE
8
Livello 1
10
54.221857
20
2.433395
11
54.221800
21
2.442150
0
LINE
8
Livello 1
10
54.221800
20
2.442150
11
53.962204
21
2.646329
0
LINE
8
Livello 1
10
53.962204
20
2.646329
11
53.879073
21
2.923429
0
LINE
8
Livello 1
10
53.879073
20
2.923429
11
54.080334
21
3.331784
0
LINE
8
Livello 1
10
54.080334
20
3.331784
11
54.592240
21
3.495128
0
LINE
8
Livello 1
10
54.592240
20
3.495128
11
55.111438
21
3.339076
0
LINE
8
Livello 1
10
55.111438
20
3.339076
11
55.305406
21
2.942388
0
LINE
8
Livello 1
10
55.305406
20
2.942388
11
55.213526
21
2.652162
0
LINE
8
Livello 1
10
55.213526
20
2.652162
11
54.943719
21
2.430482
0
LINE
8
Livello 1
10
54.943719
20
2.430482
11
54.943700
21
2.421730
0
LINE
8
Livello 1
10
54.943700
20
2.421730
11
55.255801
21
2.205884
0
LINE
8
Livello 1
10
55.255801
20
2.205884
11
55.363726
21
1.879201
0
LINE
8
Livello 1
10
55.363726
20
1.879201
11
55.363800
21
1.879200
0
LINE
8
Livello 1
10
55.018154
20
2.939470
11
54.897103
21
3.187402
0
LINE
8
Livello 1
10
54.897103
20
3.187402
11
54.590836
21
3.280741
0
LINE
8
Livello 1
10
54.590836
20
3.280741
11
54.288943
21
3.193235
0
LINE
8
Livello 1
10
54.288943
20
3.193235
11
54.172270
21
2.956970
0
LINE
8
Livello 1
10
54.172270
20
2.956970
11
54.230608
21
2.774669
0
LINE
8
Livello 1
10
54.230608
20
2.774669
11
54.409994
21
2.639037
0
LINE
8
Livello 1
10
54.409994
20
2.639037
11
54.564587
21
2.570490
0
LINE
8
Livello 1
10
54.564587
20
2.570490
11
54.762930
21
2.500488
0
LINE
8
Livello 1
10
54.762930
20
2.500488
11
54.962735
21
2.700290
0
LINE
8
Livello 1
10
54.962735
20
2.700290
11
55.018155
21
2.939470
0
LINE
8
Livello 1
10
55.018155
20
2.939470
11
55.018154
21
2.939470
0
LINE
8
Livello 1
10
55.063363
20
1.851490
11
55.003569
21
2.065877
0
LINE
8
Livello 1
10
55.003569
20
2.065877
11
54.773140
21
2.229221
0
LINE
8
Livello 1
10
54.773140
20
2.229221
11
54.622922
21
2.289015
0
LINE
8
Livello 1
10
54.622922
20
2.289015
11
54.405617
21
2.366310
0
LINE
8
Livello 1
10
54.405617
20
2.366310
11
54.194148
21
2.172342
0
LINE
8
Livello 1
10
54.194148
20
2.172342
11
54.115394
21
1.895242
0
LINE
8
Livello 1
10
54.115394
20
1.895242
11
54.251027
21
1.570015
0
LINE
8
Livello 1
10
54.251027
20
1.570015
11
54.595214
21
1.441675
0
LINE
8
Livello 1
10
54.595214
20
1.441675
11
54.935023
21
1.551056
0
LINE
8
Livello 1
10
54.935023
20
1.551056
11
55.063363
21
1.851490
0
LINE
8
Livello 1
10
55.063363
20
1.851490
11
55.063363
21
1.851490
0
LINE
8
Livello 1
10
58.607400
20
10.944300
11
62.225800
21
10.944300
0
LINE
8
Livello 1
10
62.225800
20
10.944300
11
62.595739
21
10.869980
0
LINE
8
Livello 1
10
62.595739
20
10.869980
11
62.897198
21
10.667060
0
LINE
8
Livello 1
10
62.897198
20
10.667060
11
63.100118
21
10.365601
0
LINE
8
Livello 1
10
63.100118
20
10.365601
11
63.174438
21
9.995662
0
LINE
8
Livello 1
10
63.174438
20
9.995662
11
63.174400
21
6.377330
0
LINE
8
Livello 1
10
63.174400
20
6.377330
11
63.100080
21
6.007391
0
LINE
8
Livello 1
10
63.100080
20
6.007391
11
62.897160
21
5.705932
0
LINE
8
Livello 1
10
62.897160
20
5.705932
11
62.595701
21
5.503012
0
LINE
8
Livello 1
10
62.595701
20
5.503012
11
62.225762
21
5.428692
0
LINE
8
Livello 1
10
62.225762
20
5.428692
11
58.607400
21
5.428700
0
LINE
8
Livello 1
10
58.607400
20
5.428700
11
58.237461
21
5.503020
0
LINE
8
Livello 1
10
58.237461
20
5.503020
11
57.936002
21
5.705940
0
LINE
8
Livello 1
10
57.936002
20
5.705940
11
57.733082
21
6.007399
0
LINE
8
Livello 1
10
57.733082
20
6.007399
11
57.658762
21
6.377338
0
LINE
8
Livello 1
10
57.658762
20
6.377338
11
57.658800
21
9.995690
0
LINE
8
Livello 1
10
57.658800
20
9.995690
11
57.733120
21
10.365629
0
LINE
8
Livello 1
10
57.733120
20
10.365629
11
57.936040
21
10.667088
0
LINE
8
Livello 1
10
57.936040
20
10.667088
11
58.237499
21
10.870008
0
LINE
8
Livello 1
10
58.237499
20
10.870008
11
58.607438
21
10.944328
0
LINE
8
Livello 1
10
58.607438
20
10.944328
11
58.607400
21
10.944300
0
LINE
8
Livello 1
10
58.607400
20
5.117560
11
62.225800
21
5.117560
0
LINE
8
Livello 1
10
62.225800
20
5.117560
11
62.595739
21
5.043240
0
LINE
8
Livello 1
10
62.595739
20
5.043240
11
62.897198
21
4.840320
0
LINE
8
Livello 1
10
62.897198
20
4.840320
11
63.100118
21
4.538861
0
LINE
8
Livello 1
10
63.100118
20
4.538861
11
63.174438
21
4.168922
0
LINE
8
Livello 1
10
63.174438
20
4.168922
11
63.174400
21
0.550564
0
LINE
8
Livello 1
10
63.174400
20
0.550564
11
63.100080
21
0.180625
0
LINE
8
Livello 1
10
63.100080
20
0.180625
11
62.897160
21
-0.120834
0
LINE
8
Livello 1
10
62.897160
20
-0.120834
11
62.595701
21
-0.323754
0
LINE
8
Livello 1
10
62.595701
20
-0.323754
11
62.225762
21
-0.398074
0
LINE
8
Livello 1
10
62.225762
20
-0.398074
11
58.607400
21
-0.398074
0
LINE
8
Livello 1
10
58.607400
20
-0.398074
11
58.237461
21
-0.323754
0
LINE
8
Livello 1
10
58.237461
20
-0.323754
11
57.936002
21
-0.120834
0
LINE
8
Livello 1
10
57.936002
20
-0.120834
11
57.733082
21
0.180625
0
LINE
8
Livello 1
10
57.733082
20
0.180625
11
57.658762
21
0.550564
0
LINE
8
Livello 1
10
57.658762
20
0.550564
11
57.658800
21
4.168920
0
LINE
8
Livello 1
10
57.658800
20
4.168920
11
57.733120
21
4.538859
0
LINE
8
Livello 1
10
57.733120
20
4.538859
11
57.936040
21
4.840318
0
LINE
8
Livello 1
10
57.936040
20
4.840318
11
58.237499
21
5.043238
0
LINE
8
Livello 1
10
58.237499
20
5.043238
11
58.607438
21
5.117558
0
LINE
8
Livello 1
10
58.607438
20
5.117558
11
58.607400
21
5.117560
0
LINE
8
Livello 1
10
61.185200
20
8.313390
11
61.119569
21
7.797110
0
LINE
8
Livello 1
10
61.119569
20
7.797110
11
60.924142
21
7.401879
0
LINE
8
Livello 1
10
60.924142
20
7.401879
11
60.591622
21
7.145197
0
LINE
8
Livello 1
10
60.591622
20
7.145197
11
60.122013
21
7.054775
0
LINE
8
Livello 1
10
60.122013
20
7.054775
11
59.979087
21
7.063527
0
LINE
8
Livello 1
10
59.979087
20
7.063527
11
59.859498
21
7.088320
0
LINE
8
Livello 1
10
59.859498
20
7.088320
11
59.859500
21
7.366880
0
LINE
8
Livello 1
10
59.859500
20
7.366880
11
59.874100
21
7.366880
0
LINE
8
Livello 1
10
59.874100
20
7.366880
11
59.993692
21
7.324586
0
LINE
8
Livello 1
10
59.993692
20
7.324586
11
60.165785
21
7.305626
0
LINE
8
Livello 1
10
60.165785
20
7.305626
11
60.670398
21
7.498137
0
LINE
8
Livello 1
10
60.670398
20
7.498137
11
60.883326
21
8.031918
0
LINE
8
Livello 1
10
60.883326
20
8.031918
11
60.628101
21
7.915245
0
LINE
8
Livello 1
10
60.628101
20
7.915245
11
60.367046
21
7.880243
0
LINE
8
Livello 1
10
60.367046
20
7.880243
11
60.123491
21
7.906495
0
LINE
8
Livello 1
10
60.123491
20
7.906495
11
59.906186
21
8.008584
0
LINE
8
Livello 1
10
59.906186
20
8.008584
11
59.712218
21
8.234639
0
LINE
8
Livello 1
10
59.712218
20
8.234639
11
59.648046
21
8.562783
0
LINE
8
Livello 1
10
59.648046
20
8.562783
11
59.866808
21
9.103856
0
LINE
8
Livello 1
10
59.866808
20
9.103856
11
60.400589
21
9.312410
0
LINE
8
Livello 1
10
60.400589
20
9.312410
11
60.692274
21
9.262824
0
LINE
8
Livello 1
10
60.692274
20
9.262824
11
60.927080
21
9.116982
0
LINE
8
Livello 1
10
60.927080
20
9.116982
11
61.118133
21
8.804881
0
LINE
8
Livello 1
10
61.118133
20
8.804881
11
61.185220
21
8.313394
0
LINE
8
Livello 1
10
61.185220
20
8.313394
11
61.185200
21
8.313390
0
LINE
8
Livello 1
10
60.890600
20
8.376102
11
60.843929
21
8.739248
0
LINE
8
Livello 1
10
60.843929
20
8.739248
11
60.715589
21
8.952177
0
LINE
8
Livello 1
10
60.715589
20
8.952177
11
60.568289
21
9.045516
0
LINE
8
Livello 1
10
60.568289
20
9.045516
11
60.397655
21
9.074684
0
LINE
8
Livello 1
10
60.397655
20
9.074684
11
60.065135
21
8.943426
0
LINE
8
Livello 1
10
60.065135
20
8.943426
11
59.944087
21
8.574446
0
LINE
8
Livello 1
10
59.944087
20
8.574446
11
59.983462
21
8.348391
0
LINE
8
Livello 1
10
59.983462
20
8.348391
11
60.116180
21
8.195257
0
LINE
8
Livello 1
10
60.116180
20
8.195257
11
60.260562
21
8.134004
0
LINE
8
Livello 1
10
60.260562
20
8.134004
11
60.435574
21
8.119418
0
LINE
8
Livello 1
10
60.435574
20
8.119418
11
60.666003
21
8.150045
0
LINE
8
Livello 1
10
60.666003
20
8.150045
11
60.884767
21
8.239008
0
LINE
8
Livello 1
10
60.884767
20
8.239008
11
60.887674
21
8.298804
0
LINE
8
Livello 1
10
60.887674
20
8.298804
11
60.890581
21
8.376100
0
LINE
8
Livello 1
10
60.890581
20
8.376100
11
60.890600
21
8.376102
0
LINE
8
Livello 1
10
61.185200
20
2.490280
11
61.119569
21
1.974000
0
LINE
8
Livello 1
10
61.119569
20
1.974000
11
60.924142
21
1.578768
0
LINE
8
Livello 1
10
60.924142
20
1.578768
11
60.591622
21
1.322087
0
LINE
8
Livello 1
10
60.591622
20
1.322087
11
60.122013
21
1.231666
0
LINE
8
Livello 1
10
60.122013
20
1.231666
11
59.979087
21
1.240415
0
LINE
8
Livello 1
10
59.979087
20
1.240415
11
59.859498
21
1.265194
0
LINE
8
Livello 1
10
59.859498
20
1.265194
11
59.859500
21
1.543750
0
LINE
8
Livello 1
10
59.859500
20
1.543750
11
59.874100
21
1.543750
0
LINE
8
Livello 1
10
59.874100
20
1.543750
11
59.993692
21
1.501456
0
LINE
8
Livello 1
10
59.993692
20
1.501456
11
60.165785
21
1.482491
0
LINE
8
Livello 1
10
60.165785
20
1.482491
11
60.670398
21
1.675003
0
LINE
8
Livello 1
10
60.670398
20
1.675003
11
60.883326
21
2.208784
0
LINE
8
Livello 1
10
60.883326
20
2.208784
11
60.628101
21
2.092111
0
LINE
8
Livello 1
10
60.628101
20
2.092111
11
60.367046
21
2.057110
0
LINE
8
Livello 1
10
60.367046
20
2.057110
11
60.123491
21
2.083356
0
LINE
8
Livello 1
10
60.123491
20
2.083356
11
59.906186
21
2.185447
0
LINE
8
Livello 1
10
59.906186
20
2.185447
11
59.712218
21
2.411501
0
LINE
8
Livello 1
10
59.712218
20
2.411501
11
59.648046
21
2.739646
0
LINE
8
Livello 1
10
59.648046
20
2.739646
11
59.866808
21
3.280719
0
LINE
8
Livello 1
10
59.866808
20
3.280719
11
60.400589
21
3.489273
0
LINE
8
Livello 1
10
60.400589
20
3.489273
11
60.692274
21
3.439687
0
LINE
8
Livello 1
10
60.692274
20
3.439687
11
60.927080
21
3.293843
0
LINE
8
Livello 1
10
60.927080
20
3.293843
11
61.118133
21
2.981742
0
LINE
8
Livello 1
10
61.118133
20
2.981742
11
61.185220
21
2.490255
0
LINE
8
Livello 1
10
61.185220
20
2.490255
11
61.185200
21
2.490280
0
LINE
8
Livello 1
10
60.890600
20
2.552993
11
60.843929
21
2.916139
0
LINE
8
Livello 1
10
60.843929
20
2.916139
11
60.715589
21
3.129067
0
LINE
8
Livello 1
10
60.715589
20
3.129067
11
60.568289
21
3.222406
0
LINE
8
Livello 1
10
60.568289
20
3.222406
11
60.397655
21
3.251573
0
LINE
8
Livello 1
10
60.397655
20
3.251573
11
60.065135
21
3.120317
0
LINE
8
Livello 1
10
60.065135
20
3.120317
11
59.944087
21
2.751337
0
LINE
8
Livello 1
10
59.944087
20
2.751337
11
59.983462
21
2.525280
0
LINE
8
Livello 1
10
59.983462
20
2.525280
11
60.116180
21
2.372146
0
LINE
8
Livello 1
10
60.116180
20
2.372146
11
60.260562
21
2.310893
0
LINE
8
Livello 1
10
60.260562
20
2.310893
11
60.435574
21
2.296302
0
LINE
8
Livello 1
10
60.435574
20
2.296302
11
60.666003
21
2.326929
0
LINE
8
Livello 1
10
60.666003
20
2.326929
11
60.884767
21
2.415891
0
LINE
8
Livello 1
10
60.884767
20
2.415891
11
60.887674
21
2.475688
0
LINE
8
Livello 1
10
60.887674
20
2.475688
11
60.890581
21
2.552983
0
LINE
8
Livello 1
10
60.890581
20
2.552983
11
60.890600
21
2.552993
0
LINE
8
Livello 1
10
12.012100
20
-0.934810
11
15.630500
21
-0.934810
0
LINE
8
Livello 1
10
15.630500
20
-0.934810
11
16.000439
21
-1.009130
0
LINE
8
Livello 1
10
16.000439
20
-1.009130
11
16.301899
21
-1.212050
0
LINE
8
Livello 1
10
16.301899
20
-1.212050
11
16.504818
21
-1.513509
0
LINE
8
Livello 1
10
16.504818
20
-1.513509
11
16.579138
21
-1.883448
0
LINE
8
Livello 1
10
16.579138
20
-1.883448
11
16.579100
21
-5.501810
0
LINE
8
Livello 1
10
16.579100
20
-5.501810
11
16.504780
21
-5.871749
0
LINE
8
Livello 1
10
16.504780
20
-5.871749
11
16.301860
21
-6.173208
0
LINE
8
Livello 1
10
16.301860
20
-6.173208
11
16.000401
21
-6.376128
0
LINE
8
Livello 1
10
16.000401
20
-6.376128
11
15.630462
21
-6.450448
0
LINE
8
Livello 1
10
15.630462
20
-6.450448
11
12.012100
21
-6.450450
0
LINE
8
Livello 1
10
12.012100
20
-6.450450
11
11.642161
21
-6.376130
0
LINE
8
Livello 1
10
11.642161
20
-6.376130
11
11.340701
21
-6.173210
0
LINE
8
Livello 1
10
11.340701
20
-6.173210
11
11.137782
21
-5.871751
0
LINE
8
Livello 1
10
11.137782
20
-5.871751
11
11.063462
21
-5.501812
0
LINE
8
Livello 1
10
11.063462
20
-5.501812
11
11.063500
21
-1.883450
0
LINE
8
Livello 1
10
11.063500
20
-1.883450
11
11.137820
21
-1.513511
0
LINE
8
Livello 1
10
11.137820
20
-1.513511
11
11.340740
21
-1.212052
0
LINE
8
Livello 1
10
11.340740
20
-1.212052
11
11.642199
21
-1.009132
0
LINE
8
Livello 1
10
11.642199
20
-1.009132
11
12.012138
21
-0.934812
0
LINE
8
Livello 1
10
12.012138
20
-0.934812
11
12.012100
21
-0.934810
0
LINE
8
Livello 1
10
12.012100
20
-6.761580
11
15.630500
21
-6.761580
0
LINE
8
Livello 1
10
15.630500
20
-6.761580
11
16.000439
21
-6.835900
0
LINE
8
Livello 1
10
16.000439
20
-6.835900
11
16.301899
21
-7.038820
0
LINE
8
Livello 1
10
16.301899
20
-7.038820
11
16.504818
21
-7.340279
0
LINE
8
Livello 1
10
16.504818
20
-7.340279
11
16.579138
21
-7.710218
0
LINE
8
Livello 1
10
16.579138
20
-7.710218
11
16.579100
21
-11.328600
0
LINE
8
Livello 1
10
16.579100
20
-11.328600
11
16.504780
21
-11.698539
0
LINE
8
Livello 1
10
16.504780
20
-11.698539
11
16.301860
21
-11.999998
0
LINE
8
Livello 1
10
16.301860
20
-11.999998
11
16.000401
21
-12.202918
0
LINE
8
Livello 1
10
16.000401
20
-12.202918
11
15.630462
21
-12.277238
0
LINE
8
Livello 1
10
15.630462
20
-12.277238
11
12.012100
21
-12.277200
0
LINE
8
Livello 1
10
12.012100
20
-12.277200
11
11.642161
21
-12.202880
0
LINE
8
Livello 1
10
11.642161
20
-12.202880
11
11.340701
21
-11.999960
0
LINE
8
Livello 1
10
11.340701
20
-11.999960
11
11.137782
21
-11.698501
0
LINE
8
Livello 1
10
11.137782
20
-11.698501
11
11.063462
21
-11.328562
0
LINE
8
Livello 1
10
11.063462
20
-11.328562
11
11.063500
21
-7.710220
0
LINE
8
Livello 1
10
11.063500
20
-7.710220
11
11.137820
21
-7.340281
0
LINE
8
Livello 1
10
11.137820
20
-7.340281
11
11.340740
21
-7.038822
0
LINE
8
Livello 1
10
11.340740
20
-7.038822
11
11.642199
21
-6.835902
0
LINE
8
Livello 1
10
11.642199
20
-6.835902
11
12.012138
21
-6.761582
0
LINE
8
Livello 1
10
12.012138
20
-6.761582
11
12.012100
21
-6.761580
0
LINE
8
Livello 1
10
13.397600
20
-4.782070
11
12.222100
21
-4.782070
0
LINE
8
Livello 1
10
12.222100
20
-4.782070
11
12.222100
21
-4.560390
0
LINE
8
Livello 1
10
12.222100
20
-4.560390
11
12.674300
21
-4.560390
0
LINE
8
Livello 1
10
12.674300
20
-4.560390
11
12.674300
21
-3.104890
0
LINE
8
Livello 1
10
12.674300
20
-3.104890
11
12.222100
21
-3.104890
0
LINE
8
Livello 1
10
12.222100
20
-3.104890
11
12.222100
21
-2.906550
0
LINE
8
Livello 1
10
12.222100
20
-2.906550
11
12.418986
21
-2.891959
0
LINE
8
Livello 1
10
12.418986
20
-2.891959
11
12.577954
21
-2.846750
0
LINE
8
Livello 1
10
12.577954
20
-2.846750
11
12.682960
21
-2.754870
0
LINE
8
Livello 1
10
12.682960
20
-2.754870
11
12.728171
21
-2.603193
0
LINE
8
Livello 1
10
12.728171
20
-2.603193
11
12.954300
21
-2.603190
0
LINE
8
Livello 1
10
12.954300
20
-2.603190
11
12.954300
21
-4.560390
0
LINE
8
Livello 1
10
12.954300
20
-4.560390
11
13.397600
21
-4.560390
0
LINE
8
Livello 1
10
13.397600
20
-4.560390
11
13.397600
21
-4.782070
0
LINE
8
Livello 1
10
15.420500
20
-3.695550
11
15.236739
21
-4.554558
0
LINE
8
Livello 1
10
15.236739
20
-4.554558
11
15.003757
21
-4.759099
0
LINE
8
Livello 1
10
15.003757
20
-4.759099
11
14.669414
21
-4.827280
0
LINE
8
Livello 1
10
14.669414
20
-4.827280
11
14.331061
21
-4.758006
0
LINE
8
Livello 1
10
14.331061
20
-4.758006
11
14.097714
21
-4.550183
0
LINE
8
Livello 1
10
14.097714
20
-4.550183
11
13.918329
21
-3.698465
0
LINE
8
Livello 1
10
13.918329
20
-3.698465
11
14.100631
21
-2.843832
0
LINE
8
Livello 1
10
14.100631
20
-2.843832
11
14.333978
21
-2.636007
0
LINE
8
Livello 1
10
14.333978
20
-2.636007
11
14.669414
21
-2.566732
0
LINE
8
Livello 1
10
14.669414
20
-2.566732
11
15.007402
21
-2.637101
0
LINE
8
Livello 1
10
15.007402
20
-2.637101
11
15.239655
21
-2.848209
0
LINE
8
Livello 1
10
15.239655
20
-2.848209
11
15.420499
21
-3.695550
0
LINE
8
Livello 1
10
15.420499
20
-3.695550
11
15.420500
21
-3.695550
0
LINE
8
Livello 1
10
15.036936
20
-4.357671
11
15.105482
21
-4.080571
0
LINE
8
Livello 1
10
15.105482
20
-4.080571
11
15.124441
21
-3.695550
0
LINE
8
Livello 1
10
15.124441
20
-3.695550
11
15.105482
21
-3.310526
0
LINE
8
Livello 1
10
15.105482
20
-3.310526
11
15.035478
21
-3.033426
0
LINE
8
Livello 1
10
15.035478
20
-3.033426
11
14.895470
21
-2.864251
0
LINE
8
Livello 1
10
14.895470
20
-2.864251
11
14.669415
21
-2.807372
0
LINE
8
Livello 1
10
14.669415
20
-2.807372
11
14.441902
21
-2.864251
0
LINE
8
Livello 1
10
14.441902
20
-2.864251
11
14.300434
21
-3.036344
0
LINE
8
Livello 1
10
14.300434
20
-3.036344
11
14.231889
21
-3.317818
0
LINE
8
Livello 1
10
14.231889
20
-3.317818
11
14.214388
21
-3.698465
0
LINE
8
Livello 1
10
14.214388
20
-3.698465
11
14.230430
21
-4.079112
0
LINE
8
Livello 1
10
14.230430
20
-4.079112
11
14.298976
21
-4.353296
0
LINE
8
Livello 1
10
14.298976
20
-4.353296
11
14.434609
21
-4.526846
0
LINE
8
Livello 1
10
14.434609
20
-4.526846
11
14.669414
21
-4.586643
0
LINE
8
Livello 1
10
14.669414
20
-4.586643
11
14.896927
21
-4.529764
0
LINE
8
Livello 1
10
14.896927
20
-4.529764
11
15.036935
21
-4.357671
0
LINE
8
Livello 1
10
15.036935
20
-4.357671
11
15.036936
21
-4.357671
0
LINE
8
Livello 1
10
13.397600
20
-10.605200
11
12.222100
21
-10.605200
0
LINE
8
Livello 1
10
12.222100
20
-10.605200
11
12.222100
21
-10.383500
0
LINE
8
Livello 1
10
12.222100
20
-10.383500
11
12.674300
21
-10.383500
0
LINE
8
Livello 1
10
12.674300
20
-10.383500
11
12.674300
21
-8.928010
0
LINE
8
Livello 1
10
12.674300
20
-8.928010
11
12.222100
21
-8.928010
0
LINE
8
Livello 1
10
12.222100
20
-8.928010
11
12.222100
21
-8.729670
0
LINE
8
Livello 1
10
12.222100
20
-8.729670
11
12.418986
21
-8.715079
0
LINE
8
Livello 1
10
12.418986
20
-8.715079
11
12.577954
21
-8.669867
0
LINE
8
Livello 1
10
12.577954
20
-8.669867
11
12.682960
21
-8.577987
0
LINE
8
Livello 1
10
12.682960
20
-8.577987
11
12.728171
21
-8.426312
0
LINE
8
Livello 1
10
12.728171
20
-8.426312
11
12.954300
21
-8.426310
0
LINE
8
Livello 1
10
12.954300
20
-8.426310
11
12.954300
21
-10.383500
0
LINE
8
Livello 1
10
12.954300
20
-10.383500
11
13.397600
21
-10.383500
0
LINE
8
Livello 1
10
13.397600
20
-10.383500
11
13.397600
21
-10.605200
0
LINE
8
Livello 1
10
15.420500
20
-9.518670
11
15.236739
21
-10.377678
0
LINE
8
Livello 1
10
15.236739
20
-10.377678
11
15.003757
21
-10.582222
0
LINE
8
Livello 1
10
15.003757
20
-10.582222
11
14.669414
21
-10.650403
0
LINE
8
Livello 1
10
14.669414
20
-10.650403
11
14.331061
21
-10.581128
0
LINE
8
Livello 1
10
14.331061
20
-10.581128
11
14.097714
21
-10.373303
0
LINE
8
Livello 1
10
14.097714
20
-10.373303
11
13.918329
21
-9.521585
0
LINE
8
Livello 1
10
13.918329
20
-9.521585
11
14.100631
21
-8.666955
0
LINE
8
Livello 1
10
14.100631
20
-8.666955
11
14.333978
21
-8.459130
0
LINE
8
Livello 1
10
14.333978
20
-8.459130
11
14.669414
21
-8.389855
0
LINE
8
Livello 1
10
14.669414
20
-8.389855
11
15.007402
21
-8.460223
0
LINE
8
Livello 1
10
15.007402
20
-8.460223
11
15.239655
21
-8.671329
0
LINE
8
Livello 1
10
15.239655
20
-8.671329
11
15.420499
21
-9.518670
0
LINE
8
Livello 1
10
15.420499
20
-9.518670
11
15.420500
21
-9.518670
0
LINE
8
Livello 1
10
15.036936
20
-10.180791
11
15.105482
21
-9.903691
0
LINE
8
Livello 1
10
15.105482
20
-9.903691
11
15.124441
21
-9.518670
0
LINE
8
Livello 1
10
15.124441
20
-9.518670
11
15.105482
21
-9.133649
0
LINE
8
Livello 1
10
15.105482
20
-9.133649
11
15.035478
21
-8.856549
0
LINE
8
Livello 1
10
15.035478
20
-8.856549
11
14.895470
21
-8.687371
0
LINE
8
Livello 1
10
14.895470
20
-8.687371
11
14.669415
21
-8.630492
0
LINE
8
Livello 1
10
14.669415
20
-8.630492
11
14.441902
21
-8.687371
0
LINE
8
Livello 1
10
14.441902
20
-8.687371
11
14.300434
21
-8.859464
0
LINE
8
Livello 1
10
14.300434
20
-8.859464
11
14.231889
21
-9.140938
0
LINE
8
Livello 1
10
14.231889
20
-9.140938
11
14.214388
21
-9.521585
0
LINE
8
Livello 1
10
14.214388
20
-9.521585
11
14.230430
21
-9.902235
0
LINE
8
Livello 1
10
14.230430
20
-9.902235
11
14.298976
21
-10.176416
0
LINE
8
Livello 1
10
14.298976
20
-10.176416
11
14.434609
21
-10.349968
0
LINE
8
Livello 1
10
14.434609
20
-10.349968
11
14.669414
21
-10.409762
0
LINE
8
Livello 1
10
14.669414
20
-10.409762
11
14.896927
21
-10.352883
0
LINE
8
Livello 1
10
14.896927
20
-10.352883
11
15.036935
21
-10.180790
0
LINE
8
Livello 1
10
15.036935
20
-10.180790
11
15.036936
21
-10.180791
0
LINE
8
Livello 1
10
17.836900
20
-1.003070
11
21.455300
21
-1.003070
0
LINE
8
Livello 1
10
21.455300
20
-1.003070
11
21.825239
21
-1.077390
0
LINE
8
Livello 1
10
21.825239
20
-1.077390
11
22.126699
21
-1.280310
0
LINE
8
Livello 1
10
22.126699
20
-1.280310
11
22.329618
21
-1.581769
0
LINE
8
Livello 1
10
22.329618
20
-1.581769
11
22.403938
21
-1.951708
0
LINE
8
Livello 1
10
22.403938
20
-1.951708
11
22.403900
21
-5.570060
0
LINE
8
Livello 1
10
22.403900
20
-5.570060
11
22.329580
21
-5.939999
0
LINE
8
Livello 1
10
22.329580
20
-5.939999
11
22.126660
21
-6.241458
0
LINE
8
Livello 1
10
22.126660
20
-6.241458
11
21.825201
21
-6.444378
0
LINE
8
Livello 1
10
21.825201
20
-6.444378
11
21.455262
21
-6.518698
0
LINE
8
Livello 1
10
21.455262
20
-6.518698
11
17.836900
21
-6.518700
0
LINE
8
Livello 1
10
17.836900
20
-6.518700
11
17.466961
21
-6.444380
0
LINE
8
Livello 1
10
17.466961
20
-6.444380
11
17.165501
21
-6.241460
0
LINE
8
Livello 1
10
17.165501
20
-6.241460
11
16.962582
21
-5.940001
0
LINE
8
Livello 1
10
16.962582
20
-5.940001
11
16.888262
21
-5.570062
0
LINE
8
Livello 1
10
16.888262
20
-5.570062
11
16.888300
21
-1.951700
0
LINE
8
Livello 1
10
16.888300
20
-1.951700
11
16.962620
21
-1.581761
0
LINE
8
Livello 1
10
16.962620
20
-1.581761
11
17.165540
21
-1.280302
0
LINE
8
Livello 1
10
17.165540
20
-1.280302
11
17.466999
21
-1.077382
0
LINE
8
Livello 1
10
17.466999
20
-1.077382
11
17.836938
21
-1.003062
0
LINE
8
Livello 1
10
17.836938
20
-1.003062
11
17.836900
21
-1.003070
0
LINE
8
Livello 1
10
17.836900
20
-6.829840
11
21.455300
21
-6.829840
0
LINE
8
Livello 1
10
21.455300
20
-6.829840
11
21.825239
21
-6.904160
0
LINE
8
Livello 1
10
21.825239
20
-6.904160
11
22.126699
21
-7.107080
0
LINE
8
Livello 1
10
22.126699
20
-7.107080
11
22.329618
21
-7.408539
0
LINE
8
Livello 1
10
22.329618
20
-7.408539
11
22.403938
21
-7.778478
0
LINE
8
Livello 1
10
22.403938
20
-7.778478
11
22.403900
21
-11.396800
0
LINE
8
Livello 1
10
22.403900
20
-11.396800
11
22.329580
21
-11.766739
0
LINE
8
Livello 1
10
22.329580
20
-11.766739
11
22.126660
21
-12.068198
0
LINE
8
Livello 1
10
22.126660
20
-12.068198
11
21.825201
21
-12.271118
0
LINE
8
Livello 1
10
21.825201
20
-12.271118
11
21.455262
21
-12.345438
0
LINE
8
Livello 1
10
21.455262
20
-12.345438
11
17.836900
21
-12.345500
0
LINE
8
Livello 1
10
17.836900
20
-12.345500
11
17.466961
21
-12.271180
0
LINE
8
Livello 1
10
17.466961
20
-12.271180
11
17.165501
21
-12.068260
0
LINE
8
Livello 1
10
17.165501
20
-12.068260
11
16.962582
21
-11.766801
0
LINE
8
Livello 1
10
16.962582
20
-11.766801
11
16.888262
21
-11.396862
0
LINE
8
Livello 1
10
16.888262
20
-11.396862
11
16.888300
21
-7.778480
0
LINE
8
Livello 1
10
16.888300
20
-7.778480
11
16.962620
21
-7.408541
0
LINE
8
Livello 1
10
16.962620
20
-7.408541
11
17.165540
21
-7.107082
0
LINE
8
Livello 1
10
17.165540
20
-7.107082
11
17.466999
21
-6.904162
0
LINE
8
Livello 1
10
17.466999
20
-6.904162
11
17.836938
21
-6.829842
0
LINE
8
Livello 1
10
17.836938
20
-6.829842
11
17.836900
21
-6.829840
0
LINE
8
Livello 1
10
19.283000
20
-4.850320
11
18.107500
21
-4.850320
0
LINE
8
Livello 1
10
18.107500
20
-4.850320
11
18.107500
21
-4.628640
0
LINE
8
Livello 1
10
18.107500
20
-4.628640
11
18.559600
21
-4.628640
0
LINE
8
Livello 1
10
18.559600
20
-4.628640
11
18.559600
21
-3.173140
0
LINE
8
Livello 1
10
18.559600
20
-3.173140
11
18.107500
21
-3.173140
0
LINE
8
Livello 1
10
18.107500
20
-3.173140
11
18.107500
21
-2.974800
0
LINE
8
Livello 1
10
18.107500
20
-2.974800
11
18.304387
21
-2.960209
0
LINE
8
Livello 1
10
18.304387
20
-2.960209
11
18.463354
21
-2.914997
0
LINE
8
Livello 1
10
18.463354
20
-2.914997
11
18.568360
21
-2.823117
0
LINE
8
Livello 1
10
18.568360
20
-2.823117
11
18.613571
21
-2.671442
0
LINE
8
Livello 1
10
18.613571
20
-2.671442
11
18.839600
21
-2.671440
0
LINE
8
Livello 1
10
18.839600
20
-2.671440
11
18.839600
21
-4.628640
0
LINE
8
Livello 1
10
18.839600
20
-4.628640
11
19.283000
21
-4.628640
0
LINE
8
Livello 1
10
19.283000
20
-4.628640
11
19.283000
21
-4.850320
0
LINE
8
Livello 1
10
21.184700
20
-4.850320
11
20.009300
21
-4.850320
0
LINE
8
Livello 1
10
20.009300
20
-4.850320
11
20.009300
21
-4.628640
0
LINE
8
Livello 1
10
20.009300
20
-4.628640
11
20.461400
21
-4.628640
0
LINE
8
Livello 1
10
20.461400
20
-4.628640
11
20.461400
21
-3.173140
0
LINE
8
Livello 1
10
20.461400
20
-3.173140
11
20.009300
21
-3.173140
0
LINE
8
Livello 1
10
20.009300
20
-3.173140
11
20.009300
21
-2.974800
0
LINE
8
Livello 1
10
20.009300
20
-2.974800
11
20.206186
21
-2.960209
0
LINE
8
Livello 1
10
20.206186
20
-2.960209
11
20.365154
21
-2.914997
0
LINE
8
Livello 1
10
20.365154
20
-2.914997
11
20.470160
21
-2.823117
0
LINE
8
Livello 1
10
20.470160
20
-2.823117
11
20.515371
21
-2.671442
0
LINE
8
Livello 1
10
20.515371
20
-2.671442
11
20.741400
21
-2.671440
0
LINE
8
Livello 1
10
20.741400
20
-2.671440
11
20.741400
21
-4.628640
0
LINE
8
Livello 1
10
20.741400
20
-4.628640
11
21.184700
21
-4.628640
0
LINE
8
Livello 1
10
21.184700
20
-4.628640
11
21.184700
21
-4.850320
0
LINE
8
Livello 1
10
19.283000
20
-10.673400
11
18.107500
21
-10.673400
0
LINE
8
Livello 1
10
18.107500
20
-10.673400
11
18.107500
21
-10.451800
0
LINE
8
Livello 1
10
18.107500
20
-10.451800
11
18.559600
21
-10.451800
0
LINE
8
Livello 1
10
18.559600
20
-10.451800
11
18.559600
21
-8.996270
0
LINE
8
Livello 1
10
18.559600
20
-8.996270
11
18.107500
21
-8.996270
0
LINE
8
Livello 1
10
18.107500
20
-8.996270
11
18.107500
21
-8.797920
0
LINE
8
Livello 1
10
18.107500
20
-8.797920
11
18.304387
21
-8.783329
0
LINE
8
Livello 1
10
18.304387
20
-8.783329
11
18.463354
21
-8.738120
0
LINE
8
Livello 1
10
18.463354
20
-8.738120
11
18.568360
21
-8.646240
0
LINE
8
Livello 1
10
18.568360
20
-8.646240
11
18.613571
21
-8.494563
0
LINE
8
Livello 1
10
18.613571
20
-8.494563
11
18.839600
21
-8.494560
0
LINE
8
Livello 1
10
18.839600
20
-8.494560
11
18.839600
21
-10.451800
0
LINE
8
Livello 1
10
18.839600
20
-10.451800
11
19.283000
21
-10.451800
0
LINE
8
Livello 1
10
19.283000
20
-10.451800
11
19.283000
21
-10.673400
0
LINE
8
Livello 1
10
21.184700
20
-10.673400
11
20.009300
21
-10.673400
0
LINE
8
Livello 1
10
20.009300
20
-10.673400
11
20.009300
21
-10.451800
0
LINE
8
Livello 1
10
20.009300
20
-10.451800
11
20.461400
21
-10.451800
0
LINE
8
Livello 1
10
20.461400
20
-10.451800
11
20.461400
21
-8.996270
0
LINE
8
Livello 1
10
20.461400
20
-8.996270
11
20.009300
21
-8.996270
0
LINE
8
Livello 1
10
20.009300
20
-8.996270
11
20.009300
21
-8.797920
0
LINE
8
Livello 1
10
20.009300
20
-8.797920
11
20.206186
21
-8.783329
0
LINE
8
Livello 1
10
20.206186
20
-8.783329
11
20.365154
21
-8.738120
0
LINE
8
Livello 1
10
20.365154
20
-8.738120
11
20.470160
21
-8.646240
0
LINE
8
Livello 1
10
20.470160
20
-8.646240
11
20.515371
21
-8.494563
0
LINE
8
Livello 1
10
20.515371
20
-8.494563
11
20.741400
21
-8.494560
0
LINE
8
Livello 1
10
20.741400
20
-8.494560
11
20.741400
21
-10.451800
0
LINE
8
Livello 1
10
20.741400
20
-10.451800
11
21.184700
21
-10.451800
0
LINE
8
Livello 1
10
21.184700
20
-10.451800
11
21.184700
21
-10.673400
0
LINE
8
Livello 1
10
23.660800
20
-0.934810
11
27.279200
21
-0.934810
0
LINE
8
Livello 1
10
27.279200
20
-0.934810
11
27.649139
21
-1.009130
0
LINE
8
Livello 1
10
27.649139
20
-1.009130
11
27.950599
21
-1.212050
0
LINE
8
Livello 1
10
27.950599
20
-1.212050
11
28.153518
21
-1.513509
0
LINE
8
Livello 1
10
28.153518
20
-1.513509
11
28.227838
21
-1.883448
0
LINE
8
Livello 1
10
28.227838
20
-1.883448
11
28.227800
21
-5.501810
0
LINE
8
Livello 1
10
28.227800
20
-5.501810
11
28.153480
21
-5.871749
0
LINE
8
Livello 1
10
28.153480
20
-5.871749
11
27.950561
21
-6.173208
0
LINE
8
Livello 1
10
27.950561
20
-6.173208
11
27.649101
21
-6.376128
0
LINE
8
Livello 1
10
27.649101
20
-6.376128
11
27.279162
21
-6.450448
0
LINE
8
Livello 1
10
27.279162
20
-6.450448
11
23.660800
21
-6.450450
0
LINE
8
Livello 1
10
23.660800
20
-6.450450
11
23.290861
21
-6.376130
0
LINE
8
Livello 1
10
23.290861
20
-6.376130
11
22.989401
21
-6.173210
0
LINE
8
Livello 1
10
22.989401
20
-6.173210
11
22.786482
21
-5.871751
0
LINE
8
Livello 1
10
22.786482
20
-5.871751
11
22.712162
21
-5.501812
0
LINE
8
Livello 1
10
22.712162
20
-5.501812
11
22.712200
21
-1.883450
0
LINE
8
Livello 1
10
22.712200
20
-1.883450
11
22.786520
21
-1.513511
0
LINE
8
Livello 1
10
22.786520
20
-1.513511
11
22.989440
21
-1.212052
0
LINE
8
Livello 1
10
22.989440
20
-1.212052
11
23.290899
21
-1.009132
0
LINE
8
Livello 1
10
23.290899
20
-1.009132
11
23.660838
21
-0.934812
0
LINE
8
Livello 1
10
23.660838
20
-0.934812
11
23.660800
21
-0.934810
0
LINE
8
Livello 1
10
23.660800
20
-6.761580
11
27.279200
21
-6.761580
0
LINE
8
Livello 1
10
27.279200
20
-6.761580
11
27.649139
21
-6.835900
0
LINE
8
Livello 1
10
27.649139
20
-6.835900
11
27.950599
21
-7.038820
0
LINE
8
Livello 1
10
27.950599
20
-7.038820
11
28.153518
21
-7.340279
0
LINE
8
Livello 1
10
28.153518
20
-7.340279
11
28.227838
21
-7.710218
0
LINE
8
Livello 1
10
28.227838
20
-7.710218
11
28.227800
21
-11.328600
0
LINE
8
Livello 1
10
28.227800
20
-11.328600
11
28.153480
21
-11.698539
0
LINE
8
Livello 1
10
28.153480
20
-11.698539
11
27.950561
21
-11.999998
0
LINE
8
Livello 1
10
27.950561
20
-11.999998
11
27.649101
21
-12.202918
0
LINE
8
Livello 1
10
27.649101
20
-12.202918
11
27.279162
21
-12.277238
0
LINE
8
Livello 1
10
27.279162
20
-12.277238
11
23.660800
21
-12.277200
0
LINE
8
Livello 1
10
23.660800
20
-12.277200
11
23.290861
21
-12.202880
0
LINE
8
Livello 1
10
23.290861
20
-12.202880
11
22.989401
21
-11.999960
0
LINE
8
Livello 1
10
22.989401
20
-11.999960
11
22.786482
21
-11.698501
0
LINE
8
Livello 1
10
22.786482
20
-11.698501
11
22.712162
21
-11.328562
0
LINE
8
Livello 1
10
22.712162
20
-11.328562
11
22.712200
21
-7.710220
0
LINE
8
Livello 1
10
22.712200
20
-7.710220
11
22.786520
21
-7.340281
0
LINE
8
Livello 1
10
22.786520
20
-7.340281
11
22.989440
21
-7.038822
0
LINE
8
Livello 1
10
22.989440
20
-7.038822
11
23.290899
21
-6.835902
0
LINE
8
Livello 1
10
23.290899
20
-6.835902
11
23.660838
21
-6.761582
0
LINE
8
Livello 1
10
23.660838
20
-6.761582
11
23.660800
21
-6.761580
0
LINE
8
Livello 1
10
25.044900
20
-4.782070
11
23.869400
21
-4.782070
0
LINE
8
Livello 1
10
23.869400
20
-4.782070
11
23.869400
21
-4.560390
0
LINE
8
Livello 1
10
23.869400
20
-4.560390
11
24.321500
21
-4.560390
0
LINE
8
Livello 1
10
24.321500
20
-4.560390
11
24.321500
21
-3.104890
0
LINE
8
Livello 1
10
24.321500
20
-3.104890
11
23.869400
21
-3.104890
0
LINE
8
Livello 1
10
23.869400
20
-3.104890
11
23.869400
21
-2.906550
0
LINE
8
Livello 1
10
23.869400
20
-2.906550
11
24.066286
21
-2.891959
0
LINE
8
Livello 1
10
24.066286
20
-2.891959
11
24.225254
21
-2.846750
0
LINE
8
Livello 1
10
24.225254
20
-2.846750
11
24.330260
21
-2.754870
0
LINE
8
Livello 1
10
24.330260
20
-2.754870
11
24.375471
21
-2.603193
0
LINE
8
Livello 1
10
24.375471
20
-2.603193
11
24.601500
21
-2.603190
0
LINE
8
Livello 1
10
24.601500
20
-2.603190
11
24.601500
21
-4.560390
0
LINE
8
Livello 1
10
24.601500
20
-4.560390
11
25.044900
21
-4.560390
0
LINE
8
Livello 1
10
25.044900
20
-4.560390
11
25.044900
21
-4.782070
0
LINE
8
Livello 1
10
27.070600
20
-4.782070
11
25.600500
21
-4.782070
0
LINE
8
Livello 1
10
25.600500
20
-4.782070
11
25.600500
21
-4.477260
0
LINE
8
Livello 1
10
25.600500
20
-4.477260
11
25.906768
21
-4.214746
0
LINE
8
Livello 1
10
25.906768
20
-4.214746
11
26.194076
21
-3.953691
0
LINE
8
Livello 1
10
26.194076
20
-3.953691
11
26.577640
21
-3.523458
0
LINE
8
Livello 1
10
26.577640
20
-3.523458
11
26.681188
21
-3.177812
0
LINE
8
Livello 1
10
26.681188
20
-3.177812
11
26.568890
21
-2.913838
0
LINE
8
Livello 1
10
26.568890
20
-2.913838
11
26.258247
21
-2.817583
0
LINE
8
Livello 1
10
26.258247
20
-2.817583
11
25.970939
21
-2.864252
0
LINE
8
Livello 1
10
25.970939
20
-2.864252
11
25.669046
21
-3.007178
0
LINE
8
Livello 1
10
25.669046
20
-3.007178
11
25.654500
21
-3.007180
0
LINE
8
Livello 1
10
25.654500
20
-3.007180
11
25.654500
21
-2.700910
0
LINE
8
Livello 1
10
25.654500
20
-2.700910
11
25.930141
21
-2.607573
0
LINE
8
Livello 1
10
25.930141
20
-2.607573
11
26.265577
21
-2.565280
0
LINE
8
Livello 1
10
26.265577
20
-2.565280
11
26.789149
21
-2.727163
0
LINE
8
Livello 1
10
26.789149
20
-2.727163
11
26.978743
21
-3.163230
0
LINE
8
Livello 1
10
26.978743
20
-3.163230
11
26.946658
21
-3.395121
0
LINE
8
Livello 1
10
26.946658
20
-3.395121
11
26.854778
21
-3.597841
0
LINE
8
Livello 1
10
26.854778
20
-3.597841
11
26.720603
21
-3.775768
0
LINE
8
Livello 1
10
26.720603
20
-3.775768
11
26.535384
21
-3.969736
0
LINE
8
Livello 1
10
26.535384
20
-3.969736
11
26.213073
21
-4.267254
0
LINE
8
Livello 1
10
26.213073
20
-4.267254
11
25.902430
21
-4.532684
0
LINE
8
Livello 1
10
25.902430
20
-4.532684
11
27.070600
21
-4.532680
0
LINE
8
Livello 1
10
27.070600
20
-4.532680
11
27.070600
21
-4.782070
0
LINE
8
Livello 1
10
25.044900
20
-10.605200
11
23.869400
21
-10.605200
0
LINE
8
Livello 1
10
23.869400
20
-10.605200
11
23.869400
21
-10.383500
0
LINE
8
Livello 1
10
23.869400
20
-10.383500
11
24.321500
21
-10.383500
0
LINE
8
Livello 1
10
24.321500
20
-10.383500
11
24.321500
21
-8.928010
0
LINE
8
Livello 1
10
24.321500
20
-8.928010
11
23.869400
21
-8.928010
0
LINE
8
Livello 1
10
23.869400
20
-8.928010
11
23.869400
21
-8.729670
0
LINE
8
Livello 1
10
23.869400
20
-8.729670
11
24.066286
21
-8.715079
0
LINE
8
Livello 1
10
24.066286
20
-8.715079
11
24.225254
21
-8.669867
0
LINE
8
Livello 1
10
24.225254
20
-8.669867
11
24.330260
21
-8.577987
0
LINE
8
Livello 1
10
24.330260
20
-8.577987
11
24.375471
21
-8.426312
0
LINE
8
Livello 1
10
24.375471
20
-8.426312
11
24.601500
21
-8.426310
0
LINE
8
Livello 1
10
24.601500
20
-8.426310
11
24.601500
21
-10.383500
0
LINE
8
Livello 1
10
24.601500
20
-10.383500
11
25.044900
21
-10.383500
0
LINE
8
Livello 1
10
25.044900
20
-10.383500
11
25.044900
21
-10.605200
0
LINE
8
Livello 1
10
27.070600
20
-10.605200
11
25.600500
21
-10.605200
0
LINE
8
Livello 1
10
25.600500
20
-10.605200
11
25.600500
21
-10.300400
0
LINE
8
Livello 1
10
25.600500
20
-10.300400
11
25.906768
21
-10.037883
0
LINE
8
Livello 1
10
25.906768
20
-10.037883
11
26.194076
21
-9.776828
0
LINE
8
Livello 1
10
26.194076
20
-9.776828
11
26.577640
21
-9.346595
0
LINE
8
Livello 1
10
26.577640
20
-9.346595
11
26.681188
21
-9.000949
0
LINE
8
Livello 1
10
26.681188
20
-9.000949
11
26.568890
21
-8.736975
0
LINE
8
Livello 1
10
26.568890
20
-8.736975
11
26.258247
21
-8.640720
0
LINE
8
Livello 1
10
26.258247
20
-8.640720
11
25.970939
21
-8.687389
0
LINE
8
Livello 1
10
25.970939
20
-8.687389
11
25.669046
21
-8.830315
0
LINE
8
Livello 1
10
25.669046
20
-8.830315
11
25.654500
21
-8.830300
0
LINE
8
Livello 1
10
25.654500
20
-8.830300
11
25.654500
21
-8.524030
0
LINE
8
Livello 1
10
25.654500
20
-8.524030
11
25.930141
21
-8.430691
0
LINE
8
Livello 1
10
25.930141
20
-8.430691
11
26.265577
21
-8.388397
0
LINE
8
Livello 1
10
26.265577
20
-8.388397
11
26.789149
21
-8.550282
0
LINE
8
Livello 1
10
26.789149
20
-8.550282
11
26.978743
21
-8.986349
0
LINE
8
Livello 1
10
26.978743
20
-8.986349
11
26.946658
21
-9.218237
0
LINE
8
Livello 1
10
26.946658
20
-9.218237
11
26.854778
21
-9.420957
0
LINE
8
Livello 1
10
26.854778
20
-9.420957
11
26.720603
21
-9.598884
0
LINE
8
Livello 1
10
26.720603
20
-9.598884
11
26.535384
21
-9.792852
0
LINE
8
Livello 1
10
26.535384
20
-9.792852
11
26.213073
21
-10.090370
0
LINE
8
Livello 1
10
26.213073
20
-10.090370
11
25.902430
21
-10.355803
0
LINE
8
Livello 1
10
25.902430
20
-10.355803
11
27.070600
21
-10.355800
0
LINE
8
Livello 1
10
27.070600
20
-10.355800
11
27.070600
21
-10.605200
0
LINE
8
Livello 1
10
29.485700
20
-1.003070
11
33.104000
21
-1.003070
0
LINE
8
Livello 1
10
33.104000
20
-1.003070
11
33.473939
21
-1.077390
0
LINE
8
Livello 1
10
33.473939
20
-1.077390
11
33.775398
21
-1.280310
0
LINE
8
Livello 1
10
33.775398
20
-1.280310
11
33.978318
21
-1.581769
0
LINE
8
Livello 1
10
33.978318
20
-1.581769
11
34.052638
21
-1.951708
0
LINE
8
Livello 1
10
34.052638
20
-1.951708
11
34.052600
21
-5.570060
0
LINE
8
Livello 1
10
34.052600
20
-5.570060
11
33.978280
21
-5.939999
0
LINE
8
Livello 1
10
33.978280
20
-5.939999
11
33.775360
21
-6.241458
0
LINE
8
Livello 1
10
33.775360
20
-6.241458
11
33.473901
21
-6.444378
0
LINE
8
Livello 1
10
33.473901
20
-6.444378
11
33.103962
21
-6.518698
0
LINE
8
Livello 1
10
33.103962
20
-6.518698
11
29.485700
21
-6.518700
0
LINE
8
Livello 1
10
29.485700
20
-6.518700
11
29.115761
21
-6.444380
0
LINE
8
Livello 1
10
29.115761
20
-6.444380
11
28.814302
21
-6.241460
0
LINE
8
Livello 1
10
28.814302
20
-6.241460
11
28.611382
21
-5.940001
0
LINE
8
Livello 1
10
28.611382
20
-5.940001
11
28.537062
21
-5.570062
0
LINE
8
Livello 1
10
28.537062
20
-5.570062
11
28.537000
21
-1.951700
0
LINE
8
Livello 1
10
28.537000
20
-1.951700
11
28.611320
21
-1.581761
0
LINE
8
Livello 1
10
28.611320
20
-1.581761
11
28.814240
21
-1.280302
0
LINE
8
Livello 1
10
28.814240
20
-1.280302
11
29.115699
21
-1.077382
0
LINE
8
Livello 1
10
29.115699
20
-1.077382
11
29.485638
21
-1.003062
0
LINE
8
Livello 1
10
29.485638
20
-1.003062
11
29.485700
21
-1.003070
0
LINE
8
Livello 1
10
29.485700
20
-6.829840
11
33.104000
21
-6.829840
0
LINE
8
Livello 1
10
33.104000
20
-6.829840
11
33.473939
21
-6.904160
0
LINE
8
Livello 1
10
33.473939
20
-6.904160
11
33.775398
21
-7.107080
0
LINE
8
Livello 1
10
33.775398
20
-7.107080
11
33.978318
21
-7.408539
0
LINE
8
Livello 1
10
33.978318
20
-7.408539
11
34.052638
21
-7.778478
0
LINE
8
Livello 1
10
34.052638
20
-7.778478
11
34.052600
21
-11.396800
0
LINE
8
Livello 1
10
34.052600
20
-11.396800
11
33.978280
21
-11.766739
0
LINE
8
Livello 1
10
33.978280
20
-11.766739
11
33.775360
21
-12.068198
0
LINE
8
Livello 1
10
33.775360
20
-12.068198
11
33.473901
21
-12.271118
0
LINE
8
Livello 1
10
33.473901
20
-12.271118
11
33.103962
21
-12.345438
0
LINE
8
Livello 1
10
33.103962
20
-12.345438
11
29.485700
21
-12.345500
0
LINE
8
Livello 1
10
29.485700
20
-12.345500
11
29.115761
21
-12.271180
0
LINE
8
Livello 1
10
29.115761
20
-12.271180
11
28.814302
21
-12.068260
0
LINE
8
Livello 1
10
28.814302
20
-12.068260
11
28.611382
21
-11.766801
0
LINE
8
Livello 1
10
28.611382
20
-11.766801
11
28.537062
21
-11.396862
0
LINE
8
Livello 1
10
28.537062
20
-11.396862
11
28.537000
21
-7.778480
0
LINE
8
Livello 1
10
28.537000
20
-7.778480
11
28.611320
21
-7.408541
0
LINE
8
Livello 1
10
28.611320
20
-7.408541
11
28.814240
21
-7.107082
0
LINE
8
Livello 1
10
28.814240
20
-7.107082
11
29.115699
21
-6.904162
0
LINE
8
Livello 1
10
29.115699
20
-6.904162
11
29.485638
21
-6.829842
0
LINE
8
Livello 1
10
29.485638
20
-6.829842
11
29.485700
21
-6.829840
0
LINE
8
Livello 1
10
30.885000
20
-4.850320
11
29.709500
21
-4.850320
0
LINE
8
Livello 1
10
29.709500
20
-4.850320
11
29.709500
21
-4.628640
0
LINE
8
Livello 1
10
29.709500
20
-4.628640
11
30.161600
21
-4.628640
0
LINE
8
Livello 1
10
30.161600
20
-4.628640
11
30.161600
21
-3.173140
0
LINE
8
Livello 1
10
30.161600
20
-3.173140
11
29.709500
21
-3.173140
0
LINE
8
Livello 1
10
29.709500
20
-3.173140
11
29.709500
21
-2.974800
0
LINE
8
Livello 1
10
29.709500
20
-2.974800
11
29.906387
21
-2.960209
0
LINE
8
Livello 1
10
29.906387
20
-2.960209
11
30.065354
21
-2.914997
0
LINE
8
Livello 1
10
30.065354
20
-2.914997
11
30.170360
21
-2.823117
0
LINE
8
Livello 1
10
30.170360
20
-2.823117
11
30.215572
21
-2.671442
0
LINE
8
Livello 1
10
30.215572
20
-2.671442
11
30.441700
21
-2.671440
0
LINE
8
Livello 1
10
30.441700
20
-2.671440
11
30.441700
21
-4.628640
0
LINE
8
Livello 1
10
30.441700
20
-4.628640
11
30.885000
21
-4.628640
0
LINE
8
Livello 1
10
30.885000
20
-4.628640
11
30.885000
21
-4.850320
0
LINE
8
Livello 1
10
32.719700
20
-3.804640
11
32.834914
21
-3.962148
0
LINE
8
Livello 1
10
32.834914
20
-3.962148
11
32.880123
21
-4.207162
0
LINE
8
Livello 1
10
32.880123
20
-4.207162
11
32.826162
21
-4.479887
0
LINE
8
Livello 1
10
32.826162
20
-4.479887
11
32.674487
21
-4.695733
0
LINE
8
Livello 1
10
32.674487
20
-4.695733
11
32.416347
21
-4.847408
0
LINE
8
Livello 1
10
32.416347
20
-4.847408
11
32.092579
21
-4.895535
0
LINE
8
Livello 1
10
32.092579
20
-4.895535
11
31.736722
21
-4.851782
0
LINE
8
Livello 1
10
31.736722
20
-4.851782
11
31.449414
21
-4.758443
0
LINE
8
Livello 1
10
31.449414
20
-4.758443
11
31.449400
21
-4.453630
0
LINE
8
Livello 1
10
31.449400
20
-4.453630
11
31.471300
21
-4.453630
0
LINE
8
Livello 1
10
31.471300
20
-4.453630
11
31.762982
21
-4.589263
0
LINE
8
Livello 1
10
31.762982
20
-4.589263
11
32.086753
21
-4.643224
0
LINE
8
Livello 1
10
32.086753
20
-4.643224
11
32.282180
21
-4.612597
0
LINE
8
Livello 1
10
32.282180
20
-4.612597
11
32.449896
21
-4.522176
0
LINE
8
Livello 1
10
32.449896
20
-4.522176
11
32.549069
21
-4.380709
0
LINE
8
Livello 1
10
32.549069
20
-4.380709
11
32.582614
21
-4.185282
0
LINE
8
Livello 1
10
32.582614
20
-4.185282
11
32.544694
21
-3.992770
0
LINE
8
Livello 1
10
32.544694
20
-3.992770
11
32.442606
21
-3.871722
0
LINE
8
Livello 1
10
32.442606
20
-3.871722
11
32.283636
21
-3.810469
0
LINE
8
Livello 1
10
32.283636
20
-3.810469
11
32.082375
21
-3.792971
0
LINE
8
Livello 1
10
32.082375
20
-3.792971
11
31.951100
21
-3.792970
0
LINE
8
Livello 1
10
31.951100
20
-3.792970
11
31.951100
21
-3.550870
0
LINE
8
Livello 1
10
31.951100
20
-3.550870
11
32.053200
21
-3.550870
0
LINE
8
Livello 1
10
32.053200
20
-3.550870
11
32.406138
21
-3.458990
0
LINE
8
Livello 1
10
32.406138
20
-3.458990
11
32.538853
21
-3.187724
0
LINE
8
Livello 1
10
32.538853
20
-3.187724
11
32.505308
21
-3.050632
0
LINE
8
Livello 1
10
32.505308
20
-3.050632
11
32.411972
21
-2.952918
0
LINE
8
Livello 1
10
32.411972
20
-2.952918
11
32.277795
21
-2.900416
0
LINE
8
Livello 1
10
32.277795
20
-2.900416
11
32.115912
21
-2.885825
0
LINE
8
Livello 1
10
32.115912
20
-2.885825
11
31.821312
21
-2.935412
0
LINE
8
Livello 1
10
31.821312
20
-2.935412
11
31.526712
21
-3.075420
0
LINE
8
Livello 1
10
31.526712
20
-3.075420
11
31.512100
21
-3.075420
0
LINE
8
Livello 1
10
31.512100
20
-3.075420
11
31.512100
21
-2.770620
0
LINE
8
Livello 1
10
31.512100
20
-2.770620
11
31.787741
21
-2.677281
0
LINE
8
Livello 1
10
31.787741
20
-2.677281
11
32.123179
21
-2.633528
0
LINE
8
Livello 1
10
32.123179
20
-2.633528
11
32.403194
21
-2.662695
0
LINE
8
Livello 1
10
32.403194
20
-2.662695
11
32.621956
21
-2.756035
0
LINE
8
Livello 1
10
32.621956
20
-2.756035
11
32.780926
21
-2.925213
0
LINE
8
Livello 1
10
32.780926
20
-2.925213
11
32.834887
21
-3.157101
0
LINE
8
Livello 1
10
32.834887
20
-3.157101
11
32.706547
21
-3.473579
0
LINE
8
Livello 1
10
32.706547
20
-3.473579
11
32.406113
21
-3.642754
0
LINE
8
Livello 1
10
32.406113
20
-3.642754
11
32.406100
21
-3.663180
0
LINE
8
Livello 1
10
32.406100
20
-3.663180
11
32.566523
21
-3.712766
0
LINE
8
Livello 1
10
32.566523
20
-3.712766
11
32.719659
21
-3.804647
0
LINE
8
Livello 1
10
32.719659
20
-3.804647
11
32.719700
21
-3.804640
0
LINE
8
Livello 1
10
30.885000
20
-10.673400
11
29.709500
21
-10.673400
0
LINE
8
Livello 1
10
29.709500
20
-10.673400
11
29.709500
21
-10.451800
0
LINE
8
Livello 1
10
29.709500
20
-10.451800
11
30.161600
21
-10.451800
0
LINE
8
Livello 1
10
30.161600
20
-10.451800
11
30.161600
21
-8.996270
0
LINE
8
Livello 1
10
30.161600
20
-8.996270
11
29.709500
21
-8.996270
0
LINE
8
Livello 1
10
29.709500
20
-8.996270
11
29.709500
21
-8.797920
0
LINE
8
Livello 1
10
29.709500
20
-8.797920
11
29.906387
21
-8.783329
0
LINE
8
Livello 1
10
29.906387
20
-8.783329
11
30.065354
21
-8.738120
0
LINE
8
Livello 1
10
30.065354
20
-8.738120
11
30.170360
21
-8.646240
0
LINE
8
Livello 1
10
30.170360
20
-8.646240
11
30.215572
21
-8.494563
0
LINE
8
Livello 1
10
30.215572
20
-8.494563
11
30.441700
21
-8.494560
0
LINE
8
Livello 1
10
30.441700
20
-8.494560
11
30.441700
21
-10.451800
0
LINE
8
Livello 1
10
30.441700
20
-10.451800
11
30.885000
21
-10.451800
0
LINE
8
Livello 1
10
30.885000
20
-10.451800
11
30.885000
21
-10.673400
0
LINE
8
Livello 1
10
32.719700
20
-9.627760
11
32.834914
21
-9.785268
0
LINE
8
Livello 1
10
32.834914
20
-9.785268
11
32.880123
21
-10.030282
0
LINE
8
Livello 1
10
32.880123
20
-10.030282
11
32.826162
21
-10.303007
0
LINE
8
Livello 1
10
32.826162
20
-10.303007
11
32.674487
21
-10.518853
0
LINE
8
Livello 1
10
32.674487
20
-10.518853
11
32.416347
21
-10.670528
0
LINE
8
Livello 1
10
32.416347
20
-10.670528
11
32.092579
21
-10.718655
0
LINE
8
Livello 1
10
32.092579
20
-10.718655
11
31.736722
21
-10.674905
0
LINE
8
Livello 1
10
31.736722
20
-10.674905
11
31.449414
21
-10.581566
0
LINE
8
Livello 1
10
31.449414
20
-10.581566
11
31.449400
21
-10.276800
0
LINE
8
Livello 1
10
31.449400
20
-10.276800
11
31.471300
21
-10.276800
0
LINE
8
Livello 1
10
31.471300
20
-10.276800
11
31.762982
21
-10.412433
0
LINE
8
Livello 1
10
31.762982
20
-10.412433
11
32.086753
21
-10.466394
0
LINE
8
Livello 1
10
32.086753
20
-10.466394
11
32.282180
21
-10.435767
0
LINE
8
Livello 1
10
32.282180
20
-10.435767
11
32.449896
21
-10.345346
0
LINE
8
Livello 1
10
32.449896
20
-10.345346
11
32.549069
21
-10.203879
0
LINE
8
Livello 1
10
32.549069
20
-10.203879
11
32.582614
21
-10.008452
0
LINE
8
Livello 1
10
32.582614
20
-10.008452
11
32.544694
21
-9.815940
0
LINE
8
Livello 1
10
32.544694
20
-9.815940
11
32.442606
21
-9.694892
0
LINE
8
Livello 1
10
32.442606
20
-9.694892
11
32.283636
21
-9.633638
0
LINE
8
Livello 1
10
32.283636
20
-9.633638
11
32.082375
21
-9.616141
0
LINE
8
Livello 1
10
32.082375
20
-9.616141
11
31.951100
21
-9.616100
0
LINE
8
Livello 1
10
31.951100
20
-9.616100
11
31.951100
21
-9.374000
0
LINE
8
Livello 1
10
31.951100
20
-9.374000
11
32.053200
21
-9.374000
0
LINE
8
Livello 1
10
32.053200
20
-9.374000
11
32.406138
21
-9.282120
0
LINE
8
Livello 1
10
32.406138
20
-9.282120
11
32.538853
21
-9.010854
0
LINE
8
Livello 1
10
32.538853
20
-9.010854
11
32.505308
21
-8.873765
0
LINE
8
Livello 1
10
32.505308
20
-8.873765
11
32.411972
21
-8.776051
0
LINE
8
Livello 1
10
32.411972
20
-8.776051
11
32.277795
21
-8.723546
0
LINE
8
Livello 1
10
32.277795
20
-8.723546
11
32.115912
21
-8.708956
0
LINE
8
Livello 1
10
32.115912
20
-8.708956
11
31.821312
21
-8.758542
0
LINE
8
Livello 1
10
31.821312
20
-8.758542
11
31.526712
21
-8.898552
0
LINE
8
Livello 1
10
31.526712
20
-8.898552
11
31.512100
21
-8.898550
0
LINE
8
Livello 1
10
31.512100
20
-8.898550
11
31.512100
21
-8.593740
0
LINE
8
Livello 1
10
31.512100
20
-8.593740
11
31.787741
21
-8.500401
0
LINE
8
Livello 1
10
31.787741
20
-8.500401
11
32.123179
21
-8.456651
0
LINE
8
Livello 1
10
32.123179
20
-8.456651
11
32.403194
21
-8.485818
0
LINE
8
Livello 1
10
32.403194
20
-8.485818
11
32.621956
21
-8.579157
0
LINE
8
Livello 1
10
32.621956
20
-8.579157
11
32.780926
21
-8.748332
0
LINE
8
Livello 1
10
32.780926
20
-8.748332
11
32.834887
21
-8.980220
0
LINE
8
Livello 1
10
32.834887
20
-8.980220
11
32.706547
21
-9.296698
0
LINE
8
Livello 1
10
32.706547
20
-9.296698
11
32.406113
21
-9.465873
0
LINE
8
Livello 1
10
32.406113
20
-9.465873
11
32.406100
21
-9.486310
0
LINE
8
Livello 1
10
32.406100
20
-9.486310
11
32.566523
21
-9.535896
0
LINE
8
Livello 1
10
32.566523
20
-9.535896
11
32.719659
21
-9.627777
0
LINE
8
Livello 1
10
32.719659
20
-9.627777
11
32.719700
21
-9.627760
0
LINE
8
Livello 1
10
35.309500
20
-0.934810
11
38.927900
21
-0.934810
0
LINE
8
Livello 1
10
38.927900
20
-0.934810
11
39.297839
21
-1.009130
0
LINE
8
Livello 1
10
39.297839
20
-1.009130
11
39.599298
21
-1.212050
0
LINE
8
Livello 1
10
39.599298
20
-1.212050
11
39.802218
21
-1.513509
0
LINE
8
Livello 1
10
39.802218
20
-1.513509
11
39.876538
21
-1.883448
0
LINE
8
Livello 1
10
39.876538
20
-1.883448
11
39.876500
21
-5.501810
0
LINE
8
Livello 1
10
39.876500
20
-5.501810
11
39.802180
21
-5.871749
0
LINE
8
Livello 1
10
39.802180
20
-5.871749
11
39.599260
21
-6.173208
0
LINE
8
Livello 1
10
39.599260
20
-6.173208
11
39.297801
21
-6.376128
0
LINE
8
Livello 1
10
39.297801
20
-6.376128
11
38.927862
21
-6.450448
0
LINE
8
Livello 1
10
38.927862
20
-6.450448
11
35.309500
21
-6.450450
0
LINE
8
Livello 1
10
35.309500
20
-6.450450
11
34.939561
21
-6.376130
0
LINE
8
Livello 1
10
34.939561
20
-6.376130
11
34.638102
21
-6.173210
0
LINE
8
Livello 1
10
34.638102
20
-6.173210
11
34.435182
21
-5.871751
0
LINE
8
Livello 1
10
34.435182
20
-5.871751
11
34.360862
21
-5.501812
0
LINE
8
Livello 1
10
34.360862
20
-5.501812
11
34.360900
21
-1.883450
0
LINE
8
Livello 1
10
34.360900
20
-1.883450
11
34.435220
21
-1.513511
0
LINE
8
Livello 1
10
34.435220
20
-1.513511
11
34.638140
21
-1.212052
0
LINE
8
Livello 1
10
34.638140
20
-1.212052
11
34.939599
21
-1.009132
0
LINE
8
Livello 1
10
34.939599
20
-1.009132
11
35.309538
21
-0.934812
0
LINE
8
Livello 1
10
35.309538
20
-0.934812
11
35.309500
21
-0.934810
0
LINE
8
Livello 1
10
35.309500
20
-6.761580
11
38.927900
21
-6.761580
0
LINE
8
Livello 1
10
38.927900
20
-6.761580
11
39.297839
21
-6.835900
0
LINE
8
Livello 1
10
39.297839
20
-6.835900
11
39.599298
21
-7.038820
0
LINE
8
Livello 1
10
39.599298
20
-7.038820
11
39.802218
21
-7.340279
0
LINE
8
Livello 1
10
39.802218
20
-7.340279
11
39.876538
21
-7.710218
0
LINE
8
Livello 1
10
39.876538
20
-7.710218
11
39.876500
21
-11.328600
0
LINE
8
Livello 1
10
39.876500
20
-11.328600
11
39.802180
21
-11.698539
0
LINE
8
Livello 1
10
39.802180
20
-11.698539
11
39.599260
21
-11.999998
0
LINE
8
Livello 1
10
39.599260
20
-11.999998
11
39.297801
21
-12.202918
0
LINE
8
Livello 1
10
39.297801
20
-12.202918
11
38.927862
21
-12.277238
0
LINE
8
Livello 1
10
38.927862
20
-12.277238
11
35.309500
21
-12.277200
0
LINE
8
Livello 1
10
35.309500
20
-12.277200
11
34.939561
21
-12.202880
0
LINE
8
Livello 1
10
34.939561
20
-12.202880
11
34.638102
21
-11.999960
0
LINE
8
Livello 1
10
34.638102
20
-11.999960
11
34.435182
21
-11.698501
0
LINE
8
Livello 1
10
34.435182
20
-11.698501
11
34.360862
21
-11.328562
0
LINE
8
Livello 1
10
34.360862
20
-11.328562
11
34.360900
21
-7.710220
0
LINE
8
Livello 1
10
34.360900
20
-7.710220
11
34.435220
21
-7.340281
0
LINE
8
Livello 1
10
34.435220
20
-7.340281
11
34.638140
21
-7.038822
0
LINE
8
Livello 1
10
34.638140
20
-7.038822
11
34.939599
21
-6.835902
0
LINE
8
Livello 1
10
34.939599
20
-6.835902
11
35.309538
21
-6.761582
0
LINE
8
Livello 1
10
35.309538
20
-6.761582
11
35.309500
21
-6.761580
0
LINE
8
Livello 1
10
36.668800
20
-4.782070
11
35.493300
21
-4.782070
0
LINE
8
Livello 1
10
35.493300
20
-4.782070
11
35.493300
21
-4.560390
0
LINE
8
Livello 1
10
35.493300
20
-4.560390
11
35.945400
21
-4.560390
0
LINE
8
Livello 1
10
35.945400
20
-4.560390
11
35.945400
21
-3.104890
0
LINE
8
Livello 1
10
35.945400
20
-3.104890
11
35.493300
21
-3.104890
0
LINE
8
Livello 1
10
35.493300
20
-3.104890
11
35.493300
21
-2.906550
0
LINE
8
Livello 1
10
35.493300
20
-2.906550
11
35.690187
21
-2.891959
0
LINE
8
Livello 1
10
35.690187
20
-2.891959
11
35.849154
21
-2.846750
0
LINE
8
Livello 1
10
35.849154
20
-2.846750
11
35.954160
21
-2.754870
0
LINE
8
Livello 1
10
35.954160
20
-2.754870
11
35.999369
21
-2.603193
0
LINE
8
Livello 1
10
35.999369
20
-2.603193
11
36.225400
21
-2.603190
0
LINE
8
Livello 1
10
36.225400
20
-2.603190
11
36.225400
21
-4.560390
0
LINE
8
Livello 1
10
36.225400
20
-4.560390
11
36.668800
21
-4.560390
0
LINE
8
Livello 1
10
36.668800
20
-4.560390
11
36.668800
21
-4.782070
0
LINE
8
Livello 1
10
38.744100
20
-4.170990
11
38.421800
21
-4.170990
0
LINE
8
Livello 1
10
38.421800
20
-4.170990
11
38.421800
21
-4.782070
0
LINE
8
Livello 1
10
38.421800
20
-4.782070
11
38.141800
21
-4.782070
0
LINE
8
Livello 1
10
38.141800
20
-4.782070
11
38.141800
21
-4.170990
0
LINE
8
Livello 1
10
38.141800
20
-4.170990
11
37.102000
21
-4.170990
0
LINE
8
Livello 1
10
37.102000
20
-4.170990
11
37.102000
21
-3.835560
0
LINE
8
Livello 1
10
37.102000
20
-3.835560
11
38.153520
21
-2.610490
0
LINE
8
Livello 1
10
38.153520
20
-2.610490
11
38.421800
21
-2.610490
0
LINE
8
Livello 1
10
38.421800
20
-2.610490
11
38.421800
21
-3.937650
0
LINE
8
Livello 1
10
38.421800
20
-3.937650
11
38.744100
21
-3.937650
0
LINE
8
Livello 1
10
38.744100
20
-3.937650
11
38.744100
21
-4.170990
0
LINE
8
Livello 1
10
38.141773
20
-3.937643
11
38.141800
21
-2.957590
0
LINE
8
Livello 1
10
38.141800
20
-2.957590
11
37.300293
21
-3.937645
0
LINE
8
Livello 1
10
37.300293
20
-3.937645
11
38.141773
21
-3.937643
0
LINE
8
Livello 1
10
36.668800
20
-10.605200
11
35.493300
21
-10.605200
0
LINE
8
Livello 1
10
35.493300
20
-10.605200
11
35.493300
21
-10.383500
0
LINE
8
Livello 1
10
35.493300
20
-10.383500
11
35.945400
21
-10.383500
0
LINE
8
Livello 1
10
35.945400
20
-10.383500
11
35.945400
21
-8.928010
0
LINE
8
Livello 1
10
35.945400
20
-8.928010
11
35.493300
21
-8.928010
0
LINE
8
Livello 1
10
35.493300
20
-8.928010
11
35.493300
21
-8.729670
0
LINE
8
Livello 1
10
35.493300
20
-8.729670
11
35.690187
21
-8.715079
0
LINE
8
Livello 1
10
35.690187
20
-8.715079
11
35.849154
21
-8.669867
0
LINE
8
Livello 1
10
35.849154
20
-8.669867
11
35.954160
21
-8.577987
0
LINE
8
Livello 1
10
35.954160
20
-8.577987
11
35.999369
21
-8.426312
0
LINE
8
Livello 1
10
35.999369
20
-8.426312
11
36.225400
21
-8.426310
0
LINE
8
Livello 1
10
36.225400
20
-8.426310
11
36.225400
21
-10.383500
0
LINE
8
Livello 1
10
36.225400
20
-10.383500
11
36.668800
21
-10.383500
0
LINE
8
Livello 1
10
36.668800
20
-10.383500
11
36.668800
21
-10.605200
0
LINE
8
Livello 1
10
38.744100
20
-9.994120
11
38.421800
21
-9.994120
0
LINE
8
Livello 1
10
38.421800
20
-9.994120
11
38.421800
21
-10.605200
0
LINE
8
Livello 1
10
38.421800
20
-10.605200
11
38.141800
21
-10.605200
0
LINE
8
Livello 1
10
38.141800
20
-10.605200
11
38.141800
21
-9.994120
0
LINE
8
Livello 1
10
38.141800
20
-9.994120
11
37.102000
21
-9.994120
0
LINE
8
Livello 1
10
37.102000
20
-9.994120
11
37.102000
21
-9.658680
0
LINE
8
Livello 1
10
37.102000
20
-9.658680
11
38.153520
21
-8.433610
0
LINE
8
Livello 1
10
38.153520
20
-8.433610
11
38.421800
21
-8.433610
0
LINE
8
Livello 1
10
38.421800
20
-8.433610
11
38.421800
21
-9.760770
0
LINE
8
Livello 1
10
38.421800
20
-9.760770
11
38.744100
21
-9.760770
0
LINE
8
Livello 1
10
38.744100
20
-9.760770
11
38.744100
21
-9.994120
0
LINE
8
Livello 1
10
38.141773
20
-9.760773
11
38.141800
21
-8.780710
0
LINE
8
Livello 1
10
38.141800
20
-8.780710
11
37.300293
21
-9.760768
0
LINE
8
Livello 1
10
37.300293
20
-9.760768
11
38.141773
21
-9.760773
0
LINE
8
Livello 1
10
41.134400
20
-1.003070
11
44.752700
21
-1.003070
0
LINE
8
Livello 1
10
44.752700
20
-1.003070
11
45.122639
21
-1.077390
0
LINE
8
Livello 1
10
45.122639
20
-1.077390
11
45.424098
21
-1.280310
0
LINE
8
Livello 1
10
45.424098
20
-1.280310
11
45.627018
21
-1.581769
0
LINE
8
Livello 1
10
45.627018
20
-1.581769
11
45.701338
21
-1.951708
0
LINE
8
Livello 1
10
45.701338
20
-1.951708
11
45.701400
21
-5.570060
0
LINE
8
Livello 1
10
45.701400
20
-5.570060
11
45.627080
21
-5.939999
0
LINE
8
Livello 1
10
45.627080
20
-5.939999
11
45.424160
21
-6.241458
0
LINE
8
Livello 1
10
45.424160
20
-6.241458
11
45.122701
21
-6.444378
0
LINE
8
Livello 1
10
45.122701
20
-6.444378
11
44.752762
21
-6.518698
0
LINE
8
Livello 1
10
44.752762
20
-6.518698
11
41.134400
21
-6.518700
0
LINE
8
Livello 1
10
41.134400
20
-6.518700
11
40.764461
21
-6.444380
0
LINE
8
Livello 1
10
40.764461
20
-6.444380
11
40.463002
21
-6.241460
0
LINE
8
Livello 1
10
40.463002
20
-6.241460
11
40.260082
21
-5.940001
0
LINE
8
Livello 1
10
40.260082
20
-5.940001
11
40.185762
21
-5.570062
0
LINE
8
Livello 1
10
40.185762
20
-5.570062
11
40.185700
21
-1.951700
0
LINE
8
Livello 1
10
40.185700
20
-1.951700
11
40.260020
21
-1.581761
0
LINE
8
Livello 1
10
40.260020
20
-1.581761
11
40.462940
21
-1.280302
0
LINE
8
Livello 1
10
40.462940
20
-1.280302
11
40.764399
21
-1.077382
0
LINE
8
Livello 1
10
40.764399
20
-1.077382
11
41.134338
21
-1.003062
0
LINE
8
Livello 1
10
41.134338
20
-1.003062
11
41.134400
21
-1.003070
0
LINE
8
Livello 1
10
41.134400
20
-6.829840
11
44.752700
21
-6.829840
0
LINE
8
Livello 1
10
44.752700
20
-6.829840
11
45.122639
21
-6.904160
0
LINE
8
Livello 1
10
45.122639
20
-6.904160
11
45.424098
21
-7.107080
0
LINE
8
Livello 1
10
45.424098
20
-7.107080
11
45.627018
21
-7.408539
0
LINE
8
Livello 1
10
45.627018
20
-7.408539
11
45.701338
21
-7.778478
0
LINE
8
Livello 1
10
45.701338
20
-7.778478
11
45.701400
21
-11.396800
0
LINE
8
Livello 1
10
45.701400
20
-11.396800
11
45.627080
21
-11.766739
0
LINE
8
Livello 1
10
45.627080
20
-11.766739
11
45.424160
21
-12.068198
0
LINE
8
Livello 1
10
45.424160
20
-12.068198
11
45.122701
21
-12.271118
0
LINE
8
Livello 1
10
45.122701
20
-12.271118
11
44.752762
21
-12.345438
0
LINE
8
Livello 1
10
44.752762
20
-12.345438
11
41.134400
21
-12.345500
0
LINE
8
Livello 1
10
41.134400
20
-12.345500
11
40.764461
21
-12.271180
0
LINE
8
Livello 1
10
40.764461
20
-12.271180
11
40.463002
21
-12.068260
0
LINE
8
Livello 1
10
40.463002
20
-12.068260
11
40.260082
21
-11.766801
0
LINE
8
Livello 1
10
40.260082
20
-11.766801
11
40.185762
21
-11.396862
0
LINE
8
Livello 1
10
40.185762
20
-11.396862
11
40.185700
21
-7.778480
0
LINE
8
Livello 1
10
40.185700
20
-7.778480
11
40.260020
21
-7.408541
0
LINE
8
Livello 1
10
40.260020
20
-7.408541
11
40.462940
21
-7.107082
0
LINE
8
Livello 1
10
40.462940
20
-7.107082
11
40.764399
21
-6.904162
0
LINE
8
Livello 1
10
40.764399
20
-6.904162
11
41.134338
21
-6.829842
0
LINE
8
Livello 1
10
41.134338
20
-6.829842
11
41.134400
21
-6.829840
0
LINE
8
Livello 1
10
42.527200
20
-4.850320
11
41.351700
21
-4.850320
0
LINE
8
Livello 1
10
41.351700
20
-4.850320
11
41.351700
21
-4.628640
0
LINE
8
Livello 1
10
41.351700
20
-4.628640
11
41.803800
21
-4.628640
0
LINE
8
Livello 1
10
41.803800
20
-4.628640
11
41.803800
21
-3.173140
0
LINE
8
Livello 1
10
41.803800
20
-3.173140
11
41.351700
21
-3.173140
0
LINE
8
Livello 1
10
41.351700
20
-3.173140
11
41.351700
21
-2.974800
0
LINE
8
Livello 1
10
41.351700
20
-2.974800
11
41.548584
21
-2.960209
0
LINE
8
Livello 1
10
41.548584
20
-2.960209
11
41.707554
21
-2.914997
0
LINE
8
Livello 1
10
41.707554
20
-2.914997
11
41.812560
21
-2.823117
0
LINE
8
Livello 1
10
41.812560
20
-2.823117
11
41.857769
21
-2.671442
0
LINE
8
Livello 1
10
41.857769
20
-2.671442
11
42.083800
21
-2.671440
0
LINE
8
Livello 1
10
42.083800
20
-2.671440
11
42.083800
21
-4.628640
0
LINE
8
Livello 1
10
42.083800
20
-4.628640
11
42.527200
21
-4.628640
0
LINE
8
Livello 1
10
42.527200
20
-4.628640
11
42.527200
21
-4.850320
0
LINE
8
Livello 1
10
44.535400
20
-4.160490
11
44.479980
21
-4.450716
0
LINE
8
Livello 1
10
44.479980
20
-4.450716
11
44.328305
21
-4.684063
0
LINE
8
Livello 1
10
44.328305
20
-4.684063
11
44.077458
21
-4.841571
0
LINE
8
Livello 1
10
44.077458
20
-4.841571
11
43.742023
21
-4.895532
0
LINE
8
Livello 1
10
43.742023
20
-4.895532
11
43.399293
21
-4.857612
0
LINE
8
Livello 1
10
43.399293
20
-4.857612
11
43.120737
21
-4.768650
0
LINE
8
Livello 1
10
43.120737
20
-4.768650
11
43.120700
21
-4.460930
0
LINE
8
Livello 1
10
43.120700
20
-4.460930
11
43.141100
21
-4.460930
0
LINE
8
Livello 1
10
43.141100
20
-4.460930
11
43.421118
21
-4.590730
0
LINE
8
Livello 1
10
43.421118
20
-4.590730
11
43.736137
21
-4.643232
0
LINE
8
Livello 1
10
43.736137
20
-4.643232
11
43.935939
21
-4.614064
0
LINE
8
Livello 1
10
43.935939
20
-4.614064
11
44.109491
21
-4.511976
0
LINE
8
Livello 1
10
44.109491
20
-4.511976
11
44.205746
21
-4.361758
0
LINE
8
Livello 1
10
44.205746
20
-4.361758
11
44.239291
21
-4.159038
0
LINE
8
Livello 1
10
44.239291
20
-4.159038
11
44.199912
21
-3.969444
0
LINE
8
Livello 1
10
44.199912
20
-3.969444
11
44.093447
21
-3.845478
0
LINE
8
Livello 1
10
44.093447
20
-3.845478
11
43.908230
21
-3.768183
0
LINE
8
Livello 1
10
43.908230
20
-3.768183
11
43.666132
21
-3.744843
0
LINE
8
Livello 1
10
43.666132
20
-3.744843
11
43.418200
21
-3.762341
0
LINE
8
Livello 1
10
43.418200
20
-3.762341
11
43.214021
21
-3.797342
0
LINE
8
Livello 1
10
43.214021
20
-3.797342
11
43.214100
21
-2.678730
0
LINE
8
Livello 1
10
43.214100
20
-2.678730
11
44.520800
21
-2.678730
0
LINE
8
Livello 1
10
44.520800
20
-2.678730
11
44.520800
21
-2.933950
0
LINE
8
Livello 1
10
44.520800
20
-2.933950
11
43.495500
21
-2.933950
0
LINE
8
Livello 1
10
43.495500
20
-2.933950
11
43.495500
21
-3.511490
0
LINE
8
Livello 1
10
43.495500
20
-3.511490
11
43.623840
21
-3.502741
0
LINE
8
Livello 1
10
43.623840
20
-3.502741
11
43.737595
21
-3.499834
0
LINE
8
Livello 1
10
43.737595
20
-3.499834
11
44.046780
21
-3.530461
0
LINE
8
Livello 1
10
44.046780
20
-3.530461
11
44.290335
21
-3.635467
0
LINE
8
Livello 1
10
44.290335
20
-3.635467
11
44.471180
21
-3.842562
0
LINE
8
Livello 1
10
44.471180
20
-3.842562
11
44.535349
21
-4.160499
0
LINE
8
Livello 1
10
44.535349
20
-4.160499
11
44.535400
21
-4.160490
0
LINE
8
Livello 1
10
42.527200
20
-10.673400
11
41.351700
21
-10.673400
0
LINE
8
Livello 1
10
41.351700
20
-10.673400
11
41.351700
21
-10.451800
0
LINE
8
Livello 1
10
41.351700
20
-10.451800
11
41.803800
21
-10.451800
0
LINE
8
Livello 1
10
41.803800
20
-10.451800
11
41.803800
21
-8.996270
0
LINE
8
Livello 1
10
41.803800
20
-8.996270
11
41.351700
21
-8.996270
0
LINE
8
Livello 1
10
41.351700
20
-8.996270
11
41.351700
21
-8.797920
0
LINE
8
Livello 1
10
41.351700
20
-8.797920
11
41.548584
21
-8.783329
0
LINE
8
Livello 1
10
41.548584
20
-8.783329
11
41.707554
21
-8.738120
0
LINE
8
Livello 1
10
41.707554
20
-8.738120
11
41.812560
21
-8.646240
0
LINE
8
Livello 1
10
41.812560
20
-8.646240
11
41.857769
21
-8.494563
0
LINE
8
Livello 1
10
41.857769
20
-8.494563
11
42.083800
21
-8.494560
0
LINE
8
Livello 1
10
42.083800
20
-8.494560
11
42.083800
21
-10.451800
0
LINE
8
Livello 1
10
42.083800
20
-10.451800
11
42.527200
21
-10.451800
0
LINE
8
Livello 1
10
42.527200
20
-10.451800
11
42.527200
21
-10.673400
0
LINE
8
Livello 1
10
44.535400
20
-9.983610
11
44.479980
21
-10.273836
0
LINE
8
Livello 1
10
44.479980
20
-10.273836
11
44.328305
21
-10.507183
0
LINE
8
Livello 1
10
44.328305
20
-10.507183
11
44.077458
21
-10.664691
0
LINE
8
Livello 1
10
44.077458
20
-10.664691
11
43.742023
21
-10.718652
0
LINE
8
Livello 1
10
43.742023
20
-10.718652
11
43.399293
21
-10.680735
0
LINE
8
Livello 1
10
43.399293
20
-10.680735
11
43.120737
21
-10.591771
0
LINE
8
Livello 1
10
43.120737
20
-10.591771
11
43.120700
21
-10.284000
0
LINE
8
Livello 1
10
43.120700
20
-10.284000
11
43.141100
21
-10.284000
0
LINE
8
Livello 1
10
43.141100
20
-10.284000
11
43.421118
21
-10.413800
0
LINE
8
Livello 1
10
43.421118
20
-10.413800
11
43.736137
21
-10.466302
0
LINE
8
Livello 1
10
43.736137
20
-10.466302
11
43.935939
21
-10.437134
0
LINE
8
Livello 1
10
43.935939
20
-10.437134
11
44.109491
21
-10.335046
0
LINE
8
Livello 1
10
44.109491
20
-10.335046
11
44.205746
21
-10.184828
0
LINE
8
Livello 1
10
44.205746
20
-10.184828
11
44.239291
21
-9.982108
0
LINE
8
Livello 1
10
44.239291
20
-9.982108
11
44.199912
21
-9.792514
0
LINE
8
Livello 1
10
44.199912
20
-9.792514
11
44.093447
21
-9.668548
0
LINE
8
Livello 1
10
44.093447
20
-9.668548
11
43.908230
21
-9.591253
0
LINE
8
Livello 1
10
43.908230
20
-9.591253
11
43.666132
21
-9.567913
0
LINE
8
Livello 1
10
43.666132
20
-9.567913
11
43.418200
21
-9.585411
0
LINE
8
Livello 1
10
43.418200
20
-9.585411
11
43.214021
21
-9.620412
0
LINE
8
Livello 1
10
43.214021
20
-9.620412
11
43.214100
21
-8.501850
0
LINE
8
Livello 1
10
43.214100
20
-8.501850
11
44.520800
21
-8.501850
0
LINE
8
Livello 1
10
44.520800
20
-8.501850
11
44.520800
21
-8.757080
0
LINE
8
Livello 1
10
44.520800
20
-8.757080
11
43.495500
21
-8.757080
0
LINE
8
Livello 1
10
43.495500
20
-8.757080
11
43.495500
21
-9.334610
0
LINE
8
Livello 1
10
43.495500
20
-9.334610
11
43.623840
21
-9.325861
0
LINE
8
Livello 1
10
43.623840
20
-9.325861
11
43.737595
21
-9.322954
0
LINE
8
Livello 1
10
43.737595
20
-9.322954
11
44.046780
21
-9.353581
0
LINE
8
Livello 1
10
44.046780
20
-9.353581
11
44.290335
21
-9.458585
0
LINE
8
Livello 1
10
44.290335
20
-9.458585
11
44.471180
21
-9.665682
0
LINE
8
Livello 1
10
44.471180
20
-9.665682
11
44.535349
21
-9.983616
0
LINE
8
Livello 1
10
44.535349
20
-9.983616
11
44.535400
21
-9.983610
0
LINE
8
Livello 1
10
46.958300
20
-0.934810
11
50.576600
21
-0.934810
0
LINE
8
Livello 1
10
50.576600
20
-0.934810
11
50.946539
21
-1.009130
0
LINE
8
Livello 1
10
50.946539
20
-1.009130
11
51.247998
21
-1.212050
0
LINE
8
Livello 1
10
51.247998
20
-1.212050
11
51.450918
21
-1.513509
0
LINE
8
Livello 1
10
51.450918
20
-1.513509
11
51.525238
21
-1.883448
0
LINE
8
Livello 1
10
51.525238
20
-1.883448
11
51.525300
21
-5.501810
0
LINE
8
Livello 1
10
51.525300
20
-5.501810
11
51.450980
21
-5.871749
0
LINE
8
Livello 1
10
51.450980
20
-5.871749
11
51.248060
21
-6.173208
0
LINE
8
Livello 1
10
51.248060
20
-6.173208
11
50.946601
21
-6.376128
0
LINE
8
Livello 1
10
50.946601
20
-6.376128
11
50.576662
21
-6.450448
0
LINE
8
Livello 1
10
50.576662
20
-6.450448
11
46.958300
21
-6.450450
0
LINE
8
Livello 1
10
46.958300
20
-6.450450
11
46.588361
21
-6.376130
0
LINE
8
Livello 1
10
46.588361
20
-6.376130
11
46.286902
21
-6.173210
0
LINE
8
Livello 1
10
46.286902
20
-6.173210
11
46.083982
21
-5.871751
0
LINE
8
Livello 1
10
46.083982
20
-5.871751
11
46.009662
21
-5.501812
0
LINE
8
Livello 1
10
46.009662
20
-5.501812
11
46.009600
21
-1.883450
0
LINE
8
Livello 1
10
46.009600
20
-1.883450
11
46.083920
21
-1.513511
0
LINE
8
Livello 1
10
46.083920
20
-1.513511
11
46.286840
21
-1.212052
0
LINE
8
Livello 1
10
46.286840
20
-1.212052
11
46.588299
21
-1.009132
0
LINE
8
Livello 1
10
46.588299
20
-1.009132
11
46.958238
21
-0.934812
0
LINE
8
Livello 1
10
46.958238
20
-0.934812
11
46.958300
21
-0.934810
0
LINE
8
Livello 1
10
46.958300
20
-6.761580
11
50.576600
21
-6.761580
0
LINE
8
Livello 1
10
50.576600
20
-6.761580
11
50.946539
21
-6.835900
0
LINE
8
Livello 1
10
50.946539
20
-6.835900
11
51.247998
21
-7.038820
0
LINE
8
Livello 1
10
51.247998
20
-7.038820
11
51.450918
21
-7.340279
0
LINE
8
Livello 1
10
51.450918
20
-7.340279
11
51.525238
21
-7.710218
0
LINE
8
Livello 1
10
51.525238
20
-7.710218
11
51.525300
21
-11.328600
0
LINE
8
Livello 1
10
51.525300
20
-11.328600
11
51.450980
21
-11.698539
0
LINE
8
Livello 1
10
51.450980
20
-11.698539
11
51.248060
21
-11.999998
0
LINE
8
Livello 1
10
51.248060
20
-11.999998
11
50.946601
21
-12.202918
0
LINE
8
Livello 1
10
50.946601
20
-12.202918
11
50.576662
21
-12.277238
0
LINE
8
Livello 1
10
50.576662
20
-12.277238
11
46.958300
21
-12.277200
0
LINE
8
Livello 1
10
46.958300
20
-12.277200
11
46.588361
21
-12.202880
0
LINE
8
Livello 1
10
46.588361
20
-12.202880
11
46.286902
21
-11.999960
0
LINE
8
Livello 1
10
46.286902
20
-11.999960
11
46.083982
21
-11.698501
0
LINE
8
Livello 1
10
46.083982
20
-11.698501
11
46.009662
21
-11.328562
0
LINE
8
Livello 1
10
46.009662
20
-11.328562
11
46.009600
21
-7.710220
0
LINE
8
Livello 1
10
46.009600
20
-7.710220
11
46.083920
21
-7.340281
0
LINE
8
Livello 1
10
46.083920
20
-7.340281
11
46.286840
21
-7.038822
0
LINE
8
Livello 1
10
46.286840
20
-7.038822
11
46.588299
21
-6.835902
0
LINE
8
Livello 1
10
46.588299
20
-6.835902
11
46.958238
21
-6.761582
0
LINE
8
Livello 1
10
46.958238
20
-6.761582
11
46.958300
21
-6.761580
0
LINE
8
Livello 1
10
48.326300
20
-4.782070
11
47.150800
21
-4.782070
0
LINE
8
Livello 1
10
47.150800
20
-4.782070
11
47.150800
21
-4.560390
0
LINE
8
Livello 1
10
47.150800
20
-4.560390
11
47.602900
21
-4.560390
0
LINE
8
Livello 1
10
47.602900
20
-4.560390
11
47.602900
21
-3.104890
0
LINE
8
Livello 1
10
47.602900
20
-3.104890
11
47.150800
21
-3.104890
0
LINE
8
Livello 1
10
47.150800
20
-3.104890
11
47.150800
21
-2.906550
0
LINE
8
Livello 1
10
47.150800
20
-2.906550
11
47.347687
21
-2.891959
0
LINE
8
Livello 1
10
47.347687
20
-2.891959
11
47.506657
21
-2.846750
0
LINE
8
Livello 1
10
47.506657
20
-2.846750
11
47.611661
21
-2.754870
0
LINE
8
Livello 1
10
47.611661
20
-2.754870
11
47.656873
21
-2.603193
0
LINE
8
Livello 1
10
47.656873
20
-2.603193
11
47.882900
21
-2.603190
0
LINE
8
Livello 1
10
47.882900
20
-2.603190
11
47.882900
21
-4.560390
0
LINE
8
Livello 1
10
47.882900
20
-4.560390
11
48.326300
21
-4.560390
0
LINE
8
Livello 1
10
48.326300
20
-4.560390
11
48.326300
21
-4.782070
0
LINE
8
Livello 1
10
50.384100
20
-4.077650
11
50.165338
21
-4.618723
0
LINE
8
Livello 1
10
50.165338
20
-4.618723
11
49.631557
21
-4.827277
0
LINE
8
Livello 1
10
49.631557
20
-4.827277
11
49.339872
21
-4.777693
0
LINE
8
Livello 1
10
49.339872
20
-4.777693
11
49.107984
21
-4.630393
0
LINE
8
Livello 1
10
49.107984
20
-4.630393
11
48.914016
21
-4.309540
0
LINE
8
Livello 1
10
48.914016
20
-4.309540
11
48.846926
21
-3.828261
0
LINE
8
Livello 1
10
48.846926
20
-3.828261
11
48.908183
21
-3.316355
0
LINE
8
Livello 1
10
48.908183
20
-3.316355
11
49.106526
21
-2.919667
0
LINE
8
Livello 1
10
49.106526
20
-2.919667
11
49.437587
21
-2.662986
0
LINE
8
Livello 1
10
49.437587
20
-2.662986
11
49.910114
21
-2.569647
0
LINE
8
Livello 1
10
49.910114
20
-2.569647
11
50.054499
21
-2.576928
0
LINE
8
Livello 1
10
50.054499
20
-2.576928
11
50.172631
21
-2.603175
0
LINE
8
Livello 1
10
50.172631
20
-2.603175
11
50.172600
21
-2.881740
0
LINE
8
Livello 1
10
50.172600
20
-2.881740
11
50.158000
21
-2.881740
0
LINE
8
Livello 1
10
50.158000
20
-2.881740
11
50.034034
21
-2.840905
0
LINE
8
Livello 1
10
50.034034
20
-2.840905
11
49.866318
21
-2.820472
0
LINE
8
Livello 1
10
49.866318
20
-2.820472
11
49.366080
21
-3.017359
0
LINE
8
Livello 1
10
49.366080
20
-3.017359
11
49.148775
21
-3.546765
0
LINE
8
Livello 1
10
49.148775
20
-3.546765
11
49.389414
21
-3.434466
0
LINE
8
Livello 1
10
49.389414
20
-3.434466
11
49.665055
21
-3.395091
0
LINE
8
Livello 1
10
49.665055
20
-3.395091
11
49.908613
21
-3.421337
0
LINE
8
Livello 1
10
49.908613
20
-3.421337
11
50.125915
21
-3.523428
0
LINE
8
Livello 1
10
50.125915
20
-3.523428
11
50.318427
21
-3.748023
0
LINE
8
Livello 1
10
50.318427
20
-3.748023
11
50.384055
21
-4.077624
0
LINE
8
Livello 1
10
50.384055
20
-4.077624
11
50.384100
21
-4.077650
0
LINE
8
Livello 1
10
50.088043
20
-4.089306
11
50.047205
21
-3.864708
0
LINE
8
Livello 1
10
50.047205
20
-3.864708
11
49.915949
21
-3.710115
0
LINE
8
Livello 1
10
49.915949
20
-3.710115
11
49.767190
21
-3.648861
0
LINE
8
Livello 1
10
49.767190
20
-3.648861
11
49.596553
21
-3.634270
0
LINE
8
Livello 1
10
49.596553
20
-3.634270
11
49.366124
21
-3.663438
0
LINE
8
Livello 1
10
49.366124
20
-3.663438
11
49.147362
21
-3.753859
0
LINE
8
Livello 1
10
49.147362
20
-3.753859
11
49.142988
21
-3.816572
0
LINE
8
Livello 1
10
49.142988
20
-3.816572
11
49.141577
21
-3.890951
0
LINE
8
Livello 1
10
49.141577
20
-3.890951
11
49.188245
21
-4.255556
0
LINE
8
Livello 1
10
49.188245
20
-4.255556
11
49.319504
21
-4.465566
0
LINE
8
Livello 1
10
49.319504
20
-4.465566
11
49.463886
21
-4.560365
0
LINE
8
Livello 1
10
49.463886
20
-4.560365
11
49.634520
21
-4.589532
0
LINE
8
Livello 1
10
49.634520
20
-4.589532
11
49.967040
21
-4.461192
0
LINE
8
Livello 1
10
49.967040
20
-4.461192
11
50.088091
21
-4.089297
0
LINE
8
Livello 1
10
50.088091
20
-4.089297
11
50.088043
21
-4.089306
0
LINE
8
Livello 1
10
48.326300
20
-10.605200
11
47.150800
21
-10.605200
0
LINE
8
Livello 1
10
47.150800
20
-10.605200
11
47.150800
21
-10.383500
0
LINE
8
Livello 1
10
47.150800
20
-10.383500
11
47.602900
21
-10.383500
0
LINE
8
Livello 1
10
47.602900
20
-10.383500
11
47.602900
21
-8.928010
0
LINE
8
Livello 1
10
47.602900
20
-8.928010
11
47.150800
21
-8.928010
0
LINE
8
Livello 1
10
47.150800
20
-8.928010
11
47.150800
21
-8.729670
0
LINE
8
Livello 1
10
47.150800
20
-8.729670
11
47.347687
21
-8.715079
0
LINE
8
Livello 1
10
47.347687
20
-8.715079
11
47.506657
21
-8.669867
0
LINE
8
Livello 1
10
47.506657
20
-8.669867
11
47.611661
21
-8.577987
0
LINE
8
Livello 1
10
47.611661
20
-8.577987
11
47.656873
21
-8.426312
0
LINE
8
Livello 1
10
47.656873
20
-8.426312
11
47.882900
21
-8.426310
0
LINE
8
Livello 1
10
47.882900
20
-8.426310
11
47.882900
21
-10.383500
0
LINE
8
Livello 1
10
47.882900
20
-10.383500
11
48.326300
21
-10.383500
0
LINE
8
Livello 1
10
48.326300
20
-10.383500
11
48.326300
21
-10.605200
0
LINE
8
Livello 1
10
50.384100
20
-9.900780
11
50.165338
21
-10.441853
0
LINE
8
Livello 1
10
50.165338
20
-10.441853
11
49.631557
21
-10.650407
0
LINE
8
Livello 1
10
49.631557
20
-10.650407
11
49.339872
21
-10.600821
0
LINE
8
Livello 1
10
49.339872
20
-10.600821
11
49.107984
21
-10.453521
0
LINE
8
Livello 1
10
49.107984
20
-10.453521
11
48.914016
21
-10.132668
0
LINE
8
Livello 1
10
48.914016
20
-10.132668
11
48.846926
21
-9.651389
0
LINE
8
Livello 1
10
48.846926
20
-9.651389
11
48.908183
21
-9.139486
0
LINE
8
Livello 1
10
48.908183
20
-9.139486
11
49.106526
21
-8.742795
0
LINE
8
Livello 1
10
49.106526
20
-8.742795
11
49.437587
21
-8.486114
0
LINE
8
Livello 1
10
49.437587
20
-8.486114
11
49.910114
21
-8.392774
0
LINE
8
Livello 1
10
49.910114
20
-8.392774
11
50.054499
21
-8.400056
0
LINE
8
Livello 1
10
50.054499
20
-8.400056
11
50.172631
21
-8.426302
0
LINE
8
Livello 1
10
50.172631
20
-8.426302
11
50.172600
21
-8.704860
0
LINE
8
Livello 1
10
50.172600
20
-8.704860
11
50.158000
21
-8.704860
0
LINE
8
Livello 1
10
50.158000
20
-8.704860
11
50.034034
21
-8.664025
0
LINE
8
Livello 1
10
50.034034
20
-8.664025
11
49.866318
21
-8.643592
0
LINE
8
Livello 1
10
49.866318
20
-8.643592
11
49.366080
21
-8.840479
0
LINE
8
Livello 1
10
49.366080
20
-8.840479
11
49.148775
21
-9.369885
0
LINE
8
Livello 1
10
49.148775
20
-9.369885
11
49.389414
21
-9.257586
0
LINE
8
Livello 1
10
49.389414
20
-9.257586
11
49.665055
21
-9.218211
0
LINE
8
Livello 1
10
49.665055
20
-9.218211
11
49.908613
21
-9.244457
0
LINE
8
Livello 1
10
49.908613
20
-9.244457
11
50.125915
21
-9.346545
0
LINE
8
Livello 1
10
50.125915
20
-9.346545
11
50.318427
21
-9.571140
0
LINE
8
Livello 1
10
50.318427
20
-9.571140
11
50.384055
21
-9.900744
0
LINE
8
Livello 1
10
50.384055
20
-9.900744
11
50.384100
21
-9.900780
0
LINE
8
Livello 1
10
50.088043
20
-9.912436
11
50.047205
21
-9.687838
0
LINE
8
Livello 1
10
50.047205
20
-9.687838
11
49.915949
21
-9.533248
0
LINE
8
Livello 1
10
49.915949
20
-9.533248
11
49.767190
21
-9.471994
0
LINE
8
Livello 1
10
49.767190
20
-9.471994
11
49.596553
21
-9.457403
0
LINE
8
Livello 1
10
49.596553
20
-9.457403
11
49.366124
21
-9.486571
0
LINE
8
Livello 1
10
49.366124
20
-9.486571
11
49.147362
21
-9.576992
0
LINE
8
Livello 1
10
49.147362
20
-9.576992
11
49.142988
21
-9.639705
0
LINE
8
Livello 1
10
49.142988
20
-9.639705
11
49.141577
21
-9.714084
0
LINE
8
Livello 1
10
49.141577
20
-9.714084
11
49.188245
21
-10.078689
0
LINE
8
Livello 1
10
49.188245
20
-10.078689
11
49.319504
21
-10.288702
0
LINE
8
Livello 1
10
49.319504
20
-10.288702
11
49.463886
21
-10.383498
0
LINE
8
Livello 1
10
49.463886
20
-10.383498
11
49.634520
21
-10.412665
0
LINE
8
Livello 1
10
49.634520
20
-10.412665
11
49.967040
21
-10.284325
0
LINE
8
Livello 1
10
49.967040
20
-10.284325
11
50.088091
21
-9.912430
0
LINE
8
Livello 1
10
50.088091
20
-9.912430
11
50.088043
21
-9.912436
0
LINE
8
Livello 1
10
52.783100
20
-1.003070
11
56.401400
21
-1.003070
0
LINE
8
Livello 1
10
56.401400
20
-1.003070
11
56.771339
21
-1.077390
0
LINE
8
Livello 1
10
56.771339
20
-1.077390
11
57.072798
21
-1.280310
0
LINE
8
Livello 1
10
57.072798
20
-1.280310
11
57.275718
21
-1.581769
0
LINE
8
Livello 1
10
57.275718
20
-1.581769
11
57.350038
21
-1.951708
0
LINE
8
Livello 1
10
57.350038
20
-1.951708
11
57.350100
21
-5.570060
0
LINE
8
Livello 1
10
57.350100
20
-5.570060
11
57.275780
21
-5.939999
0
LINE
8
Livello 1
10
57.275780
20
-5.939999
11
57.072860
21
-6.241458
0
LINE
8
Livello 1
10
57.072860
20
-6.241458
11
56.771401
21
-6.444378
0
LINE
8
Livello 1
10
56.771401
20
-6.444378
11
56.401462
21
-6.518698
0
LINE
8
Livello 1
10
56.401462
20
-6.518698
11
52.783100
21
-6.518700
0
LINE
8
Livello 1
10
52.783100
20
-6.518700
11
52.413161
21
-6.444380
0
LINE
8
Livello 1
10
52.413161
20
-6.444380
11
52.111702
21
-6.241460
0
LINE
8
Livello 1
10
52.111702
20
-6.241460
11
51.908782
21
-5.940001
0
LINE
8
Livello 1
10
51.908782
20
-5.940001
11
51.834462
21
-5.570062
0
LINE
8
Livello 1
10
51.834462
20
-5.570062
11
51.834400
21
-1.951700
0
LINE
8
Livello 1
10
51.834400
20
-1.951700
11
51.908720
21
-1.581761
0
LINE
8
Livello 1
10
51.908720
20
-1.581761
11
52.111640
21
-1.280302
0
LINE
8
Livello 1
10
52.111640
20
-1.280302
11
52.413099
21
-1.077382
0
LINE
8
Livello 1
10
52.413099
20
-1.077382
11
52.783038
21
-1.003062
0
LINE
8
Livello 1
10
52.783038
20
-1.003062
11
52.783100
21
-1.003070
0
LINE
8
Livello 1
10
52.783100
20
-6.829840
11
56.401400
21
-6.829840
0
LINE
8
Livello 1
10
56.401400
20
-6.829840
11
56.771339
21
-6.904160
0
LINE
8
Livello 1
10
56.771339
20
-6.904160
11
57.072798
21
-7.107080
0
LINE
8
Livello 1
10
57.072798
20
-7.107080
11
57.275718
21
-7.408539
0
LINE
8
Livello 1
10
57.275718
20
-7.408539
11
57.350038
21
-7.778478
0
LINE
8
Livello 1
10
57.350038
20
-7.778478
11
57.350100
21
-11.396800
0
LINE
8
Livello 1
10
57.350100
20
-11.396800
11
57.275780
21
-11.766739
0
LINE
8
Livello 1
10
57.275780
20
-11.766739
11
57.072860
21
-12.068198
0
LINE
8
Livello 1
10
57.072860
20
-12.068198
11
56.771401
21
-12.271118
0
LINE
8
Livello 1
10
56.771401
20
-12.271118
11
56.401462
21
-12.345438
0
LINE
8
Livello 1
10
56.401462
20
-12.345438
11
52.783100
21
-12.345500
0
LINE
8
Livello 1
10
52.783100
20
-12.345500
11
52.413161
21
-12.271180
0
LINE
8
Livello 1
10
52.413161
20
-12.271180
11
52.111702
21
-12.068260
0
LINE
8
Livello 1
10
52.111702
20
-12.068260
11
51.908782
21
-11.766801
0
LINE
8
Livello 1
10
51.908782
20
-11.766801
11
51.834462
21
-11.396862
0
LINE
8
Livello 1
10
51.834462
20
-11.396862
11
51.834400
21
-7.778480
0
LINE
8
Livello 1
10
51.834400
20
-7.778480
11
51.908720
21
-7.408541
0
LINE
8
Livello 1
10
51.908720
20
-7.408541
11
52.111640
21
-7.107082
0
LINE
8
Livello 1
10
52.111640
20
-7.107082
11
52.413099
21
-6.904162
0
LINE
8
Livello 1
10
52.413099
20
-6.904162
11
52.783038
21
-6.829842
0
LINE
8
Livello 1
10
52.783038
20
-6.829842
11
52.783100
21
-6.829840
0
LINE
8
Livello 1
10
54.164200
20
-4.850320
11
52.988700
21
-4.850320
0
LINE
8
Livello 1
10
52.988700
20
-4.850320
11
52.988700
21
-4.628640
0
LINE
8
Livello 1
10
52.988700
20
-4.628640
11
53.440800
21
-4.628640
0
LINE
8
Livello 1
10
53.440800
20
-4.628640
11
53.440800
21
-3.173140
0
LINE
8
Livello 1
10
53.440800
20
-3.173140
11
52.988700
21
-3.173140
0
LINE
8
Livello 1
10
52.988700
20
-3.173140
11
52.988700
21
-2.974800
0
LINE
8
Livello 1
10
52.988700
20
-2.974800
11
53.185587
21
-2.960209
0
LINE
8
Livello 1
10
53.185587
20
-2.960209
11
53.344554
21
-2.914997
0
LINE
8
Livello 1
10
53.344554
20
-2.914997
11
53.449560
21
-2.823117
0
LINE
8
Livello 1
10
53.449560
20
-2.823117
11
53.494769
21
-2.671442
0
LINE
8
Livello 1
10
53.494769
20
-2.671442
11
53.720900
21
-2.671440
0
LINE
8
Livello 1
10
53.720900
20
-2.671440
11
53.720900
21
-4.628640
0
LINE
8
Livello 1
10
53.720900
20
-4.628640
11
54.164200
21
-4.628640
0
LINE
8
Livello 1
10
54.164200
20
-4.628640
11
54.164200
21
-4.850320
0
LINE
8
Livello 1
10
56.195800
20
-3.003970
11
55.212826
21
-4.850330
0
LINE
8
Livello 1
10
55.212826
20
-4.850330
11
54.900700
21
-4.850320
0
LINE
8
Livello 1
10
54.900700
20
-4.850320
11
55.946390
21
-2.933960
0
LINE
8
Livello 1
10
55.946390
20
-2.933960
11
54.709700
21
-2.933960
0
LINE
8
Livello 1
10
54.709700
20
-2.933960
11
54.709700
21
-2.678740
0
LINE
8
Livello 1
10
54.709700
20
-2.678740
11
56.195800
21
-2.678740
0
LINE
8
Livello 1
10
56.195800
20
-2.678740
11
56.195800
21
-3.003970
0
LINE
8
Livello 1
10
54.164200
20
-10.673400
11
52.988700
21
-10.673400
0
LINE
8
Livello 1
10
52.988700
20
-10.673400
11
52.988700
21
-10.451800
0
LINE
8
Livello 1
10
52.988700
20
-10.451800
11
53.440800
21
-10.451800
0
LINE
8
Livello 1
10
53.440800
20
-10.451800
11
53.440800
21
-8.996270
0
LINE
8
Livello 1
10
53.440800
20
-8.996270
11
52.988700
21
-8.996270
0
LINE
8
Livello 1
10
52.988700
20
-8.996270
11
52.988700
21
-8.797920
0
LINE
8
Livello 1
10
52.988700
20
-8.797920
11
53.185587
21
-8.783329
0
LINE
8
Livello 1
10
53.185587
20
-8.783329
11
53.344554
21
-8.738120
0
LINE
8
Livello 1
10
53.344554
20
-8.738120
11
53.449560
21
-8.646240
0
LINE
8
Livello 1
10
53.449560
20
-8.646240
11
53.494769
21
-8.494563
0
LINE
8
Livello 1
10
53.494769
20
-8.494563
11
53.720900
21
-8.494560
0
LINE
8
Livello 1
10
53.720900
20
-8.494560
11
53.720900
21
-10.451800
0
LINE
8
Livello 1
10
53.720900
20
-10.451800
11
54.164200
21
-10.451800
0
LINE
8
Livello 1
10
54.164200
20
-10.451800
11
54.164200
21
-10.673400
0
LINE
8
Livello 1
10
56.195800
20
-8.827090
11
55.212826
21
-10.673450
0
LINE
8
Livello 1
10
55.212826
20
-10.673450
11
54.900700
21
-10.673400
0
LINE
8
Livello 1
10
54.900700
20
-10.673400
11
55.946390
21
-8.757040
0
LINE
8
Livello 1
10
55.946390
20
-8.757040
11
54.709700
21
-8.757090
0
LINE
8
Livello 1
10
54.709700
20
-8.757090
11
54.709700
21
-8.501860
0
LINE
8
Livello 1
10
54.709700
20
-8.501860
11
56.195800
21
-8.501860
0
LINE
8
Livello 1
10
56.195800
20
-8.501860
11
56.195800
21
-8.827090
0
LINE
8
Livello 1
10
58.607400
20
-1.003070
11
62.225800
21
-1.003070
0
LINE
8
Livello 1
10
62.225800
20
-1.003070
11
62.595739
21
-1.077390
0
LINE
8
Livello 1
10
62.595739
20
-1.077390
11
62.897198
21
-1.280310
0
LINE
8
Livello 1
10
62.897198
20
-1.280310
11
63.100118
21
-1.581769
0
LINE
8
Livello 1
10
63.100118
20
-1.581769
11
63.174438
21
-1.951708
0
LINE
8
Livello 1
10
63.174438
20
-1.951708
11
63.174400
21
-5.570060
0
LINE
8
Livello 1
10
63.174400
20
-5.570060
11
63.100080
21
-5.939999
0
LINE
8
Livello 1
10
63.100080
20
-5.939999
11
62.897160
21
-6.241458
0
LINE
8
Livello 1
10
62.897160
20
-6.241458
11
62.595701
21
-6.444378
0
LINE
8
Livello 1
10
62.595701
20
-6.444378
11
62.225762
21
-6.518698
0
LINE
8
Livello 1
10
62.225762
20
-6.518698
11
58.607400
21
-6.518700
0
LINE
8
Livello 1
10
58.607400
20
-6.518700
11
58.237461
21
-6.444380
0
LINE
8
Livello 1
10
58.237461
20
-6.444380
11
57.936002
21
-6.241460
0
LINE
8
Livello 1
10
57.936002
20
-6.241460
11
57.733082
21
-5.940001
0
LINE
8
Livello 1
10
57.733082
20
-5.940001
11
57.658762
21
-5.570062
0
LINE
8
Livello 1
10
57.658762
20
-5.570062
11
57.658800
21
-1.951700
0
LINE
8
Livello 1
10
57.658800
20
-1.951700
11
57.733120
21
-1.581761
0
LINE
8
Livello 1
10
57.733120
20
-1.581761
11
57.936040
21
-1.280302
0
LINE
8
Livello 1
10
57.936040
20
-1.280302
11
58.237499
21
-1.077382
0
LINE
8
Livello 1
10
58.237499
20
-1.077382
11
58.607438
21
-1.003062
0
LINE
8
Livello 1
10
58.607438
20
-1.003062
11
58.607400
21
-1.003070
0
LINE
8
Livello 1
10
58.607400
20
-6.829840
11
62.225800
21
-6.829840
0
LINE
8
Livello 1
10
62.225800
20
-6.829840
11
62.595739
21
-6.904160
0
LINE
8
Livello 1
10
62.595739
20
-6.904160
11
62.897198
21
-7.107080
0
LINE
8
Livello 1
10
62.897198
20
-7.107080
11
63.100118
21
-7.408539
0
LINE
8
Livello 1
10
63.100118
20
-7.408539
11
63.174438
21
-7.778478
0
LINE
8
Livello 1
10
63.174438
20
-7.778478
11
63.174400
21
-11.396800
0
LINE
8
Livello 1
10
63.174400
20
-11.396800
11
63.100080
21
-11.766739
0
LINE
8
Livello 1
10
63.100080
20
-11.766739
11
62.897160
21
-12.068198
0
LINE
8
Livello 1
10
62.897160
20
-12.068198
11
62.595701
21
-12.271118
0
LINE
8
Livello 1
10
62.595701
20
-12.271118
11
62.225762
21
-12.345438
0
LINE
8
Livello 1
10
62.225762
20
-12.345438
11
58.607400
21
-12.345500
0
LINE
8
Livello 1
10
58.607400
20
-12.345500
11
58.237461
21
-12.271180
0
LINE
8
Livello 1
10
58.237461
20
-12.271180
11
57.936002
21
-12.068260
0
LINE
8
Livello 1
10
57.936002
20
-12.068260
11
57.733082
21
-11.766801
0
LINE
8
Livello 1
10
57.733082
20
-11.766801
11
57.658762
21
-11.396862
0
LINE
8
Livello 1
10
57.658762
20
-11.396862
11
57.658800
21
-7.778480
0
LINE
8
Livello 1
10
57.658800
20
-7.778480
11
57.733120
21
-7.408541
0
LINE
8
Livello 1
10
57.733120
20
-7.408541
11
57.936040
21
-7.107082
0
LINE
8
Livello 1
10
57.936040
20
-7.107082
11
58.237499
21
-6.904162
0
LINE
8
Livello 1
10
58.237499
20
-6.904162
11
58.607438
21
-6.829842
0
LINE
8
Livello 1
10
58.607438
20
-6.829842
11
58.607400
21
-6.829840
0
LINE
8
Livello 1
10
59.983500
20
-4.850320
11
58.808000
21
-4.850320
0
LINE
8
Livello 1
10
58.808000
20
-4.850320
11
58.808000
21
-4.628640
0
LINE
8
Livello 1
10
58.808000
20
-4.628640
11
59.260100
21
-4.628640
0
LINE
8
Livello 1
10
59.260100
20
-4.628640
11
59.260100
21
-3.173140
0
LINE
8
Livello 1
10
59.260100
20
-3.173140
11
58.808000
21
-3.173140
0
LINE
8
Livello 1
10
58.808000
20
-3.173140
11
58.808000
21
-2.974800
0
LINE
8
Livello 1
10
58.808000
20
-2.974800
11
59.004887
21
-2.960209
0
LINE
8
Livello 1
10
59.004887
20
-2.960209
11
59.163854
21
-2.914997
0
LINE
8
Livello 1
10
59.163854
20
-2.914997
11
59.268860
21
-2.823117
0
LINE
8
Livello 1
10
59.268860
20
-2.823117
11
59.314072
21
-2.671442
0
LINE
8
Livello 1
10
59.314072
20
-2.671442
11
59.540100
21
-2.671440
0
LINE
8
Livello 1
10
59.540100
20
-2.671440
11
59.540100
21
-4.628640
0
LINE
8
Livello 1
10
59.540100
20
-4.628640
11
59.983500
21
-4.628640
0
LINE
8
Livello 1
10
59.983500
20
-4.628640
11
59.983500
21
-4.850320
0
LINE
8
Livello 1
10
62.025300
20
-4.245080
11
61.805079
21
-4.713233
0
LINE
8
Livello 1
10
61.805079
20
-4.713233
11
61.253798
21
-4.899909
0
LINE
8
Livello 1
10
61.253798
20
-4.899909
11
60.690850
21
-4.717608
0
LINE
8
Livello 1
10
60.690850
20
-4.717608
11
60.482296
21
-4.250914
0
LINE
8
Livello 1
10
60.482296
20
-4.250914
11
60.587300
21
-3.924228
0
LINE
8
Livello 1
10
60.587300
20
-3.924228
11
60.883359
21
-3.690881
0
LINE
8
Livello 1
10
60.883359
20
-3.690881
11
60.883300
21
-3.682130
0
LINE
8
Livello 1
10
60.883300
20
-3.682130
11
60.623701
21
-3.477951
0
LINE
8
Livello 1
10
60.623701
20
-3.477951
11
60.540572
21
-3.200851
0
LINE
8
Livello 1
10
60.540572
20
-3.200851
11
60.741833
21
-2.792493
0
LINE
8
Livello 1
10
60.741833
20
-2.792493
11
61.253740
21
-2.629151
0
LINE
8
Livello 1
10
61.253740
20
-2.629151
11
61.772935
21
-2.785203
0
LINE
8
Livello 1
10
61.772935
20
-2.785203
11
61.966906
21
-3.181891
0
LINE
8
Livello 1
10
61.966906
20
-3.181891
11
61.875025
21
-3.472117
0
LINE
8
Livello 1
10
61.875025
20
-3.472117
11
61.605218
21
-3.693797
0
LINE
8
Livello 1
10
61.605218
20
-3.693797
11
61.605200
21
-3.702550
0
LINE
8
Livello 1
10
61.605200
20
-3.702550
11
61.917301
21
-3.918396
0
LINE
8
Livello 1
10
61.917301
20
-3.918396
11
62.025223
21
-4.245082
0
LINE
8
Livello 1
10
62.025223
20
-4.245082
11
62.025300
21
-4.245080
0
LINE
8
Livello 1
10
61.679600
20
-3.184810
11
61.558549
21
-2.936878
0
LINE
8
Livello 1
10
61.558549
20
-2.936878
11
61.252282
21
-2.843539
0
LINE
8
Livello 1
10
61.252282
20
-2.843539
11
60.950389
21
-2.931045
0
LINE
8
Livello 1
10
60.950389
20
-2.931045
11
60.833716
21
-3.167307
0
LINE
8
Livello 1
10
60.833716
20
-3.167307
11
60.892054
21
-3.349611
0
LINE
8
Livello 1
10
60.892054
20
-3.349611
11
61.071440
21
-3.485244
0
LINE
8
Livello 1
10
61.071440
20
-3.485244
11
61.226030
21
-3.553787
0
LINE
8
Livello 1
10
61.226030
20
-3.553787
11
61.424376
21
-3.623792
0
LINE
8
Livello 1
10
61.424376
20
-3.623792
11
61.624181
21
-3.423990
0
LINE
8
Livello 1
10
61.624181
20
-3.423990
11
61.679601
21
-3.184810
0
LINE
8
Livello 1
10
61.679601
20
-3.184810
11
61.679600
21
-3.184810
0
LINE
8
Livello 1
10
61.724809
20
-4.272790
11
61.665015
21
-4.058403
0
LINE
8
Livello 1
10
61.665015
20
-4.058403
11
61.434586
21
-3.895061
0
LINE
8
Livello 1
10
61.434586
20
-3.895061
11
61.284368
21
-3.835267
0
LINE
8
Livello 1
10
61.284368
20
-3.835267
11
61.067063
21
-3.757969
0
LINE
8
Livello 1
10
61.067063
20
-3.757969
11
60.855594
21
-3.951940
0
LINE
8
Livello 1
10
60.855594
20
-3.951940
11
60.776840
21
-4.229040
0
LINE
8
Livello 1
10
60.776840
20
-4.229040
11
60.912473
21
-4.554267
0
LINE
8
Livello 1
10
60.912473
20
-4.554267
11
61.256657
21
-4.682607
0
LINE
8
Livello 1
10
61.256657
20
-4.682607
11
61.596469
21
-4.573226
0
LINE
8
Livello 1
10
61.596469
20
-4.573226
11
61.724809
21
-4.272789
0
LINE
8
Livello 1
10
61.724809
20
-4.272789
11
61.724809
21
-4.272790
0
LINE
8
Livello 1
10
59.983500
20
-10.673400
11
58.808000
21
-10.673400
0
LINE
8
Livello 1
10
58.808000
20
-10.673400
11
58.808000
21
-10.451800
0
LINE
8
Livello 1
10
58.808000
20
-10.451800
11
59.260100
21
-10.451800
0
LINE
8
Livello 1
10
59.260100
20
-10.451800
11
59.260100
21
-8.996270
0
LINE
8
Livello 1
10
59.260100
20
-8.996270
11
58.808000
21
-8.996270
0
LINE
8
Livello 1
10
58.808000
20
-8.996270
11
58.808000
21
-8.797920
0
LINE
8
Livello 1
10
58.808000
20
-8.797920
11
59.004887
21
-8.783329
0
LINE
8
Livello 1
10
59.004887
20
-8.783329
11
59.163854
21
-8.738120
0
LINE
8
Livello 1
10
59.163854
20
-8.738120
11
59.268860
21
-8.646240
0
LINE
8
Livello 1
10
59.268860
20
-8.646240
11
59.314072
21
-8.494563
0
LINE
8
Livello 1
10
59.314072
20
-8.494563
11
59.540100
21
-8.494560
0
LINE
8
Livello 1
10
59.540100
20
-8.494560
11
59.540100
21
-10.451800
0
LINE
8
Livello 1
10
59.540100
20
-10.451800
11
59.983500
21
-10.451800
0
LINE
8
Livello 1
10
59.983500
20
-10.451800
11
59.983500
21
-10.673400
0
LINE
8
Livello 1
10
62.025300
20
-10.068200
11
61.805079
21
-10.536353
0
LINE
8
Livello 1
10
61.805079
20
-10.536353
11
61.253798
21
-10.723032
0
LINE
8
Livello 1
10
61.253798
20
-10.723032
11
60.690850
21
-10.540728
0
LINE
8
Livello 1
10
60.690850
20
-10.540728
11
60.482296
21
-10.074034
0
LINE
8
Livello 1
10
60.482296
20
-10.074034
11
60.587300
21
-9.747348
0
LINE
8
Livello 1
10
60.587300
20
-9.747348
11
60.883359
21
-9.514001
0
LINE
8
Livello 1
10
60.883359
20
-9.514001
11
60.883300
21
-9.505250
0
LINE
8
Livello 1
10
60.883300
20
-9.505250
11
60.623701
21
-9.301071
0
LINE
8
Livello 1
10
60.623701
20
-9.301071
11
60.540572
21
-9.023971
0
LINE
8
Livello 1
10
60.540572
20
-9.023971
11
60.741833
21
-8.615616
0
LINE
8
Livello 1
10
60.741833
20
-8.615616
11
61.253740
21
-8.452272
0
LINE
8
Livello 1
10
61.253740
20
-8.452272
11
61.772935
21
-8.608324
0
LINE
8
Livello 1
10
61.772935
20
-8.608324
11
61.966906
21
-9.005012
0
LINE
8
Livello 1
10
61.966906
20
-9.005012
11
61.875025
21
-9.295238
0
LINE
8
Livello 1
10
61.875025
20
-9.295238
11
61.605218
21
-9.516918
0
LINE
8
Livello 1
10
61.605218
20
-9.516918
11
61.605200
21
-9.525670
0
LINE
8
Livello 1
10
61.605200
20
-9.525670
11
61.917301
21
-9.741513
0
LINE
8
Livello 1
10
61.917301
20
-9.741513
11
62.025223
21
-10.068199
0
LINE
8
Livello 1
10
62.025223
20
-10.068199
11
62.025300
21
-10.068200
0
LINE
8
Livello 1
10
61.679600
20
-9.007930
11
61.558549
21
-8.759998
0
LINE
8
Livello 1
10
61.558549
20
-8.759998
11
61.252282
21
-8.666659
0
LINE
8
Livello 1
10
61.252282
20
-8.666659
11
60.950389
21
-8.754164
0
LINE
8
Livello 1
10
60.950389
20
-8.754164
11
60.833716
21
-8.990429
0
LINE
8
Livello 1
10
60.833716
20
-8.990429
11
60.892054
21
-9.172731
0
LINE
8
Livello 1
10
60.892054
20
-9.172731
11
61.071440
21
-9.308364
0
LINE
8
Livello 1
10
61.071440
20
-9.308364
11
61.226030
21
-9.376910
0
LINE
8
Livello 1
10
61.226030
20
-9.376910
11
61.424376
21
-9.446912
0
LINE
8
Livello 1
10
61.424376
20
-9.446912
11
61.624181
21
-9.247110
0
LINE
8
Livello 1
10
61.624181
20
-9.247110
11
61.679601
21
-9.007930
0
LINE
8
Livello 1
10
61.679601
20
-9.007930
11
61.679600
21
-9.007930
0
LINE
8
Livello 1
10
61.724809
20
-10.095910
11
61.665015
21
-9.881523
0
LINE
8
Livello 1
10
61.665015
20
-9.881523
11
61.434586
21
-9.718179
0
LINE
8
Livello 1
10
61.434586
20
-9.718179
11
61.284368
21
-9.658385
0
LINE
8
Livello 1
10
61.284368
20
-9.658385
11
61.067063
21
-9.581090
0
LINE
8
Livello 1
10
61.067063
20
-9.581090
11
60.855594
21
-9.775058
0
LINE
8
Livello 1
10
60.855594
20
-9.775058
11
60.776840
21
-10.052158
0
LINE
8
Livello 1
10
60.776840
20
-10.052158
11
60.912473
21
-10.377385
0
LINE
8
Livello 1
10
60.912473
20
-10.377385
11
61.256657
21
-10.505725
0
LINE
8
Livello 1
10
61.256657
20
-10.505725
11
61.596469
21
-10.396344
0
LINE
8
Livello 1
10
61.596469
20
-10.396344
11
61.724809
21
-10.095910
0
LINE
8
Livello 1
10
61.724809
20
-10.095910
11
61.724809
21
-10.095910
0
LINE
8
Livello 1
10
12.012100
20
-12.583500
11
15.630500
21
-12.583500
0
LINE
8
Livello 1
10
15.630500
20
-12.583500
11
16.000439
21
-12.657820
0
LINE
8
Livello 1
10
16.000439
20
-12.657820
11
16.301899
21
-12.860740
0
LINE
8
Livello 1
10
16.301899
20
-12.860740
11
16.504818
21
-13.162199
0
LINE
8
Livello 1
10
16.504818
20
-13.162199
11
16.579138
21
-13.532138
0
LINE
8
Livello 1
10
16.579138
20
-13.532138
11
16.579100
21
-17.150500
0
LINE
8
Livello 1
10
16.579100
20
-17.150500
11
16.504780
21
-17.520439
0
LINE
8
Livello 1
10
16.504780
20
-17.520439
11
16.301860
21
-17.821898
0
LINE
8
Livello 1
10
16.301860
20
-17.821898
11
16.000401
21
-18.024818
0
LINE
8
Livello 1
10
16.000401
20
-18.024818
11
15.630462
21
-18.099138
0
LINE
8
Livello 1
10
15.630462
20
-18.099138
11
12.012100
21
-18.099200
0
LINE
8
Livello 1
10
12.012100
20
-18.099200
11
11.642161
21
-18.024880
0
LINE
8
Livello 1
10
11.642161
20
-18.024880
11
11.340701
21
-17.821960
0
LINE
8
Livello 1
10
11.340701
20
-17.821960
11
11.137782
21
-17.520501
0
LINE
8
Livello 1
10
11.137782
20
-17.520501
11
11.063462
21
-17.150562
0
LINE
8
Livello 1
10
11.063462
20
-17.150562
11
11.063500
21
-13.532200
0
LINE
8
Livello 1
10
11.063500
20
-13.532200
11
11.137820
21
-13.162261
0
LINE
8
Livello 1
10
11.137820
20
-13.162261
11
11.340740
21
-12.860802
0
LINE
8
Livello 1
10
11.340740
20
-12.860802
11
11.642199
21
-12.657882
0
LINE
8
Livello 1
10
11.642199
20
-12.657882
11
12.012138
21
-12.583562
0
LINE
8
Livello 1
10
12.012138
20
-12.583562
11
12.012100
21
-12.583500
0
LINE
8
Livello 1
10
12.012100
20
-18.410300
11
15.630500
21
-18.410300
0
LINE
8
Livello 1
10
15.630500
20
-18.410300
11
16.000439
21
-18.484620
0
LINE
8
Livello 1
10
16.000439
20
-18.484620
11
16.301899
21
-18.687540
0
LINE
8
Livello 1
10
16.301899
20
-18.687540
11
16.504818
21
-18.988999
0
LINE
8
Livello 1
10
16.504818
20
-18.988999
11
16.579138
21
-19.358938
0
LINE
8
Livello 1
10
16.579138
20
-19.358938
11
16.579100
21
-22.977300
0
LINE
8
Livello 1
10
16.579100
20
-22.977300
11
16.504780
21
-23.347239
0
LINE
8
Livello 1
10
16.504780
20
-23.347239
11
16.301860
21
-23.648698
0
LINE
8
Livello 1
10
16.301860
20
-23.648698
11
16.000401
21
-23.851618
0
LINE
8
Livello 1
10
16.000401
20
-23.851618
11
15.630462
21
-23.925938
0
LINE
8
Livello 1
10
15.630462
20
-23.925938
11
12.012100
21
-23.925900
0
LINE
8
Livello 1
10
12.012100
20
-23.925900
11
11.642161
21
-23.851580
0
LINE
8
Livello 1
10
11.642161
20
-23.851580
11
11.340701
21
-23.648660
0
LINE
8
Livello 1
10
11.340701
20
-23.648660
11
11.137782
21
-23.347201
0
LINE
8
Livello 1
10
11.137782
20
-23.347201
11
11.063462
21
-22.977262
0
LINE
8
Livello 1
10
11.063462
20
-22.977262
11
11.063500
21
-19.358900
0
LINE
8
Livello 1
10
11.063500
20
-19.358900
11
11.137820
21
-18.988961
0
LINE
8
Livello 1
10
11.137820
20
-18.988961
11
11.340740
21
-18.687502
0
LINE
8
Livello 1
10
11.340740
20
-18.687502
11
11.642199
21
-18.484582
0
LINE
8
Livello 1
10
11.642199
20
-18.484582
11
12.012138
21
-18.410262
0
LINE
8
Livello 1
10
12.012138
20
-18.410262
11
12.012100
21
-18.410300
0
LINE
8
Livello 1
10
13.397600
20
-16.430800
11
12.222100
21
-16.430800
0
LINE
8
Livello 1
10
12.222100
20
-16.430800
11
12.222100
21
-16.209100
0
LINE
8
Livello 1
10
12.222100
20
-16.209100
11
12.674300
21
-16.209100
0
LINE
8
Livello 1
10
12.674300
20
-16.209100
11
12.674300
21
-14.753600
0
LINE
8
Livello 1
10
12.674300
20
-14.753600
11
12.222100
21
-14.753600
0
LINE
8
Livello 1
10
12.222100
20
-14.753600
11
12.222100
21
-14.555200
0
LINE
8
Livello 1
10
12.222100
20
-14.555200
11
12.418986
21
-14.540609
0
LINE
8
Livello 1
10
12.418986
20
-14.540609
11
12.577954
21
-14.495397
0
LINE
8
Livello 1
10
12.577954
20
-14.495397
11
12.682960
21
-14.403517
0
LINE
8
Livello 1
10
12.682960
20
-14.403517
11
12.728171
21
-14.251842
0
LINE
8
Livello 1
10
12.728171
20
-14.251842
11
12.954300
21
-14.251900
0
LINE
8
Livello 1
10
12.954300
20
-14.251900
11
12.954300
21
-16.209100
0
LINE
8
Livello 1
10
12.954300
20
-16.209100
11
13.397600
21
-16.209100
0
LINE
8
Livello 1
10
13.397600
20
-16.209100
11
13.397600
21
-16.430800
0
LINE
8
Livello 1
10
15.420500
20
-15.214400
11
15.354871
21
-15.730680
0
LINE
8
Livello 1
10
15.354871
20
-15.730680
11
15.159443
21
-16.125912
0
LINE
8
Livello 1
10
15.159443
20
-16.125912
11
14.826924
21
-16.382593
0
LINE
8
Livello 1
10
14.826924
20
-16.382593
11
14.357314
21
-16.473014
0
LINE
8
Livello 1
10
14.357314
20
-16.473014
11
14.214389
21
-16.464265
0
LINE
8
Livello 1
10
14.214389
20
-16.464265
11
14.094799
21
-16.439458
0
LINE
8
Livello 1
10
14.094799
20
-16.439458
11
14.094700
21
-16.160900
0
LINE
8
Livello 1
10
14.094700
20
-16.160900
11
14.109300
21
-16.160900
0
LINE
8
Livello 1
10
14.109300
20
-16.160900
11
14.228890
21
-16.203194
0
LINE
8
Livello 1
10
14.228890
20
-16.203194
11
14.400983
21
-16.222159
0
LINE
8
Livello 1
10
14.400983
20
-16.222159
11
14.905596
21
-16.029647
0
LINE
8
Livello 1
10
14.905596
20
-16.029647
11
15.118525
21
-15.495866
0
LINE
8
Livello 1
10
15.118525
20
-15.495866
11
14.863302
21
-15.612539
0
LINE
8
Livello 1
10
14.863302
20
-15.612539
11
14.602245
21
-15.647543
0
LINE
8
Livello 1
10
14.602245
20
-15.647543
11
14.358689
21
-15.621297
0
LINE
8
Livello 1
10
14.358689
20
-15.621297
11
14.141385
21
-15.519206
0
LINE
8
Livello 1
10
14.141385
20
-15.519206
11
13.947416
21
-15.293152
0
LINE
8
Livello 1
10
13.947416
20
-15.293152
11
13.883246
21
-14.965010
0
LINE
8
Livello 1
10
13.883246
20
-14.965010
11
14.102009
21
-14.423937
0
LINE
8
Livello 1
10
14.102009
20
-14.423937
11
14.635790
21
-14.215383
0
LINE
8
Livello 1
10
14.635790
20
-14.215383
11
14.927474
21
-14.264966
0
LINE
8
Livello 1
10
14.927474
20
-14.264966
11
15.162279
21
-14.410810
0
LINE
8
Livello 1
10
15.162279
20
-14.410810
11
15.353332
21
-14.722911
0
LINE
8
Livello 1
10
15.353332
20
-14.722911
11
15.420419
21
-15.214398
0
LINE
8
Livello 1
10
15.420419
20
-15.214398
11
15.420500
21
-15.214400
0
LINE
8
Livello 1
10
15.125899
20
-15.151687
11
15.079230
21
-14.788541
0
LINE
8
Livello 1
10
15.079230
20
-14.788541
11
14.950889
21
-14.575613
0
LINE
8
Livello 1
10
14.950889
20
-14.575613
11
14.803589
21
-14.482274
0
LINE
8
Livello 1
10
14.803589
20
-14.482274
11
14.632954
21
-14.453107
0
LINE
8
Livello 1
10
14.632954
20
-14.453107
11
14.300435
21
-14.584366
0
LINE
8
Livello 1
10
14.300435
20
-14.584366
11
14.179386
21
-14.953342
0
LINE
8
Livello 1
10
14.179386
20
-14.953342
11
14.218763
21
-15.179400
0
LINE
8
Livello 1
10
14.218763
20
-15.179400
11
14.351479
21
-15.332534
0
LINE
8
Livello 1
10
14.351479
20
-15.332534
11
14.495862
21
-15.393787
0
LINE
8
Livello 1
10
14.495862
20
-15.393787
11
14.670872
21
-15.408378
0
LINE
8
Livello 1
10
14.670872
20
-15.408378
11
14.901302
21
-15.377751
0
LINE
8
Livello 1
10
14.901302
20
-15.377751
11
15.120065
21
-15.288789
0
LINE
8
Livello 1
10
15.120065
20
-15.288789
11
15.122983
21
-15.228995
0
LINE
8
Livello 1
10
15.122983
20
-15.228995
11
15.125898
21
-15.151697
0
LINE
8
Livello 1
10
15.125898
20
-15.151697
11
15.125899
21
-15.151687
0
LINE
8
Livello 1
10
13.397600
20
-22.253900
11
12.222100
21
-22.253900
0
LINE
8
Livello 1
10
12.222100
20
-22.253900
11
12.222100
21
-22.032200
0
LINE
8
Livello 1
10
12.222100
20
-22.032200
11
12.674300
21
-22.032200
0
LINE
8
Livello 1
10
12.674300
20
-22.032200
11
12.674300
21
-20.576700
0
LINE
8
Livello 1
10
12.674300
20
-20.576700
11
12.222100
21
-20.576700
0
LINE
8
Livello 1
10
12.222100
20
-20.576700
11
12.222100
21
-20.378400
0
LINE
8
Livello 1
10
12.222100
20
-20.378400
11
12.418986
21
-20.363809
0
LINE
8
Livello 1
10
12.418986
20
-20.363809
11
12.577954
21
-20.318597
0
LINE
8
Livello 1
10
12.577954
20
-20.318597
11
12.682960
21
-20.226717
0
LINE
8
Livello 1
10
12.682960
20
-20.226717
11
12.728171
21
-20.075042
0
LINE
8
Livello 1
10
12.728171
20
-20.075042
11
12.954300
21
-20.075000
0
LINE
8
Livello 1
10
12.954300
20
-20.075000
11
12.954300
21
-22.032200
0
LINE
8
Livello 1
10
12.954300
20
-22.032200
11
13.397600
21
-22.032200
0
LINE
8
Livello 1
10
13.397600
20
-22.032200
11
13.397600
21
-22.253900
0
LINE
8
Livello 1
10
15.420500
20
-21.037600
11
15.354871
21
-21.553880
0
LINE
8
Livello 1
10
15.354871
20
-21.553880
11
15.159443
21
-21.949112
0
LINE
8
Livello 1
10
15.159443
20
-21.949112
11
14.826924
21
-22.205793
0
LINE
8
Livello 1
10
14.826924
20
-22.205793
11
14.357314
21
-22.296214
0
LINE
8
Livello 1
10
14.357314
20
-22.296214
11
14.214389
21
-22.287465
0
LINE
8
Livello 1
10
14.214389
20
-22.287465
11
14.094799
21
-22.262658
0
LINE
8
Livello 1
10
14.094799
20
-22.262658
11
14.094700
21
-21.984100
0
LINE
8
Livello 1
10
14.094700
20
-21.984100
11
14.109300
21
-21.984100
0
LINE
8
Livello 1
10
14.109300
20
-21.984100
11
14.228890
21
-22.026394
0
LINE
8
Livello 1
10
14.228890
20
-22.026394
11
14.400983
21
-22.045359
0
LINE
8
Livello 1
10
14.400983
20
-22.045359
11
14.905596
21
-21.852850
0
LINE
8
Livello 1
10
14.905596
20
-21.852850
11
15.118525
21
-21.319067
0
LINE
8
Livello 1
10
15.118525
20
-21.319067
11
14.863302
21
-21.435743
0
LINE
8
Livello 1
10
14.863302
20
-21.435743
11
14.602245
21
-21.470744
0
LINE
8
Livello 1
10
14.602245
20
-21.470744
11
14.358689
21
-21.444498
0
LINE
8
Livello 1
10
14.358689
20
-21.444498
11
14.141385
21
-21.342410
0
LINE
8
Livello 1
10
14.141385
20
-21.342410
11
13.947416
21
-21.116353
0
LINE
8
Livello 1
10
13.947416
20
-21.116353
11
13.883246
21
-20.788211
0
LINE
8
Livello 1
10
13.883246
20
-20.788211
11
14.102009
21
-20.247138
0
LINE
8
Livello 1
10
14.102009
20
-20.247138
11
14.635790
21
-20.038584
0
LINE
8
Livello 1
10
14.635790
20
-20.038584
11
14.927474
21
-20.088170
0
LINE
8
Livello 1
10
14.927474
20
-20.088170
11
15.162279
21
-20.234011
0
LINE
8
Livello 1
10
15.162279
20
-20.234011
11
15.353332
21
-20.546112
0
LINE
8
Livello 1
10
15.353332
20
-20.546112
11
15.420419
21
-21.037599
0
LINE
8
Livello 1
10
15.420419
20
-21.037599
11
15.420500
21
-21.037600
0
LINE
8
Livello 1
10
15.125899
20
-20.974887
11
15.079230
21
-20.611743
0
LINE
8
Livello 1
10
15.079230
20
-20.611743
11
14.950889
21
-20.398812
0
LINE
8
Livello 1
10
14.950889
20
-20.398812
11
14.803589
21
-20.305473
0
LINE
8
Livello 1
10
14.803589
20
-20.305473
11
14.632954
21
-20.276305
0
LINE
8
Livello 1
10
14.632954
20
-20.276305
11
14.300435
21
-20.407564
0
LINE
8
Livello 1
10
14.300435
20
-20.407564
11
14.179386
21
-20.776544
0
LINE
8
Livello 1
10
14.179386
20
-20.776544
11
14.218763
21
-21.002599
0
LINE
8
Livello 1
10
14.218763
20
-21.002599
11
14.351479
21
-21.155733
0
LINE
8
Livello 1
10
14.351479
20
-21.155733
11
14.495862
21
-21.216986
0
LINE
8
Livello 1
10
14.495862
20
-21.216986
11
14.670872
21
-21.231577
0
LINE
8
Livello 1
10
14.670872
20
-21.231577
11
14.901302
21
-21.200950
0
LINE
8
Livello 1
10
14.901302
20
-21.200950
11
15.120065
21
-21.111985
0
LINE
8
Livello 1
10
15.120065
20
-21.111985
11
15.122983
21
-21.052191
0
LINE
8
Livello 1
10
15.122983
20
-21.052191
11
15.125898
21
-20.974893
0
LINE
8
Livello 1
10
15.125898
20
-20.974893
11
15.125899
21
-20.974887
0
LINE
8
Livello 1
10
17.836900
20
-12.651800
11
21.455300
21
-12.651800
0
LINE
8
Livello 1
10
21.455300
20
-12.651800
11
21.825239
21
-12.726120
0
LINE
8
Livello 1
10
21.825239
20
-12.726120
11
22.126699
21
-12.929040
0
LINE
8
Livello 1
10
22.126699
20
-12.929040
11
22.329618
21
-13.230499
0
LINE
8
Livello 1
10
22.329618
20
-13.230499
11
22.403938
21
-13.600438
0
LINE
8
Livello 1
10
22.403938
20
-13.600438
11
22.403900
21
-17.218800
0
LINE
8
Livello 1
10
22.403900
20
-17.218800
11
22.329580
21
-17.588739
0
LINE
8
Livello 1
10
22.329580
20
-17.588739
11
22.126660
21
-17.890198
0
LINE
8
Livello 1
10
22.126660
20
-17.890198
11
21.825201
21
-18.093118
0
LINE
8
Livello 1
10
21.825201
20
-18.093118
11
21.455262
21
-18.167438
0
LINE
8
Livello 1
10
21.455262
20
-18.167438
11
17.836900
21
-18.167400
0
LINE
8
Livello 1
10
17.836900
20
-18.167400
11
17.466961
21
-18.093080
0
LINE
8
Livello 1
10
17.466961
20
-18.093080
11
17.165501
21
-17.890160
0
LINE
8
Livello 1
10
17.165501
20
-17.890160
11
16.962582
21
-17.588701
0
LINE
8
Livello 1
10
16.962582
20
-17.588701
11
16.888262
21
-17.218762
0
LINE
8
Livello 1
10
16.888262
20
-17.218762
11
16.888300
21
-13.600400
0
LINE
8
Livello 1
10
16.888300
20
-13.600400
11
16.962620
21
-13.230461
0
LINE
8
Livello 1
10
16.962620
20
-13.230461
11
17.165540
21
-12.929002
0
LINE
8
Livello 1
10
17.165540
20
-12.929002
11
17.466999
21
-12.726082
0
LINE
8
Livello 1
10
17.466999
20
-12.726082
11
17.836938
21
-12.651762
0
LINE
8
Livello 1
10
17.836938
20
-12.651762
11
17.836900
21
-12.651800
0
LINE
8
Livello 1
10
17.836900
20
-18.478600
11
21.455300
21
-18.478600
0
LINE
8
Livello 1
10
21.455300
20
-18.478600
11
21.825239
21
-18.552920
0
LINE
8
Livello 1
10
21.825239
20
-18.552920
11
22.126699
21
-18.755840
0
LINE
8
Livello 1
10
22.126699
20
-18.755840
11
22.329618
21
-19.057299
0
LINE
8
Livello 1
10
22.329618
20
-19.057299
11
22.403938
21
-19.427238
0
LINE
8
Livello 1
10
22.403938
20
-19.427238
11
22.403900
21
-23.045500
0
LINE
8
Livello 1
10
22.403900
20
-23.045500
11
22.329580
21
-23.415439
0
LINE
8
Livello 1
10
22.329580
20
-23.415439
11
22.126660
21
-23.716898
0
LINE
8
Livello 1
10
22.126660
20
-23.716898
11
21.825201
21
-23.919818
0
LINE
8
Livello 1
10
21.825201
20
-23.919818
11
21.455262
21
-23.994138
0
LINE
8
Livello 1
10
21.455262
20
-23.994138
11
17.836900
21
-23.994200
0
LINE
8
Livello 1
10
17.836900
20
-23.994200
11
17.466961
21
-23.919880
0
LINE
8
Livello 1
10
17.466961
20
-23.919880
11
17.165501
21
-23.716960
0
LINE
8
Livello 1
10
17.165501
20
-23.716960
11
16.962582
21
-23.415501
0
LINE
8
Livello 1
10
16.962582
20
-23.415501
11
16.888262
21
-23.045562
0
LINE
8
Livello 1
10
16.888262
20
-23.045562
11
16.888300
21
-19.427200
0
LINE
8
Livello 1
10
16.888300
20
-19.427200
11
16.962620
21
-19.057261
0
LINE
8
Livello 1
10
16.962620
20
-19.057261
11
17.165540
21
-18.755802
0
LINE
8
Livello 1
10
17.165540
20
-18.755802
11
17.466999
21
-18.552882
0
LINE
8
Livello 1
10
17.466999
20
-18.552882
11
17.836938
21
-18.478562
0
LINE
8
Livello 1
10
17.836938
20
-18.478562
11
17.836900
21
-18.478600
0
LINE
8
Livello 1
10
19.406900
20
-16.499000
11
17.936900
21
-16.499000
0
LINE
8
Livello 1
10
17.936900
20
-16.499000
11
17.936900
21
-16.194200
0
LINE
8
Livello 1
10
17.936900
20
-16.194200
11
18.243168
21
-15.931686
0
LINE
8
Livello 1
10
18.243168
20
-15.931686
11
18.530476
21
-15.670631
0
LINE
8
Livello 1
10
18.530476
20
-15.670631
11
18.914040
21
-15.240398
0
LINE
8
Livello 1
10
18.914040
20
-15.240398
11
19.017588
21
-14.894752
0
LINE
8
Livello 1
10
19.017588
20
-14.894752
11
18.905290
21
-14.630778
0
LINE
8
Livello 1
10
18.905290
20
-14.630778
11
18.594647
21
-14.534520
0
LINE
8
Livello 1
10
18.594647
20
-14.534520
11
18.307339
21
-14.581192
0
LINE
8
Livello 1
10
18.307339
20
-14.581192
11
18.005446
21
-14.724118
0
LINE
8
Livello 1
10
18.005446
20
-14.724118
11
17.990800
21
-14.724100
0
LINE
8
Livello 1
10
17.990800
20
-14.724100
11
17.990800
21
-14.417800
0
LINE
8
Livello 1
10
17.990800
20
-14.417800
11
18.266441
21
-14.324464
0
LINE
8
Livello 1
10
18.266441
20
-14.324464
11
18.601877
21
-14.282167
0
LINE
8
Livello 1
10
18.601877
20
-14.282167
11
19.125449
21
-14.444052
0
LINE
8
Livello 1
10
19.125449
20
-14.444052
11
19.315043
21
-14.880119
0
LINE
8
Livello 1
10
19.315043
20
-14.880119
11
19.282958
21
-15.112007
0
LINE
8
Livello 1
10
19.282958
20
-15.112007
11
19.191078
21
-15.314727
0
LINE
8
Livello 1
10
19.191078
20
-15.314727
11
19.056903
21
-15.492654
0
LINE
8
Livello 1
10
19.056903
20
-15.492654
11
18.871684
21
-15.686625
0
LINE
8
Livello 1
10
18.871684
20
-15.686625
11
18.549373
21
-15.984143
0
LINE
8
Livello 1
10
18.549373
20
-15.984143
11
18.238730
21
-16.249573
0
LINE
8
Livello 1
10
18.238730
20
-16.249573
11
19.406900
21
-16.249600
0
LINE
8
Livello 1
10
19.406900
20
-16.249600
11
19.406900
21
-16.499000
0
LINE
8
Livello 1
10
21.305800
20
-15.412500
11
21.122039
21
-16.271508
0
LINE
8
Livello 1
10
21.122039
20
-16.271508
11
20.889057
21
-16.476049
0
LINE
8
Livello 1
10
20.889057
20
-16.476049
11
20.554714
21
-16.544230
0
LINE
8
Livello 1
10
20.554714
20
-16.544230
11
20.216361
21
-16.474955
0
LINE
8
Livello 1
10
20.216361
20
-16.474955
11
19.983014
21
-16.267130
0
LINE
8
Livello 1
10
19.983014
20
-16.267130
11
19.803629
21
-15.415415
0
LINE
8
Livello 1
10
19.803629
20
-15.415415
11
19.985931
21
-14.560782
0
LINE
8
Livello 1
10
19.985931
20
-14.560782
11
20.219278
21
-14.352957
0
LINE
8
Livello 1
10
20.219278
20
-14.352957
11
20.554714
21
-14.283682
0
LINE
8
Livello 1
10
20.554714
20
-14.283682
11
20.892702
21
-14.354050
0
LINE
8
Livello 1
10
20.892702
20
-14.354050
11
21.124955
21
-14.565156
0
LINE
8
Livello 1
10
21.124955
20
-14.565156
11
21.305799
21
-15.412499
0
LINE
8
Livello 1
10
21.305799
20
-15.412499
11
21.305800
21
-15.412500
0
LINE
8
Livello 1
10
20.922236
20
-16.074621
11
20.990782
21
-15.797521
0
LINE
8
Livello 1
10
20.990782
20
-15.797521
11
21.009742
21
-15.412500
0
LINE
8
Livello 1
10
21.009742
20
-15.412500
11
20.990782
21
-15.027476
0
LINE
8
Livello 1
10
20.990782
20
-15.027476
11
20.920777
21
-14.750376
0
LINE
8
Livello 1
10
20.920777
20
-14.750376
11
20.780769
21
-14.581201
0
LINE
8
Livello 1
10
20.780769
20
-14.581201
11
20.554714
21
-14.524322
0
LINE
8
Livello 1
10
20.554714
20
-14.524322
11
20.327202
21
-14.581201
0
LINE
8
Livello 1
10
20.327202
20
-14.581201
11
20.185735
21
-14.753294
0
LINE
8
Livello 1
10
20.185735
20
-14.753294
11
20.117190
21
-15.034768
0
LINE
8
Livello 1
10
20.117190
20
-15.034768
11
20.099689
21
-15.415415
0
LINE
8
Livello 1
10
20.099689
20
-15.415415
11
20.115731
21
-15.796062
0
LINE
8
Livello 1
10
20.115731
20
-15.796062
11
20.184276
21
-16.070243
0
LINE
8
Livello 1
10
20.184276
20
-16.070243
11
20.319909
21
-16.243795
0
LINE
8
Livello 1
10
20.319909
20
-16.243795
11
20.554714
21
-16.303592
0
LINE
8
Livello 1
10
20.554714
20
-16.303592
11
20.782227
21
-16.246713
0
LINE
8
Livello 1
10
20.782227
20
-16.246713
11
20.922235
21
-16.074620
0
LINE
8
Livello 1
10
20.922235
20
-16.074620
11
20.922236
21
-16.074621
0
LINE
8
Livello 1
10
19.406900
20
-22.322100
11
17.936900
21
-22.322100
0
LINE
8
Livello 1
10
17.936900
20
-22.322100
11
17.936900
21
-22.017300
0
LINE
8
Livello 1
10
17.936900
20
-22.017300
11
18.243168
21
-21.754783
0
LINE
8
Livello 1
10
18.243168
20
-21.754783
11
18.530476
21
-21.493728
0
LINE
8
Livello 1
10
18.530476
20
-21.493728
11
18.914040
21
-21.063495
0
LINE
8
Livello 1
10
18.914040
20
-21.063495
11
19.017588
21
-20.717849
0
LINE
8
Livello 1
10
19.017588
20
-20.717849
11
18.905290
21
-20.453875
0
LINE
8
Livello 1
10
18.905290
20
-20.453875
11
18.594647
21
-20.357620
0
LINE
8
Livello 1
10
18.594647
20
-20.357620
11
18.307339
21
-20.404289
0
LINE
8
Livello 1
10
18.307339
20
-20.404289
11
18.005446
21
-20.547215
0
LINE
8
Livello 1
10
18.005446
20
-20.547215
11
17.990800
21
-20.547200
0
LINE
8
Livello 1
10
17.990800
20
-20.547200
11
17.990800
21
-20.241000
0
LINE
8
Livello 1
10
17.990800
20
-20.241000
11
18.266441
21
-20.147661
0
LINE
8
Livello 1
10
18.266441
20
-20.147661
11
18.601877
21
-20.105367
0
LINE
8
Livello 1
10
18.601877
20
-20.105367
11
19.125449
21
-20.267250
0
LINE
8
Livello 1
10
19.125449
20
-20.267250
11
19.315043
21
-20.703317
0
LINE
8
Livello 1
10
19.315043
20
-20.703317
11
19.282958
21
-20.935208
0
LINE
8
Livello 1
10
19.282958
20
-20.935208
11
19.191078
21
-21.137928
0
LINE
8
Livello 1
10
19.191078
20
-21.137928
11
19.056903
21
-21.315855
0
LINE
8
Livello 1
10
19.056903
20
-21.315855
11
18.871684
21
-21.509823
0
LINE
8
Livello 1
10
18.871684
20
-21.509823
11
18.549373
21
-21.807341
0
LINE
8
Livello 1
10
18.549373
20
-21.807341
11
18.238730
21
-22.072774
0
LINE
8
Livello 1
10
18.238730
20
-22.072774
11
19.406900
21
-22.072700
0
LINE
8
Livello 1
10
19.406900
20
-22.072700
11
19.406900
21
-22.322100
0
LINE
8
Livello 1
10
21.305800
20
-21.235600
11
21.122039
21
-22.094608
0
LINE
8
Livello 1
10
21.122039
20
-22.094608
11
20.889057
21
-22.299152
0
LINE
8
Livello 1
10
20.889057
20
-22.299152
11
20.554714
21
-22.367333
0
LINE
8
Livello 1
10
20.554714
20
-22.367333
11
20.216361
21
-22.298058
0
LINE
8
Livello 1
10
20.216361
20
-22.298058
11
19.983014
21
-22.090233
0
LINE
8
Livello 1
10
19.983014
20
-22.090233
11
19.803629
21
-21.238515
0
LINE
8
Livello 1
10
19.803629
20
-21.238515
11
19.985931
21
-20.383882
0
LINE
8
Livello 1
10
19.985931
20
-20.383882
11
20.219278
21
-20.176059
0
LINE
8
Livello 1
10
20.219278
20
-20.176059
11
20.554714
21
-20.106785
0
LINE
8
Livello 1
10
20.554714
20
-20.106785
11
20.892702
21
-20.177153
0
LINE
8
Livello 1
10
20.892702
20
-20.177153
11
21.124955
21
-20.388259
0
LINE
8
Livello 1
10
21.124955
20
-20.388259
11
21.305799
21
-21.235600
0
LINE
8
Livello 1
10
21.305799
20
-21.235600
11
21.305800
21
-21.235600
0
LINE
8
Livello 1
10
20.922236
20
-21.897721
11
20.990782
21
-21.620621
0
LINE
8
Livello 1
10
20.990782
20
-21.620621
11
21.009742
21
-21.235600
0
LINE
8
Livello 1
10
21.009742
20
-21.235600
11
20.990782
21
-20.850576
0
LINE
8
Livello 1
10
20.990782
20
-20.850576
11
20.920777
21
-20.573479
0
LINE
8
Livello 1
10
20.920777
20
-20.573479
11
20.780769
21
-20.404301
0
LINE
8
Livello 1
10
20.780769
20
-20.404301
11
20.554714
21
-20.347422
0
LINE
8
Livello 1
10
20.554714
20
-20.347422
11
20.327202
21
-20.404301
0
LINE
8
Livello 1
10
20.327202
20
-20.404301
11
20.185735
21
-20.576394
0
LINE
8
Livello 1
10
20.185735
20
-20.576394
11
20.117190
21
-20.857868
0
LINE
8
Livello 1
10
20.117190
20
-20.857868
11
20.099689
21
-21.238515
0
LINE
8
Livello 1
10
20.099689
20
-21.238515
11
20.115731
21
-21.619162
0
LINE
8
Livello 1
10
20.115731
20
-21.619162
11
20.184276
21
-21.893346
0
LINE
8
Livello 1
10
20.184276
20
-21.893346
11
20.319909
21
-22.066898
0
LINE
8
Livello 1
10
20.319909
20
-22.066898
11
20.554714
21
-22.126692
0
LINE
8
Livello 1
10
20.554714
20
-22.126692
11
20.782227
21
-22.069813
0
LINE
8
Livello 1
10
20.782227
20
-22.069813
11
20.922235
21
-21.897720
0
LINE
8
Livello 1
10
20.922235
20
-21.897720
11
20.922236
21
-21.897721
 0 
ENDSEC
 0 
EOF