999
"DXF R12 Output" (www.mydxf.blogspot.com)
 0 
SECTION
 2 
HEADER
 9 
$ACADVER
 1 
AC1009
 9 
$EXTMIN
 10 
 0 
 20 
 0 
 9 
$EXTMAX
 10 
 8.5 
 20 
 11 
 0 
ENDSEC
 0 
SECTION
 2 
ENTITIES
0
LINE
8
Layer 1
10
16.147400
20
-22.309200
11
16.191697
21
-22.407639
0
LINE
8
Layer 1
10
16.191697
20
-22.407639
11
16.235010
21
-22.521826
0
LINE
8
Layer 1
10
16.235010
20
-22.521826
11
16.266511
21
-22.652749
0
LINE
8
Layer 1
10
16.266511
20
-22.652749
11
16.280292
21
-22.807297
0
LINE
8
Layer 1
10
16.280292
20
-22.807297
11
16.235994
21
-23.097692
0
LINE
8
Layer 1
10
16.235994
20
-23.097692
11
16.095227
21
-23.324099
0
LINE
8
Layer 1
10
16.095227
20
-23.324099
11
15.857991
21
-23.471758
0
LINE
8
Layer 1
10
15.857991
20
-23.471758
11
15.522316
21
-23.524915
0
LINE
8
Layer 1
10
15.522316
20
-23.524915
11
15.198454
21
-23.473728
0
LINE
8
Layer 1
10
15.198454
20
-23.473728
11
14.957280
21
-23.326069
0
LINE
8
Layer 1
10
14.957280
20
-23.326069
11
14.811591
21
-23.100644
0
LINE
8
Layer 1
10
14.811591
20
-23.100644
11
14.761388
21
-22.806315
0
LINE
8
Layer 1
10
14.761388
20
-22.806315
11
14.789935
21
-22.571046
0
LINE
8
Layer 1
10
14.789935
20
-22.571046
11
14.890342
21
-22.309200
0
LINE
8
Layer 1
10
14.890342
20
-22.309200
11
15.121700
21
-22.309200
0
LINE
8
Layer 1
10
15.121700
20
-22.309200
11
15.121700
21
-22.324000
0
LINE
8
Layer 1
10
15.121700
20
-22.324000
11
14.974042
21
-22.564190
0
LINE
8
Layer 1
10
14.974042
20
-22.564190
11
14.927776
21
-22.819145
0
LINE
8
Layer 1
10
14.927776
20
-22.819145
11
14.964198
21
-23.019960
0
LINE
8
Layer 1
10
14.964198
20
-23.019960
11
15.075434
21
-23.178445
0
LINE
8
Layer 1
10
15.075434
20
-23.178445
11
15.262467
21
-23.284758
0
LINE
8
Layer 1
10
15.262467
20
-23.284758
11
15.522344
21
-23.322166
0
LINE
8
Layer 1
10
15.522344
20
-23.322166
11
15.788128
21
-23.280821
0
LINE
8
Layer 1
10
15.788128
20
-23.280821
11
15.969255
21
-23.172538
0
LINE
8
Layer 1
10
15.969255
20
-23.172538
11
16.077537
21
-23.012084
0
LINE
8
Layer 1
10
16.077537
20
-23.012084
11
16.111991
21
-22.817176
0
LINE
8
Layer 1
10
16.111991
20
-22.817176
11
16.063756
21
-22.553362
0
LINE
8
Layer 1
10
16.063756
20
-22.553362
11
15.919051
21
-22.323016
0
LINE
8
Layer 1
10
15.919051
20
-22.323016
11
15.919000
21
-22.309200
0
LINE
8
Layer 1
10
15.919000
20
-22.309200
11
16.147400
21
-22.309200
0
LINE
8
Layer 1
10
16.147400
20
-20.899600
11
16.191697
21
-20.998038
0
LINE
8
Layer 1
10
16.191697
20
-20.998038
11
16.235010
21
-21.112227
0
LINE
8
Layer 1
10
16.235010
20
-21.112227
11
16.266511
21
-21.243150
0
LINE
8
Layer 1
10
16.266511
20
-21.243150
11
16.280292
21
-21.397698
0
LINE
8
Layer 1
10
16.280292
20
-21.397698
11
16.235994
21
-21.688091
0
LINE
8
Layer 1
10
16.235994
20
-21.688091
11
16.095227
21
-21.914499
0
LINE
8
Layer 1
10
16.095227
20
-21.914499
11
15.857991
21
-22.062157
0
LINE
8
Layer 1
10
15.857991
20
-22.062157
11
15.522316
21
-22.115314
0
LINE
8
Layer 1
10
15.522316
20
-22.115314
11
15.198454
21
-22.064126
0
LINE
8
Layer 1
10
15.198454
20
-22.064126
11
14.957280
21
-21.916468
0
LINE
8
Layer 1
10
14.957280
20
-21.916468
11
14.811591
21
-21.691044
0
LINE
8
Layer 1
10
14.811591
20
-21.691044
11
14.761388
21
-21.396713
0
LINE
8
Layer 1
10
14.761388
20
-21.396713
11
14.789935
21
-21.161445
0
LINE
8
Layer 1
10
14.789935
20
-21.161445
11
14.890342
21
-20.899599
0
LINE
8
Layer 1
10
14.890342
20
-20.899599
11
15.121700
21
-20.899600
0
LINE
8
Layer 1
10
15.121700
20
-20.899600
11
15.121700
21
-20.914300
0
LINE
8
Layer 1
10
15.121700
20
-20.914300
11
14.974042
21
-21.154490
0
LINE
8
Layer 1
10
14.974042
20
-21.154490
11
14.927776
21
-21.409445
0
LINE
8
Layer 1
10
14.927776
20
-21.409445
11
14.964198
21
-21.610259
0
LINE
8
Layer 1
10
14.964198
20
-21.610259
11
15.075434
21
-21.768745
0
LINE
8
Layer 1
10
15.075434
20
-21.768745
11
15.262467
21
-21.875058
0
LINE
8
Layer 1
10
15.262467
20
-21.875058
11
15.522344
21
-21.912465
0
LINE
8
Layer 1
10
15.522344
20
-21.912465
11
15.788128
21
-21.871120
0
LINE
8
Layer 1
10
15.788128
20
-21.871120
11
15.969255
21
-21.762839
0
LINE
8
Layer 1
10
15.969255
20
-21.762839
11
16.077537
21
-21.602384
0
LINE
8
Layer 1
10
16.077537
20
-21.602384
11
16.111991
21
-21.407476
0
LINE
8
Layer 1
10
16.111991
20
-21.407476
11
16.063756
21
-21.143660
0
LINE
8
Layer 1
10
16.063756
20
-21.143660
11
15.919051
21
-20.913314
0
LINE
8
Layer 1
10
15.919051
20
-20.913314
11
15.919000
21
-20.899600
0
LINE
8
Layer 1
10
15.919000
20
-20.899600
11
16.147400
21
-20.899600
0
LINE
8
Layer 1
10
14.788000
20
-18.916000
11
16.253750
21
-19.296957
0
LINE
8
Layer 1
10
16.253750
20
-19.296957
11
16.253700
21
-19.516500
0
LINE
8
Layer 1
10
16.253700
20
-19.516500
11
15.037000
21
-19.824612
0
LINE
8
Layer 1
10
15.037000
20
-19.824612
11
16.253700
21
-20.125833
0
LINE
8
Layer 1
10
16.253700
20
-20.125833
11
16.253700
21
-20.340400
0
LINE
8
Layer 1
10
16.253700
20
-20.340400
11
14.787950
21
-20.728247
0
LINE
8
Layer 1
10
14.787950
20
-20.728247
11
14.788000
21
-20.528500
0
LINE
8
Layer 1
10
14.788000
20
-20.528500
11
16.006670
21
-20.220388
0
LINE
8
Layer 1
10
16.006670
20
-20.220388
11
14.788000
21
-19.917198
0
LINE
8
Layer 1
10
14.788000
20
-19.917198
11
14.788000
21
-19.719300
0
LINE
8
Layer 1
10
14.788000
20
-19.719300
11
16.018480
21
-19.413157
0
LINE
8
Layer 1
10
16.018480
20
-19.413157
11
14.788000
21
-19.107014
0
LINE
8
Layer 1
10
14.788000
20
-19.107014
11
14.788000
21
-18.916000
0
LINE
8
Layer 1
10
12.550500
20
-19.298100
11
12.550500
21
-22.048600
0
LINE
8
Layer 1
10
12.550500
20
-22.048600
11
11.945300
21
-22.048600
0
LINE
8
Layer 1
10
11.945300
20
-22.048600
11
13.024090
21
-23.127390
0
LINE
8
Layer 1
10
13.024090
20
-23.127390
11
14.102880
21
-22.048600
0
LINE
8
Layer 1
10
14.102880
20
-22.048600
11
13.442700
21
-22.048600
0
LINE
8
Layer 1
10
13.442700
20
-22.048600
11
13.442700
21
-19.298100
0
LINE
8
Layer 1
10
13.442700
20
-19.298100
11
12.550500
21
-19.298100
0
LINE
8
Layer 1
10
12.011700
20
-18.462700
11
15.630100
21
-18.462700
0
LINE
8
Layer 1
10
15.630100
20
-18.462700
11
16.000039
21
-18.537020
0
LINE
8
Layer 1
10
16.000039
20
-18.537020
11
16.301499
21
-18.739940
0
LINE
8
Layer 1
10
16.301499
20
-18.739940
11
16.504418
21
-19.041399
0
LINE
8
Layer 1
10
16.504418
20
-19.041399
11
16.578738
21
-19.411338
0
LINE
8
Layer 1
10
16.578738
20
-19.411338
11
16.578700
21
-23.029700
0
LINE
8
Layer 1
10
16.578700
20
-23.029700
11
16.504380
21
-23.399639
0
LINE
8
Layer 1
10
16.504380
20
-23.399639
11
16.301460
21
-23.701098
0
LINE
8
Layer 1
10
16.301460
20
-23.701098
11
16.000001
21
-23.904018
0
LINE
8
Layer 1
10
16.000001
20
-23.904018
11
15.630062
21
-23.978338
0
LINE
8
Layer 1
10
15.630062
20
-23.978338
11
12.011700
21
-23.978300
0
LINE
8
Layer 1
10
12.011700
20
-23.978300
11
11.641761
21
-23.903980
0
LINE
8
Layer 1
10
11.641761
20
-23.903980
11
11.340301
21
-23.701060
0
LINE
8
Layer 1
10
11.340301
20
-23.701060
11
11.137382
21
-23.399601
0
LINE
8
Layer 1
10
11.137382
20
-23.399601
11
11.063062
21
-23.029662
0
LINE
8
Layer 1
10
11.063062
20
-23.029662
11
11.063100
21
-19.411300
0
LINE
8
Layer 1
10
11.063100
20
-19.411300
11
11.137420
21
-19.041361
0
LINE
8
Layer 1
10
11.137420
20
-19.041361
11
11.340340
21
-18.739902
0
LINE
8
Layer 1
10
11.340340
20
-18.739902
11
11.641799
21
-18.536982
0
LINE
8
Layer 1
10
11.641799
20
-18.536982
11
12.011738
21
-18.462662
0
LINE
8
Layer 1
10
12.011738
20
-18.462662
11
12.011700
21
-18.462700
 0 
ENDSEC
 0 
EOF